<?xml version="1.0" encoding="UTF-8"?>
<svg version="1.1" xmlns="http://www.w3.org/2000/svg" width="512" height="512">
<path d="M0 0 C4.01405609 3.01288017 5.13890734 6.61884605 6.359375 11.30078125 C6.65053192 12.3709272 6.65053192 12.3709272 6.9475708 13.46269226 C7.35429744 14.9746655 7.75395156 16.48855676 8.14697266 18.00415039 C8.73982274 20.27354212 9.36612492 22.53168907 9.99609375 24.79101562 C13.04220905 36.08662995 16.07751911 49.2257924 10.1796875 60.0859375 C9.79039062 60.71757813 9.40109375 61.34921875 9 62 C8.67257813 62.61101562 8.34515625 63.22203125 8.0078125 63.8515625 C4.53993621 69.5976057 -1.11650774 73.00360843 -7 76 C-7.99 76 -8.98 76 -10 76 C-9.67 77.0725 -9.34 78.145 -9 79.25 C-8 83 -8 83 -8 87 C-6.9275 87.061875 -5.855 87.12375 -4.75 87.1875 C-1 88 -1 88 1.25 89.9375 C2.84849049 92.73485836 3.3772052 94.49592904 4.0625 97.5625 C6.05354281 104.94365869 11.79283767 109.72011194 17 115 C18.347112 116.48763807 19.68281496 117.9858001 21 119.5 C21.515625 120.0878125 22.03125 120.675625 22.5625 121.28125 C24 123 24 123 25.5 125.21875 C25.995 125.8065625 26.49 126.394375 27 127 C27.99 127 28.98 127 30 127 C30.12955078 126.1646875 30.12955078 126.1646875 30.26171875 125.3125 C31.64607546 117.793792 34.26721061 112.554564 39.875 107.3125 C46.21248587 103.18118992 55.45397812 100 63 100 C62.9175 98.845 62.835 97.69 62.75 96.5 C62.79045618 90.76533592 64.74592427 86.60657717 68.47998047 82.28857422 C74.60190777 76.48215772 81.82148268 73.95156957 89.625 71.1875 C90.93548745 70.70799401 92.24538888 70.22688327 93.5546875 69.74414062 C97.02761011 68.47039145 100.50847855 67.22205901 104 66 C105.05767578 65.62834717 106.11535156 65.25669434 107.20507812 64.8737793 C113.91651279 62.77557658 122.29183041 62.71552456 128.6875 65.8125 C132 68 132 68 133.32421875 69.66796875 C135.01123066 71.29645812 135.01123066 71.29645812 137.8203125 70.96875 C138.91085937 70.8140625 140.00140625 70.659375 141.125 70.5 C147.23558769 69.88894123 151.50516883 70.26877743 157 73 C157.62519531 73.29519531 158.25039063 73.59039062 158.89453125 73.89453125 C168.45598219 79.45642101 171.81977375 94.1115539 175.375 103.875 C175.82488281 105.03902344 176.27476562 106.20304687 176.73828125 107.40234375 C180.10012023 116.62951881 182.38585408 126.98096581 178.5 136.4375 C175.9141187 140.74420159 172.10716385 144.15521119 168 147 C167.34 147 166.68 147 166 147 C166.33322266 147.71542969 166.66644531 148.43085938 167.00976562 149.16796875 C168.52224012 152.43829821 170.01121585 155.71882215 171.5 159 C172.28697266 160.68802734 172.28697266 160.68802734 173.08984375 162.41015625 C175.84189003 168.52184343 177.93492912 173.26851035 177 180 C176.34 180.99 175.68 181.98 175 183 C174.34 183 173.68 183 173 183 C173.99 185.64 174.98 188.28 176 191 C177.0725 191.061875 178.145 191.12375 179.25 191.1875 C183.87188463 192.18890834 184.40607112 193.14563866 187 197 C188.40596509 199.74716473 189.60263729 202.56466362 190.78515625 205.4140625 C191.12751816 206.22434906 191.46988007 207.03463562 191.82261658 207.86947632 C192.54329798 209.58077219 193.25998347 211.29375573 193.97290039 213.00830078 C195.05218009 215.60021649 196.14711816 218.18508336 197.24414062 220.76953125 C202.38139541 232.96089617 206.58085587 243.90076156 206.4375 257.3125 C206.42614014 258.81635254 206.42614014 258.81635254 206.41455078 260.35058594 C206.0284915 277.82751783 199.09962966 292.41563942 187 305 C175.36691888 315.47802342 160.74702017 320.2769872 146.28417969 325.57958984 C144.10151247 326.38365246 141.92602286 327.20549612 139.75 328.02734375 C138.3363437 328.54797927 136.92229472 329.06755009 135.5078125 329.5859375 C134.55287399 329.95143204 134.55287399 329.95143204 133.5786438 330.3243103 C128.80878464 332.03774727 124.99467124 332.37058296 120 332 C119.01 331.34 118.02 330.68 117 330 C117 329.34 117 328.68 117 328 C116.38511719 328.2165625 115.77023437 328.433125 115.13671875 328.65625 C113.92435547 329.07390625 113.92435547 329.07390625 112.6875 329.5 C111.88699219 329.7784375 111.08648437 330.056875 110.26171875 330.34375 C108 331 108 331 105 331 C105.33 332.010625 105.66 333.02125 106 334.0625 C107.04543382 337.83979737 107.51023313 341.06391589 107 345 C103.13109539 349.85936707 98.93831664 351.56150376 93.26953125 353.55078125 C92.43789963 353.85445114 91.60626801 354.15812103 90.74943542 354.47099304 C88.10833429 355.43130747 85.46060131 356.37168598 82.8125 357.3125 C81.02104416 357.96298161 79.23002318 358.61466217 77.43945312 359.26757812 C75.73736612 359.88388223 74.03490468 360.49915341 72.33203125 361.11328125 C71.52683548 361.40382889 70.72163971 361.69437653 69.89204407 361.99372864 C64.23747117 364 64.23747117 364 62 364 C62.00368717 364.57353085 62.00737434 365.14706169 62.01117325 365.73797226 C62.09950615 379.69249504 62.16544534 393.64696884 62.20724869 407.60171127 C62.22787505 414.3501362 62.25599668 421.09837453 62.30175781 427.84667969 C62.34588058 434.35648146 62.36912335 440.86616199 62.37950897 447.37610626 C62.3869123 449.86248073 62.40136883 452.34884432 62.42292023 454.83513641 C62.4518643 458.31187575 62.45595964 461.78780843 62.45410156 465.26464844 C62.46848267 466.29755005 62.48286377 467.33045166 62.49768066 468.39465332 C62.45723799 475.36634746 62.45723799 475.36634746 60.09661865 478.63775635 C56.73358911 480.82282975 53.8674745 480.79251527 50 480 C47.5 478.25 47.5 478.25 46 476 C46 474.68 46 473.36 46 472 C32.8 472 19.6 472 6 472 C5.67 473.98 5.34 475.96 5 478 C1.32316242 480.45122505 -1.72717253 480.70497355 -6 480 C-8.5 478.25 -8.5 478.25 -10 476 C-10 474.68 -10 473.36 -10 472 C-25.84 472 -41.68 472 -58 472 C-58.33 473.98 -58.66 475.96 -59 478 C-62.67683758 480.45122505 -65.72717253 480.70497355 -70 480 C-72.5 478.25 -72.5 478.25 -74 476 C-74 474.68 -74 473.36 -74 472 C-87.2 472 -100.4 472 -114 472 C-114.33 473.98 -114.66 475.96 -115 478 C-118.21436529 480.14291019 -120.17426609 480.30025791 -123.96484375 480.4609375 C-127.12312739 479.74562566 -128.07302392 478.62198141 -130 476 C-130.61043529 472.69367557 -130.54611155 469.41666818 -130.51757812 466.0625 C-130.5245874 465.05396973 -130.53159668 464.04543945 -130.53881836 463.00634766 C-130.55643218 459.67061886 -130.5447631 456.33573752 -130.53125 453 C-130.53394393 450.68359209 -130.53782551 448.36718528 -130.54284668 446.05078125 C-130.54874634 441.19520302 -130.54016338 436.33991904 -130.52148438 431.484375 C-130.49869496 425.25635354 -130.51181548 419.02902155 -130.53577423 412.80102539 C-130.55021932 408.01752515 -130.54563205 403.23418873 -130.53526306 398.45068359 C-130.53259223 396.15413329 -130.535878 393.85756817 -130.54518127 391.56103516 C-130.55532527 388.3527886 -130.53987483 385.14566294 -130.51757812 381.9375 C-130.52567505 380.98568848 -130.53377197 380.03387695 -130.54211426 379.05322266 C-130.45989214 372.67631012 -130.45989214 372.67631012 -128.21765137 369.37890625 C-126 368 -126 368 -122 368 C-122 362.72 -122 357.44 -122 352 C-123.98 351.67 -125.96 351.34 -128 351 C-130.20953922 347.68569117 -130.25568542 346.64457271 -130.2746582 342.78515625 C-130.28419022 341.71974609 -130.29372223 340.65433594 -130.30354309 339.55664062 C-130.30263168 338.40357422 -130.30172028 337.25050781 -130.30078125 336.0625 C-130.30506638 334.87205078 -130.3093515 333.68160156 -130.31376648 332.45507812 C-130.31951669 329.92985673 -130.32000498 327.40461876 -130.31567383 324.87939453 C-130.31253518 321.04299971 -130.3358911 317.20739198 -130.36132812 313.37109375 C-130.36360338 310.91406347 -130.36430357 308.45703112 -130.36328125 306 C-130.372491 304.86312744 -130.38170074 303.72625488 -130.39118958 302.55493164 C-130.33241694 292.26416176 -128.08253715 283.17118207 -123.4375 274 C-123.09380371 273.32138916 -122.75010742 272.64277832 -122.39599609 271.94360352 C-115.99549862 259.87739594 -105.60913129 250.3588808 -93 245 C-92.34 245 -91.68 245 -91 245 C-91.24167908 244.09370346 -91.48335815 243.18740692 -91.73236084 242.25364685 C-99.48824056 213.1690979 -107.24412028 184.08454895 -115 155 C-115.96164063 155.04157227 -116.92328125 155.08314453 -117.9140625 155.12597656 C-129.77361786 155.55878217 -137.93794131 153.41525262 -146.9296875 145.5859375 C-159.9196953 129.36068248 -164.03619715 101.56716768 -162.28759766 81.43066406 C-161.63234007 75.89268063 -160.31978048 71.05946187 -158 66 C-157.51402344 64.91847656 -157.02804688 63.83695313 -156.52734375 62.72265625 C-148.80627087 47.0797261 -136.33638574 35.97402819 -120 30 C-116.45587011 28.83059516 -112.89206079 27.74308712 -109.3125 26.6875 C-108.42135498 26.4205835 -107.53020996 26.15366699 -106.61206055 25.87866211 C-101.24304204 24.36042937 -96.58320099 23.52376737 -91 24 C-90.01 25.0209375 -90.01 25.0209375 -89 26.0625 C-88.34 26.701875 -87.68 27.34125 -87 28 C-84.1425178 27.85946809 -81.76418444 27.56411927 -79 27 C-77.66784319 26.80431595 -76.33454642 26.61616139 -75 26.4375 C-74.01 26.293125 -73.02 26.14875 -72 26 C-72.0825 25.0925 -72.165 24.185 -72.25 23.25 C-72 20 -72 20 -70.33935547 17.91308594 C-67.6632475 15.72460941 -65.65414459 15.01572245 -62.3203125 14.140625 C-61.17788086 13.83318359 -60.03544922 13.52574219 -58.85839844 13.20898438 C-57.01036621 12.73428711 -57.01036621 12.73428711 -55.125 12.25 C-53.17852832 11.73468505 -51.23205972 11.21935811 -49.2857666 10.70336914 C-47.24594447 10.16461357 -45.20455584 9.63208282 -43.16308594 9.09960938 C-39.00566851 8.00929131 -34.86594878 6.85967387 -30.7265625 5.703125 C-28.71696401 5.14711771 -26.70696085 4.59260712 -24.69671631 4.03894043 C-22.79232206 3.51171669 -20.8905083 2.97519993 -18.98876953 2.43847656 C-12.50553155 0.67588784 -6.72169387 -0.80984263 0 0 Z M40.0703125 175.71484375 C38.62978516 176.24948242 38.62978516 176.24948242 37.16015625 176.79492188 C35.65775391 177.36049805 35.65775391 177.36049805 34.125 177.9375 C32.14971506 178.6791926 30.17318914 179.41759038 28.1953125 180.15234375 C27.31891113 180.48226318 26.44250977 180.81218262 25.53955078 181.15209961 C23 182 23 182 20.25878906 182.45800781 C19.51338867 182.63686523 18.76798828 182.81572266 18 183 C16.53749108 185.5747099 16.53749108 185.5747099 15.625 188.8125 C10.36068286 203.70905067 1.95989043 215.24450532 -12 223 C-11.5724067 225.64604794 -11.10839452 228.27621473 -10.58984375 230.90625 C-10 234 -10 234 -9.69140625 236.78125 C-9.19489596 239.69879717 -8.68405256 241.55209337 -7 244 C-3.70749546 245.69876795 -0.44160346 246.69785823 3.109375 247.75 C14.06665678 251.04920149 22.8825934 258.17792448 31.2578125 265.6796875 C34.35758055 268.38551733 34.35758055 268.38551733 38 270 C41.22920658 269.2545841 41.22920658 269.2545841 44.70703125 267.7890625 C45.67246101 267.41858292 45.67246101 267.41858292 46.65739441 267.0406189 C48.71502824 266.24979019 50.76411025 265.43944612 52.8125 264.625 C54.85056731 263.81894378 56.88997453 263.0178321 58.93547058 262.23080444 C60.79992254 261.51298703 62.65762065 260.7776995 64.51489258 260.04150391 C68.31327156 258.90638063 71.06159261 258.52671744 75 259 C75.76078857 259.72413086 76.52157715 260.44826172 77.30541992 261.19433594 C79.76032093 263.26536459 79.76032093 263.26536459 82.12759399 262.7364502 C84.85040796 261.91151147 87.46773183 260.93746104 90.11328125 259.890625 C91.08283249 259.52982849 92.05238373 259.16903198 93.05131531 258.79730225 C96.1479631 257.63866271 99.22972633 256.44500373 102.3125 255.25 C104.40862239 254.4585953 106.50561945 253.6695031 108.60351562 252.8828125 C113.74612976 250.94860018 118.8769703 248.98546236 124 247 C122.0449087 239.98850704 120.08747177 232.97767199 118.12841797 225.96728516 C117.4625152 223.58332084 116.79714564 221.19920751 116.13232422 218.81494141 C115.17556312 215.38404472 114.21687345 211.9536919 113.2578125 208.5234375 C112.96190216 207.46071625 112.66599182 206.397995 112.3611145 205.30307007 C110.67096926 196.3387694 110.67096926 196.3387694 105.72265625 189.64453125 C104.40587891 189.23267578 104.40587891 189.23267578 103.0625 188.8125 C99.50833402 187.6661637 97.55309238 186.70551581 95 184 C94.34 184 93.68 184 93 184 C92.71125 183.2575 92.4225 182.515 92.125 181.75 C91.17697356 179.43260203 90.15154089 177.22082885 89 175 C86.15017797 175.9242666 83.33574482 176.8583492 80.57421875 178.0234375 C71.97977698 181.53086526 63.72174776 182.87489087 54.9375 179.1875 C52.68838004 178.09435231 51.16940295 177.17789433 49.44140625 175.36328125 C46.5501547 172.6287371 43.34962148 174.48140044 40.0703125 175.71484375 Z " fill="#39519C" transform="translate(178,16)"/>
<path d="M0 0 C1.05437759 -0.00902847 2.10875519 -0.01805695 3.19508362 -0.02735901 C5.41965934 -0.04180157 7.64427697 -0.05073324 9.86889648 -0.05444336 C13.21348995 -0.06626342 16.55618954 -0.11544682 19.90039062 -0.16601562 C42.52254529 -0.33749668 62.23510468 4.34840155 79.81640625 19.37109375 C80.82703125 20.13421875 81.83765625 20.89734375 82.87890625 21.68359375 C96.52948258 34.1724189 105.57504835 52.0575375 107.81640625 70.37109375 C107.89971509 72.49800903 107.93849414 74.62705455 107.93666077 76.75559998 C107.93872276 78.61273369 107.93872276 78.61273369 107.94082642 80.50738525 C107.93728825 81.86096216 107.93365346 83.21453882 107.92993164 84.56811523 C107.92964927 86.00755308 107.92980848 87.44699107 107.93037415 88.88642883 C107.93066017 92.7784649 107.92479499 96.67046993 107.91780019 100.56249881 C107.91153415 104.63574486 107.91096028 108.70899169 107.90977478 112.78224182 C107.90667104 120.48853002 107.89847057 128.19480398 107.88842529 135.90108591 C107.87723442 144.67737918 107.87174621 153.45367314 107.86672986 162.22997177 C107.85628714 180.27702214 107.83795357 198.32405299 107.81640625 216.37109375 C94.61640625 216.37109375 81.41640625 216.37109375 67.81640625 216.37109375 C67.48640625 218.35109375 67.15640625 220.33109375 66.81640625 222.37109375 C63.13956867 224.8223188 60.08923372 225.0760673 55.81640625 224.37109375 C53.31640625 222.62109375 53.31640625 222.62109375 51.81640625 220.37109375 C51.81640625 219.05109375 51.81640625 217.73109375 51.81640625 216.37109375 C35.97640625 216.37109375 20.13640625 216.37109375 3.81640625 216.37109375 C3.32140625 219.34109375 3.32140625 219.34109375 2.81640625 222.37109375 C-0.86043133 224.8223188 -3.91076628 225.0760673 -8.18359375 224.37109375 C-10.68359375 222.62109375 -10.68359375 222.62109375 -12.18359375 220.37109375 C-12.18359375 219.05109375 -12.18359375 217.73109375 -12.18359375 216.37109375 C-25.38359375 216.37109375 -38.58359375 216.37109375 -52.18359375 216.37109375 C-52.51359375 218.35109375 -52.84359375 220.33109375 -53.18359375 222.37109375 C-56.39795904 224.51400394 -58.35785984 224.67135166 -62.1484375 224.83203125 C-65.30672114 224.11671941 -66.25661767 222.99307516 -68.18359375 220.37109375 C-68.79402904 217.06476932 -68.7297053 213.78776193 -68.70117188 210.43359375 C-68.70818115 209.42506348 -68.71519043 208.4165332 -68.72241211 207.37744141 C-68.74002593 204.04171261 -68.72835685 200.70683127 -68.71484375 197.37109375 C-68.71753768 195.05468584 -68.72141926 192.73827903 -68.72644043 190.421875 C-68.73234009 185.56629677 -68.72375713 180.71101279 -68.70507812 175.85546875 C-68.68228871 169.62744729 -68.69540923 163.4001153 -68.71936798 157.17211914 C-68.73381307 152.3886189 -68.7292258 147.60528248 -68.71885681 142.82177734 C-68.71618598 140.52522704 -68.71947175 138.22866192 -68.72877502 135.93212891 C-68.73891902 132.72388235 -68.72346858 129.51675669 -68.70117188 126.30859375 C-68.7092688 125.35678223 -68.71736572 124.4049707 -68.72570801 123.42431641 C-68.64348589 117.04740387 -68.64348589 117.04740387 -66.40124512 113.75 C-64.18359375 112.37109375 -64.18359375 112.37109375 -60.18359375 112.37109375 C-60.18359375 107.09109375 -60.18359375 101.81109375 -60.18359375 96.37109375 C-58.20359375 95.38109375 -56.22359375 94.39109375 -54.18359375 93.37109375 C-53.22920291 90.50792122 -53.04913601 88.68105639 -53.02587891 85.70703125 C-53.01048569 84.28910278 -53.01048569 84.28910278 -52.99478149 82.8425293 C-52.98748016 81.82070557 -52.98017883 80.79888184 -52.97265625 79.74609375 C-52.94456615 77.57290941 -52.91590157 75.39973244 -52.88671875 73.2265625 C-52.84563275 69.80810929 -52.80873875 66.38979036 -52.78222656 62.97119141 C-52.75438919 59.6667037 -52.70849624 56.36283708 -52.66015625 53.05859375 C-52.65690338 52.05296387 -52.65365051 51.04733398 -52.65029907 50.01123047 C-52.41520655 36.23895333 -48.07149122 24.26186117 -38.62109375 14.12109375 C-27.29623352 3.41023197 -15.12610697 0.08187244 0 0 Z " fill="#4790D2" transform="translate(116.18359375,271.62890625)"/>
<path d="M0 0 C1.58264648 -0.02416992 1.58264648 -0.02416992 3.19726562 -0.04882812 C15.54469547 -0.05642654 26.62983134 2.84679866 35.82421875 11.421875 C45.82280417 22.14124569 47.87445844 32.84454969 47.86328125 47.16796875 C47.86756638 48.38776932 47.8718515 49.60756989 47.87626648 50.86433411 C47.88198903 53.43192933 47.88252542 55.99954076 47.87817383 58.56713867 C47.87500201 62.49751203 47.89854116 66.42714077 47.92382812 70.35742188 C47.9261001 72.85676989 47.92680509 75.35611992 47.92578125 77.85546875 C47.934991 79.02949753 47.94420074 80.20352631 47.95368958 81.41313171 C47.94746078 82.50809464 47.94123199 83.60305756 47.93481445 84.73120117 C47.93544388 85.69080246 47.9360733 86.65040375 47.9367218 87.63908386 C47.47858247 90.91200139 46.64002367 92.74214936 44.5625 95.3125 C41.875 96.125 41.875 96.125 39.5625 96.3125 C39.57138245 97.45620056 39.58026489 98.59990112 39.5894165 99.77825928 C39.67045391 110.54917582 39.73044218 121.32003063 39.76974869 132.09118271 C39.79063586 137.62895143 39.81897443 143.16647433 39.86425781 148.70410156 C39.9076748 154.04684113 39.93162859 159.38934405 39.94200897 164.7322464 C39.94940777 166.7720538 39.96385568 168.81184804 39.98542023 170.85155487 C40.01439887 173.70568473 40.0184583 176.55883297 40.01660156 179.41308594 C40.03098267 180.25897278 40.04536377 181.10485962 40.06018066 181.97637939 C40.01976603 187.70637507 40.01976603 187.70637507 37.65911865 190.83551025 C34.75316449 192.88264672 32.92272449 192.8835565 29.46875 192.703125 C26.48224312 192.09113588 25.22410366 190.80490549 23.5625 188.3125 C23.5625 186.9925 23.5625 185.6725 23.5625 184.3125 C7.7225 184.3125 -8.1175 184.3125 -24.4375 184.3125 C-24.51097656 177.10986328 -24.51097656 177.10986328 -24.5859375 169.76171875 C-24.62131783 166.72198396 -24.65727431 163.68227797 -24.6953125 160.64257812 C-24.75564963 155.81652928 -24.81383777 150.99052078 -24.859375 146.16430664 C-24.89621641 142.27384406 -24.94257301 138.38360116 -24.99556351 134.49332619 C-25.0141136 133.00819561 -25.02921931 131.52301793 -25.04084396 130.037817 C-25.05769622 127.95947083 -25.08672765 125.88162843 -25.11865234 123.8034668 C-25.13197601 122.61988083 -25.14529968 121.43629486 -25.1590271 120.21684265 C-25.22511663 117.11892509 -25.22511663 117.11892509 -27.4375 114.3125 C-29.0875 113.6525 -30.7375 112.9925 -32.4375 112.3125 C-32.4375 107.0325 -32.4375 101.7525 -32.4375 96.3125 C-34.17 96.374375 -35.9025 96.43625 -37.6875 96.5 C-40.98718941 96.61784605 -42.85453683 96.64859611 -45.734375 94.98828125 C-47.94086316 92.81721836 -48.39374403 91.03845257 -48.57794189 87.98243713 C-48.5847699 87.06598923 -48.5915979 86.14954132 -48.59863281 85.20532227 C-48.60824036 84.16316055 -48.6178479 83.12099884 -48.62774658 82.04725647 C-48.6341214 80.35517311 -48.6341214 80.35517311 -48.640625 78.62890625 C-48.64632507 77.46302475 -48.65202515 76.29714325 -48.65789795 75.09593201 C-48.66735471 72.621988 -48.6738846 70.14803135 -48.67773438 67.67407227 C-48.68738135 63.92115626 -48.7183747 60.16880169 -48.75 56.41601562 C-48.75653615 54.00781574 -48.76178421 51.59961194 -48.765625 49.19140625 C-48.7779718 48.08156876 -48.7903186 46.97173126 -48.80303955 45.82826233 C-48.76749067 33.14751268 -46.18150391 21.53108197 -37.328125 12.0546875 C-26.25836587 1.71018845 -14.78952493 -0.04500768 0 0 Z " fill="#39519D" transform="translate(144.4375,303.6875)"/>
<path d="M0 0 C0.31751221 0.80219971 0.63502441 1.60439941 0.9621582 2.4309082 C2.14689987 5.41339758 3.3385481 8.3930053 4.53491211 11.37084961 C5.05070916 12.65880376 5.56376048 13.94786114 6.07397461 15.23803711 C6.808961 17.09518382 7.55474622 18.94804526 8.30078125 20.80078125 C8.74591064 21.91622314 9.19104004 23.03166504 9.6496582 24.1809082 C10.87783528 26.74495824 11.77683613 28.27161995 14 30 C15.95214625 30.31478577 15.95214625 30.31478577 18 30.25 C20.15234375 30.421875 20.15234375 30.421875 22 31 C23.03485877 33.31808364 24.0355414 35.65175298 25 38 C28.44579041 38.67084112 28.44579041 38.67084112 32 39 C35.85345452 42.87571787 37.7254151 47.45090814 39.78515625 52.4140625 C40.12751816 53.22434906 40.46988007 54.03463562 40.82261658 54.86947632 C41.54329798 56.58077219 42.25998347 58.29375573 42.97290039 60.00830078 C44.05218009 62.60021649 45.14711816 65.18508336 46.24414062 67.76953125 C51.38139541 79.96089617 55.58085587 90.90076156 55.4375 104.3125 C55.42992676 105.31506836 55.42235352 106.31763672 55.41455078 107.35058594 C55.0284915 124.82751783 48.09962966 139.41563942 36 152 C24.36691888 162.47802342 9.74702017 167.2769872 -4.71582031 172.57958984 C-6.89848753 173.38365246 -9.07397714 174.20549612 -11.25 175.02734375 C-12.6636563 175.54797927 -14.07770528 176.06755009 -15.4921875 176.5859375 C-16.12881317 176.82960052 -16.76543884 177.07326355 -17.4213562 177.3243103 C-22.19121536 179.03774727 -26.00532876 179.37058296 -31 179 C-31.99 178.34 -32.98 177.68 -34 177 C-34 176.34 -34 175.68 -34 175 C-40.435 176.98 -40.435 176.98 -47 179 C-51.07594058 169.46089624 -54.76707911 159.80915955 -58.35864258 150.07910156 C-59.32183244 147.47476635 -60.29463043 144.87414058 -61.26757812 142.2734375 C-61.88340244 140.60959323 -62.49865802 138.94553832 -63.11328125 137.28125 C-63.40382889 136.50833618 -63.69437653 135.73542236 -63.99372864 134.93908691 C-65.29190447 131.39202481 -66 128.82196661 -66 125 C-64.93265625 124.60731934 -63.8653125 124.21463867 -62.765625 123.81005859 C-58.72475156 122.32325176 -54.68412057 120.83578696 -50.64355469 119.34814453 C-48.90989462 118.70995012 -47.17617279 118.07192344 -45.44238281 117.43408203 C-44.19086426 116.97364502 -44.19086426 116.97364502 -42.9140625 116.50390625 C-42.08084473 116.19737122 -41.24762695 115.89083618 -40.38916016 115.57501221 C-37.88336594 114.65152071 -35.37916812 113.72378874 -32.875 112.79589844 C-29.67390259 111.61125665 -26.46589697 110.44948492 -23.25 109.30566406 C-22.51023926 109.03863678 -21.77047852 108.7716095 -21.00830078 108.49649048 C-19.62412012 107.99692688 -18.23718718 107.50490028 -16.84716797 107.02182007 C-13.3473402 105.74709832 -12.13531209 105.20296814 -10 102 C-9.33229374 95.68121884 -11.18903273 90.416935 -13.125 84.5 C-16.56557325 73.61639299 -19.52028506 62.65674598 -22.33447266 51.59716797 C-23.3215505 47.74517452 -24.34516031 43.90324574 -25.375 40.0625 C-25.69210937 38.87785156 -26.00921875 37.69320312 -26.3359375 36.47265625 C-26.55507813 35.65667969 -26.77421875 34.84070313 -27 34 C-26.23300781 33.42765625 -25.46601563 32.8553125 -24.67578125 32.265625 C-20.21241423 28.48642372 -17.41324058 23.89761003 -16.78515625 17.97363281 C-16.57642834 13.30438949 -16.73960082 8.6640386 -17 4 C-14.91891315 3.32635339 -12.8350329 2.66133202 -10.75 2 C-9.58984375 1.62875 -8.4296875 1.2575 -7.234375 0.875 C-4 0 -4 0 0 0 Z " fill="#F9BA05" transform="translate(329,169)"/>
<path d="M0 0 C0.99 3.96 1.98 7.92 3 12 C1.35 12.99 -0.3 13.98 -2 15 C-3.59677083 20.96061657 -2.12579532 27.70826868 0.33203125 33.25390625 C3.70996477 38.81523473 8.16445934 43.55218091 12.52685547 48.35351562 C14.7559098 50.8448551 16.87623158 53.41862402 19 56 C17.88261822 58.84424453 17.05267961 59.96312427 14.5 61.75 C11.83923404 64.14468936 11.57042517 64.81675895 10.84375 68.140625 C10.5653125 69.41421875 10.286875 70.6878125 10 72 C8.94425781 72.27880005 8.94425781 72.27880005 7.8671875 72.56323242 C-8.90661557 76.97789514 -8.90661557 76.97789514 -25.5625 81.8125 C-26.80128906 82.19019531 -28.04007813 82.56789063 -29.31640625 82.95703125 C-32.13276751 83.70580538 -32.13276751 83.70580538 -33 86 C-34.00924717 93.78562105 -31.2519824 99.53698675 -27 106 C-20.0315693 114.20396806 -10.97433764 119.39143053 -0.25 120.8125 C0.8225 120.874375 1.895 120.93625 3 121 C0.01538355 128.2437448 -7.80761694 132.67073488 -14.625 135.875 C-16.40494283 136.6122985 -18.19595136 137.32382395 -20 138 C-20.65355469 138.24621094 -21.30710937 138.49242187 -21.98046875 138.74609375 C-33.82435319 142.40784907 -45.79029275 139.97789939 -56.65234375 134.71484375 C-71.55925992 126.4689533 -78.47933647 114.08484548 -83.08764648 98.26660156 C-84.01925594 94.90201455 -84.90545874 91.52646157 -85.7746582 88.14526367 C-86.31869949 86.03849281 -86.87873568 83.93637047 -87.43945312 81.83398438 C-87.79003358 80.48462693 -88.13967823 79.13502592 -88.48828125 77.78515625 C-88.80321533 76.57738525 -89.11814941 75.36961426 -89.44262695 74.12524414 C-90.28989062 69.37455547 -89.17110781 66.97154138 -86.5625 63.0625 C-81.26871841 55.11392644 -80.78525409 46.98996126 -82.40136719 37.69042969 C-83.43096144 32.74878184 -84.67906784 27.87093735 -86 23 C-79.70384136 20.47408547 -73.40484573 18.76094001 -66.8125 17.1875 C-58.90798998 15.25982184 -51.05980728 13.21908311 -43.25 10.9375 C-34.69456401 8.44158938 -26.09240839 6.22377191 -17.4375 4.1015625 C-12.89826264 2.98601987 -8.39317121 1.7636656 -3.8984375 0.48046875 C-2 0 -2 0 0 0 Z " fill="#F7DF0A" transform="translate(168,92)"/>
<path d="M0 0 C1.34894481 4.66237237 2.67993622 9.32939264 4 14 C4.23460937 14.81339844 4.46921875 15.62679687 4.7109375 16.46484375 C6.6438766 23.53828031 6.58865326 28.58835904 3.36328125 35.10546875 C-0.3250874 40.23113865 -4.95965547 41.89747373 -10.875 43.375 C-11.65166016 43.57996094 -12.42832031 43.78492188 -13.22851562 43.99609375 C-15.81604141 44.67605725 -18.40779905 45.33810153 -21 46 C-22.88832228 46.4910297 -24.77633652 46.98324535 -26.6640625 47.4765625 C-29.59820479 48.24304239 -32.532589 49.00844344 -35.46826172 49.76904297 C-42.04938227 51.47639367 -48.60414593 53.26088678 -55.14794922 55.10546875 C-60.29343188 56.54771964 -65.45780879 57.90249514 -70.63378906 59.23095703 C-78.5331022 61.2618774 -86.4291065 63.30769822 -94.25 65.625 C-95.49265625 65.98851563 -96.7353125 66.35203125 -98.015625 66.7265625 C-101.27273788 68.11637768 -102.56473098 68.76512445 -104 72 C-103.76951349 76.79293739 -102.4392982 81.27159086 -101.13256836 85.86425781 C-95.88787265 104.33767142 -95.88787265 104.33767142 -99.625 111.875 C-102.90747938 116.19405182 -105.29835168 118.52816283 -110.7734375 119.484375 C-116.39039378 119.85223612 -119.65628522 119.61552863 -124.17578125 116.09765625 C-128.64407795 111.90037516 -129.96556227 107.60472426 -131.3125 101.75 C-131.55049316 100.81196533 -131.78848633 99.87393066 -132.03369141 98.9074707 C-132.49859334 97.07383248 -132.95380817 95.237703 -133.39794922 93.39892578 C-134.09631028 90.61624296 -134.98051299 87.91256509 -135.875 85.1875 C-139.57504032 71.35639688 -136.78626098 57.87388614 -129.7890625 45.671875 C-119.40214582 30.15953655 -102.66071349 24.74470577 -85.26953125 20.87109375 C-82.32386402 19.74048481 -80.92644033 18.49881949 -79 16 C-78.19684346 12.85518209 -78.19684346 12.85518209 -78 10 C-76.08487728 9.49411853 -74.16783078 8.99551609 -72.25 8.5 C-70.64898437 8.08234375 -70.64898437 8.08234375 -69.015625 7.65625 C-66 7 -66 7 -62 7 C-61.896875 7.639375 -61.79375 8.27875 -61.6875 8.9375 C-61.460625 9.618125 -61.23375 10.29875 -61 11 C-54.88294433 13.03901856 -49.52174751 11.82107018 -43.5625 9.875 C-35.18608974 7.26742016 -26.72287345 5.12701156 -18.19946289 3.05615234 C-14.23816348 2.08746457 -10.38553932 1.13809714 -6.54296875 -0.23828125 C-3.85365308 -1.04383663 -2.58879548 -0.99569057 0 0 Z " fill="#4790D2" transform="translate(169,35)"/>
<path d="M0 0 C8.80288754 6.34043826 15.4186507 14.72648904 17.58203125 25.4921875 C18.92007691 37.90936834 17.85729499 48.88109459 10.39453125 59.2421875 C3.58210875 67.3274193 -4.72289951 73.55522767 -15.48876953 74.71533203 C-28.40007937 75.61089799 -39.16843729 74.04490094 -49.3515625 65.46484375 C-57.86959925 57.33325857 -62.42046403 48.68416257 -62.88867188 36.85693359 C-63.04371176 24.34263074 -60.22647828 14.71931927 -51.41796875 5.4921875 C-37.63784493 -7.66275112 -16.31305228 -10.17259803 0 0 Z " fill="#39519C" transform="translate(446.41796875,53.5078125)"/>
<path d="M0 0 C18.48 0 36.96 0 56 0 C56 29.04 56 58.08 56 88 C40.16 88 24.32 88 8 88 C7.92652344 80.79736328 7.92652344 80.79736328 7.8515625 73.44921875 C7.81618217 70.40948396 7.78022569 67.36977797 7.7421875 64.33007812 C7.68185037 59.50402928 7.62366223 54.67802078 7.578125 49.85180664 C7.54128359 45.96134406 7.49492699 42.07110116 7.44193649 38.18082619 C7.4233864 36.69569561 7.40828069 35.21051793 7.39665604 33.725317 C7.37980378 31.64697083 7.35077235 29.56912843 7.31884766 27.4909668 C7.30552399 26.30738083 7.29220032 25.12379486 7.2784729 23.90434265 C7.21238337 20.80642509 7.21238337 20.80642509 5 18 C2.525 17.01 2.525 17.01 0 16 C0 10.72 0 5.44 0 0 Z " fill="#FBBC04" transform="translate(112,400)"/>
<path d="M0 0 C1.18980469 -0.02449219 2.37960938 -0.04898437 3.60546875 -0.07421875 C12.19341814 -0.10268709 18.66545333 0.88910444 25.30859375 6.55859375 C25.92863281 7.30238281 26.54867187 8.04617188 27.1875 8.8125 C27.82558594 9.55371094 28.46367187 10.29492188 29.12109375 11.05859375 C33.19073538 16.84587789 33.01776381 22.07399843 32.9453125 28.92578125 C32.94329834 29.82502319 32.94128418 30.72426514 32.93920898 31.65075684 C32.92877811 34.99639009 32.90085556 38.34195039 32.875 41.6875 C32.83375 49.174375 32.7925 56.66125 32.75 64.375 C11.63 64.375 -9.49 64.375 -31.25 64.375 C-31.3325 56.95 -31.415 49.525 -31.5 41.875 C-31.53641602 39.54630859 -31.57283203 37.21761719 -31.61035156 34.81835938 C-31.62204501 32.95183227 -31.63223528 31.08529488 -31.640625 29.21875 C-31.66108887 28.26645508 -31.68155273 27.31416016 -31.70263672 26.33300781 C-31.70651609 18.84581657 -30.06969634 13.55283308 -25.06640625 7.9140625 C-23.95072266 6.96660156 -23.95072266 6.96660156 -22.8125 6 C-22.07128906 5.35289062 -21.33007812 4.70578125 -20.56640625 4.0390625 C-14.16782476 -0.55755759 -7.58581958 0.00811318 0 0 Z " fill="#57B6EA" transform="translate(143.25,319.625)"/>
<path d="M0 0 C6.2528357 -0.61302311 6.2528357 -0.61302311 9.55517578 2.09643555 C12.21125221 5.25089101 13.48921266 7.91624789 14.9296875 11.76953125 C15.16914093 12.40936447 15.40859436 13.04919769 15.65530396 13.7084198 C16.15444394 15.0547613 16.64653098 16.40373683 17.13183594 17.75512695 C17.87230214 19.80503127 18.64532887 21.84048548 19.421875 23.87695312 C24.12838901 36.54414847 24.12838901 36.54414847 22 43 C20.41796875 44.62890625 20.41796875 44.62890625 18.1875 45.5625 C17.29675781 45.93890625 16.40601563 46.3153125 15.48828125 46.703125 C14.33714844 47.13109375 13.18601562 47.5590625 12 48 C11.23993652 48.29326172 10.47987305 48.58652344 9.69677734 48.88867188 C7.0975384 49.88641025 4.4892803 50.85489783 1.875 51.8125 C1.02832764 52.12711182 0.18165527 52.44172363 -0.69067383 52.76586914 C-6.02526945 54.63731954 -10.34287132 55.49970275 -16 55 C-19.1875 53.125 -19.1875 53.125 -22 51 C-26.74804202 48.36219888 -31.70881266 48.48419243 -37 49 C-43.05115394 50.77361408 -47.99826475 54.13831739 -52 59 C-53.38283574 61.95607352 -53.38283574 61.95607352 -54.5 65.125 C-56.40163201 70.2193386 -58.02364051 72.65228426 -62.8828125 75.109375 C-63.58148438 75.40328125 -64.28015625 75.6971875 -65 76 C-65.69867188 76.31453125 -66.39734375 76.6290625 -67.1171875 76.953125 C-70.7464826 78.45962485 -74.10218219 79.84277142 -78 79 C-82.23896436 75.4037485 -84.06106014 72.14819233 -85.89453125 66.94140625 C-86.13161301 66.27463364 -86.36869476 65.60786102 -86.61296082 64.92088318 C-87.10783447 63.51892395 -87.59572263 62.11448106 -88.0769043 60.70776367 C-88.81130279 58.56599151 -89.57073812 56.43437389 -90.33398438 54.30273438 C-94.49308708 42.43332649 -94.49308708 42.43332649 -94 37 C-89.89598602 31.52798136 -83.0429318 29.69617625 -76.52734375 28.57421875 C-71.36700404 28.26442134 -68.43323576 29.4805175 -64.5078125 32.80859375 C-60.98112376 35.59522604 -56.7752624 35.45515329 -52.48193359 35.41064453 C-45.77000143 34.61906762 -39.53693276 32.17236715 -33.22875977 29.83032227 C-30.8156237 28.93865423 -28.39105182 28.08609871 -25.96289062 27.23632812 C-16.86876881 23.97419114 -8.58904166 20.96732229 -3.37890625 12.3046875 C-3.10949219 11.50289062 -2.84007812 10.70109375 -2.5625 9.875 C-2.13130859 8.66457031 -2.13130859 8.66457031 -1.69140625 7.4296875 C-0.990964 4.96824636 -0.46119921 2.51644616 0 0 Z " fill="#82D0F3" transform="translate(319,103)"/>
<path d="M0 0 C0.94286362 -0.01606293 1.88572723 -0.03212585 2.85716248 -0.04867554 C7.24851782 -0.09345446 11.63971808 -0.1343395 16.03125 -0.15722656 C18.32660179 -0.17361161 20.62190641 -0.20066277 22.91699219 -0.23925781 C47.01394588 -0.64212903 67.72821235 3.08264259 86.58227539 19.19287109 C87.59290039 19.95599609 88.60352539 20.71912109 89.64477539 21.50537109 C103.21374153 33.91953161 112.48049648 51.92951294 114.58227539 70.19287109 C114.71481527 73.5490287 114.70893569 76.90063455 114.69580078 80.2590332 C114.69594681 81.24516602 114.69609283 82.23129883 114.69624329 83.24731445 C114.69554979 86.48830407 114.68778385 89.72923534 114.67993164 92.97021484 C114.67806546 95.22465483 114.6766425 97.47909523 114.67564392 99.73353577 C114.67183451 105.65346404 114.66201771 111.57336759 114.65093994 117.49328613 C114.6406919 123.53962876 114.63613904 129.5859754 114.63110352 135.63232422 C114.620394 147.48585068 114.60333654 159.33935883 114.58227539 171.19287109 C107.76626014 168.62174725 103.89116418 163.64520423 100.58227539 157.19287109 C98.93690728 152.92564519 98.3321901 149.39521656 98.3269043 144.83056641 C98.31994537 143.58776917 98.31298645 142.34497192 98.30581665 141.06451416 C98.30649769 140.40663155 98.30717873 139.74874893 98.3078804 139.07093048 C98.30885619 136.98180901 98.29577407 134.89318765 98.27890015 132.80413818 C98.23299232 126.86686229 98.20811355 120.92963498 98.20141602 114.9921875 C98.1498291 83.41731249 94.66456219 56.83927154 71.56665039 33.01708984 C55.2338565 17.02591813 32.74731095 9.64272514 10.37133789 8.57177734 C3.37301907 7.87194546 -0.75362064 6.56365748 -5.41772461 1.19287109 C-3.8332442 -0.39160931 -2.19896102 0.03400078 0 0 Z " fill="#56B6EA" transform="translate(109.417724609375,271.80712890625)"/>
<path d="M0 0 C0.99 3.96 0.99 3.96 2 8 C0.78570312 8.27972656 -0.42859375 8.55945313 -1.6796875 8.84765625 C-15.20581871 11.99750383 -28.62565648 15.48145349 -42.01220703 19.17871094 C-44.7326944 19.92652263 -47.45732309 20.65644884 -50.18359375 21.3828125 C-51.68521621 21.79571161 -53.18654427 22.20968372 -54.6875 22.625 C-55.94949219 22.96789062 -57.21148437 23.31078125 -58.51171875 23.6640625 C-65.16113539 26.21064759 -69.89169755 29.88640604 -73.12109375 36.28125 C-75.97699802 45.11551386 -74.27786749 54.53217566 -71 63 C-70.40058594 62.5153125 -69.80117187 62.030625 -69.18359375 61.53125 C-66.20179702 59.44025838 -64.57354788 59.41656361 -61 60 C-58.125 61.6875 -58.125 61.6875 -56 65 C-55.26199921 70.43753416 -55.02504482 75.65483754 -57.15625 80.78125 C-59.48561092 83.58437925 -61.51131809 84.14721109 -65 85 C-64.71125 85.91523438 -64.4225 86.83046875 -64.125 87.7734375 C-63.75375 88.96195312 -63.3825 90.15046875 -63 91.375 C-62.62875 92.55835938 -62.2575 93.74171875 -61.875 94.9609375 C-61 98 -61 98 -61 100 C-59.783125 99.896875 -58.56625 99.79375 -57.3125 99.6875 C-54.03393678 99.72819139 -53.00272203 99.99837836 -50.0625 101.75 C-47.72311717 105.43630021 -47.93354111 106.537343 -48.0625 110.75 C-47.87841625 115.14635303 -47.47838096 116.53933685 -44.2578125 119.640625 C-33.21225717 127.43193901 -21.41626501 130.56721726 -8 131 C-10.53436298 133.98880048 -13.27779824 135.16279579 -16.875 136.625 C-17.90367187 137.05039063 -18.93234375 137.47578125 -19.9921875 137.9140625 C-31.27015253 141.98584728 -43.18079715 140.83026998 -54 136 C-67.46284479 129.47676593 -75.96280301 119.18038932 -80.91430664 105.30371094 C-82.77307569 99.6475691 -84.29297551 93.90902981 -85.7746582 88.14526367 C-86.31869949 86.03849281 -86.87873568 83.93637047 -87.43945312 81.83398438 C-87.79003358 80.48462693 -88.13967823 79.13502592 -88.48828125 77.78515625 C-88.80321533 76.57738525 -89.11814941 75.36961426 -89.44262695 74.12524414 C-90.28989062 69.37455547 -89.17110781 66.97154138 -86.5625 63.0625 C-81.26871841 55.11392644 -80.78525409 46.98996126 -82.40136719 37.69042969 C-83.43096144 32.74878184 -84.67906784 27.87093735 -86 23 C-79.70384136 20.47408547 -73.40484573 18.76094001 -66.8125 17.1875 C-58.90798998 15.25982184 -51.05980728 13.21908311 -43.25 10.9375 C-34.69456401 8.44158938 -26.09240839 6.22377191 -17.4375 4.1015625 C-12.89826264 2.98601987 -8.39317121 1.7636656 -3.8984375 0.48046875 C-2 0 -2 0 0 0 Z " fill="#F8BA06" transform="translate(168,92)"/>
<path d="M0 0 C3.840169 3.90035677 5.72174213 8.44205775 7.78515625 13.4140625 C8.12751816 14.22434906 8.46988007 15.03463562 8.82261658 15.86947632 C9.54329798 17.58077219 10.25998347 19.29375573 10.97290039 21.00830078 C12.05218009 23.60021649 13.14711816 26.18508336 14.24414062 28.76953125 C19.38139541 40.96089617 23.58085587 51.90076156 23.4375 65.3125 C23.42992676 66.31506836 23.42235352 67.31763672 23.41455078 68.35058594 C23.0284915 85.82751783 16.09962966 100.41563942 4 113 C-7.63308112 123.47802342 -22.25297983 128.2769872 -36.71582031 133.57958984 C-38.89848753 134.38365246 -41.07397714 135.20549612 -43.25 136.02734375 C-44.6636563 136.54797927 -46.07770528 137.06755009 -47.4921875 137.5859375 C-48.12881317 137.82960052 -48.76543884 138.07326355 -49.4213562 138.3243103 C-54.18539285 140.0356557 -58.01188932 140.33624001 -63 140 C-65.5 138.4375 -65.5 138.4375 -67 136 C-67.5625 132.5625 -67.5625 132.5625 -67 129 C-63.00755137 123.87482416 -58.38834861 122.28695006 -52.45703125 120.2578125 C-51.53339279 119.92635223 -50.60975433 119.59489197 -49.65812683 119.25338745 C-45.72998339 117.84395159 -41.79066672 116.46710431 -37.85131836 115.08935547 C-19.35945517 108.58709459 -6.20785 102.28725549 2.73828125 84.02734375 C5.27135963 77.94952411 6.36287442 72.3785032 6.375 65.8125 C6.39949219 65.13380859 6.42398438 64.45511719 6.44921875 63.75585938 C6.52197648 50.6473417 -0.98327524 37.77634841 -6.23828125 26.04345703 C-7.19810282 23.89389647 -8.139251 21.73690121 -9.078125 19.578125 C-9.37180969 18.93522522 -9.66549438 18.29232544 -9.96807861 17.62994385 C-12.04672795 12.79949162 -12.43631961 9.15787229 -12 4 C-8.53482322 -0.20021428 -5.29700772 -0.86678308 0 0 Z " fill="#3A519B" transform="translate(361,208)"/>
<path d="M0 0 C4.15136728 3.47799589 6.80800128 7.50845834 9.5 12.125 C9.88800781 12.78081055 10.27601563 13.43662109 10.67578125 14.11230469 C17.10647835 25.15095113 22.74847637 36.30370023 19.38671875 49.38671875 C16.67777525 55.4609577 11.57167966 60.20217467 5.671875 63.171875 C-0.80214965 65.17844404 -9.17277577 65.2761327 -15.4375 62.5 C-21.2850174 58.96633895 -25.93529469 53.51399984 -28 47 C-30.06102338 30.83723769 -21.02820216 16.54182737 -12.125 3.6875 C-8.90872179 -0.38014597 -5.03591137 -1.2158777 0 0 Z " fill="#39519D" transform="translate(308,416)"/>
<path d="M0 0 C4.15136728 3.47799589 6.80800128 7.50845834 9.5 12.125 C9.88800781 12.78081055 10.27601563 13.43662109 10.67578125 14.11230469 C17.10647835 25.15095113 22.74847637 36.30370023 19.38671875 49.38671875 C16.67777525 55.4609577 11.57167966 60.20217467 5.671875 63.171875 C-0.80214965 65.17844404 -9.17277577 65.2761327 -15.4375 62.5 C-21.2850174 58.96633895 -25.93529469 53.51399984 -28 47 C-30.06102338 30.83723769 -21.02820216 16.54182737 -12.125 3.6875 C-8.90872179 -0.38014597 -5.03591137 -1.2158777 0 0 Z " fill="#39519D" transform="translate(356,344)"/>
<path d="M0 0 C6.06343563 3.8805988 10.95667407 9.08758162 13.1875 16 C14.28146397 24.39553743 12.81376604 31.28126393 7.64453125 38.0078125 C2.96879743 43.12223073 -1.62616785 45.51037051 -8.484375 46.3125 C-14.78354151 46.5909162 -19.72160615 45.8531501 -24.8125 42 C-30.94998905 36.1959359 -34.90461478 30.73804388 -35.25 22.125 C-35.02618613 15.15233713 -33.53760694 10.85729496 -28.71875 5.8046875 C-20.54144386 -1.80020721 -10.69057161 -5.44614025 0 0 Z " fill="#F59A8C" transform="translate(434.8125,66)"/>
<path d="M0 0 C0.50806447 1.72681437 1.00610467 3.45657979 1.5 5.1875 C1.7784375 6.15042969 2.056875 7.11335938 2.34375 8.10546875 C2.96677608 10.85345876 3.12302812 13.19598416 3 16 C-1.64930842 18.06846783 -6.44836262 19.18478682 -11.375 20.375 C-13.19681761 20.82339467 -15.01843139 21.27261825 -16.83984375 21.72265625 C-18.17378174 22.05160889 -18.17378174 22.05160889 -19.53466797 22.38720703 C-22.67649508 23.16815237 -25.80859414 23.98132666 -28.9375 24.8125 C-30.11441406 25.12316406 -31.29132813 25.43382813 -32.50390625 25.75390625 C-36.28225356 26.77846644 -40.02773221 27.90251139 -43.77734375 29.02734375 C-76.20321207 38.6105949 -76.20321207 38.6105949 -88.8125 32.6875 C-91.69676459 30.98757061 -94.34384328 29.035392 -97 27 C-96.505 25.515 -96.505 25.515 -96 24 C-92.77971279 22.81877889 -89.51883027 22.01886875 -86.19921875 21.16015625 C-82.72844099 19.90152256 -81.17160572 18.96596981 -79 16 C-78.19684346 12.85518209 -78.19684346 12.85518209 -78 10 C-76.08487728 9.49411853 -74.16783078 8.99551609 -72.25 8.5 C-71.18265625 8.2215625 -70.1153125 7.943125 -69.015625 7.65625 C-66 7 -66 7 -62 7 C-61.8453125 7.9590625 -61.8453125 7.9590625 -61.6875 8.9375 C-61.460625 9.618125 -61.23375 10.29875 -61 11 C-54.88294433 13.03901856 -49.52174751 11.82107018 -43.5625 9.875 C-35.18608974 7.26742016 -26.72287345 5.12701156 -18.19946289 3.05615234 C-14.23816348 2.08746457 -10.38553932 1.13809714 -6.54296875 -0.23828125 C-3.85365308 -1.04383663 -2.58879548 -0.99569057 0 0 Z " fill="#56B5EA" transform="translate(169,35)"/>
<path d="M0 0 C0.76441406 0.0825 1.52882813 0.165 2.31640625 0.25 C5.2977733 1.30418504 5.91461519 2.19139535 7.4375 5 C7.89626953 8.278795 7.85734508 11.53943263 7.84155273 14.84570312 C7.84841599 15.84447983 7.85527924 16.84325653 7.86235046 17.87229919 C7.88065956 21.17542718 7.87677536 24.47808213 7.87109375 27.78125 C7.87565324 30.07523758 7.88095811 32.36922379 7.88697815 34.66320801 C7.8959171 39.47165475 7.89347672 44.27993547 7.88354492 49.08837891 C7.87204852 55.25584365 7.89227355 61.42273645 7.92146206 67.59012604 C7.93979057 72.3272873 7.93953836 77.06431061 7.93382454 81.80149841 C7.93367095 84.07572737 7.93974651 86.34996545 7.95211601 88.62416077 C7.9669623 91.80124013 7.95639554 94.97725137 7.93920898 98.15429688 C7.94887695 99.09675766 7.95854492 100.03921844 7.96850586 101.01023865 C7.89621853 107.37866743 7.89621853 107.37866743 5.53114319 110.58215332 C3.26983352 112.11354626 2.14328071 112.54227782 -0.5625 112.5 C-1.2225 112.5103125 -1.8825 112.520625 -2.5625 112.53125 C-5.65826952 111.70893622 -6.64824953 110.59725504 -8.5625 108 C-9.17322755 104.69376211 -9.10861118 101.41662473 -9.08007812 98.0625 C-9.0870874 97.05396973 -9.09409668 96.04543945 -9.10131836 95.00634766 C-9.11893218 91.67061886 -9.1072631 88.33573752 -9.09375 85 C-9.09644393 82.68359209 -9.10032551 80.36718528 -9.10534668 78.05078125 C-9.11124634 73.19520302 -9.10266338 68.33991904 -9.08398438 63.484375 C-9.06119496 57.25635354 -9.07431548 51.02902155 -9.09827423 44.80102539 C-9.11271932 40.01752515 -9.10813205 35.23418873 -9.09776306 30.45068359 C-9.09509223 28.15413329 -9.098378 25.85756817 -9.10768127 23.56103516 C-9.11782527 20.3527886 -9.10237483 17.14566294 -9.08007812 13.9375 C-9.08817505 12.98568848 -9.09627197 12.03387695 -9.10461426 11.05322266 C-9.0218176 4.63175068 -9.0218176 4.63175068 -6.67102051 1.3984375 C-4.13609998 -0.28280198 -2.9879817 -0.40446453 0 0 Z " fill="#39519D" transform="translate(56.5625,384)"/>
<path d="M0 0 C1.20333984 -0.02900391 2.40667969 -0.05800781 3.64648438 -0.08789062 C12.31453576 -0.14943332 18.78860153 0.77168436 25.49609375 6.49609375 C26.11613281 7.23988281 26.73617187 7.98367188 27.375 8.75 C28.01308594 9.49121094 28.65117187 10.23242188 29.30859375 10.99609375 C32.63707279 15.72939847 33.18169453 19.61964274 33.1328125 25.36328125 C33.1299826 26.02208786 33.12715271 26.68089447 33.12423706 27.35966492 C33.11310924 29.44830062 33.08801948 31.53649556 33.0625 33.625 C33.05246059 35.04751982 33.04333642 36.4700464 33.03515625 37.89257812 C33.01319447 41.36602681 32.97871646 44.83922033 32.9375 48.3125 C19.69990064 48.42310439 8.44870599 43.80580476 -1.3125 34.8125 C-8.06209808 27.71897336 -14.4305812 16.87024889 -15.2578125 6.9765625 C-15.19270833 5.08854167 -15.12760417 3.20052083 -15.0625 1.3125 C-10.68079485 -0.87835257 -4.81121229 0.03780418 0 0 Z " fill="#83D1F3" transform="translate(143.0625,319.6875)"/>
<path d="M0 0 C4.98499399 13.16888389 9.90293622 26.36282159 14.7454834 39.58474731 C15.28994054 41.06931428 15.83608246 42.55326445 16.38391113 44.03659058 C17.15778021 46.13338128 17.92536987 48.23236846 18.69140625 50.33203125 C19.13685791 51.54608643 19.58230957 52.7601416 20.04125977 54.01098633 C21 57 21 57 21 60 C17.04366575 61.5053109 13.08461633 63.00334593 9.125 64.5 C7.43310547 65.14388672 7.43310547 65.14388672 5.70703125 65.80078125 C4.63066406 66.20683594 3.55429688 66.61289062 2.4453125 67.03125 C1.45031738 67.40830078 0.45532227 67.78535156 -0.56982422 68.17382812 C-3 69 -3 69 -5 69 C-5.0093457 68.42258057 -5.01869141 67.84516113 -5.02832031 67.25024414 C-5.43238489 47.25102838 -7.96705979 28.56793091 -18.71484375 11.234375 C-20 9 -20 9 -20 6 C-17.23113877 4.99422987 -14.46015896 3.99519853 -11.6875 3 C-10.90181641 2.71382813 -10.11613281 2.42765625 -9.30664062 2.1328125 C-8.54931641 1.86210937 -7.79199219 1.59140625 -7.01171875 1.3125 C-6.31522217 1.06113281 -5.61872559 0.80976563 -4.90112305 0.55078125 C-3 0 -3 0 0 0 Z " fill="#4790D2" transform="translate(245,293)"/>
<path d="M0 0 C0.98613281 0.17208984 0.98613281 0.17208984 1.9921875 0.34765625 C2.65476562 0.43917969 3.31734375 0.53070313 4 0.625 C6.63076346 1.73124154 7.41380279 2.95163094 8.8671875 5.41015625 C9.25486755 8.55969238 9.25486755 8.55969238 9.27124023 12.31835938 C9.27810349 13.00502182 9.28496674 13.69168427 9.29203796 14.39915466 C9.31030338 16.66345028 9.30646958 18.92705295 9.30078125 21.19140625 C9.30534283 22.76794663 9.31064833 24.34448501 9.31666565 25.92102051 C9.32559592 29.22298264 9.32317427 32.5247029 9.31323242 35.82666016 C9.30173575 40.05713056 9.32196452 44.28676713 9.35114956 48.51712799 C9.36949811 51.77196551 9.36922197 55.02660263 9.36351204 58.28147888 C9.36335869 59.84119335 9.36941394 61.40092128 9.38180351 62.96058655 C9.39668938 65.14157411 9.38605714 67.32101388 9.36889648 69.50195312 C9.36873032 70.74231323 9.36856415 71.98267334 9.36839294 73.26062012 C8.77649265 76.98007566 7.82003837 78.15150263 4.8671875 80.41015625 C2.8671875 80.94140625 2.8671875 80.94140625 0.8671875 80.91015625 C0.2071875 80.92046875 -0.4528125 80.93078125 -1.1328125 80.94140625 C-4.10062376 80.15308139 -5.22890432 78.80215546 -7.1328125 76.41015625 C-7.6474762 73.26734924 -7.6474762 73.26734924 -7.66625977 69.51782227 C-7.67487534 68.83276611 -7.68349091 68.14770996 -7.69236755 67.44189453 C-7.7150301 65.18223042 -7.70828873 62.92380636 -7.69921875 60.6640625 C-7.70445461 59.0899163 -7.71073095 57.51577325 -7.71800232 55.94163513 C-7.72840723 52.64380116 -7.72384465 49.34639865 -7.70922852 46.04858398 C-7.69204773 41.82698997 -7.71552502 37.6067579 -7.75071812 33.3853159 C-7.77270422 30.13468953 -7.77124773 26.88438838 -7.7629528 23.63371086 C-7.76213379 22.07761072 -7.76898787 20.52148659 -7.78372383 18.96545601 C-7.80119244 16.78675389 -7.78661315 14.61048983 -7.76391602 12.43188477 C-7.76295425 11.19374527 -7.76199249 9.95560577 -7.76100159 8.6799469 C-6.92032306 4.30412624 -4.5943734 0.88353335 0 0 Z " fill="#39519C" transform="translate(111.1328125,415.58984375)"/>
<path d="M0 0 C3 1 3 1 3.93554688 2.62646484 C4.19400391 3.31434082 4.45246094 4.0022168 4.71875 4.7109375 C5.01136719 5.46117187 5.30398438 6.21140625 5.60546875 6.984375 C5.90066406 7.77328125 6.19585937 8.5621875 6.5 9.375 C7.08656278 10.92721418 7.68008234 12.47682113 8.28125 14.0234375 C8.53970703 14.71356934 8.79816406 15.40370117 9.06445312 16.11474609 C10.10706624 18.21575301 11.21276412 19.49116765 13 21 C15.04100238 21.57017808 15.04100238 21.57017808 17.1875 21.6875 C18.445625 21.790625 19.70375 21.89375 21 22 C22.485 26.455 22.485 26.455 24 31 C23.34 31.33 22.68 31.66 22 32 C19.61616539 33.95735768 19.61616539 33.95735768 19.66992188 37.60644531 C19.7973692 42.34305977 21.31879276 46.03982458 23.28125 50.296875 C23.61419067 51.0529303 23.94713135 51.8089856 24.29016113 52.58795166 C25.34636146 54.98169637 26.42169171 57.3661426 27.5 59.75 C28.57565392 62.14916546 29.64692962 64.55005506 30.70983887 66.95489502 C31.36954815 68.44540696 32.03697387 69.93253356 32.7130127 71.41571045 C34.26923841 74.91152988 35 77.10682238 35 81 C29.949226 81.63134675 27.16726559 80.27031344 23.02734375 77.6796875 C16.60459241 72.35833282 14.07557325 66.111167 11.0625 58.5 C10.18672777 56.34093083 9.31042825 54.18207548 8.43359375 52.0234375 C8.01577637 50.98541992 7.59795898 49.94740234 7.16748047 48.87792969 C5.70392726 45.27015778 4.17433049 41.69673899 2.625 38.125 C0.95421316 34.23911899 -0.70713666 30.3509302 -2.3125 26.4375 C-2.61800781 25.69371094 -2.92351562 24.94992188 -3.23828125 24.18359375 C-5.24732898 18.4243236 -6.41684144 12.19037023 -3.8828125 6.484375 C-2.65246434 4.27391899 -1.37573062 2.12255581 0 0 Z " fill="#F7DF0A" transform="translate(330,178)"/>
<path d="M0 0 C0 20.79 0 41.58 0 63 C-8.74872717 60.08375761 -14.91828708 56.42477038 -19.78125 48.44140625 C-22.44268129 43.11001343 -24 37.96058938 -24 32 C-23.030625 31.566875 -22.06125 31.13375 -21.0625 30.6875 C-17.72268235 29.2985139 -17.72268235 29.2985139 -17 26 C-16.82967735 23.8584021 -16.73382163 21.71036073 -16.6875 19.5625 C-16.65011719 18.42941406 -16.61273438 17.29632813 -16.57421875 16.12890625 C-17.08481199 12.37674862 -18.20153172 11.41836136 -21 9 C-21.0625 7 -21.0625 7 -20 5 C-13.62275035 -1.03253345 -9.19181491 0 0 0 Z " fill="#F8E009" transform="translate(168,408)"/>
<path d="M0 0 C0.14695312 0.81791016 0.14695312 0.81791016 0.296875 1.65234375 C2.10996345 10.79593635 5.12307839 19.61968575 12.88671875 25.40625 C19.00536613 29.41542085 24.72671637 31.12720596 32 32 C29.61289153 37.40609859 25.48044685 40.75977657 20.25 43.375 C13.14797774 44.74077351 6.26800589 45.11617589 -0.15234375 41.3984375 C-5.27396689 37.52202929 -9.99697997 32.1268848 -12 26 C-12.84725347 18.52298815 -12.51397002 12.19294667 -8 6 C-2.9527897 0 -2.9527897 0 0 0 Z " fill="#F56550" transform="translate(412,68)"/>
<path d="M0 0 C0.7425 -0.020625 1.485 -0.04125 2.25 -0.0625 C7.11040287 -0.09684914 10.41241961 0.56333882 14.625 3.25 C16.17086876 6.34173752 15.91859521 8.84429552 15.625 12.25 C14.11328125 14.4453125 14.11328125 14.4453125 11.625 16.25 C8.81476055 16.60054962 6.30664596 16.75398497 3.5 16.75 C-4.72380928 16.98329336 -11.62836263 18.02614924 -18.0625 23.5625 C-20.375 25.25 -20.375 25.25 -23.9375 25.3125 C-27.375 24.25 -27.375 24.25 -29.875 22.125 C-31.375 19.25 -31.375 19.25 -31.6875 15.875 C-29.47628198 9.76782641 -24.51912134 6.90453762 -18.91796875 3.95703125 C-12.50402259 1.01065797 -7.07498599 0.04862533 0 0 Z " fill="#3D5499" transform="translate(142.375,112.75)"/>
<path d="M0 0 C3.32274404 2.45594125 4.77618008 3.9256644 5.625 8 C4.78269408 12.04306844 3.10678947 13.31809307 0 16 C-3.22631836 17.57739258 -3.22631836 17.57739258 -6.83984375 18.89453125 C-7.48442032 19.13161301 -8.12899689 19.36869476 -8.79310608 19.61296082 C-10.14796193 20.10767303 -11.50532479 20.59556819 -12.86499023 21.0769043 C-14.93451678 21.81144117 -16.99360112 22.57086061 -19.05273438 23.33398438 C-30.63526344 27.5322254 -30.63526344 27.5322254 -36 27 C-39.32274404 24.54405875 -40.77618008 23.0743356 -41.625 19 C-40.78269408 14.95693156 -39.10678947 13.68190693 -36 11 C-32.77368164 9.42260742 -32.77368164 9.42260742 -29.16015625 8.10546875 C-28.51557968 7.86838699 -27.87100311 7.63130524 -27.20689392 7.38703918 C-25.85203807 6.89232697 -24.49467521 6.40443181 -23.13500977 5.9230957 C-21.06548322 5.18855883 -19.00639888 4.42913939 -16.94726562 3.66601562 C-5.36473656 -0.5322254 -5.36473656 -0.5322254 0 0 Z " fill="#F4DC0C" transform="translate(298,96)"/>
<path d="M0 0 C1.20505415 7.23032491 1.20505415 7.23032491 0.4453125 10.08203125 C-1.69234023 12.9187542 -4.51501334 13.76783761 -7.75 14.9375 C-8.41523682 15.18838379 -9.08047363 15.43926758 -9.76586914 15.69775391 C-11.15227848 16.21771884 -12.54108993 16.73132006 -13.93212891 17.23876953 C-15.90708233 17.96579489 -17.86592347 18.72550838 -19.82421875 19.49609375 C-31.67114584 24.01713728 -31.67114584 24.01713728 -38 23 C-41.1875 21.125 -41.1875 21.125 -44 19 C-47.89631522 17.07852948 -50.99135972 16.78002988 -55.3125 16.875 C-56.38113281 16.89304688 -57.44976562 16.91109375 -58.55078125 16.9296875 C-59.35902344 16.95289063 -60.16726563 16.97609375 -61 17 C-56.32648437 11.5475651 -50.35978687 7.60633043 -43.13330078 6.60131836 C-40.08242744 6.5004317 -37.05200463 6.51105639 -34 6.5625 C-23.92691646 6.47946775 -15.69626743 4.95916643 -6.3515625 1.27734375 C-3 0 -3 0 0 0 Z " fill="#57B6EA" transform="translate(341,135)"/>
<path d="M0 0 C2.19233335 2.70570124 3.54746191 5.06170855 4.61328125 8.37109375 C4.89236328 9.19287109 5.17144531 10.01464844 5.45898438 10.86132812 C6.02567806 12.57178342 6.58306364 14.28535216 7.13085938 16.00195312 C9.09096331 21.70366775 10.94325753 24.63997165 16 28 C21.93238965 29.97746322 26.63361148 29.06227984 32.203125 26.65625 C34 26 34 26 37 26 C36.62778195 27.75517456 36.22611862 29.50411808 35.8125 31.25 C35.48185547 32.71179688 35.48185547 32.71179688 35.14453125 34.203125 C33.31300368 38.67880328 30.27312111 40.35666752 26.0625 42.484375 C25.051875 42.90203125 24.04125 43.3196875 23 43.75 C21.989375 44.17796875 20.97875 44.6059375 19.9375 45.046875 C16.9234439 46.02484001 15.11550116 46.57916368 12 46 C7.75374456 42.41398422 5.93788453 39.14519535 4.10546875 33.94140625 C3.86838699 33.27463364 3.63130524 32.60786102 3.38703918 31.92088318 C2.89216553 30.51892395 2.40427737 29.11448106 1.9230957 27.70776367 C1.18869721 25.56599151 0.42926188 23.43437389 -0.33398438 21.30273438 C-4.52371227 9.34592714 -4.52371227 9.34592714 -4 4 C-2 1.625 -2 1.625 0 0 Z " fill="#57B5EA" transform="translate(229,136)"/>
<path d="M0 0 C2.61048189 1.02707484 5.19498624 2.08604768 7.76171875 3.21875 C22.43880455 9.64609866 36.16859597 9.9484805 52 8 C52.66 11.3 53.32 14.6 54 18 C37.5 18 21 18 4 18 C0 3 0 3 0 0 Z " fill="#E3972F" transform="translate(99,238)"/>
<path d="M0 0 C8.55418341 22.68997849 8.55418341 22.68997849 12.0625 32.3125 C12.44535156 33.36050781 12.82820313 34.40851563 13.22265625 35.48828125 C14 38 14 38 14 41 C8.6443612 40.66527258 4.7622966 37.58540743 1 34 C-3.90788524 28.41481992 -6.76578738 22.53890581 -9.375 15.625 C-9.72949219 14.72394531 -10.08398438 13.82289063 -10.44921875 12.89453125 C-13 6.32553089 -13 6.32553089 -13 4 C-11.39850114 3.32694982 -9.79368971 2.66177773 -8.1875 2 C-7.29417969 1.62875 -6.40085938 1.2575 -5.48046875 0.875 C-3 0 -3 0 0 0 Z " fill="#56B4E9" transform="translate(245,293)"/>
<path d="M0 0 C0.2361959 6.40353322 -0.176679 11.84629161 -2 18 C-17.61859356 18.91515197 -17.61859356 18.91515197 -23.48046875 14.4453125 C-25.5725118 12.4554515 -27.36777963 10.38032138 -29 8 C-23.11841802 5.6840422 -17.24424303 3.88506944 -11.125 2.3125 C-9.84496094 1.97508789 -9.84496094 1.97508789 -8.5390625 1.63085938 C-2.27339001 0 -2.27339001 0 0 0 Z " fill="#DD9434" transform="translate(182,179)"/>
<path d="M0 0 C0.33 0 0.66 0 1 0 C1.3125 2.6875 1.3125 2.6875 1 6 C-2.47756913 10.19913733 -5.76170603 12.04353787 -10.83984375 13.89453125 C-11.48442032 14.13161301 -12.12899689 14.36869476 -12.79310608 14.61296082 C-14.14796193 15.10767303 -15.50532479 15.59556819 -16.86499023 16.0769043 C-18.93451678 16.81144117 -20.99360112 17.57086061 -23.05273438 18.33398438 C-34.63526344 22.5322254 -34.63526344 22.5322254 -40 22 C-42.875 19.875 -42.875 19.875 -45 17 C-45.3125 13.6875 -45.3125 13.6875 -45 11 C-44.67 11.66 -44.34 12.32 -44 13 C-35.31739918 13.6744807 -28.85229641 11.9378645 -20.875 8.625 C-13.94266587 5.8205159 -7.36156024 3.39272761 0 2 C0 1.34 0 0.68 0 0 Z " fill="#F6BA07" transform="translate(302,101)"/>
<path d="M0 0 C3.80877903 1.17725897 5.13086812 1.84969131 7.4375 5.0625 C10.11508324 10.1732398 11.18779233 14.37404993 9.4375 20.0625 C7.3125 22.5625 7.3125 22.5625 4.4375 24.0625 C0.76897658 24.0625 -1.52339819 23.99026947 -4.3125 21.5 C-6.97086716 16.31618404 -9.61668729 10.99230351 -8.5625 5.0625 C-5.88937913 1.25532785 -4.71546409 0.08272744 0 0 Z " fill="#F3DC0D" transform="translate(287.5625,166.9375)"/>
<path d="M0 0 C2.875 1.6875 2.875 1.6875 5 5 C5.90290167 11.65251133 6.10885197 17.44096499 2 23 C-0.80915474 24.40457737 -2.88810534 24.24895157 -6 24 C-9.1359157 22.22015595 -9.84102736 21.47691793 -11 18 C-12.0494539 6.63591344 -12.0494539 6.63591344 -8.875 1.6875 C-5.44657382 -0.32483711 -3.9001417 -0.81252952 0 0 Z " fill="#3E5499" transform="translate(147,416)"/>
<path d="M0 0 C2.875 1.6875 2.875 1.6875 5 5 C5.90290167 11.65251133 6.10885197 17.44096499 2 23 C-0.80915474 24.40457737 -2.88810534 24.24895157 -6 24 C-9.1359157 22.22015595 -9.84102736 21.47691793 -11 18 C-12.0494539 6.63591344 -12.0494539 6.63591344 -8.875 1.6875 C-5.44657382 -0.32483711 -3.9001417 -0.81252952 0 0 Z " fill="#3E5398" transform="translate(347,264)"/>
<path d="M0 0 C2.875 1.6875 2.875 1.6875 5 5 C5.90290167 11.65251133 6.10885197 17.44096499 2 23 C-0.80915474 24.40457737 -2.88810534 24.24895157 -6 24 C-9.1359157 22.22015595 -9.84102736 21.47691793 -11 18 C-12.0494539 6.63591344 -12.0494539 6.63591344 -8.875 1.6875 C-5.44657382 -0.32483711 -3.9001417 -0.81252952 0 0 Z " fill="#3E5398" transform="translate(331,216)"/>
<path d="M0 0 C2.875 1.6875 2.875 1.6875 5 5 C5.90290167 11.65251133 6.10885197 17.44096499 2 23 C-0.80915474 24.40457737 -2.88810534 24.24895157 -6 24 C-9.1359157 22.22015595 -9.84102736 21.47691793 -11 18 C-12.0494539 6.63591344 -12.0494539 6.63591344 -8.875 1.6875 C-5.44657382 -0.32483711 -3.9001417 -0.81252952 0 0 Z " fill="#3E5498" transform="translate(115,192)"/>
<path d="M0 0 C2.875 1.6875 2.875 1.6875 5 5 C5.90290167 11.65251133 6.10885197 17.44096499 2 23 C-0.80915474 24.40457737 -2.88810534 24.24895157 -6 24 C-9.1359157 22.22015595 -9.84102736 21.47691793 -11 18 C-12.0494539 6.63591344 -12.0494539 6.63591344 -8.875 1.6875 C-5.44657382 -0.32483711 -3.9001417 -0.81252952 0 0 Z " fill="#3E5499" transform="translate(107,152)"/>
<path d="M0 0 C2.1875 1.5625 2.1875 1.5625 4 4 C4.53125 7.53125 4.53125 7.53125 4.5 11.5 C4.5103125 12.8096875 4.520625 14.119375 4.53125 15.46875 C4 19 4 19 2.1875 21.4375 C-1.01302234 23.72358739 -3.16633697 23.54766615 -7 23 C-9.1875 21.4375 -9.1875 21.4375 -11 19 C-11.53125 15.46875 -11.53125 15.46875 -11.5 11.5 C-11.51546875 9.53546875 -11.51546875 9.53546875 -11.53125 7.53125 C-11 4 -11 4 -9.1875 1.5625 C-5.98697766 -0.72358739 -3.83366303 -0.54766615 0 0 Z " fill="#3B529B" transform="translate(308,297)"/>
<path d="M0 0 C0.67467562 1.74692795 1.33944156 3.49768525 2 5.25 C2.556875 6.71179688 2.556875 6.71179688 3.125 8.203125 C4 11 4 11 4 15 C1.8765984 15.83739781 -0.2487728 16.66980283 -2.375 17.5 C-3.55835938 17.9640625 -4.74171875 18.428125 -5.9609375 18.90625 C-9 20 -9 20 -11 20 C-12.65 15.05 -14.3 10.1 -16 5 C-13.72135417 3.99088542 -11.44270833 2.98177083 -9.1640625 1.97265625 C-5.75342283 0.43971532 -3.78992753 -0.09973494 0 0 Z " fill="#478ED1" transform="translate(214,160)"/>
<path d="M0 0 C3 1 3 1 4.640625 3.6953125 C5.17171875 4.82710938 5.7028125 5.95890625 6.25 7.125 C7.06210937 8.79949219 7.06210937 8.79949219 7.890625 10.5078125 C9.16434293 14.51733303 9.02091808 16.94606316 8 21 C5.04414263 23.78198341 3.43644974 24 -0.625 24 C-4 23 -4 23 -6 20.875 C-7.28472193 17.18142444 -7.2484774 14.63132404 -6 11 C-4.16072562 7.23507648 -2.13228184 3.60596898 0 0 Z " fill="#56B3E7" transform="translate(303,440)"/>
<path d="M0 0 C3 1 3 1 4.640625 3.6953125 C5.17171875 4.82710938 5.7028125 5.95890625 6.25 7.125 C7.06210937 8.79949219 7.06210937 8.79949219 7.890625 10.5078125 C9.16434293 14.51733303 9.02091808 16.94606316 8 21 C5.04414263 23.78198341 3.43644974 24 -0.625 24 C-4 23 -4 23 -6 20.875 C-7.28472193 17.18142444 -7.2484774 14.63132404 -6 11 C-4.16072562 7.23507648 -2.13228184 3.60596898 0 0 Z " fill="#56B3E7" transform="translate(351,368)"/>
<path d="M0 0 C2.9375 2.0625 2.9375 2.0625 5 5 C5.62601538 8.96476406 5.65946039 10.99762021 3.4375 14.375 C0.17160572 16.55226285 -2.07983866 17 -6 17 C-8.875 15.5 -8.875 15.5 -11 13 C-12.1659741 8.99196403 -12.43240501 6.94717289 -10.6875 3.125 C-7.63595781 -0.71768276 -4.73184339 -0.48120441 0 0 Z " fill="#38509D" transform="translate(382,125)"/>
<path d="M0 0 C2.5 2.125 2.5 2.125 4 5 C4 8.92016134 3.55226285 11.17160572 1.375 14.4375 C-2.00237979 16.65946039 -4.03523594 16.62601538 -8 16 C-10.9375 13.9375 -10.9375 13.9375 -13 11 C-13.5625 7.4375 -13.5625 7.4375 -13 4 C-9.01693752 -1.04521248 -6.191012 -1.49438221 0 0 Z " fill="#38509D" transform="translate(474,35)"/>
<path d="M0 0 C2.4375 1.625 2.4375 1.625 4 4 C4.72125695 8.40768137 4.52001338 10.25937488 1.9375 13.9375 C-1.74062512 16.52001338 -3.59231863 16.72125695 -8 16 C-11.27522945 13.84524379 -11.90229594 12.3358577 -13 8.5625 C-13 5 -13 5 -11.1875 2.125 C-7.34864131 -1.60417702 -5.15505453 -1.15544326 0 0 Z " fill="#38509D" transform="translate(383,35)"/>
<path d="M0 0 C3.27522945 2.15475621 3.90229594 3.6641423 5 7.4375 C5 11 5 11 3.5 13.875 C0.25293011 16.6350094 -1.76307962 17 -6 17 C-8.94755732 15.65437601 -10.54277272 14.91445456 -12 12 C-12.49055907 7.66672826 -12.47744439 5.67999656 -9.9375 2.0625 C-6.25937488 -0.52001338 -4.40768137 -0.72125695 0 0 Z " fill="#38519D" transform="translate(473,125)"/>
<path d="M0 0 C2.5 1.5 2.5 1.5 4 4 C4.791013 8.02098277 4.62153384 10.96411027 2.5 14.5 C-1.03588973 16.62153384 -3.97901723 16.791013 -8 16 C-10.5 14.5 -10.5 14.5 -12 12 C-12.791013 7.97901723 -12.62153384 5.03588973 -10.5 1.5 C-6.96411027 -0.62153384 -4.02098277 -0.791013 0 0 Z " fill="#38519D" transform="translate(428,144)"/>
<path d="M0 0 C2.5 1.5 2.5 1.5 4 4 C4.791013 8.02098277 4.62153384 10.96411027 2.5 14.5 C-1.03588973 16.62153384 -3.97901723 16.791013 -8 16 C-10.5 14.5 -10.5 14.5 -12 12 C-12.791013 7.97901723 -12.62153384 5.03588973 -10.5 1.5 C-6.96411027 -0.62153384 -4.02098277 -0.791013 0 0 Z " fill="#38519D" transform="translate(492,80)"/>
<path d="M0 0 C2.5 1.5 2.5 1.5 4 4 C4.791013 8.02098277 4.62153384 10.96411027 2.5 14.5 C-1.03588973 16.62153384 -3.97901723 16.791013 -8 16 C-10.5 14.5 -10.5 14.5 -12 12 C-12.791013 7.97901723 -12.62153384 5.03588973 -10.5 1.5 C-6.96411027 -0.62153384 -4.02098277 -0.791013 0 0 Z " fill="#38519D" transform="translate(364,80)"/>
<path d="M0 0 C2.5 1.5 2.5 1.5 4 4 C4.791013 8.02098277 4.62153384 10.96411027 2.5 14.5 C-1.03588973 16.62153384 -3.97901723 16.791013 -8 16 C-10.5 14.5 -10.5 14.5 -12 12 C-12.791013 7.97901723 -12.62153384 5.03588973 -10.5 1.5 C-6.96411027 -0.62153384 -4.02098277 -0.791013 0 0 Z " fill="#38519D" transform="translate(428,16)"/>
<path d="M0 0 C-1.98648389 1.95317394 -3.98740265 3.88653764 -6 5.8125 C-6.55300781 6.35970703 -7.10601562 6.90691406 -7.67578125 7.47070312 C-12.4453691 11.99358816 -17.1534266 14.5902088 -23.75 15.29296875 C-24.4925 15.25816406 -25.235 15.22335937 -26 15.1875 C-27.1446875 15.14689453 -27.1446875 15.14689453 -28.3125 15.10546875 C-28.869375 15.07066406 -29.42625 15.03585937 -30 15 C-30.33 13.02 -30.66 11.04 -31 9 C-27.23328152 7.54349998 -23.4613638 6.1014975 -19.68408203 4.67260742 C-18.40035086 4.18468587 -17.11809874 3.69285403 -15.83740234 3.19702148 C-13.99451563 2.48431472 -12.14574639 1.78687815 -10.296875 1.08984375 C-9.18666992 0.66566162 -8.07646484 0.24147949 -6.93261719 -0.19555664 C-4.03231845 -0.99113476 -2.75189527 -1.08026527 0 0 Z " fill="#F2DB0D" transform="translate(294,285)"/>
<path d="M0 0 C0.66 0.33 1.32 0.66 2 1 C1.608125 1.53625 1.21625 2.0725 0.8125 2.625 C-0.31136136 5.1075223 -0.31136136 5.1075223 1.0625 8 C4.74562291 13.70289999 8.63652229 15.50271113 15 17 C13.63016497 20.16115776 13.0109362 20.9927092 10 23 C3.875 22.78125 3.875 22.78125 1.25 20.4375 C-1.46523527 15.14279121 -3.82836711 10.07469211 -3 4 C-1.5 1.625 -1.5 1.625 0 0 Z " fill="#F3B90A" transform="translate(282,168)"/>
<path d="M0 0 C0.66 3.3 1.32 6.6 2 10 C-7.24 10 -16.48 10 -26 10 C-26 9.67 -26 9.34 -26 9 C-25.09378906 8.76925781 -24.18757813 8.53851563 -23.25390625 8.30078125 C-16.61581002 6.52359781 -10.62431787 4.66973907 -4.76953125 0.953125 C-3 0 -3 0 0 0 Z " fill="#F8B907" transform="translate(151,246)"/>
<path d="M0 0 C3 1 3 1 4.38671875 3.109375 C4.81597656 3.98078125 5.24523437 4.8521875 5.6875 5.75 C6.34298828 7.04164063 6.34298828 7.04164063 7.01171875 8.359375 C8.04127438 11.11028252 8.19360389 13.09070905 8 16 C2.37082652 15.59791618 -0.00386479 13.71069698 -4 10 C-3.43454163 6.04179141 -2.19097652 3.3340947 0 0 Z " fill="#80CEF1" transform="translate(303,440)"/>
<path d="M0 0 C3 1 3 1 4.38671875 3.109375 C4.81597656 3.98078125 5.24523437 4.8521875 5.6875 5.75 C6.34298828 7.04164063 6.34298828 7.04164063 7.01171875 8.359375 C8.04127438 11.11028252 8.19360389 13.09070905 8 16 C2.37082652 15.59791618 -0.00386479 13.71069698 -4 10 C-3.43454163 6.04179141 -2.19097652 3.3340947 0 0 Z " fill="#80CEF1" transform="translate(351,368)"/>
<path d="M0 0 C0.45675183 5.70939788 -0.37894444 8.55127459 -4 13 C-4.99 13.66 -5.98 14.32 -7 15 C-8.32 11.37 -9.64 7.74 -11 4 C-2.25 0 -2.25 0 0 0 Z " fill="#55B2E7" transform="translate(209,161)"/>
</svg>
