<?xml version="1.0" encoding="UTF-8"?>
<svg version="1.1" xmlns="http://www.w3.org/2000/svg" width="512" height="512">
<path d="M0 0 C168.96 0 337.92 0 512 0 C512 168.96 512 337.92 512 512 C343.04 512 174.08 512 0 512 C0 343.04 0 174.08 0 0 Z " fill="#FCD742" transform="translate(0,0)"/>
<path d="M0 0 C2.83436737 1.24655931 4.5631542 3.18256204 6.70999748 5.39702243 C7.92622794 6.63645602 7.92622794 6.63645602 9.16702873 7.90092868 C26.46363457 26.24502991 41.49003343 46.50638202 51.82572013 69.50932711 C53.53358649 73.21450232 55.40922045 76.83080874 57.27249748 80.45952243 C63.89749748 93.51264516 63.89749748 93.51264516 63.89749748 99.83452243 C64.55749748 99.83452243 65.21749748 99.83452243 65.89749748 99.83452243 C67.64749748 106.39702243 67.64749748 106.39702243 68.19437248 108.46318454 C69.07464436 111.78292517 69.97145824 115.09395404 70.91312248 118.39702243 C73.03712968 125.94904803 74.67810026 133.49413416 76.08499748 141.20952243 C76.25193107 142.12483737 76.41886466 143.04015231 76.59085685 143.98320407 C78.20457545 153.12013856 79.05418838 162.00238258 79.06546623 171.28374118 C79.06879462 172.25882128 79.07212302 173.23390139 79.07555228 174.23852938 C79.08058726 176.29159979 79.08296168 178.34467828 79.08280021 180.39775485 C79.08497915 183.49595938 79.1031512 186.5938029 79.12210685 189.6919443 C79.1485676 199.24922013 79.0415399 208.50059719 77.35892326 217.93242282 C76.84561129 221.16085631 76.69388272 224.31920237 76.58499748 227.58452243 C76.07102484 235.54223665 73.95220925 242.8030338 71.63870841 250.39018649 C70.86346416 252.94675614 70.11659767 255.5104618 69.37405998 258.07670993 C66.9176063 266.50752079 64.35088468 274.75080889 60.89749748 282.83452243 C60.34846441 284.29009846 59.80648588 285.74836012 59.27249748 287.20952243 C58.26432865 289.86742205 57.24726153 292.34265033 55.89749748 294.83452243 C55.23749748 294.83452243 54.57749748 294.83452243 53.89749748 294.83452243 C53.79308341 295.70335055 53.68866935 296.57217868 53.58109123 297.46733493 C51.26713342 308.86522996 42.15395595 320.11918979 35.89749748 329.83452243 C35.26424552 330.82234713 35.26424552 330.82234713 34.6182006 331.83012789 C29.72228234 339.43615191 24.62920851 346.61207223 18.79984123 353.53764743 C15.80477273 357.15386976 13.40372019 360.97394381 11.02249748 365.02202243 C8.55435098 368.28868691 6.56692071 369.10773502 2.89749748 370.83452243 C1.00035711 372.3672851 -0.79731254 373.9709344 -2.58687752 375.62749118 C-4.10250252 376.83452243 -4.10250252 376.83452243 -6.10250252 376.83452243 C-6.10250252 377.49452243 -6.10250252 378.15452243 -6.10250252 378.83452243 C-6.76250252 378.83452243 -7.42250252 378.83452243 -8.10250252 378.83452243 C-8.10250252 379.49452243 -8.10250252 380.15452243 -8.10250252 380.83452243 C-8.96875252 381.22639743 -9.83500252 381.61827243 -10.72750252 382.02202243 C-13.36698918 383.43952452 -15.10368234 384.59323871 -17.29000252 386.52202243 C-20.10250252 388.83452243 -20.10250252 388.83452243 -23.10250252 388.83452243 C-23.37062752 389.43264743 -23.63875252 390.03077243 -23.91500252 390.64702243 C-26.15022184 394.76453169 -29.00002048 396.4204975 -33.07906502 398.66655368 C-36.11802516 400.42070248 -38.98542793 402.41575556 -41.88765877 404.38530368 C-43.89840899 405.70097974 -45.9292409 406.87668192 -48.04000252 408.02202243 C-51.2906465 409.64708881 -51.2906465 409.64708881 -53.10250252 412.83452243 C-54.09250252 412.83452243 -55.08250252 412.83452243 -56.10250252 412.83452243 C-56.10250252 413.49452243 -56.10250252 414.15452243 -56.10250252 414.83452243 C-59.19059948 416.59914926 -60.33562388 416.83452243 -64.10250252 416.83452243 C-64.10250252 417.82452243 -64.10250252 418.81452243 -64.10250252 419.83452243 C-81.8696781 426.83452243 -81.8696781 426.83452243 -87.10250252 426.83452243 C-87.10250252 427.49452243 -87.10250252 428.15452243 -87.10250252 428.83452243 C-104.71893607 436.38901491 -122.78258737 439.56272669 -141.76265877 441.52495211 C-143.94154226 441.81322676 -145.97391272 442.30237497 -148.10250252 442.83452243 C-150.18484844 442.90195591 -152.26918809 442.91966715 -154.35250252 442.89702243 C-155.43015877 442.88799899 -156.50781502 442.87897555 -157.61812752 442.86967868 C-158.43797127 442.85807711 -159.25781502 442.84647555 -160.10250252 442.83452243 C-158.82854362 440.79618818 -157.4918833 438.79600117 -156.10250252 436.83452243 C-155.44250252 436.83452243 -154.78250252 436.83452243 -154.10250252 436.83452243 C-153.89625252 436.17452243 -153.69000252 435.51452243 -153.47750252 434.83452243 C-152.2660207 432.19128935 -151.11213407 430.46205659 -149.33297127 428.21342868 C-146.0947362 423.95121116 -143.51008828 419.51308027 -141.04000252 414.77202243 C-140.39212777 413.53029269 -140.39212777 413.53029269 -139.73116463 412.2634775 C-130.47988145 394.0981156 -126.90113251 374.65078667 -126.85250252 354.39702243 C-126.85049844 353.72700198 -126.84849435 353.05698153 -126.84642953 352.36665744 C-126.83891892 342.12693701 -127.7700856 332.79118394 -130.10250252 322.83452243 C-130.3207531 321.02546765 -130.51321409 319.21286184 -130.66500252 317.39702243 C-130.80937752 316.22139743 -130.95375252 315.04577243 -131.10250252 313.83452243 C-131.76250252 313.50452243 -132.42250252 313.17452243 -133.10250252 312.83452243 C-134.3813712 309.5829707 -135.5269966 306.31529231 -136.62789315 303.00053805 C-138.39307926 297.98296177 -140.59755488 294.82154216 -144.10250252 290.83452243 C-145.18453377 288.63139743 -145.18453377 288.63139743 -145.91500252 286.58452243 C-149.92528483 277.00796829 -158.12447925 269.34638354 -165.10250252 261.83452243 C-165.67613534 261.20674899 -166.24976815 260.57897555 -166.84078377 259.93217868 C-171.70855663 254.8088187 -177.29678272 250.83190328 -183.10250252 246.83452243 C-183.92234627 246.24670993 -184.74219002 245.65889743 -185.58687752 245.05327243 C-196.15678494 237.83159655 -208.88617089 232.55009223 -221.29000252 229.40483493 C-223.10250252 228.83452243 -223.10250252 228.83452243 -226.10250252 226.83452243 C-225.52478104 223.15973269 -224.10806611 221.4630294 -221.5079543 218.85686415 C-220.3434721 217.67879699 -220.3434721 217.67879699 -219.15546501 216.4769305 C-218.29342486 215.62021828 -217.43138471 214.76350605 -216.54322213 213.88083285 C-215.63455779 212.96607741 -214.72589345 212.05132197 -213.78969383 211.10884666 C-211.26388523 208.56659604 -208.72874865 206.03382853 -206.19198638 203.50251418 C-203.45920923 200.7724019 -200.73504346 198.03372008 -198.00972909 195.29616183 C-192.66831904 189.93367433 -187.3186554 184.57949456 -181.96580674 179.22842737 C-177.61715782 174.88108463 -173.27106812 170.53119961 -168.92679185 166.17948741 C-167.67677744 164.92737389 -166.42676228 163.67526112 -165.17674637 162.42314911 C-164.55464513 161.80000434 -163.93254388 161.17685957 -163.29159109 160.53483162 C-151.5202977 148.74462736 -139.73903363 136.96442492 -127.9548733 125.18708316 C-117.16383224 114.40162124 -106.38606176 103.60300732 -95.61437222 92.79822161 C-84.56322023 81.71337766 -73.5028603 70.63779854 -62.43253517 59.57210159 C-56.21374443 53.3555597 -49.99878709 47.1352941 -43.79354829 40.90522212 C-38.51224284 35.60296182 -33.22239892 30.30940987 -27.92113139 25.02710482 C-25.21456931 22.32973563 -22.51226245 19.62842845 -19.82058305 16.91620082 C-16.90799291 13.98162189 -13.97658195 11.06661969 -11.04273385 8.15329379 C-10.18738586 7.28542796 -9.33203788 6.41756212 -8.45077026 5.52339733 C-7.2745532 4.36488827 -7.2745532 4.36488827 -6.07457417 3.18297499 C-5.39921406 2.5073425 -4.72385394 1.83171 -4.02802837 1.13560379 C-2.10250252 -0.16547757 -2.10250252 -0.16547757 0 0 Z " fill="#D91669" transform="translate(388.10250252485275,27.165477573871613)"/>
<path d="M0 0 C32.67 0 65.34 0 99 0 C99 168.96 99 337.92 99 512 C-21.78 512 -142.56 512 -267 512 C-267 511.67 -267 511.34 -267 511 C-265.42025391 510.76216797 -265.42025391 510.76216797 -263.80859375 510.51953125 C-254.91947077 509.10714377 -246.64231913 507.13751672 -238.171875 504.0859375 C-235.43695718 503.14959864 -232.84433194 502.48118397 -230 502 C-230 501.34 -230 500.68 -230 500 C-227.03 499.34 -224.06 498.68 -221 498 C-221 497.34 -221 496.68 -221 496 C-220.38511719 495.74605469 -219.77023438 495.49210937 -219.13671875 495.23046875 C-218.32847656 494.88628906 -217.52023438 494.54210937 -216.6875 494.1875 C-215.88699219 493.85105469 -215.08648437 493.51460938 -214.26171875 493.16796875 C-211.24645206 491.61086212 -209.51574046 490.03148092 -208 487 C-206.30751704 486.05371027 -204.61428321 485.10872016 -202.91601562 484.17285156 C-199.83689524 482.28802813 -197.3397309 479.871287 -194.75 477.375 C-186.80871911 469.83078316 -186.80871911 469.83078316 -180.5 469.5625 C-173.94324002 469.15315935 -167.55578037 468.22556188 -161.07763672 467.14990234 C-156.43302948 466.37903233 -151.80276335 465.73259014 -147.125 465.1875 C-137.34296464 463.83145955 -125.73307499 461.5055338 -116.90673828 456.91015625 C-115 456 -115 456 -112 456 C-112 455.34 -112 454.68 -112 454 C-110.72125 453.773125 -109.4425 453.54625 -108.125 453.3125 C-103.37981263 452.28550052 -99.4853626 450.37670767 -95.26171875 448.0234375 C-93 447 -93 447 -89 447 C-89 446.01 -89 445.02 -89 444 C-86.36 443.34 -83.72 442.68 -81 442 C-81 441.34 -81 440.68 -81 440 C-80.01 439.67 -79.02 439.34 -78 439 C-76.85661567 437.82298672 -75.71424404 436.64496517 -74.578125 435.4609375 C-68.9480758 430.24896126 -61.02166426 425.21408732 -53.6875 423 C-50.88854214 422.2605231 -50.88854214 422.2605231 -49.6875 420 C-49.460625 419.34 -49.23375 418.68 -49 418 C-47.60058214 415.20116429 -45.36626738 414.46627979 -42.703125 413.015625 C-40.89389293 412.03808104 -40.89389293 412.03808104 -39.375 410.3125 C-37.44771349 408.47281742 -35.58488947 408.34930939 -33 408 C-33 407.34 -33 406.68 -33 406 C-32.34 406 -31.68 406 -31 406 C-31 405.34 -31 404.68 -31 404 C-29.09587525 402.3645192 -27.20199329 400.86205387 -25.1875 399.375 C-24.64029297 398.95476562 -24.09308594 398.53453125 -23.52929688 398.1015625 C-19.37541853 395 -19.37541853 395 -16 395 C-15.7525 394.278125 -15.505 393.55625 -15.25 392.8125 C-13.87354955 389.71548648 -12.13316108 387.6301341 -10 385 C-7.91762446 382.08860326 -5.85762614 379.16268489 -3.8046875 376.23046875 C-3.20914062 375.49441406 -2.61359375 374.75835937 -2 374 C-1.34 374 -0.68 374 0 374 C0.39964966 372.90993652 0.39964966 372.90993652 0.80737305 371.79785156 C1.99652378 369.00815506 3.37343937 366.73440789 5.08203125 364.234375 C5.68466797 363.34363281 6.28730469 362.45289063 6.90820312 361.53515625 C7.53662109 360.61605469 8.16503906 359.69695312 8.8125 358.75 C13.20605148 352.31347004 17.32851923 345.87554845 21 339 C21.65999673 337.80518105 22.3213501 336.61110997 22.984375 335.41796875 C23.85835938 333.81888672 23.85835938 333.81888672 24.75 332.1875 C25.34296875 331.10855469 25.9359375 330.02960938 26.546875 328.91796875 C27.73127404 326.53961907 28.52326847 324.59065951 29 322 C29.66 322 30.32 322 31 322 C31.19529297 321.15695312 31.19529297 321.15695312 31.39453125 320.296875 C32.03076632 317.88328648 32.82542421 315.59251819 33.6875 313.25 C34.04199219 312.28320312 34.39648438 311.31640625 34.76171875 310.3203125 C35.65088186 307.93612119 36.54866098 305.55652048 37.45703125 303.1796875 C40.62599019 294.87064682 43.58527522 286.5667622 46 278 C46.26707764 277.06438232 46.26707764 277.06438232 46.53955078 276.10986328 C48.85025215 267.90818747 50.40189144 260.15104618 50.76367188 251.59570312 C50.97945294 248.3126209 51.43540528 245.21720272 52.00390625 241.98046875 C53.34639747 232.82008274 53.33599034 223.68810338 53.31567383 214.4440918 C53.31253104 211.46690608 53.33599247 208.49073436 53.36132812 205.51367188 C53.41860435 188.33986194 51.36725156 171.74804755 47.5625 155 C47.35149658 154.04504639 47.14049316 153.09009277 46.9230957 152.10620117 C45.48988917 145.76206746 43.80689178 139.58218588 41.69921875 133.42578125 C41 131 41 131 41 127 C40.34 127 39.68 127 39 127 C38.5978125 125.65421875 38.5978125 125.65421875 38.1875 124.28125 C35.29914561 115.08412155 31.64433741 106.70095636 27.14746094 98.18457031 C25.9150507 95.838271 24.71044733 93.47887672 23.5078125 91.1171875 C19.17424509 82.66003477 14.80479707 74.55403535 9 67 C7.99787749 65.65946709 6.99666264 64.31825543 5.99609375 62.9765625 C0.59290329 55.7762809 -4.87414331 48.73823808 -11.01171875 42.140625 C-12.96575256 40.03687151 -14.82816816 37.87494922 -16.6875 35.6875 C-19.54514025 32.39587233 -22.56607156 29.68013927 -26 27 C-22.31349869 22.46377321 -18.50181793 18.75151494 -14 15 C-12.37729888 13.15707515 -10.82270706 11.27916562 -9.296875 9.35546875 C-8.86890625 8.90816406 -8.4409375 8.46085938 -8 8 C-7.34 8 -6.68 8 -6 8 C-5.7525 7.4225 -5.505 6.845 -5.25 6.25 C-4 4 -4 4 0 0 Z " fill="#5AC269" transform="translate(413,0)"/>
<path d="M0 0 C0.81847412 0.01023193 1.63694824 0.02046387 2.48022461 0.03100586 C8.17728146 0.13119255 13.77513156 0.62084795 19.4375 1.25 C20.0975 0.92 20.7575 0.59 21.4375 0.25 C21.4375 0.91 21.4375 1.57 21.4375 2.25 C21.98535156 2.39695313 22.53320312 2.54390625 23.09765625 2.6953125 C52.67838433 11.0644941 77.2732471 27.59237152 96.5 51.5 C96.95310547 52.05389404 97.40621094 52.60778809 97.87304688 53.1784668 C101.09580201 57.30899723 102.67644643 61.32623799 104.4375 66.25 C105.64963218 67.62162325 106.8628046 68.99254455 108.09765625 70.34375 C111.53778797 75.23816482 114.4375 82.24799622 114.4375 88.25 C115.4275 88.58 116.4175 88.91 117.4375 89.25 C117.64246094 90.55195313 117.84742188 91.85390625 118.05859375 93.1953125 C118.33071536 94.92187718 118.60285154 96.64843956 118.875 98.375 C119.00970703 99.2309375 119.14441406 100.086875 119.28320312 100.96875 C119.48139648 102.22558594 119.48139648 102.22558594 119.68359375 103.5078125 C119.80404053 104.2723877 119.9244873 105.03696289 120.04858398 105.82470703 C120.33316055 107.59933577 120.64477235 109.36968734 120.97192383 111.13696289 C123.36240675 127.12073204 122.49792018 145.63048042 118.4375 161.25 C118.27121094 161.90000977 118.10492188 162.55001953 117.93359375 163.21972656 C113.97033622 178.30212327 107.30743767 192.43544632 98.4375 205.25 C97.75880859 206.26320313 97.75880859 206.26320313 97.06640625 207.296875 C90.04676073 217.53112454 78.06986974 228.63580821 67.4375 235.25 C66.4475 235.25 65.4575 235.25 64.4375 235.25 C64.293125 235.9925 64.14875 236.735 64 237.5 C61.63627894 241.66014906 57.86088089 242.77278885 53.4375 244.25 C52.7775 244.25 52.1175 244.25 51.4375 244.25 C51.4375 244.91 51.4375 245.57 51.4375 246.25 C46.9825 247.24 46.9825 247.24 42.4375 248.25 C42.4375 248.91 42.4375 249.57 42.4375 250.25 C6.52515293 262.88672024 -29.48371057 264.70745123 -64.67578125 248.19921875 C-95.41570701 233.11940116 -119.28477582 207.22312154 -131.4375 175.1875 C-139.75672049 150.14133618 -143.03244469 119.66572415 -134.5625 94.25 C-134.29985352 93.45287598 -134.03720703 92.65575195 -133.76660156 91.83447266 C-130.69625793 82.70960835 -127.37950818 73.61407785 -122.5625 65.25 C-122.07523438 64.39792969 -121.58796875 63.54585938 -121.0859375 62.66796875 C-104.19516218 34.69012053 -78.60465577 16.8132555 -48.5625 5.25 C-48.5625 4.92 -48.5625 4.59 -48.5625 4.25 C-47.77190186 4.23541748 -46.98130371 4.22083496 -46.16674805 4.20581055 C-42.52738119 4.13058297 -38.88885794 4.03417141 -35.25 3.9375 C-34.00669922 3.91494141 -32.76339844 3.89238281 -31.48242188 3.86914062 C-24.61636018 3.67090787 -18.6538021 2.92076624 -12.09350586 0.91137695 C-8.05158154 -0.14481799 -4.15203798 -0.11366566 0 0 Z " fill="#FC9027" transform="translate(140.5625,251.75)"/>
<path d="M0 0 C54.45 0 108.9 0 165 0 C165 9.9 165 19.8 165 30 C169.11855469 29.94779297 169.11855469 29.94779297 173.3203125 29.89453125 C175.99120037 29.87110854 178.66207662 29.85290743 181.33300781 29.83520508 C183.18364619 29.82015529 185.03424911 29.79971067 186.88476562 29.77368164 C189.55087045 29.7371302 192.21650208 29.72023546 194.8828125 29.70703125 C195.70492218 29.69154739 196.52703186 29.67606354 197.37405396 29.66011047 C203.02224879 29.6584704 207.34901324 30.5253259 211.64453125 34.53515625 C215.74940656 39.90307012 216.13264637 42.9772826 216.0625 49.625 C216.05798828 50.42679688 216.05347656 51.22859375 216.04882812 52.0546875 C216.03703168 54.03649006 216.01909605 56.01825433 216 58 C215.05382812 58.14695313 214.10765625 58.29390625 213.1328125 58.4453125 C197.45424414 61.03765775 183.2859376 65.91450823 169.2578125 73.36328125 C166.73657777 74.62994474 164.74750245 75.5236742 162 76 C162 76.66 162 77.32 162 78 C161.28714844 78.36351563 160.57429687 78.72703125 159.83984375 79.1015625 C153.87153891 82.23432009 149.0139056 85.51948861 144 90 C143.34 90 142.68 90 142 90 C142 90.66 142 91.32 142 92 C140.5390625 93.5078125 140.5390625 93.5078125 138.625 95.125 C137.99851563 95.66382812 137.37203125 96.20265625 136.7265625 96.7578125 C135 98 135 98 133 98 C132.6596875 98.8353125 132.6596875 98.8353125 132.3125 99.6875 C130.63723616 102.63915534 128.4036579 104.60326906 126 107 C124.41196694 108.83234584 122.84907011 110.68678878 121.3125 112.5625 C120.54550781 113.49191406 119.77851562 114.42132813 118.98828125 115.37890625 C117.33674717 117.55607593 116.09458847 119.51229893 115 122 C114.34 122 113.68 122 113 122 C112.79375 122.78375 112.5875 123.5675 112.375 124.375 C111.20437929 127.46118188 109.99067048 129.73862222 108.25 132.5 C103.68773037 139.88706556 99.37759952 148.36164063 98 157 C93.78780712 156.44413877 90.45598356 155.43620999 86.625 153.625 C66.24309791 145.06013249 42.18886799 146.06104889 21 151 C18.66987814 151.35508829 16.3371418 151.69451065 14 152 C14.33947408 180.82603204 15.10246384 211.0288607 35 234 C35.55171875 234.6496875 36.1034375 235.299375 36.671875 235.96875 C49.01045091 249.36491813 66.53707431 254.4662708 84.0625 256.125 C85.3609082 256.25455078 85.3609082 256.25455078 86.68554688 256.38671875 C88.78988844 256.59599029 90.89488124 256.79869668 93 257 C90.26687135 258.3933597 87.5094963 259.67121623 84.69140625 260.8828125 C59.83367304 271.70469733 39.52650971 286.54950624 24 309 C23.37351562 309.89332031 22.74703125 310.78664063 22.1015625 311.70703125 C8.76023453 331.60250506 2.34572243 355.91482435 2.5625 379.6875 C2.56487671 380.37977692 2.56725342 381.07205383 2.56970215 381.78530884 C2.63263865 393.56103248 3.88327729 404.62718824 7 416 C7.27714844 417.13179688 7.55429688 418.26359375 7.83984375 419.4296875 C11.53069607 433.07053341 18.17593343 446.95543528 27 458 C27.96099609 459.26070313 27.96099609 459.26070313 28.94140625 460.546875 C37.68782414 471.69332285 47.75572352 482.71015147 60 490 C60.63389648 490.3810791 61.26779297 490.7621582 61.92089844 491.15478516 C80.66522542 502.31988427 99.33112026 508.48380495 121 511 C121 511.33 121 511.66 121 512 C81.07 512 41.14 512 0 512 C0 343.04 0 174.08 0 0 Z " fill="#F6F6F5" transform="translate(0,0)"/>
<path d="M0 0 C3.77298308 0.45581304 5.43909627 2.09690359 8.046875 4.7890625 C8.81 5.56636719 9.573125 6.34367188 10.359375 7.14453125 C11.54273438 8.37236328 11.54273438 8.37236328 12.75 9.625 C19.09709557 16.19026248 19.09709557 16.19026248 25.8359375 22.34375 C31.49377622 27.19232074 36.64473501 32.57574282 41.875 37.875 C43.93201953 39.95860255 45.99233984 42.03886023 48.0546875 44.1171875 C48.95687012 45.03097168 49.85905273 45.94475586 50.78857422 46.88623047 C52.81337261 49.02949166 52.81337261 49.02949166 55 50 C55 50.66 55 51.32 55 52 C55.66 52 56.32 52 57 52 C58.72689391 53.62874008 60.36285124 55.28460716 62 57 C63.108008 58.11333977 64.21881185 59.22390231 65.33203125 60.33203125 C68.5546875 63.5546875 71.77734375 66.77734375 75 70 C75.88558594 69.51273437 76.77117187 69.02546875 77.68359375 68.5234375 C82.26218573 66.42019737 86.05214832 66.39498631 91 67 C95.72403852 68.9512333 98.72471109 72.44942218 101 77 C101.60014069 82.77058356 101.10359396 86.95665982 98 92 C100.54615905 94.62104608 103.02227366 97.01791577 105.875 99.3125 C109.08502742 101.91857896 111.65642632 104.95634537 114.2890625 108.1328125 C115.96775394 110.08741137 115.96775394 110.08741137 118.2109375 111.6171875 C119.09652344 112.30167969 119.09652344 112.30167969 120 113 C120 113.66 120 114.32 120 115 C120.53826416 115.21156738 121.07652832 115.42313477 121.63110352 115.64111328 C124.88681948 117.50871248 127.30339048 120.07752849 129.90234375 122.7421875 C130.46192276 123.30696808 131.02150177 123.87174866 131.59803772 124.4536438 C133.3826889 126.25606516 135.16051031 128.0650273 136.9375 129.875 C138.7117483 131.67697469 140.48747154 133.47743013 142.26625061 135.27493286 C143.37100515 136.39182473 144.47307686 137.51137884 145.57200623 138.63400269 C148.56179778 141.66228813 151.63413558 144.38234783 155 147 C156.6959451 148.64473539 158.35123123 150.30914164 160 152 C163.26595462 155.29651936 166.53966823 158.58531038 169.8125 161.875 C170.67681641 162.74769531 171.54113281 163.62039063 172.43164062 164.51953125 C177.45323199 169.56007201 182.56301891 174.40894107 188 179 C184.7134593 187.69243943 179.33642352 195.10854574 173.8125 202.515625 C172.38313527 204.47484044 171.1107691 206.41978869 169.875 208.5 C167.57725359 211.56366188 165.44380156 212.3793875 162 214 C160.10285963 215.53276267 158.30518999 217.13641197 156.515625 218.79296875 C155 220 155 220 153 220 C153 220.66 153 221.32 153 222 C152.34 222 151.68 222 151 222 C151 222.66 151 223.32 151 224 C150.13375 224.391875 149.2675 224.78375 148.375 225.1875 C145.73551335 226.60500209 143.99882018 227.75871628 141.8125 229.6875 C139 232 139 232 136 232 C135.731875 232.598125 135.46375 233.19625 135.1875 233.8125 C132.95228069 237.93000926 130.10248205 239.58597507 126.0234375 241.83203125 C122.98447737 243.58618005 120.11707459 245.58123314 117.21484375 247.55078125 C115.20409354 248.86645732 113.17326162 250.04215949 111.0625 251.1875 C107.81185603 252.81256639 107.81185603 252.81256639 106 256 C105.01 256 104.02 256 103 256 C103 256.66 103 257.32 103 258 C99.91190305 259.76462683 98.76687864 260 95 260 C95 260.99 95 261.98 95 263 C77.23282443 270 77.23282443 270 72 270 C72 270.66 72 271.32 72 272 C54.38356646 279.55449249 36.31991515 282.72820426 17.33984375 284.69042969 C15.16096027 284.97870434 13.12858981 285.46785255 11 286 C8.91765408 286.06743348 6.83331443 286.08514472 4.75 286.0625 C3.67234375 286.05347656 2.5946875 286.04445313 1.484375 286.03515625 C0.66453125 286.02355469 -0.1553125 286.01195312 -1 286 C0.2739589 283.96166576 1.61061923 281.96147874 3 280 C3.66 280 4.32 280 5 280 C5.20625 279.34 5.4125 278.68 5.625 278 C6.83648183 275.35676692 7.99036845 273.62753417 9.76953125 271.37890625 C13.00776632 267.11668874 15.59241424 262.67855784 18.0625 257.9375 C18.71037476 256.69577026 18.71037476 256.69577026 19.37133789 255.42895508 C28.62262108 237.26359317 32.20137002 217.81626424 32.25 197.5625 C32.25200409 196.89247955 32.25400818 196.22245911 32.256073 195.53213501 C32.26358361 185.29241458 31.33241693 175.95666152 29 166 C28.78174942 164.19094522 28.58928843 162.37833941 28.4375 160.5625 C28.2209375 158.7990625 28.2209375 158.7990625 28 157 C27.34 156.67 26.68 156.34 26 156 C24.72113133 152.74844827 23.57550592 149.48076988 22.47460938 146.16601562 C20.70942326 141.14843935 18.50494765 137.98701973 15 134 C13.91796875 131.796875 13.91796875 131.796875 13.1875 129.75 C9.1772177 120.17344586 0.97802327 112.51186112 -6 105 C-6.57363281 104.37222656 -7.14726562 103.74445313 -7.73828125 103.09765625 C-12.60605411 97.97429627 -18.19428019 93.99738085 -24 90 C-25.22976562 89.11828125 -25.22976562 89.11828125 -26.484375 88.21875 C-37.05428241 80.99707413 -49.78366836 75.71556981 -62.1875 72.5703125 C-64 72 -64 72 -67 70 C-66.12071874 65.27776857 -63.19030225 62.75446009 -59.89135742 59.47143555 C-59.25390091 58.82550949 -58.6164444 58.17958344 -57.95967102 57.51408386 C-55.84939702 55.38040144 -53.72809108 53.25811252 -51.60546875 51.13671875 C-50.13644704 49.6605994 -48.66772642 48.18418036 -47.19929504 46.70747375 C-44.12005917 43.61478532 -41.03493936 40.52810879 -37.94604492 37.44506836 C-33.98100523 33.48593463 -30.03454207 29.50883494 -26.09270763 25.52661419 C-23.06536132 22.47347402 -20.02667661 19.43182106 -16.9845829 16.39338112 C-15.52413439 14.93123453 -14.06768765 13.46507979 -12.61528587 11.9949398 C-10.58745572 9.94507884 -8.54450836 7.91159486 -6.49682617 5.8815918 C-5.59503128 4.95990204 -5.59503128 4.95990204 -4.67501831 4.01959229 C-2.97990417 2.35844421 -2.97990417 2.35844421 0 0 Z " fill="#FB3D7F" transform="translate(229,184)"/>
<path d="M0 0 C0 27.39 0 54.78 0 83 C-2.97 84.32 -5.94 85.64 -9 87 C-13.03254641 91.23417373 -14.32442146 94.0153959 -14.20703125 99.90625 C-13.87801568 103.23365277 -12.9215145 105.2726891 -11 108 C-7.58520931 110.58171373 -4.16364775 111.95908806 0 113 C0 161.51 0 210.02 0 260 C-35.64051097 260 -67.14058088 246.77935845 -92.5 221.8125 C-119.08279366 194.98157821 -130.36094639 161.70238432 -130.31469727 124.3762207 C-130.2452031 113.80267301 -129.35409624 104.06462119 -126 94 C-125.73735352 93.20287598 -125.47470703 92.40575195 -125.20410156 91.58447266 C-122.13375793 82.45960835 -118.81700818 73.36407785 -114 65 C-113.51273438 64.14792969 -113.02546875 63.29585938 -112.5234375 62.41796875 C-95.63266218 34.44012053 -70.04215577 16.5632555 -40 5 C-40 4.67 -40 4.34 -40 4 C-39.20940186 3.98541748 -38.41880371 3.97083496 -37.60424805 3.95581055 C-33.96488119 3.88058297 -30.32635794 3.78417141 -26.6875 3.6875 C-25.44419922 3.66494141 -24.20089844 3.64238281 -22.91992188 3.61914062 C-15.19199824 3.39602472 -7.34747944 0 0 0 Z " fill="#F9BD2C" transform="translate(132,252)"/>
<path d="M0 0 C32.01 0 64.02 0 97 0 C97 168.96 97 337.92 97 512 C6.58 512 -83.84 512 -177 512 C-177 511.67 -177 511.34 -177 511 C-176.18136475 510.90501221 -175.36272949 510.81002441 -174.51928711 510.7121582 C-135.55192107 506.12151206 -98.78642374 497.35793472 -63.82080078 478.94873047 C-62.06906013 478.03598387 -60.29844241 477.15974828 -58.52734375 476.28515625 C-27.33633149 460.49967164 1.48340048 436.73549922 24 410 C24.82886719 409.02546875 25.65773438 408.0509375 26.51171875 407.046875 C30.62205155 402.18008518 34.51154446 397.34043482 38 392 C38.8227999 390.81100801 39.64986383 389.62495899 40.48046875 388.44140625 C50.20572529 374.53538253 58.74784095 360.34870094 66 345 C66.37157227 344.21431641 66.74314453 343.42863281 67.12597656 342.61914062 C72.43968332 331.29572521 77.20465055 319.92149185 81 308 C81.2484668 307.23204102 81.49693359 306.46408203 81.75292969 305.67285156 C85.19651219 294.87946814 87.73458879 284.02290867 89.75 272.875 C89.94859619 271.78082764 90.14719238 270.68665527 90.35180664 269.55932617 C93.34522129 252.14111424 94.37558993 234.9676804 94.3125 217.3125 C94.31134186 216.30452362 94.31018372 215.29654724 94.30899048 214.25802612 C94.27503617 199.30048556 93.73751665 184.74196244 91 170 C90.88253418 169.31744141 90.76506836 168.63488281 90.64404297 167.93164062 C89.89568617 163.58746756 88.97255922 159.29880056 88 155 C87.68303881 153.46886477 87.36667072 151.93760669 87.05078125 150.40625 C75.81206687 97.92129996 47.40666846 48.32984598 9 11 C7.33333333 9.33333333 5.66666667 7.66666667 4 6 C3.236875 5.278125 2.47375 4.55625 1.6875 3.8125 C0 2 0 2 0 0 Z " fill="#F6F7F6" transform="translate(415,0)"/>
<path d="M0 0 C81.84 0 163.68 0 248 0 C243.67416033 5.76778623 241.2223609 8.79940536 236 13 C234.64172029 14.64639965 233.30745749 16.31295807 232 18 C229.07332314 21.09883432 225.95821907 23.92151578 222.76333618 26.73594666 C215.55346179 33.21856715 208.75658347 40.11168261 201.91162109 46.97485352 C200.41284321 48.47391396 198.91384414 49.97275328 197.41464233 51.47138977 C193.37179968 55.51394711 189.33203406 59.55956646 185.29283857 63.60576749 C181.06125475 67.84362913 176.82681332 72.07863357 172.59268188 76.31394958 C164.58699656 84.32273521 156.58386241 92.33406514 148.58165514 100.34632581 C139.46629064 109.47289195 130.34806522 118.59659751 121.22960544 127.72007096 C102.48323191 146.4768794 83.74043105 165.2372544 65 184 C64.34 183.01 63.68 182.02 63 181 C63.99 181 64.98 181 66 181 C65.67 180.01 65.34 179.02 65 178 C65.33 177.67 65.66 177.34 66 177 C66.09429342 174.82194281 66.11742538 172.6407872 66.11352539 170.46069336 C66.11367142 169.77779739 66.11381744 169.09490143 66.1139679 168.39131165 C66.11326876 166.12412386 66.1054764 163.85701726 66.09765625 161.58984375 C66.09579207 160.02185613 66.09436817 158.45386793 66.09336853 156.88587952 C66.08954334 152.75123497 66.07971306 148.61662534 66.06866455 144.48199463 C66.05845044 140.26599602 66.05387091 136.04999178 66.04882812 131.83398438 C66.03809078 123.55597174 66.02049399 115.27799423 66 107 C61.05 107 56.1 107 51 107 C50.9906543 105.03208496 50.98130859 103.06416992 50.97167969 101.03662109 C50.93610741 94.52251 50.88228102 88.00874808 50.81609726 81.49487877 C50.77664803 77.54686231 50.74444729 73.59906803 50.72900391 69.65087891 C50.71382007 65.83805013 50.67934507 62.02583225 50.63169098 58.21327591 C50.61689476 56.76134181 50.60895999 55.30932049 50.60811615 53.85731125 C50.60573918 51.81746638 50.57860688 49.77929995 50.54589844 47.73974609 C50.53701599 46.58058685 50.52813354 45.42142761 50.51898193 44.22714233 C49.7564954 39.48583555 47.51219672 36.32890015 43.9375 33.1875 C39.58122196 30.51752314 35.11742271 30.78219426 30.17578125 30.68359375 C29.31438034 30.66281265 28.45297943 30.64203156 27.56547546 30.62062073 C24.81456456 30.55525091 22.06355844 30.49629868 19.3125 30.4375 C17.44725579 30.39430283 15.5820212 30.35068815 13.71679688 30.30664062 C9.14462742 30.19879684 4.57238538 30.09963009 0 30 C0 20.1 0 10.2 0 0 Z " fill="#F9BE2C" transform="translate(165,0)"/>
<path d="M0 0 C5.89675464 4.87952473 11.25755311 10.17368676 16.625 15.625 C18.28143341 17.30707479 19.94021441 18.98684166 21.6015625 20.6640625 C22.32682129 21.40092285 23.05208008 22.1377832 23.79931641 22.89697266 C26.09323926 25.08910173 28.49562138 27.05398185 31 29 C30.12527032 33.45158866 27.62873579 36.11985197 24.6875 39.4375 C24.15133057 40.05149658 23.61516113 40.66549316 23.06274414 41.2980957 C11.81140944 54.1166334 0.36424558 67.01776089 -13.02734375 77.640625 C-15.13350304 79.31226786 -17.2004635 81.00097278 -19.25390625 82.734375 C-29.82538672 91.56491428 -41.25792948 98.83059612 -53 106 C-53.64791504 106.40202637 -54.29583008 106.80405273 -54.96337891 107.21826172 C-106.92846773 139.35749116 -165.71636482 146.58948642 -225.4329834 146.20599365 C-230.81075449 146.17483635 -236.18857017 146.1615046 -241.56640625 146.14648438 C-252.04438509 146.114687 -262.52217013 146.06375463 -273 146 C-273 145.67 -273 145.34 -273 145 C-271.94683594 144.84144531 -270.89367187 144.68289063 -269.80859375 144.51953125 C-260.91947077 143.10714377 -252.64231913 141.13751672 -244.171875 138.0859375 C-241.43695718 137.14959864 -238.84433194 136.48118397 -236 136 C-236 135.34 -236 134.68 -236 134 C-231.545 133.01 -231.545 133.01 -227 132 C-227 131.34 -227 130.68 -227 130 C-226.38511719 129.74605469 -225.77023438 129.49210938 -225.13671875 129.23046875 C-224.32847656 128.88628906 -223.52023438 128.54210937 -222.6875 128.1875 C-221.88699219 127.85105469 -221.08648437 127.51460938 -220.26171875 127.16796875 C-217.24645206 125.61086212 -215.51574046 124.03148092 -214 121 C-212.30751704 120.05371027 -210.61428321 119.10872016 -208.91601562 118.17285156 C-205.83689524 116.28802813 -203.3397309 113.871287 -200.75 111.375 C-192.80871911 103.83078316 -192.80871911 103.83078316 -186.5 103.5625 C-179.94324002 103.15315935 -173.55578037 102.22556188 -167.07763672 101.14990234 C-162.43302948 100.37903233 -157.80276335 99.73259014 -153.125 99.1875 C-143.34296464 97.83145955 -131.73307499 95.5055338 -122.90673828 90.91015625 C-121 90 -121 90 -118 90 C-118 89.34 -118 88.68 -118 88 C-116.72125 87.773125 -115.4425 87.54625 -114.125 87.3125 C-109.37981263 86.28550052 -105.4853626 84.37670767 -101.26171875 82.0234375 C-99 81 -99 81 -95 81 C-95 80.01 -95 79.02 -95 78 C-92.36 77.34 -89.72 76.68 -87 76 C-87 75.34 -87 74.68 -87 74 C-86.01 73.67 -85.02 73.34 -84 73 C-82.85661567 71.82298672 -81.71424404 70.64496517 -80.578125 69.4609375 C-74.9480758 64.24896126 -67.02166426 59.21408732 -59.6875 57 C-56.88854214 56.2605231 -56.88854214 56.2605231 -55.6875 54 C-55.460625 53.34 -55.23375 52.68 -55 52 C-53.60058214 49.20116429 -51.36626738 48.46627979 -48.703125 47.015625 C-46.89389293 46.03808104 -46.89389293 46.03808104 -45.375 44.3125 C-43.44771349 42.47281742 -41.58488947 42.34930939 -39 42 C-39 41.34 -39 40.68 -39 40 C-38.34 40 -37.68 40 -37 40 C-37 39.34 -37 38.68 -37 38 C-35.09587525 36.3645192 -33.20199329 34.86205387 -31.1875 33.375 C-30.64029297 32.95476562 -30.09308594 32.53453125 -29.52929688 32.1015625 C-25.37541853 29 -25.37541853 29 -22 29 C-21.62875 27.9171875 -21.62875 27.9171875 -21.25 26.8125 C-19.87354955 23.71548648 -18.13316108 21.6301341 -16 19 C-13.91762446 16.08860326 -11.85762614 13.16268489 -9.8046875 10.23046875 C-9.20914062 9.49441406 -8.61359375 8.75835937 -8 8 C-7.34 8 -6.68 8 -6 8 C-5.62875 6.8553125 -5.62875 6.8553125 -5.25 5.6875 C-3.89004442 2.7635955 -2.68414174 1.69995644 0 0 Z " fill="#97DC3D" transform="translate(419,366)"/>
<path d="M0 0 C0.76957031 0.62519531 1.53914063 1.25039062 2.33203125 1.89453125 C3.18796875 2.53777344 4.04390625 3.18101562 4.92578125 3.84375 C7.35175021 5.91133719 8.91906871 7.85331265 10.64453125 10.51953125 C11.15628906 11.29554688 11.66804688 12.0715625 12.1953125 12.87109375 C13.33203125 14.89453125 13.33203125 14.89453125 13.33203125 16.89453125 C13.99203125 16.89453125 14.65203125 16.89453125 15.33203125 16.89453125 C15.33203125 18.21453125 15.33203125 19.53453125 15.33203125 20.89453125 C15.99203125 20.89453125 16.65203125 20.89453125 17.33203125 20.89453125 C27.1615461 43.67746156 27.77153434 64.41308243 27.33203125 88.89453125 C26.08311511 89.37651588 24.83284317 89.85498802 23.58203125 90.33203125 C22.8859375 90.59886719 22.18984375 90.86570312 21.47265625 91.140625 C16.75720045 92.80136035 12.322182 93.12747413 7.33984375 93.28125 C6.55745331 93.30677444 5.77506287 93.33229889 4.96896362 93.3585968 C3.30978805 93.41055486 1.65053175 93.45998777 -0.00878906 93.50708008 C-2.4998997 93.58075744 -4.98996999 93.67186195 -7.48046875 93.76367188 C-28.87480681 94.45082013 -48.18347236 90.99766723 -64.85546875 76.58203125 C-81.63378258 60.82774597 -90.05519478 37.95030719 -90.78808594 15.15917969 C-90.94446657 6.40424874 -90.83681425 -2.35147895 -90.66796875 -11.10546875 C-60.48471912 -20.01784561 -25.78044128 -19.93416798 0 0 Z " fill="#97DC3D" transform="translate(104.66796875,163.10546875)"/>
<path d="M0 0 C68.31 0 136.62 0 207 0 C202.67416033 5.76778623 200.2223609 8.79940536 195 13 C193.64172029 14.64639965 192.30745749 16.31295807 191 18 C188.02351594 21.15157136 184.85024955 24.02373711 181.60595703 26.89233398 C175.32662228 32.53641772 169.38354955 38.49047802 163.4296875 44.47265625 C162.25592744 45.64828655 161.08194258 46.82369244 159.90774536 47.99888611 C156.85111862 51.05929041 153.79750956 54.12268779 150.74456787 57.18676758 C147.61542059 60.32623264 144.48336131 63.46278976 141.3515625 66.59960938 C135.23155796 72.73026703 129.11474554 78.864097 123 85 C122.04298691 84.45064285 121.08597382 83.90128571 120.09996033 83.33528137 C118.82960463 82.6073478 117.55922258 81.87946021 116.28881836 81.15161133 C115.6598037 80.79037422 115.03078903 80.42913712 114.38271332 80.05695343 C109.84300256 77.45773668 105.26069622 74.98976404 100.5625 72.6875 C99.92119141 72.36716797 99.27988281 72.04683594 98.61914062 71.71679688 C80.25444517 62.61817876 60.46726614 57.25752271 40 56 C39.97421875 54.83984375 39.9484375 53.6796875 39.921875 52.484375 C39.40580103 36.39632986 36.11043825 23.0672503 24.03515625 11.62890625 C16.87810234 5.9005157 8.86337044 2.9543989 0 1 C0 0.67 0 0.34 0 0 Z " fill="#F6F6F6" transform="translate(206,0)"/>
<path d="M0 0 C5.58354329 -0.09263021 11.16434275 -0.17201891 16.74804688 -0.21972656 C18.64104321 -0.23964608 20.53397962 -0.26679189 22.42675781 -0.30175781 C38.43445403 -0.58972695 52.22710681 0.16306798 65 11 C66.07894531 11.89525391 66.07894531 11.89525391 67.1796875 12.80859375 C75.14362093 20.03623899 80.49169746 30.68475827 81.24050903 41.46128845 C81.23606781 42.67152176 81.23162659 43.88175507 81.22705078 45.12866211 C81.22734283 45.80268066 81.22763489 46.47669922 81.22793579 47.17114258 C81.22655533 49.37334595 81.21105568 51.57520033 81.1953125 53.77734375 C81.19157779 55.31433426 81.18873298 56.85132717 81.18673706 58.38832092 C81.17913665 62.41442552 81.15951944 66.44038357 81.1373291 70.46643066 C81.113176 75.30733462 81.10407256 80.14828784 81.09242249 84.98923492 C81.0730926 92.32625823 81.03474525 99.66296061 81 107 C71.1 107 61.2 107 51 107 C50.97421875 102.30523437 50.9484375 97.61046875 50.921875 92.7734375 C50.8966978 89.7929147 50.87035848 86.81249251 50.83984375 83.83203125 C50.79155729 79.10497704 50.74749471 74.37815581 50.72900391 69.65087891 C50.71382007 65.83805013 50.67934507 62.02583225 50.63169098 58.21327591 C50.61689476 56.76134181 50.60895999 55.30932049 50.60811615 53.85731125 C50.60573918 51.81746638 50.57860688 49.77929995 50.54589844 47.73974609 C50.53701599 46.58058685 50.52813354 45.42142761 50.51898193 44.22714233 C49.7564954 39.48583555 47.51219672 36.32890015 43.9375 33.1875 C39.58122196 30.51752314 35.11742271 30.78219426 30.17578125 30.68359375 C29.31438034 30.66281265 28.45297943 30.64203156 27.56547546 30.62062073 C24.81456456 30.55525091 22.06355844 30.49629868 19.3125 30.4375 C17.44725579 30.39430283 15.5820212 30.35068815 13.71679688 30.30664062 C9.14462742 30.19879684 4.57238538 30.09963009 0 30 C0 20.1 0 10.2 0 0 Z " fill="#5CC36A" transform="translate(165,0)"/>
<path d="M0 0 C4.31740799 0.87066232 5.50127443 2.28977113 8 6 C12.39565494 13.84843526 15.26055872 20.99774764 15.22705078 30.12866211 C15.22734283 30.80268066 15.22763489 31.47669922 15.22793579 32.17114258 C15.22655533 34.37334595 15.21105568 36.57520033 15.1953125 38.77734375 C15.19157779 40.31433426 15.18873298 41.85132717 15.18673706 43.38832092 C15.17913665 47.41442552 15.15951944 51.44038357 15.1373291 55.46643066 C15.11679288 59.58241799 15.10771878 63.69842922 15.09765625 67.81445312 C15.0762698 75.87636899 15.04217776 83.93816621 15 92 C12.68756208 92.02685412 10.3750373 92.04632841 8.0625 92.0625 C6.77472656 92.07410156 5.48695313 92.08570312 4.16015625 92.09765625 C1 92 1 92 0 91 C-0.09520906 88.16959328 -0.12553631 85.36365007 -0.11352539 82.53295898 C-0.11367142 81.64523804 -0.11381744 80.75751709 -0.1139679 79.84289551 C-0.11326843 76.89393716 -0.10547448 73.94504113 -0.09765625 70.99609375 C-0.09579219 68.95728083 -0.09436823 66.91846746 -0.09336853 64.87965393 C-0.08954241 59.50215426 -0.07971132 54.12468142 -0.06866455 48.74719238 C-0.05845245 43.26440799 -0.05387134 37.78161928 -0.04882812 32.29882812 C-0.03808914 21.53254027 -0.02101159 10.76627236 0 0 Z " fill="#40A554" transform="translate(231,15)"/>
<path d="M0 0 C3.47294006 2.31529337 3.91050088 3.06104164 5 7 C5.58321705 11.71796482 5.49635529 15.02567294 3.3125 19.3125 C-2.23838039 25.76352316 -2.23838039 25.76352316 -6.58984375 26.34765625 C-10.62331225 26.47217944 -14.05009196 26.3304028 -17.875 25 C-21.97944044 21.13699724 -24.57682976 17.11585118 -25.6875 11.5625 C-24.72657317 6.58315189 -22.4724503 2.6984232 -19 -1 C-12.17357452 -4.39718827 -6.66685162 -3.33342581 0 0 Z " fill="#FD7BB6" transform="translate(268,245)"/>
<path d="M0 0 C3.19752129 2.54348284 5.32055468 4.54038694 6.3671875 8.5546875 C6.92794363 14.00931534 6.88745064 17.41857503 3.75 22.1875 C3.09 22.1875 2.43 22.1875 1.75 22.1875 C1.75 22.8475 1.75 23.5075 1.75 24.1875 C-2.87492396 26.96245437 -6.9095137 28.09651894 -12.25 27.1875 C-17.15630781 25.51557361 -20.29460029 22.75344877 -22.58984375 18.11328125 C-23.82026074 14.52395831 -23.73303646 11.99141211 -23.25 8.1875 C-21.4375 4.875 -21.4375 4.875 -19.25 2.1875 C-18.79625 1.61 -18.3425 1.0325 -17.875 0.4375 C-12.15640705 -3.96141765 -6.04353014 -3.37043027 0 0 Z " fill="#FB9325" transform="translate(140.25,337.8125)"/>
<path d="M0 0 C4.20605314 2.37264536 6.89838052 5.75764155 8.4375 10.375 C9.02654009 14.63994847 9.37759039 18.64624317 7.2734375 22.515625 C4.48325321 25.92108069 1.83498689 28.409698 -2.5625 29.375 C-8.58549954 29.92254541 -12.55565157 28.73752377 -17.3125 25 C-20.49851807 20.85817651 -21.01958327 16.68272934 -20.8671875 11.5859375 C-20.36463986 7.93924568 -19.05045871 6.04955561 -16.5625 3.375 C-11.12551384 -0.33834587 -6.4949675 -1.58413842 0 0 Z " fill="#FABB2C" transform="translate(165.5625,299.625)"/>
<path d="M0 0 C3.36361677 2.25173514 5.45126212 4.10559228 6.94140625 7.9453125 C7.66582358 12.49381749 7.97508394 16.99549907 5.7734375 21.1484375 C3.0043214 24.53686748 0.30737487 27.0097478 -4.05859375 27.9453125 C-9.05427007 28.4210912 -11.10238476 28.45756731 -15.55859375 26.0703125 C-16.38359375 25.3690625 -17.20859375 24.6678125 -18.05859375 23.9453125 C-18.05859375 23.2853125 -18.05859375 22.6253125 -18.05859375 21.9453125 C-18.71859375 21.9453125 -19.37859375 21.9453125 -20.05859375 21.9453125 C-22.41657562 17.37672263 -22.76057526 12.97469904 -22.05859375 7.9453125 C-19.98015361 3.5390194 -17.34594084 0.76908361 -13.046875 -1.421875 C-8.50782561 -2.86652333 -4.19184183 -2.14762295 0 0 Z " fill="#FB3C80" transform="translate(312.05859375,197.0546875)"/>
<path d="M0 0 C4.43118719 2.13646525 7.2290203 4.37577522 9 9 C9.71052373 13.62916975 10.10216151 17.99185459 7.79296875 22.19921875 C5.21055383 25.31772993 2.76782299 27.43862588 -1 29 C-5.77751511 29.35389001 -9.68772097 29.15613952 -14 27 C-17.65873318 22.99610331 -19.78666858 19.21864677 -20.3125 13.75 C-19.85629548 8.27554573 -18.01221992 4.8902672 -13.9375 1.0625 C-9.29975431 -0.61498248 -4.86783745 -0.64332654 0 0 Z " fill="#FB9126" transform="translate(110,300)"/>
<path d="M0 0 C3.46620268 0.57517774 5.00705118 1.69305996 7.375 4.25 C9.54066656 6.51747139 11.68723739 8.6521715 14.125 10.625 C16.94667979 12.95595287 19.55867805 15.2714637 22 18 C22 18.99 22 19.98 22 21 C17.37507604 23.77495437 13.3404863 24.90901894 8 24 C3.04615831 22.31187545 -0.02614563 19.53454243 -2.34375 14.859375 C-3.95623698 10.2906619 -3.39765837 6.91130043 -1.5 2.5625 C-1.005 1.716875 -0.51 0.87125 0 0 Z " fill="#FD7AB5" transform="translate(303,256)"/>
<path d="M0 0 C8.4 1.2 8.4 1.2 12 5 C14.38521953 9.44144326 15.64303477 12.96289432 15 18 C13.5 21.375 13.5 21.375 12 24 C11.34 24 10.68 24 10 24 C10 24.66 10 25.32 10 26 C6.27034861 28.03435531 4.33094958 29 0 29 C0 19.43 0 9.86 0 0 Z " fill="#FBBB2D" transform="translate(132,336)"/>
<path d="M0 0 C0 3.17370278 -0.30933342 4.3794668 -2 7 C-2.680625 7.33 -3.36125 7.66 -4.0625 8 C-6.21280279 8.8295822 -6.21280279 8.8295822 -6.75 11.125 C-6.8325 11.74375 -6.915 12.3625 -7 13 C-7.66 13 -8.32 13 -9 13 C-9 13.66 -9 14.32 -9 15 C-10.71659432 16.35803676 -12.53184882 17.49830258 -14.37109375 18.68359375 C-16.29953716 20.00013286 -16.29953716 20.00013286 -17 23 C-17.825 23.309375 -18.65 23.61875 -19.5 23.9375 C-20.325 24.288125 -21.15 24.63875 -22 25 C-22.88693303 27.04105639 -22.88693303 27.04105639 -23 29 C-23.66 29 -24.32 29 -25 29 C-25 29.66 -25 30.32 -25 31 C-26.71659432 32.35803676 -28.53184882 33.49830258 -30.37109375 34.68359375 C-32.29953716 36.00013286 -32.29953716 36.00013286 -33 39 C-33.825 39.309375 -34.65 39.61875 -35.5 39.9375 C-36.325 40.288125 -37.15 40.63875 -38 41 C-38.88693303 43.04105639 -38.88693303 43.04105639 -39 45 C-39.66 45 -40.32 45 -41 45 C-41 45.66 -41 46.32 -41 47 C-42.71659432 48.35803676 -44.53184882 49.49830258 -46.37109375 50.68359375 C-48.29953716 52.00013286 -48.29953716 52.00013286 -49 55 C-52.44938521 58.5606557 -56.53865723 61.83306208 -61 64 C-61.66 63.67 -62.32 63.34 -63 63 C-42.21 42.21 -21.42 21.42 0 0 Z " fill="#F04671" transform="translate(229,184)"/>
<path d="M0 0 C0.66 0.66 1.32 1.32 2 2 C2.66 1.67 3.32 1.34 4 1 C4.68359375 2.796875 4.68359375 2.796875 5 5 C3.78515625 6.703125 3.78515625 6.703125 2.0625 8.25 C1.49660156 8.77078125 0.93070312 9.2915625 0.34765625 9.828125 C-0.31943359 10.40820312 -0.31943359 10.40820312 -1 11 C-2.051875 10.4121875 -2.051875 10.4121875 -3.125 9.8125 C-6.11533935 8.64653899 -6.11533935 8.64653899 -9.3125 10.375 C-10.199375 10.91125 -11.08625 11.4475 -12 12 C-12 12.99 -12 13.98 -12 15 C-12.94875 15.28875 -13.8975 15.5775 -14.875 15.875 C-18.05211578 16.76825109 -18.05211578 16.76825109 -20 19 C-20.78375 19.309375 -21.5675 19.61875 -22.375 19.9375 C-25.01905897 21.00771434 -26.87726999 22.10470535 -29 24 C-29.33 24.99 -29.66 25.98 -30 27 C-32.328125 28.46484375 -32.328125 28.46484375 -35.25 29.9375 C-39.20667071 31.99537932 -42.57380496 34.12641707 -46 37 C-46.66 37 -47.32 37 -48 37 C-48 37.66 -48 38.32 -48 39 C-53.41538462 42.07692308 -53.41538462 42.07692308 -56.375 41.6875 C-56.91125 41.460625 -57.4475 41.23375 -58 41 C-54.82377237 38.30501898 -51.61202829 36.14545655 -47.9609375 34.14453125 C-44.92005334 32.36967257 -42.07644682 30.31262905 -39.2109375 28.26953125 C-36.7961197 26.88293092 -34.71189983 26.52399421 -32 26 C-30.6830333 24.11629529 -30.6830333 24.11629529 -30 22 C-28.60058214 19.20116429 -26.36626738 18.46627979 -23.703125 17.015625 C-21.89389293 16.03808104 -21.89389293 16.03808104 -20.375 14.3125 C-18.44771349 12.47281742 -16.58488947 12.34930939 -14 12 C-14 11.34 -14 10.68 -14 10 C-13.34 10 -12.68 10 -12 10 C-12 9.34 -12 8.68 -12 8 C-9.8828125 6.0546875 -9.8828125 6.0546875 -7.125 3.875 C-6.22007812 3.15054687 -5.31515625 2.42609375 -4.3828125 1.6796875 C-2 0 -2 0 0 0 Z " fill="#98DB3C" transform="translate(394,396)"/>
<path d="M0 0 C0.66 0.33 1.32 0.66 2 1 C2 4.63 2 8.26 2 12 C2.66 12 3.32 12 4 12 C4 29.16 4 46.32 4 64 C3.34 64 2.68 64 2 64 C2.01160156 64.99902344 2.02320313 65.99804688 2.03515625 67.02734375 C2.04417969 68.31769531 2.05320312 69.60804688 2.0625 70.9375 C2.07410156 72.22527344 2.08570313 73.51304687 2.09765625 74.83984375 C2 78 2 78 1 79 C0.83781413 80.60083461 0.72150583 82.20636728 0.625 83.8125 C-0.10937395 92.63646197 -2.1839984 101.00456807 -6 109 C-7.4394332 104.47588781 -6.00417924 101.00285271 -4.625 96.625 C-2.61665946 89.8684996 -1.43949147 83.6140014 -1.20678711 76.53344727 C-1.01606246 73.2744652 -0.56354845 70.22941561 0.0078125 67.01953125 C1.38026944 57.7020804 1.26378931 48.40548139 1.20581055 39.00463867 C1.18751407 35.93985659 1.1853019 32.87537806 1.18554688 29.81054688 C1.16704815 19.8294246 1.03471767 9.93638544 0 0 Z " fill="#82A374" transform="translate(465,175)"/>
<path d="M0 0 C0.99 0.495 0.99 0.495 2 1 C2.4140625 4.16015625 2.4140625 4.16015625 2.625 8.0625 C2.69976562 9.35285156 2.77453125 10.64320313 2.8515625 11.97265625 C2.90054687 12.97167969 2.94953125 13.97070312 3 15 C3.66 15 4.32 15 5 15 C5.0462833 23.70115581 5.08184872 32.40226942 5.10362434 41.10352135 C5.11407407 45.14360264 5.1282548 49.18359989 5.15087891 53.22363281 C5.17256512 57.12044733 5.18455967 61.01718087 5.18975449 64.91405106 C5.19345786 66.40285136 5.20068938 67.8916471 5.21146011 69.38041306 C5.22591919 71.46122667 5.22798033 73.54170306 5.22705078 75.62255859 C5.231492 76.80836517 5.23593323 77.99417175 5.24050903 79.21591187 C5 82 5 82 3 84 C2.30251417 85.31747324 1.63040043 86.64914193 1 88 C1.07001221 86.96746094 1.14002441 85.93492187 1.2121582 84.87109375 C1.95488772 73.23626586 2.18626169 61.63464027 2.18530273 49.97753906 C2.1874977 47.00311124 2.20576881 44.02905072 2.22460938 41.0546875 C2.25446132 30.48906719 1.82176932 20.19214735 0.4309082 9.71484375 C0.04983445 6.42962095 -0.08145157 3.30184715 0 0 Z " fill="#E9F9EA" transform="translate(507,170)"/>
<path d="M0 0 C0.7734375 0.3403125 0.7734375 0.3403125 1.5625 0.6875 C0.5725 0.6875 -0.4175 0.6875 -1.4375 0.6875 C-1.4375 1.3475 -1.4375 2.0075 -1.4375 2.6875 C-16.24389022 9.03695566 -31.4897252 12.52763859 -47.4375 14.5625 C-48.47044189 14.69479004 -49.50338379 14.82708008 -50.56762695 14.96337891 C-58.54814293 15.89225755 -58.54814293 15.89225755 -62.4375 14.6875 C-61.51066406 14.55472656 -60.58382812 14.42195313 -59.62890625 14.28515625 C-58.43136719 14.10855469 -57.23382813 13.93195313 -56 13.75 C-54.80503906 13.57597656 -53.61007813 13.40195312 -52.37890625 13.22265625 C-49.55794324 12.99764787 -49.55794324 12.99764787 -48.4375 11.6875 C-46.3802083 11.36826508 -44.32136479 11.17588648 -42.25 10.96875 C-40.4207467 10.86751957 -40.4207467 10.86751957 -39.4375 9.6875 C-37.61148448 9.334747 -35.77594431 9.03087344 -33.9375 8.75 C-24.11949446 7.16982396 -14.68162249 5.16649856 -5.625 0.9375 C-2.4375 -0.3125 -2.4375 -0.3125 0 0 Z " fill="#C68C5C" transform="translate(302.4375,453.3125)"/>
<path d="M0 0 C7.58750425 7.58750425 7.16229593 23.20568165 7.1953125 33.3671875 C7.1895062 36.20344322 7.15918462 39.03896631 7.125 41.875 C7.11493329 43.3528584 7.10581407 44.83072358 7.09765625 46.30859375 C7.07597371 49.87254028 7.04165536 53.43622415 7 57 C5.75108386 57.48198463 4.50081192 57.96045677 3.25 58.4375 C2.55390625 58.70433594 1.8578125 58.97117188 1.140625 59.24609375 C-2.41144462 60.49709637 -5.48223657 61.12529606 -9.25 61.0625 C-11.10625 61.0315625 -11.10625 61.0315625 -13 61 C-10.2574117 58.2574117 -7.84002249 58.14687766 -4.0625 57.375 C-2.81597656 57.11460937 -1.56945312 56.85421875 -0.28515625 56.5859375 C3 56 3 56 6 56 C6.17998966 30.47039916 6.17998966 30.47039916 0.5859375 5.83203125 C0 4 0 4 0 0 Z " fill="#B0D536" transform="translate(125,195)"/>
<path d="M0 0 C12.44615385 0 12.44615385 0 19.0625 1.3125 C19.73861328 1.44567627 20.41472656 1.57885254 21.11132812 1.71606445 C26.51435373 2.81508313 31.77994979 4.23070414 37 6 C37 6.33 37 6.66 37 7 C34.36 7 31.72 7 29 7 C29 6.34 29 5.68 29 5 C27.700625 5.020625 26.40125 5.04125 25.0625 5.0625 C23.70834367 5.08399454 22.35243917 5.07148199 21 5 C20.67 4.67 20.34 4.34 20 4 C18.31816052 3.76712992 16.6287584 3.58735834 14.9375 3.4375 C13.55884766 3.31181641 13.55884766 3.31181641 12.15234375 3.18359375 C11.08693359 3.09271484 11.08693359 3.09271484 10 3 C10 2.34 10 1.68 10 1 C7.03 1 4.06 1 1 1 C1 17.17 1 33.34 1 50 C0.67 50 0.34 50 0 50 C0 33.5 0 17 0 0 Z " fill="#E7C54D" transform="translate(246,56)"/>
<path d="M0 0 C0.33 0 0.66 0 1 0 C5.76276328 25.31947952 1.32123699 52.65720239 -9 76 C-10.15456216 72.53631352 -9.79384513 71.62671216 -8.6875 68.25 C-8.40648437 67.37085938 -8.12546875 66.49171875 -7.8359375 65.5859375 C-7.56007812 64.73257813 -7.28421875 63.87921875 -7 63 C-6.59731534 61.62699086 -6.20038252 60.25226402 -5.8125 58.875 C-5.544375 57.92625 -5.27625 56.9775 -5 56 C-4.34 56 -3.68 56 -3 56 C-3.020625 54.700625 -3.04125 53.40125 -3.0625 52.0625 C-3.08399454 50.70834367 -3.07148199 49.35243917 -3 48 C-2.505 47.505 -2.505 47.505 -2 47 C-1.79162581 45.17093765 -1.63250341 43.33611866 -1.5 41.5 C-1.11111111 36.11111111 -1.11111111 36.11111111 0 35 C0.08851529 32.40640678 0.11525945 29.83960309 0.09765625 27.24609375 C0.09553383 26.08292381 0.09553383 26.08292381 0.09336853 24.89625549 C0.08775345 22.40996506 0.07519846 19.9237634 0.0625 17.4375 C0.05748694 15.75586067 0.0529237 14.07421994 0.04882812 12.39257812 C0.03777913 8.26168434 0.02050445 4.13085724 0 0 Z " fill="#FE814C" transform="translate(260,360)"/>
<path d="M0 0 C2.55659603 0.27293881 5.1144167 0.53228625 7.67236328 0.79223633 C11.45000445 1.17894326 15.22488754 1.58940171 19 2 C19 2.33 19 2.66 19 3 C2.83 3 -13.34 3 -30 3 C-30 2.67 -30 2.34 -30 2 C-19.63701486 -0.19670464 -10.59416365 -1.37224074 0 0 Z " fill="#F4F7DF" transform="translate(176,509)"/>
<path d="M0 0 C-9.20140021 2.56922214 -17.82061246 4.44613465 -27.40234375 4.82421875 C-29.92832761 4.70907654 -29.92832761 4.70907654 -31 6 C-32.010625 6.020625 -33.02125 6.04125 -34.0625 6.0625 C-38.71625966 6.65134306 -40.87752393 9.54297331 -43.9453125 12.85546875 C-46.94170215 15.98287924 -50.2534136 18.80687625 -54 21 C-54.99 21 -55.98 21 -57 21 C-57 21.66 -57 22.32 -57 23 C-57.66 22.67 -58.32 22.34 -59 22 C-57.62897271 19.25794543 -55.51854008 18.60703128 -52.91601562 17.17285156 C-49.83689524 15.28802813 -47.3397309 12.871287 -44.75 10.375 C-36.80871911 2.83078316 -36.80871911 2.83078316 -30.5 2.5625 C-23.72110362 2.15744757 -17.13071839 1.12831465 -10.44921875 -0.07202148 C-9.670625 -0.20552002 -8.89203125 -0.33901855 -8.08984375 -0.4765625 C-7.39753662 -0.60111816 -6.70522949 -0.72567383 -5.99194336 -0.85400391 C-3.78135579 -1.01602515 -2.109019 -0.6440699 0 0 Z " fill="#C2B747" transform="translate(263,467)"/>
<path d="M0 0 C0.66 0.33 1.32 0.66 2 1 C0.56458334 2.29398147 -0.87341352 3.58510111 -2.3125 4.875 C-3.51326172 5.95394531 -3.51326172 5.95394531 -4.73828125 7.0546875 C-7 9 -7 9 -10 11 C-10.33 11.99 -10.66 12.98 -11 14 C-13.328125 15.46484375 -13.328125 15.46484375 -16.25 16.9375 C-20.20667071 18.99537932 -23.57380496 21.12641707 -27 24 C-27.66 24 -28.32 24 -29 24 C-29 24.66 -29 25.32 -29 26 C-34.41538462 29.07692308 -34.41538462 29.07692308 -37.375 28.6875 C-37.91125 28.460625 -38.4475 28.23375 -39 28 C-35.82377237 25.30501898 -32.61202829 23.14545655 -28.9609375 21.14453125 C-25.92005334 19.36967257 -23.07644682 17.31262905 -20.2109375 15.26953125 C-17.7961197 13.88293092 -15.71189983 13.52399421 -13 13 C-11.6830333 11.11629529 -11.6830333 11.11629529 -11 9 C-9.60334979 6.20669958 -7.37665906 5.47460055 -4.72265625 4.01953125 C-2.84186334 2.90640891 -1.41531706 1.6650789 0 0 Z " fill="#C6885C" transform="translate(375,409)"/>
<path d="M0 0 C0.99 0 1.98 0 3 0 C1.04921161 4.19129783 -1.59031946 7.77644724 -4.26953125 11.52734375 C-5.62633573 13.46607341 -6.85613797 15.40653608 -8.0625 17.4375 C-10.40375044 20.53399252 -12.51047744 21.35787174 -16 23 C-17.89714037 24.53276267 -19.69481001 26.13641197 -21.484375 27.79296875 C-23 29 -23 29 -25 29 C-25 29.66 -25 30.32 -25 31 C-25.66 30.67 -26.32 30.34 -27 30 C-26.54625 29.566875 -26.0925 29.13375 -25.625 28.6875 C-23.79975666 26.89201658 -23.79975666 26.89201658 -22 24 C-19.66279674 22.46236628 -17.38405106 21.16459331 -14.8125 20.0625 C-11.66704917 18.21861503 -11.11174226 15.33522677 -10 12 C-9.01 11.34 -8.02 10.68 -7 10 C-5.80767387 7.94996045 -5.80767387 7.94996045 -5 6 C-4.01 6 -3.02 6 -2 6 C-2 4.68 -2 3.36 -2 2 C-1.34 2 -0.68 2 0 2 C0 1.34 0 0.68 0 0 Z " fill="#C09659" transform="translate(407,375)"/>
<path d="M0 0 C0.85889277 2.89550971 1.07777678 5.18834243 0.75 8.1875 C0.68296875 8.88230469 0.6159375 9.57710938 0.546875 10.29296875 C0 13 0 13 -0.70800781 14.78857422 C-3.56850275 22.05178822 -3.37396034 29.02572156 -3.25 36.75 C-3.24484375 38.05066406 -3.2396875 39.35132813 -3.234375 40.69140625 C-3.19112685 45.94065079 -3.13523884 50.86305828 -2 56 C-1.88321201 58.67678073 -1.9545494 61.31841457 -2 64 C-2.33 64 -2.66 64 -3 64 C-4.88587866 54.77460277 -5.39622311 45.77447811 -5.375 36.375 C-5.37611786 35.67566345 -5.37723572 34.9763269 -5.37838745 34.25579834 C-5.36942993 22.86085697 -5.21159832 10.42319664 0 0 Z " fill="#F0C157" transform="translate(7,344)"/>
<path d="M0 0 C1.32970606 2.65941212 0.78286673 3.98811384 0.1875 6.875 C0.01605469 7.73867188 -0.15539062 8.60234375 -0.33203125 9.4921875 C-0.9687727 11.88276065 -1.80949471 13.8400115 -3 16 C-3.99 16 -4.98 16 -6 16 C-6.061875 17.010625 -6.12375 18.02125 -6.1875 19.0625 C-6.80032556 23.41444965 -8.81230671 26.96892748 -12 30 C-12.99 30 -13.98 30 -15 30 C-13.03921145 24.72853329 -10.28621036 19.96376708 -7.55859375 15.05859375 C-6.31208293 12.61243341 -5.4771722 10.67347163 -5 8 C-4.34 8 -3.68 8 -3 8 C-2.87625 7.4225 -2.7525 6.845 -2.625 6.25 C-1.99351176 3.97664233 -1.11141809 2.0746471 0 0 Z " fill="#77A972" transform="translate(447,314)"/>
<path d="M0 0 C-1.94082224 1.94082224 -5.40693515 1.6806521 -8.0625 2 C-8.7726123 2.08902588 -9.48272461 2.17805176 -10.21435547 2.26977539 C-16.6269011 3.03660015 -23.02387204 3.35572011 -29.4765625 3.55859375 C-33.24458932 4.03064146 -35.64160827 5.31139688 -39 7 C-40.32 6.67 -41.64 6.34 -43 6 C-39.04 4.35 -35.08 2.7 -31 1 C-31 0.67 -31 0.34 -31 0 C-27.06756732 -0.16783149 -23.13491104 -0.32836761 -19.2019043 -0.48217773 C-17.2067109 -0.56173399 -15.21174989 -0.64705005 -13.21679688 -0.73242188 C-11.96318359 -0.78076172 -10.70957031 -0.82910156 -9.41796875 -0.87890625 C-7.68196411 -0.94960327 -7.68196411 -0.94960327 -5.91088867 -1.02172852 C-3 -1 -3 -1 0 0 Z " fill="#DDC83B" transform="translate(123,256)"/>
<path d="M0 0 C6.21455572 9.32183358 5.43395509 20.06366238 5.33618164 30.83203125 C5.31249752 33.62529217 5.31564751 36.41760088 5.32226562 39.2109375 C5.3166901 41.00781812 5.30958101 42.80469478 5.30078125 44.6015625 C5.30169266 45.42572662 5.30260406 46.24989075 5.30354309 47.09902954 C5.23976171 52.37155663 4.45806232 56.92888899 3 62 C2.67 62 2.34 62 2 62 C2.10393066 60.95730957 2.10393066 60.95730957 2.20996094 59.89355469 C3.82284137 42.42737978 4.7489253 24.00243668 0.65625 6.8359375 C0 4 0 4 0 0 Z " fill="#F34962" transform="translate(258,346)"/>
<path d="M0 0 C0 3.34419152 -0.47519394 4.06840321 -2.375 6.6875 C-2.81585938 7.31011719 -3.25671875 7.93273437 -3.7109375 8.57421875 C-4.13632812 9.04472656 -4.56171875 9.51523437 -5 10 C-5.66 10 -6.32 10 -7 10 C-8.38646021 12.20202504 -8.99173953 13.69436261 -9.0625 16.3125 C-7.69171185 19.77978769 -5.61157091 21.62380731 -2.921875 24.15234375 C-0.04833033 26.9149182 2.44340201 29.94455363 5 33 C4.67 33.66 4.34 34.32 4 35 C3.53102295 34.50072998 3.0620459 34.00145996 2.57885742 33.48706055 C0.44889856 31.220076 -1.6817927 28.95378111 -3.8125 26.6875 C-4.55048828 25.90181641 -5.28847656 25.11613281 -6.04882812 24.30664062 C-7.11713867 23.1706543 -7.11713867 23.1706543 -8.20703125 22.01171875 C-8.8616333 21.31522217 -9.51623535 20.61872559 -10.19067383 19.90112305 C-11.77013708 18.24152511 -13.37128186 16.61108655 -15 15 C-12.23270024 12.14884267 -9.42661646 9.48375322 -6.375 6.9375 C-3.86707118 4.82297178 -1.8092981 2.76716181 0 0 Z " fill="#80AF7C" transform="translate(402,11)"/>
<path d="M0 0 C0.33 0.66 0.66 1.32 1 2 C2.83860596 2.70238652 2.83860596 2.70238652 5.125 3.25 C15.56343107 6.21104492 26.72998589 10.31439135 36 16 C36.495 16.99 36.495 16.99 37 18 C32.33844529 16.94055575 28.48937534 15.28706805 24.25 13.0625 C19.41655905 10.57327791 14.82732639 8.94093372 9.55859375 7.65625 C5.91278068 6.72114069 2.49654068 5.38542178 -1 4 C-0.67 2.68 -0.34 1.36 0 0 Z " fill="#FC8047" transform="translate(161,252)"/>
<path d="M0 0 C0 15.84 0 31.68 0 48 C-0.33 48 -0.66 48 -1 48 C-1 32.49 -1 16.98 -1 1 C-2.98 1.99 -2.98 1.99 -5 3 C-7.40837755 3.28878735 -9.82810468 3.49045026 -12.25 3.625 C-13.51328125 3.69976562 -14.7765625 3.77453125 -16.078125 3.8515625 C-17.04234375 3.90054688 -18.0065625 3.94953125 -19 4 C-12.7900374 -0.13997507 -7.38187546 0 0 0 Z " fill="#E3E058" transform="translate(216,58)"/>
<path d="M0 0 C1.65 0.33 3.3 0.66 5 1 C0.01595832 7.03331362 -5.41915303 12.5184171 -11 18 C-11.66 16.68 -12.32 15.36 -13 14 C-9.50640535 10.40365256 -5.88901869 7.16548033 -2 4 C-1.34 4.33 -0.68 4.66 0 5 C-0.33 4.01 -0.66 3.02 -1 2 C-0.67 1.34 -0.34 0.68 0 0 Z " fill="#FCB739" transform="translate(316,91)"/>
<path d="M0 0 C0.66 0.33 1.32 0.66 2 1 C0.68 1.33 -0.64 1.66 -2 2 C-2 2.66 -2 3.32 -2 4 C-5.08809695 5.76462683 -6.23312136 6 -10 6 C-10 6.99 -10 7.98 -10 9 C-12.06049855 9.81756238 -14.12348853 10.62884734 -16.1875 11.4375 C-17.33605469 11.88996094 -18.48460937 12.34242188 -19.66796875 12.80859375 C-22.47123233 13.81093301 -25.07112576 14.52012795 -28 15 C-24.375 12 -24.375 12 -21 12 C-21 11.34 -21 10.68 -21 10 C-20.34 9.67 -19.68 9.34 -19 9 C-18.67 8.01 -18.34 7.02 -18 6 C-15.48828125 5.15625 -15.48828125 5.15625 -12.3125 4.5 C-7.16824571 3.35445735 -7.16824571 3.35445735 -2.375 1.25 C-1.59125 0.8375 -0.8075 0.425 0 0 Z " fill="#D66962" transform="translate(334,438)"/>
<path d="M0 0 C0.33 0 0.66 0 1 0 C1.19332092 6.22929354 1.37079361 12.45889214 1.53710938 18.68896484 C1.59560723 20.80951217 1.65776984 22.92996162 1.72363281 25.05029297 C1.81752469 28.09324324 1.89834935 31.13629898 1.9765625 34.1796875 C2.00875885 35.13181122 2.0409552 36.08393494 2.0741272 37.06491089 C2.09429901 37.94567291 2.11447083 38.82643494 2.13525391 39.73388672 C2.15746002 40.51110077 2.17966614 41.28831482 2.20254517 42.08908081 C2 44 2 44 0 46 C-0.69748583 47.31747324 -1.36959957 48.64914193 -2 50 C-1.93941406 49.071875 -1.87882812 48.14375 -1.81640625 47.1875 C-0.84620485 31.47297021 -0.45055524 15.73611255 0 0 Z " fill="#D0F0D6" transform="translate(510,208)"/>
<path d="M0 0 C0.99 0.495 0.99 0.495 2 1 C2.75227269 3.62707728 3.40717241 6.21190731 4 8.875 C5.27642676 14.709153 5.27642676 14.709153 8 20 C8.47463606 21.34160136 8.9088082 22.69787311 9.3125 24.0625 C10.76145385 28.64209507 12.81589263 32.7222856 15.109375 36.93359375 C15.40328125 37.61550781 15.6971875 38.29742187 16 39 C15.67 39.66 15.34 40.32 15 41 C-0.78943437 13.02566714 -0.78943437 13.02566714 0 0 Z " fill="#EEC150" transform="translate(5,408)"/>
<path d="M0 0 C0.99 0.66 1.98 1.32 3 2 C-1.95 6.95 -6.9 11.9 -12 17 C-12.66 15.68 -13.32 14.36 -14 13 C-10.50640535 9.40365256 -6.88901869 6.16548033 -3 3 C-2.34 3.33 -1.68 3.66 -1 4 C-1.33 3.01 -1.66 2.02 -2 1 C-1.34 0.67 -0.68 0.34 0 0 Z " fill="#FCB73A" transform="translate(253,156)"/>
<path d="M0 0 C0.99 0.66 1.98 1.32 3 2 C-1.95 6.95 -6.9 11.9 -12 17 C-12.66 15.68 -13.32 14.36 -14 13 C-10.50640535 9.40365256 -6.88901869 6.16548033 -3 3 C-2.34 3.33 -1.68 3.66 -1 4 C-1.33 3.01 -1.66 2.02 -2 1 C-1.34 0.67 -0.68 0.34 0 0 Z " fill="#FCB73A" transform="translate(269,140)"/>
<path d="M0 0 C0.99 0.66 1.98 1.32 3 2 C-1.95 6.95 -6.9 11.9 -12 17 C-12.66 15.68 -13.32 14.36 -14 13 C-10.50640535 9.40365256 -6.88901869 6.16548033 -3 3 C-2.34 3.33 -1.68 3.66 -1 4 C-1.33 3.01 -1.66 2.02 -2 1 C-1.34 0.67 -0.68 0.34 0 0 Z " fill="#FCB73A" transform="translate(285,124)"/>
<path d="M0 0 C0.99 0.66 1.98 1.32 3 2 C-1.95 6.95 -6.9 11.9 -12 17 C-12.66 15.68 -13.32 14.36 -14 13 C-10.50640535 9.40365256 -6.88901869 6.16548033 -3 3 C-2.34 3.33 -1.68 3.66 -1 4 C-1.33 3.01 -1.66 2.02 -2 1 C-1.34 0.67 -0.68 0.34 0 0 Z " fill="#FCB73A" transform="translate(301,108)"/>
<path d="M0 0 C0.33 0 0.66 0 1 0 C-0.07954545 26.07954545 -0.07954545 26.07954545 -3 29 C-3.49118348 31.28177055 -3.89887035 33.57269299 -4.3046875 35.87109375 C-5 38 -5 38 -8 40 C-7.75765625 38.95585937 -7.5153125 37.91171875 -7.265625 36.8359375 C-4.47108703 24.62037664 -2.16184726 12.34199298 0 0 Z " fill="#D7F6DC" transform="translate(507,259)"/>
<path d="M0 0 C2.97922593 -0.02683987 5.95821295 -0.04676037 8.9375 -0.0625 C9.78763672 -0.07087891 10.63777344 -0.07925781 11.51367188 -0.08789062 C12.32255859 -0.09111328 13.13144531 -0.09433594 13.96484375 -0.09765625 C14.7137085 -0.10289307 15.46257324 -0.10812988 16.23413086 -0.11352539 C18 0 18 0 19 1 C21.85227019 1.56344744 24.69631608 2.08134945 27.5625 2.5625 C28.36880859 2.70107422 29.17511719 2.83964844 30.00585938 2.98242188 C32.00329811 3.32517763 34.00157472 3.66304388 36 4 C36 4.66 36 5.32 36 6 C36.99 6.33 37.98 6.66 39 7 C35.59287917 8.70356042 32.00597428 6.7102628 28.5 5.6875 C19.05213557 3.04384403 9.76048387 1.78130516 0 1 C0 0.67 0 0.34 0 0 Z " fill="#FCF3C9" transform="translate(246,55)"/>
<path d="M0 0 C0.66 0.33 1.32 0.66 2 1 C1.69707031 1.52207031 1.39414062 2.04414063 1.08203125 2.58203125 C-3.34734815 10.36411014 -7.44024453 18.38991341 -10 27 C-10.96631842 24.39094027 -11.12728443 23.31396825 -10.0625 20.6875 C-8.74432129 17.97140571 -8.74432129 17.97140571 -9.375 14.75 C-8.86112131 9.61121306 -6.368109 7.52534626 -2.84765625 3.91796875 C-0.93994295 2.12860401 -0.93994295 2.12860401 0 0 Z " fill="#FCF3D6" transform="translate(19,313)"/>
<path d="M0 0 C0.33 1.32 0.66 2.64 1 4 C0.34 4 -0.32 4 -1 4 C-1.2475 4.5775 -1.495 5.155 -1.75 5.75 C-3.18299988 8.32939979 -4.78424676 10.06121592 -7 12 C-7.66 12 -8.32 12 -9 12 C-9.20625 12.61875 -9.4125 13.2375 -9.625 13.875 C-11.54775888 16.84653645 -13.66594527 17.13024659 -17 18 C-11.72898586 11.58930713 -5.90871848 5.81409488 0 0 Z " fill="#C33671" transform="translate(350,63)"/>
<path d="M0 0 C0.66 0 1.32 0 2 0 C3.22306261 1.48750858 4.44272351 2.97816897 5.6328125 4.4921875 C7.0420842 6.21630804 7.0420842 6.21630804 9.6875 7.4375 C13.02647661 9.69356527 13.12637737 12.16950078 14 16 C15.2564906 19.1923011 15.2564906 19.1923011 18 21 C17.67 22.32 17.34 23.64 17 25 C16.52691406 24.27296875 16.05382812 23.5459375 15.56640625 22.796875 C11.16210612 16.10027832 6.56708263 9.65577822 1.6875 3.30078125 C0 1 0 1 0 0 Z " fill="#79AB75" transform="translate(411,51)"/>
<path d="M0 0 C0.33 1.32 0.66 2.64 1 4 C0.34 4 -0.32 4 -1 4 C-1 5.65 -1 7.3 -1 9 C-2.32 9.33 -3.64 9.66 -5 10 C-4.938125 10.721875 -4.87625 11.44375 -4.8125 12.1875 C-5.04105621 15.61584316 -6.20789923 17.07953949 -8 20 C-9.11050172 22.96634018 -10.07004475 25.97269888 -11 29 C-11.66 29 -12.32 29 -13 29 C-10.92968962 18.44141704 -5.93196639 8.89794959 0 0 Z " fill="#F0C352" transform="translate(22,311)"/>
<path d="M0 0 C0 4.50998424 -2.12028768 7.01365589 -5.0625 10.3125 C-7 12 -7 12 -9 12 C-9.33 12.99 -9.66 13.98 -10 15 C-11.65 15.33 -13.3 15.66 -15 16 C-10.30233025 10.33870569 -5.25276628 5.14771096 0 0 Z " fill="#C33772" transform="translate(366,47)"/>
<path d="M0 0 C0 0.99 0 1.98 0 3 C-0.66 3 -1.32 3 -2 3 C-2.33 3.99 -2.66 4.98 -3 6 C-4.64991582 6.70710678 -6.3207762 7.36562656 -8 8 C-10.02318078 9.29788956 -12.02866014 10.62464661 -14 12 C-14.99 11.34 -15.98 10.68 -17 10 C-14.545324 8.32771465 -12.08660326 6.6620314 -9.625 5 C-8.92632812 4.52304687 -8.22765625 4.04609375 -7.5078125 3.5546875 C-6.8375 3.10351562 -6.1671875 2.65234375 -5.4765625 2.1875 C-4.85861816 1.76855469 -4.24067383 1.34960938 -3.60400391 0.91796875 C-2 0 -2 0 0 0 Z " fill="#EEFAE5" transform="translate(388,458)"/>
<path d="M0 0 C1.47906892 -0.02689216 2.95827483 -0.04634621 4.4375 -0.0625 C5.26121094 -0.07410156 6.08492187 -0.08570313 6.93359375 -0.09765625 C9 0 9 0 10 1 C13.57734085 1.44810901 17.15337211 1.82158646 20.7421875 2.16210938 C21.495 2.24138672 22.2478125 2.32066406 23.0234375 2.40234375 C23.71356934 2.46929443 24.40370117 2.53624512 25.11474609 2.60522461 C27 3 27 3 30 5 C19.88873728 4.50100262 10.00494828 3.61017136 0 2 C0 1.34 0 0.68 0 0 Z " fill="#A6D76B" transform="translate(170,507)"/>
<path d="M0 0 C0 0.33 0 0.66 0 1 C-3.85255857 1.6761872 -7.70726957 2.33923092 -11.5625 3 C-13.19155273 3.28617187 -13.19155273 3.28617187 -14.85351562 3.578125 C-20.30913274 4.50674068 -25.46452096 5.25413964 -31 5 C-30.360625 4.690625 -29.72125 4.38125 -29.0625 4.0625 C-27.06389179 3.1654837 -27.06389179 3.1654837 -26 2 C-23.14408442 1.59286115 -20.30448614 1.24394745 -17.4375 0.9375 C-16.25704102 0.80118164 -16.25704102 0.80118164 -15.05273438 0.66210938 C-10.00318032 0.10844846 -5.07922421 -0.08727189 0 0 Z " fill="#A0D662" transform="translate(280,505)"/>
<path d="M0 0 C0.625 1.875 0.625 1.875 1 4 C0.34 4.66 -0.32 5.32 -1 6 C-1.98221055 8.53916438 -2.84727492 11.10447662 -3.70703125 13.6875 C-5.35114724 16.62803374 -6.83275891 17.07862077 -10 18 C-8.70126608 14.45970129 -7.15122134 11.52988067 -5 8.4375 C-3.09937057 5.69584204 -1.42409849 3.01936265 0 0 Z " fill="#809D72" transform="translate(431,344)"/>
<path d="M0 0 C0.66 0.66 1.32 1.32 2 2 C-2.95 6.95 -7.9 11.9 -13 17 C-13.66 16.01 -14.32 15.02 -15 14 C-14.01 14 -13.02 14 -12 14 C-12 13.34 -12 12.68 -12 12 C-11.34 11.67 -10.68 11.34 -10 11 C-9.566875 10.01 -9.566875 10.01 -9.125 9 C-8 7 -8 7 -5.875 6.25 C-5.25625 6.1675 -4.6375 6.085 -4 6 C-3.896875 5.38125 -3.79375 4.7625 -3.6875 4.125 C-3 2 -3 2 0 0 Z " fill="#FEECF9" transform="translate(367,43)"/>
<path d="M0 0 C0.33 0 0.66 0 1 0 C1.65077173 3.16567207 2.2946984 6.33270077 2.9375 9.5 C3.11990234 10.386875 3.30230469 11.27375 3.49023438 12.1875 C4.55412335 17.44891455 5.40785806 22.6644895 6 28 C2.33754142 25.31214524 2.01920326 21.58909909 1.3125 17.375 C1.18512451 16.66021484 1.05774902 15.94542969 0.92651367 15.20898438 C0.0596957 10.07900327 -0.27896952 5.20743107 0 0 Z " fill="#FCECBE" transform="translate(2,396)"/>
<path d="M0 0 C1.68416016 0.72316406 1.68416016 0.72316406 3.40234375 1.4609375 C14.40968662 6.15231689 14.40968662 6.15231689 26 9 C26 9.33 26 9.66 26 10 C17.76557056 9.67580986 10.70210288 7.88996879 3 5 C3 4.34 3 3.68 3 3 C2.01 2.67 1.02 2.34 0 2 C0 1.34 0 0.68 0 0 Z " fill="#EEFCDE" transform="translate(48,246)"/>
<path d="M0 0 C0.66 0.33 1.32 0.66 2 1 C1.57847656 1.95261719 1.15695313 2.90523437 0.72265625 3.88671875 C0.16901168 5.1535326 -0.38435931 6.42046605 -0.9375 7.6875 C-1.21529297 8.31333984 -1.49308594 8.93917969 -1.77929688 9.58398438 C-3.2788865 13.03484724 -4.43729857 16.27477406 -5 20 C-9.21912747 19.5205537 -11.79663178 18.83374881 -15 16 C-11.37471432 15.79859524 -9.13498292 16.14223235 -6 18 C-5.896875 17.175 -5.79375 16.35 -5.6875 15.5 C-4.61423559 10.03610848 -2.65443548 4.90049627 0 0 Z " fill="#FDF5D2" transform="translate(103,137)"/>
<path d="M0 0 C2.5654594 2.5654594 2.54046087 4.47686668 3 8 C3.99 8.33 4.98 8.66 6 9 C6.66 14.61 7.32 20.22 8 26 C4.52666847 22.52666847 4.52270376 21.4081683 4 16.6875 C3.36353604 11.83311389 2.42389503 8.29690483 0 4 C0 2.68 0 1.36 0 0 Z " fill="#FA6D56" transform="translate(252,332)"/>
<path d="M0 0 C2.8212419 3.42517748 4.70233708 7.18832431 6.5625 11.1875 C6.8726001 11.85080322 7.1827002 12.51410645 7.50219727 13.19750977 C9.71855208 18.07230355 11.16162853 22.69031399 12 28 C10 27 10 27 9.25390625 24.890625 C9.02574219 24.01921875 8.79757812 23.1478125 8.5625 22.25 C7.485381 18.40314641 6.20436156 15.35902713 4 12 C4 11.34 4 10.68 4 10 C3.34 10 2.68 10 2 10 C0.68373308 6.38026598 0 3.90432869 0 0 Z " fill="#B0345F" transform="translate(439,96)"/>
<path d="M0 0 C2.05078125 0.03255208 4.1015625 0.06510417 6.15234375 0.09765625 C6.15234375 0.42765625 6.15234375 0.75765625 6.15234375 1.09765625 C-4.24403127 3.80373449 -14.06787042 5.75598317 -24.84765625 6.09765625 C-21.67756628 3.98426294 -20.40614584 3.78752361 -16.72265625 3.53515625 C-13.4784465 3.55280746 -13.4784465 3.55280746 -10.84765625 2.09765625 C-8.79036455 1.77842133 -6.73152104 1.58604273 -4.66015625 1.37890625 C-2.48897258 1.04199844 -2.20945083 0.11677859 0 0 Z " fill="#D85564" transform="translate(264.84765625,462.90234375)"/>
<path d="M0 0 C-0.33 1.32 -0.66 2.64 -1 4 C-1.66 4 -2.32 4 -3 4 C-3.33 4.99 -3.66 5.98 -4 7 C-4.99 7 -5.98 7 -7 7 C-7 8.32 -7 9.64 -7 11 C-9.31 11.66 -11.62 12.32 -14 13 C-3.15384615 0 -3.15384615 0 0 0 Z " fill="#F1C24D" transform="translate(50,281)"/>
<path d="M0 0 C1 2 1 2 0.328125 4.1015625 C-0.02765625 4.93429687 -0.3834375 5.76703125 -0.75 6.625 C-2.10762004 9.85342979 -3.40114914 13.07104995 -4.5625 16.375 C-5.77572893 19.43444687 -6.85595545 21.54966337 -9 24 C-9 22.02 -9 20.04 -9 18 C-8.34 18 -7.68 18 -7 18 C-7 16.68 -7 15.36 -7 14 C-6.34 14 -5.68 14 -5 14 C-5 12.02 -5 10.04 -5 8 C-4.34 8 -3.68 8 -3 8 C-2.814375 6.8553125 -2.814375 6.8553125 -2.625 5.6875 C-2 3 -2 3 0 0 Z " fill="#B0345F" transform="translate(452,298)"/>
<path d="M0 0 C1.94566808 2.91850212 2.5152457 4.57622848 3.1875 7.9375 C3.36667969 8.79214844 3.54585938 9.64679688 3.73046875 10.52734375 C4.00123705 13.01134859 3.77059444 14.64449502 3 17 C0.984375 15.421875 0.984375 15.421875 -1 13 C-1.171875 9.765625 -1.171875 9.765625 -0.75 6.25 C-0.55664062 4.49429688 -0.55664062 4.49429688 -0.359375 2.703125 C-0.24078125 1.81109375 -0.1221875 0.9190625 0 0 Z " fill="#6BC176" transform="translate(499,138)"/>
<path d="M0 0 C1.12377697 3.30435084 0.89554742 5.0506862 -0.4375 8.25 C-0.72496094 8.95640625 -1.01242188 9.6628125 -1.30859375 10.390625 C-1.53675781 10.92171875 -1.76492187 11.4528125 -2 12 C-2.66 12 -3.32 12 -4 12 C-3.938125 13.051875 -3.938125 13.051875 -3.875 14.125 C-4.01668332 17.38371628 -4.86734686 19.9559947 -6 23 C-6.99 22.34 -7.98 21.68 -9 21 C-8.34 21 -7.68 21 -7 21 C-6.89816406 19.99839844 -6.79632813 18.99679688 -6.69140625 17.96484375 C-6.10132162 13.83425135 -4.65946491 10.33803791 -2.9375 6.5625 C-2.65583984 5.92634766 -2.37417969 5.29019531 -2.08398438 4.63476562 C-1.39710188 3.08636949 -0.69965593 1.54266643 0 0 Z " fill="#F7DC71" transform="translate(105,136)"/>
<path d="M0 0 C0.66 0.33 1.32 0.66 2 1 C1.57847656 1.47050781 1.15695312 1.94101562 0.72265625 2.42578125 C0.17480469 3.04839844 -0.37304688 3.67101562 -0.9375 4.3125 C-1.75541016 5.23482422 -1.75541016 5.23482422 -2.58984375 6.17578125 C-4.20081559 8.05241958 -4.20081559 8.05241958 -5 11 C-7.8125 12.0625 -7.8125 12.0625 -11 13 C-12.34320306 13.64655067 -13.67891985 14.30937025 -15 15 C-14.04882866 13.8274869 -13.08882991 12.66212985 -12.125 11.5 C-11.59132813 10.8503125 -11.05765625 10.200625 -10.5078125 9.53125 C-9.76144531 8.77328125 -9.76144531 8.77328125 -9 8 C-8.34 8 -7.68 8 -7 8 C-7 7.34 -7 6.68 -7 6 C-6.34 6 -5.68 6 -5 6 C-5 5.34 -5 4.68 -5 4 C-3.37373596 2.61767557 -1.7074998 1.28062485 0 0 Z " fill="#B1C94F" transform="translate(387,400)"/>
<path d="M0 0 C2.0625 0.4375 2.0625 0.4375 4 1 C2.421875 3.48046875 2.421875 3.48046875 0 6 C-3.234375 6.48828125 -3.234375 6.48828125 -6.75 6.3125 C-7.92046875 6.26738281 -9.0909375 6.22226562 -10.296875 6.17578125 C-11.18890625 6.11777344 -12.0809375 6.05976563 -13 6 C-10.65547166 3.65547166 -9.10275052 3.3073746 -5.9375 2.4375 C-2.6878857 1.7288742 -2.6878857 1.7288742 0 0 Z " fill="#B2CC3B" transform="translate(179,502)"/>
<path d="M0 0 C0.84648337 3.13198848 1.29734145 4.94198087 0 8 C-3.0463733 11.38485922 -6.3990539 14.22212729 -10 17 C-8.23576999 13.24868988 -6.06102752 9.76463789 -3.875 6.25 C-3.50246094 5.64800781 -3.12992188 5.04601562 -2.74609375 4.42578125 C-1.83225276 2.94957657 -0.91633402 1.47465846 0 0 Z " fill="#F4486A" transform="translate(246,444)"/>
<path d="M0 0 C6.93 0.495 6.93 0.495 14 1 C10.45059005 2.77470497 6.9547142 4.2172086 3.25 5.625 C2.07953125 6.07101562 0.9090625 6.51703125 -0.296875 6.9765625 C-1.18890625 7.31429688 -2.0809375 7.65203125 -3 8 C-3 7.34 -3 6.68 -3 6 C-1.02 5.01 0.96 4.02 3 3 C2.01 2.01 1.02 1.02 0 0 Z " fill="#F4F5C2" transform="translate(79,256)"/>
<path d="M0 0 C0.99 0 1.98 0 3 0 C1.4722133 3.43752007 -0.50181056 6.18953688 -3 9 C-3.66 9 -4.32 9 -5 9 C-5.268125 9.61875 -5.53625 10.2375 -5.8125 10.875 C-7 13 -7 13 -10 15 C-10 14.01 -10 13.02 -10 12 C-9.01 11.34 -8.02 10.68 -7 10 C-5.80767387 7.94996045 -5.80767387 7.94996045 -5 6 C-4.01 6 -3.02 6 -2 6 C-2 4.68 -2 3.36 -2 2 C-1.34 2 -0.68 2 0 2 C0 1.34 0 0.68 0 0 Z " fill="#D56064" transform="translate(407,375)"/>
<path d="M0 0 C-1.72718516 0.96189997 -3.45684058 1.91936508 -5.1875 2.875 C-6.15042969 3.40867187 -7.11335938 3.94234375 -8.10546875 4.4921875 C-10.69739518 5.8423678 -13.26761098 6.97098329 -16 8 C-15.34 6.35 -14.68 4.7 -14 3 C-10.535 2.505 -10.535 2.505 -7 2 C-7 1.34 -7 0.68 -7 0 C-3.98968256 -0.93423645 -3.13349732 -1.04449911 0 0 Z " fill="#FDF3D5" transform="translate(75,265)"/>
<path d="M0 0 C0.66 0 1.32 0 2 0 C0.6062718 4.43458973 -1.60582235 6.87378374 -5 10 C-5.99 8.68 -6.98 7.36 -8 6 C-7.01 6 -6.02 6 -5 6 C-4.67 4.35 -4.34 2.7 -4 1 C-2.68 1.33 -1.36 1.66 0 2 C0 1.34 0 0.68 0 0 Z " fill="#65BF6D" transform="translate(455,386)"/>
<path d="M0 0 C0.43570312 0.37511719 0.87140625 0.75023437 1.3203125 1.13671875 C5.18607599 4.45859777 9.07657648 7.74642927 13 11 C12.625 12.9375 12.625 12.9375 12 15 C11.01 15.495 11.01 15.495 10 16 C9.835 15.154375 9.67 14.30875 9.5 13.4375 C7.66009835 9.22105871 5.26171427 7.38584646 1.6796875 4.61328125 C1.12539063 4.08089844 0.57109375 3.54851562 0 3 C0 2.01 0 1.02 0 0 Z " fill="#90DA52" transform="translate(437,384)"/>
<path d="M0 0 C0.33 0 0.66 0 1 0 C1.34025361 3.66835926 1.36623402 5.46536373 -0.75 8.5546875 C-1.4925 9.32039063 -2.235 10.08609375 -3 10.875 C-3.7425 11.65617187 -4.485 12.43734375 -5.25 13.2421875 C-6.11625 14.11230469 -6.11625 14.11230469 -7 15 C-7.66 14.67 -8.32 14.34 -9 14 C-7.52504318 11.66390677 -6.04531255 9.33109833 -4.5625 7 C-4.14162109 6.33226562 -3.72074219 5.66453125 -3.28710938 4.9765625 C-2.21811183 3.30037435 -1.11197395 1.64799163 0 0 Z " fill="#DFF8E1" transform="translate(469,368)"/>
<path d="M0 0 C0.33 0 0.66 0 1 0 C1.08710289 3.10398978 1.14042309 6.20766548 1.1875 9.3125 C1.21263672 10.19357422 1.23777344 11.07464844 1.26367188 11.98242188 C1.27333984 12.82998047 1.28300781 13.67753906 1.29296875 14.55078125 C1.3086792 15.33106689 1.32438965 16.11135254 1.34057617 16.9152832 C0.91847304 19.49903853 -0.01489942 20.36292167 -2 22 C-2.29883729 14.52906777 -1.15925507 7.36955011 0 0 Z " fill="#88936E" transform="translate(466,234)"/>
<path d="M0 0 C5.75 0.75 5.75 0.75 8 3 C5.69 5.31 3.38 7.62 1 10 C0.34 9.01 -0.32 8.02 -1 7 C0.32 6.67 1.64 6.34 3 6 C3 5.01 3 4.02 3 3 C2.01 3 1.02 3 0 3 C0 2.01 0 1.02 0 0 Z " fill="#FDCF56" transform="translate(217,186)"/>
<path d="M0 0 C0.33 1.32 0.66 2.64 1 4 C-0.1446875 4.5878125 -0.1446875 4.5878125 -1.3125 5.1875 C-4.24716071 7.16668978 -5.40126898 8.8866817 -7 12 C-8.32 11.67 -9.64 11.34 -11 11 C-7.37 7.37 -3.74 3.74 0 0 Z " fill="#C23872" transform="translate(378,35)"/>
<path d="M0 0 C5.61 0 11.22 0 17 0 C17 0.66 17 1.32 17 2 C16.34 2 15.68 2 15 2 C14.67 2.66 14.34 3.32 14 4 C13.40832031 3.86722656 12.81664062 3.73445312 12.20703125 3.59765625 C8.14553475 2.68994822 4.08625829 1.7908887 0 1 C0 0.67 0 0.34 0 0 Z " fill="#E2F7E5" transform="translate(206,0)"/>
<path d="M0 0 C3.31002696 1.43753955 5.43889464 3.22483544 7.9375 5.8125 C8.62714844 6.52019531 9.31679688 7.22789062 10.02734375 7.95703125 C11.00380859 8.96830078 11.00380859 8.96830078 12 10 C12.9976048 11.00238948 13.99714695 12.00286121 15 13 C15.66 13.66 16.32 14.32 17 15 C16.67 15.66 16.34 16.32 16 17 C13.32932797 14.3581833 10.66414667 11.7108958 8 9.0625 C7.236875 8.30775391 6.47375 7.55300781 5.6875 6.77539062 C4.965625 6.05673828 4.24375 5.33808594 3.5 4.59765625 C2.8296875 3.93258057 2.159375 3.26750488 1.46875 2.58227539 C0 1 0 1 0 0 Z " fill="#65C557" transform="translate(422,368)"/>
<path d="M0 0 C0.66 0 1.32 0 2 0 C0.45454854 5.47932789 -2.15543212 10.11429181 -5 15 C-6.07195705 11.78412884 -6.05718257 11.07333951 -5 8 C-3.87890625 5.859375 -3.87890625 5.859375 -2.5625 3.75 C-2.13066406 3.04359375 -1.69882812 2.3371875 -1.25390625 1.609375 C-0.84011719 1.07828125 -0.42632812 0.5471875 0 0 Z " fill="#65BE74" transform="translate(479,346)"/>
<path d="M0 0 C1.32 0.66 2.64 1.32 4 2 C0.7 5.3 -2.6 8.6 -6 12 C-6.66 11.01 -7.32 10.02 -8 9 C-7.01 9 -6.02 9 -5 9 C-5.33 8.01 -5.66 7.02 -6 6 C-5.34 6 -4.68 6 -4 6 C-3.67 5.34 -3.34 4.68 -3 4 C-2.01 4 -1.02 4 0 4 C-0.33 3.01 -0.66 2.02 -1 1 C-0.67 0.67 -0.34 0.34 0 0 Z " fill="#FDBB4A" transform="translate(236,172)"/>
<path d="M0 0 C2.12843845 3.19265768 2.53244346 5.07375043 3.125 8.8125 C3.29257812 9.82957031 3.46015625 10.84664062 3.6328125 11.89453125 C3.99555755 14.96242818 4.06457941 17.9140266 4 21 C3.34 20.67 2.68 20.34 2 20 C1.51835976 17.56206793 1.15781367 15.21186982 0.875 12.75 C0.78863281 12.08097656 0.70226562 11.41195312 0.61328125 10.72265625 C0.16857081 7.12967823 -0.09820698 3.61962856 0 0 Z " fill="#6FC07F" transform="translate(503,155)"/>
<path d="M0 0 C0 1.98 0 3.96 0 6 C-0.33 6 -0.66 6 -1 6 C-1 4.35 -1 2.7 -1 1 C-1.51046875 1.31710938 -2.0209375 1.63421875 -2.546875 1.9609375 C-5.80214659 3.33976273 -8.72843132 3.4293573 -12.25 3.625 C-13.51328125 3.69976562 -14.7765625 3.77453125 -16.078125 3.8515625 C-17.04234375 3.90054688 -18.0065625 3.94953125 -19 4 C-13.06147771 0.04098514 -6.91895619 -0.24710558 0 0 Z " fill="#F1DC6C" transform="translate(216,58)"/>
<path d="M0 0 C0.98613281 0.13921875 1.97226563 0.2784375 2.98828125 0.421875 C4.47908203 0.61523438 4.47908203 0.61523438 6 0.8125 C6.75925781 0.93109375 7.51851562 1.0496875 8.30078125 1.171875 C8.30078125 1.501875 8.30078125 1.831875 8.30078125 2.171875 C7.44613281 2.37683594 6.59148437 2.58179688 5.7109375 2.79296875 C4.60621094 3.06238281 3.50148437 3.33179688 2.36328125 3.609375 C1.26113281 3.87621094 0.15898437 4.14304688 -0.9765625 4.41796875 C-3.59343129 4.90183225 -3.59343129 4.90183225 -4.69921875 6.171875 C-6.3653899 6.21251332 -8.0330997 6.214596 -9.69921875 6.171875 C-9.10109375 5.924375 -8.50296875 5.676875 -7.88671875 5.421875 C-5.56318865 4.32706774 -5.56318865 4.32706774 -4.41796875 2.078125 C-2.69921875 0.171875 -2.69921875 0.171875 0 0 Z " fill="#FAF5D8" transform="translate(196.69921875,57.828125)"/>
<path d="M0 0 C-3.40024603 1.97862727 -6.56330661 2.56066663 -10.4375 3.125 C-12.10619141 3.37636719 -12.10619141 3.37636719 -13.80859375 3.6328125 C-16.5808915 3.95177944 -19.2144227 4.07289361 -22 4 C-18.75454527 1.10393633 -16.42926121 0.55892717 -12.125 0.3125 C-11.11695313 0.24675781 -10.10890625 0.18101562 -9.0703125 0.11328125 C-6.04355928 0.00160715 -3.02850692 -0.0226008 0 0 Z " fill="#EFA351" transform="translate(163,508)"/>
<path d="M0 0 C0.33 0.66 0.66 1.32 1 2 C0.34 2 -0.32 2 -1 2 C-1.268125 2.598125 -1.53625 3.19625 -1.8125 3.8125 C-3.95153032 7.75281902 -5.3032143 8.77561139 -9.6875 10.1875 C-10.780625 10.455625 -11.87375 10.72375 -13 11 C-9.0299782 6.78185183 -4.69159716 3.38772897 0 0 Z " fill="#E9FBDC" transform="translate(406,443)"/>
<path d="M0 0 C0 0.66 0 1.32 0 2 C-2.06049855 2.81756238 -4.12348853 3.62884734 -6.1875 4.4375 C-7.33605469 4.88996094 -8.48460937 5.34242188 -9.66796875 5.80859375 C-12.47123233 6.81093301 -15.07112576 7.52012795 -18 8 C-14.375 5 -14.375 5 -11 5 C-11 4.34 -11 3.68 -11 3 C-9.54293274 2.49632243 -8.08429904 1.99717444 -6.625 1.5 C-5.81289063 1.2215625 -5.00078125 0.943125 -4.1640625 0.65625 C-2 0 -2 0 0 0 Z " fill="#C2A15D" transform="translate(324,445)"/>
<path d="M0 0 C2.31 0.33 4.62 0.66 7 1 C5.02 3.31 3.04 5.62 1 8 C-1 4 -1 4 -0.625 1.75 C-0.41875 1.1725 -0.2125 0.595 0 0 Z " fill="#FCD053" transform="translate(163,242)"/>
<path d="M0 0 C-1.25805377 4.50802601 -2.90407165 7.4912812 -6 11 C-6.36601307 3.5577342 -6.36601307 3.5577342 -4.6875 1 C-3 0 -3 0 0 0 Z " fill="#FCF6E0" transform="translate(113,122)"/>
<path d="M0 0 C1.98 0.99 1.98 0.99 4 2 C4 3.32 4 4.64 4 6 C4.66 6 5.32 6 6 6 C6.53012738 7.28788008 7.0488329 8.58046678 7.5625 9.875 C7.85253906 10.59429687 8.14257812 11.31359375 8.44140625 12.0546875 C9 14 9 14 8 16 C4.61186817 10.78848424 1.97085885 5.91257654 0 0 Z " fill="#F55661" transform="translate(239,306)"/>
<path d="M0 0 C1.305239 3.91571701 0.32239848 5.03892997 -1.4375 8.6875 C-1.91058594 9.68136719 -2.38367188 10.67523438 -2.87109375 11.69921875 C-3.42990234 12.83810547 -3.42990234 12.83810547 -4 14 C-4.33 14 -4.66 14 -5 14 C-5 12.35 -5 10.7 -5 9 C-4.34 9 -3.68 9 -3 9 C-3 8.01 -3 7.02 -3 6 C-3.66 5.67 -4.32 5.34 -5 5 C-4.34 4.01 -3.68 3.02 -3 2 C-2.01 2 -1.02 2 0 2 C0 1.34 0 0.68 0 0 Z " fill="#67BF75" transform="translate(488,327)"/>
<path d="M0 0 C6.52693833 2.30362529 11.276236 5.99836753 16 11 C9.47306167 8.69637471 4.723764 5.00163247 0 0 Z " fill="#FE8049" transform="translate(198,270)"/>
<path d="M0 0 C0.66 0 1.32 0 2 0 C2 0.66 2 1.32 2 2 C3.32 2.33 4.64 2.66 6 3 C3.69 5.31 1.38 7.62 -1 10 C-1.66 9.01 -2.32 8.02 -3 7 C-1.68 6.67 -0.36 6.34 1 6 C1 5.01 1 4.02 1 3 C0.34 2.67 -0.32 2.34 -1 2 C-0.67 1.34 -0.34 0.68 0 0 Z " fill="#FDCD58" transform="translate(187,218)"/>
<path d="M0 0 C0.66 0 1.32 0 2 0 C2 0.66 2 1.32 2 2 C3.32 2.33 4.64 2.66 6 3 C3.69 5.31 1.38 7.62 -1 10 C-1.66 9.01 -2.32 8.02 -3 7 C-1.68 6.67 -0.36 6.34 1 6 C1 5.01 1 4.02 1 3 C0.34 2.67 -0.32 2.34 -1 2 C-0.67 1.34 -0.34 0.68 0 0 Z " fill="#FDCD58" transform="translate(203,202)"/>
<path d="M0 0 C4.96850504 4.80823068 4.96850504 4.80823068 5.09765625 9.6953125 C5.09100493 11.17190652 5.07907574 12.64848404 5.0625 14.125 C5.05798828 14.87910156 5.05347656 15.63320313 5.04882812 16.41015625 C5.03703499 18.27347127 5.01909942 20.13674555 5 22 C4.67 22 4.34 22 4 22 C3.96261719 21.04738281 3.92523438 20.09476563 3.88671875 19.11328125 C3.82097656 17.85902344 3.75523437 16.60476562 3.6875 15.3125 C3.62949219 14.07113281 3.57148438 12.82976563 3.51171875 11.55078125 C2.98528493 7.89789315 1.98591297 6.04009733 0 3 C0 2.01 0 1.02 0 0 Z " fill="#E3FAE4" transform="translate(211,35)"/>
<path d="M0 0 C0.33 0 0.66 0 1 0 C1.33693273 6.96327638 0.3030887 12.43345544 -2 19 C-3.92236145 12.6114003 -2.34703171 6.10228244 0 0 Z " fill="#A8445F" transform="translate(463,253)"/>
<path d="M0 0 C0.66 1.32 1.32 2.64 2 4 C1.34 4 0.68 4 0 4 C1.305239 6.61047801 2.35826574 6.68066423 5.0625 7.625 C6.16271484 8.01558594 6.16271484 8.01558594 7.28515625 8.4140625 C8.13400391 8.70410156 8.13400391 8.70410156 9 9 C7 10 7 10 5.125 9.4765625 C4.42375 9.19554687 3.7225 8.91453125 3 8.625 C2.29875 8.34914063 1.5975 8.07328125 0.875 7.7890625 C-0.43630239 7.23722274 -1.72750919 6.6362454 -3 6 C-2.42655063 3.13275314 -2.1385485 2.1385485 0 0 Z " fill="#EE4B64" transform="translate(165,248)"/>
<path d="M0 0 C0 2 0 2 -1.11328125 3.51953125 C-3.66354233 5.52066779 -6.03893293 5.97653324 -9.1875 6.6875 C-10.27417969 6.93886719 -11.36085937 7.19023437 -12.48046875 7.44921875 C-13.31191406 7.63097656 -14.14335937 7.81273437 -15 8 C-15 7.34 -15 6.68 -15 6 C-12.03 5.34 -9.06 4.68 -6 4 C-6 3.34 -6 2.68 -6 2 C-2.25 0 -2.25 0 0 0 Z " fill="#C1C234" transform="translate(198,494)"/>
<path d="M0 0 C0.66 0.33 1.32 0.66 2 1 C1.195625 1.86625 0.39125 2.7325 -0.4375 3.625 C-4.09731374 8.01884417 -4.16366129 12.43551605 -4 18 C-6.51475368 14.22786948 -6.44796416 12.47964158 -6 8 C-4.63506476 4.74218288 -3.27011338 1.63505669 0 0 Z " fill="#F69820" transform="translate(96,302)"/>
<path d="M0 0 C5.98511371 0.34302035 10.75117306 0.82307843 16 4 C12.11764181 5.49828872 9.56550712 4.43110582 5.75 3.0625 C4.67234375 2.68222656 3.5946875 2.30195313 2.484375 1.91015625 C1.66453125 1.60980469 0.8446875 1.30945313 0 1 C0 0.67 0 0.34 0 0 Z " fill="#AEDC6F" transform="translate(57,250)"/>
<path d="M0 0 C0 3.20395416 -0.74335022 5.09399739 -2 8 C-2.66 8 -3.32 8 -4 8 C-4 8.66 -4 9.32 -4 10 C-5.32 9.67 -6.64 9.34 -8 9 C-5.36 6.03 -2.72 3.06 0 0 Z " fill="#E7F8D5" transform="translate(439,410)"/>
<path d="M0 0 C0.66 0.33 1.32 0.66 2 1 C-0.97 3.97 -3.94 6.94 -7 10 C-7.66 9.01 -8.32 8.02 -9 7 C-6.03 4.69 -3.06 2.38 0 0 Z " fill="#FEEDF9" transform="translate(385,26)"/>
<path d="M0 0 C0.33 0.66 0.66 1.32 1 2 C0.06421005 4.35981813 -0.93347808 6.69631264 -2 9 C-2.66 9 -3.32 9 -4 9 C-4 9.66 -4 10.32 -4 11 C-4.66 11 -5.32 11 -6 11 C-5.34 9.02 -4.68 7.04 -4 5 C-3.34 5 -2.68 5 -2 5 C-1.34 3.35 -0.68 1.7 0 0 Z " fill="#F7DC6F" transform="translate(117,117)"/>
<path d="M0 0 C0.33 0.66 0.66 1.32 1 2 C1.99 2 2.98 2 4 2 C4.33 1.34 4.66 0.68 5 0 C6.05404945 3.98196457 5.84098656 6.98195309 5 11 C2.8480563 7.77208445 2.79913557 6.71599191 3 3 C2.01 3 1.02 3 0 3 C0 2.01 0 1.02 0 0 Z " fill="#64BB6B" transform="translate(448,112)"/>
<path d="M0 0 C2.475 0.99 2.475 0.99 5 2 C3.63016497 5.16115776 3.0109362 5.9927092 0 8 C-0.98120464 4.94736336 -0.98120464 3.05263664 0 0 Z " fill="#F6BB47" transform="translate(323,82)"/>
<path d="M0 0 C-2.09836004 1.03271642 -4.20390891 2.05083717 -6.3125 3.0625 C-7.48425781 3.63097656 -8.65601563 4.19945312 -9.86328125 4.78515625 C-13 6 -13 6 -16 5 C-13.63746991 2.63746991 -11.68772729 1.962152 -8.5625 0.8125 C-7.59441406 0.44769531 -6.62632812 0.08289063 -5.62890625 -0.29296875 C-3 -1 -3 -1 0 0 Z " fill="#A4D567" transform="translate(346,483)"/>
<path d="M0 0 C0 3 0 3 -1 5 C-6.17985612 7.30215827 -6.17985612 7.30215827 -9.375 6.125 C-9.91125 5.75375 -10.4475 5.3825 -11 5 C-8.36 4.34 -5.72 3.68 -3 3 C-3 2.34 -3 1.68 -3 1 C-2.01 0.67 -1.02 0.34 0 0 Z " fill="#A3D34B" transform="translate(335,439)"/>
<path d="M0 0 C1.11126362 3.33379087 0.95133201 5.62709561 0 9 C-0.99 10.485 -0.99 10.485 -2 12 C-2.66 12 -3.32 12 -4 12 C-3.52309796 10.37433394 -3.04340334 8.74948689 -2.5625 7.125 C-2.29566406 6.22007812 -2.02882813 5.31515625 -1.75390625 4.3828125 C-1 2 -1 2 0 0 Z " fill="#DCF6E1" transform="translate(493,317)"/>
<path d="M0 0 C0.33 0.99 0.66 1.98 1 3 C0.236875 3.7425 -0.52625 4.485 -1.3125 5.25 C-3.4393702 7.4263323 -5.2559956 9.52167796 -7 12 C-7.66 11.67 -8.32 11.34 -9 11 C-6.03 7.37 -3.06 3.74 0 0 Z " fill="#F0C45C" transform="translate(35,294)"/>
<path d="M0 0 C0.33 0.66 0.66 1.32 1 2 C-0.61594832 4.04119788 -2.2856382 6.04072937 -4 8 C-4.66 8 -5.32 8 -6 8 C-6 8.66 -6 9.32 -6 10 C-7.32 10.33 -8.64 10.66 -10 11 C-9.67 10.34 -9.34 9.68 -9 9 C-8.34 9 -7.68 9 -7 9 C-6.6596875 8.1646875 -6.6596875 8.1646875 -6.3125 7.3125 C-4.64103234 4.36753316 -2.44723648 2.31843456 0 0 Z " fill="#F3DB67" transform="translate(137,95)"/>
<path d="M0 0 C3.57410797 2.68058098 6.31941902 5.42589203 9 9 C8.67 9.66 8.34 10.32 8 11 C5.5625 10.3125 5.5625 10.3125 3 9 C2.3125 6.625 2.3125 6.625 2 4 C1.00916033 1.76591887 1.00916033 1.76591887 0 0 Z " fill="#B1345E" transform="translate(403,43)"/>
<path d="M0 0 C1.1171875 1.640625 1.1171875 1.640625 2 4 C1.3203125 6.796875 1.3203125 6.796875 0.125 9.75 C-0.26429688 10.73484375 -0.65359375 11.7196875 -1.0546875 12.734375 C-1.36664063 13.48203125 -1.67859375 14.2296875 -2 15 C-2.66 15 -3.32 15 -4 15 C-3.52229477 13.06213915 -3.04278429 11.12472326 -2.5625 9.1875 C-2.29566406 8.10855469 -2.02882813 7.02960938 -1.75390625 5.91796875 C-1.23922588 3.9259157 -0.65062825 1.95188476 0 0 Z " fill="#DAF7DE" transform="translate(498,301)"/>
<path d="M0 0 C0.33 0.99 0.66 1.98 1 3 C1.66 3 2.32 3 3 3 C3 6.96 3 10.92 3 15 C2.67 15 2.34 15 2 15 C1.66048381 13.43883181 1.32867456 11.87598662 1 10.3125 C0.814375 9.44238281 0.62875 8.57226562 0.4375 7.67578125 C0.01027953 5.06287036 -0.07616201 2.64186962 0 0 Z " fill="#80A772" transform="translate(462,157)"/>
<path d="M0 0 C0.66 0.66 1.32 1.32 2 2 C-0.31 4.31 -2.62 6.62 -5 9 C-5.66 8.01 -6.32 7.02 -7 6 C-6.01 6 -5.02 6 -4 6 C-3.896875 5.38125 -3.79375 4.7625 -3.6875 4.125 C-3 2 -3 2 0 0 Z " fill="#FEECF9" transform="translate(351,59)"/>
<path d="M0 0 C3.97497544 3.40712181 5.86793788 7.32760855 8 12 C7.34 12 6.68 12 6 12 C2 6.58823529 2 6.58823529 2 4 C1.34 4 0.68 4 0 4 C0 2.68 0 1.36 0 0 Z " fill="#71BF7E" transform="translate(461,56)"/>
<path d="M0 0 C0.33 1.32 0.66 2.64 1 4 C0.34 4 -0.32 4 -1 4 C-1.66 5.98 -2.32 7.96 -3 10 C-3.99 9.34 -4.98 8.68 -6 8 C-4.02 5.36 -2.04 2.72 0 0 Z " fill="#E1F7E3" transform="translate(459,384)"/>
<path d="M0 0 C-0.3125 1.9375 -0.3125 1.9375 -1 4 C-3.92824652 4.97608217 -5.95613276 5.08226668 -9 5 C-6.45523312 2.20075644 -3.92372883 0 0 0 Z " fill="#F3C14C" transform="translate(75,265)"/>
<path d="M0 0 C0 3.77910478 -0.99703962 4.46106101 -3.5 7.1875 C-4.1496875 7.90292969 -4.799375 8.61835938 -5.46875 9.35546875 C-5.9740625 9.89816406 -6.479375 10.44085938 -7 11 C-7.99 10.67 -8.98 10.34 -10 10 C-6.7 6.7 -3.4 3.4 0 0 Z " fill="#D41A60" transform="translate(246,169)"/>
<path d="M0 0 C3.375 0.25 3.375 0.25 7 1 C8.4375 3.0625 8.4375 3.0625 9 5 C9.66 5 10.32 5 11 5 C10.67 5.66 10.34 6.32 10 7 C8.33073546 6.02526874 6.66464358 5.04510211 5 4.0625 C4.071875 3.51722656 3.14375 2.97195312 2.1875 2.41015625 C1.465625 1.94480469 0.74375 1.47945313 0 1 C0 0.67 0 0.34 0 0 Z " fill="#FDF1CE" transform="translate(315,76)"/>
<path d="M0 0 C0.66 0.33 1.32 0.66 2 1 C1.67 2.98 1.34 4.96 1 7 C-1.86724686 6.42655063 -2.8614515 6.1385485 -5 4 C-3.35 2.68 -1.7 1.36 0 0 Z " fill="#75B378" transform="translate(392,22)"/>
<path d="M0 0 C3.59905908 0.55550695 4.99909799 1.74887248 7.25 4.5625 C8.03117187 5.52349609 8.03117187 5.52349609 8.828125 6.50390625 C9.21484375 6.99761719 9.6015625 7.49132812 10 8 C9.67 8.66 9.34 9.32 9 10 C8.60167969 9.52949219 8.20335937 9.05898437 7.79296875 8.57421875 C7.26316406 7.95160156 6.73335938 7.32898438 6.1875 6.6875 C5.66542969 6.07261719 5.14335937 5.45773438 4.60546875 4.82421875 C3.12827531 3.14575321 1.59960869 1.56117966 0 0 Z " fill="#D6F4DB" transform="translate(420,6)"/>
<path d="M0 0 C2.31 0 4.62 0 7 0 C6.34 1.98 5.68 3.96 5 6 C3.2925002 4.71937515 1.62626404 3.38232443 0 2 C0 1.34 0 0.68 0 0 Z " fill="#E0F5E4" transform="translate(415,0)"/>
<path d="M0 0 C0 0.66 0 1.32 0 2 C-0.66 2 -1.32 2 -2 2 C-1.67 2.99 -1.34 3.98 -1 5 C-3.64 4.67 -6.28 4.34 -9 4 C-6.43425105 1.43425105 -3.68548192 0 0 0 Z " fill="#EDFAE1" transform="translate(332,489)"/>
<path d="M0 0 C0 0.66 0 1.32 0 2 C-3.45730521 4.44045073 -6.96678237 5.78065514 -11 7 C-8.52653212 3.01496841 -4.89193403 0 0 0 Z " fill="#F5DC6F" transform="translate(160,79)"/>
<path d="M0 0 C1.65 1.65 3.3 3.3 5 5 C4.67 5.66 4.34 6.32 4 7 C2.0625 6.6875 2.0625 6.6875 0 6 C-1 3 -1 3 0 0 Z " fill="#4EA264" transform="translate(234,16)"/>
<path d="M0 0 C0.33 0 0.66 0 1 0 C1.0810206 2.10353495 1.13919907 4.20795952 1.1875 6.3125 C1.22230469 7.48425781 1.25710938 8.65601563 1.29296875 9.86328125 C1 13 1 13 -2 16 C-1.34 10.72 -0.68 5.44 0 0 Z " fill="#FE873E" transform="translate(259,396)"/>
<path d="M0 0 C0.33 0.66 0.66 1.32 1 2 C-2.17647059 8.58823529 -2.17647059 8.58823529 -7 11 C-4.69 7.37 -2.38 3.74 0 0 Z " fill="#E0F8D9" transform="translate(452,393)"/>
<path d="M0 0 C0.66 0.33 1.32 0.66 2 1 C0.35 2.98 -1.3 4.96 -3 7 C-4.32 6.67 -5.64 6.34 -7 6 C-4.69 4.02 -2.38 2.04 0 0 Z " fill="#F0C658" transform="translate(57,274)"/>
<path d="M0 0 C0.66 0 1.32 0 2 0 C2 0.66 2 1.32 2 2 C3.32 2.33 4.64 2.66 6 3 C4.35 4.32 2.7 5.64 1 7 C1 5.68 1 4.36 1 3 C0.34 2.67 -0.32 2.34 -1 2 C-0.67 1.34 -0.34 0.68 0 0 Z " fill="#FDCD57" transform="translate(171,234)"/>
<path d="M0 0 C1.32 0.33 2.64 0.66 4 1 C1.36 3.64 -1.28 6.28 -4 9 C-4.66 8.34 -5.32 7.68 -6 7 C-5.195625 6.401875 -4.39125 5.80375 -3.5625 5.1875 C-0.77672016 3.19052724 -0.77672016 3.19052724 0 0 Z " fill="#FEEAF1" transform="translate(333,76)"/>
<path d="M0 0 C0.66 0 1.32 0 2 0 C3.625 2.5 3.625 2.5 5 5 C2.36 4.67 -0.28 4.34 -3 4 C-1.625 2 -1.625 2 0 0 Z " fill="#76C182" transform="translate(413,0)"/>
<path d="M0 0 C0.33 0.66 0.66 1.32 1 2 C-0.65 3.98 -2.3 5.96 -4 8 C-4.99 7.67 -5.98 7.34 -7 7 C-4.69 4.69 -2.38 2.38 0 0 Z " fill="#EDFCDA" transform="translate(422,428)"/>
<path d="M0 0 C0.66 0 1.32 0 2 0 C0.60667426 3.36720387 -0.9789286 4.9859524 -4 7 C-4.33 5.68 -4.66 4.36 -5 3 C-3.35 2.67 -1.7 2.34 0 2 C0 1.34 0 0.68 0 0 Z " fill="#9AD853" transform="translate(439,407)"/>
<path d="M0 0 C0.66 0 1.32 0 2 0 C0.68775452 3.93673644 -0.91910327 6.22719294 -4 9 C-3.4739075 5.21213403 -2.61896089 2.82847776 0 0 Z " fill="#70BF7F" transform="translate(462,376)"/>
<path d="M0 0 C2.2344598 4.03292745 2.54496743 7.44967434 3 12 C0.89366282 10.29171079 0.06198392 9.47851584 -0.29296875 6.73828125 C-0.25816406 5.93777344 -0.22335937 5.13726562 -0.1875 4.3125 C-0.16042969 3.50425781 -0.13335937 2.69601562 -0.10546875 1.86328125 C-0.07066406 1.24839844 -0.03585937 0.63351562 0 0 Z " fill="#FE8049" transform="translate(257,346)"/>
<path d="M0 0 C3.49234244 -0.09978121 6.59437148 0.22157062 10 1 C10 1.99 10 2.98 10 4 C5.78087253 3.5205537 3.20336822 2.83374881 0 0 Z " fill="#E9F6C3" transform="translate(88,153)"/>
<path d="M0 0 C1.98 0.99 1.98 0.99 4 2 C4.75 4.625 4.75 4.625 5 7 C5.66 7 6.32 7 7 7 C6.67 8.32 6.34 9.64 6 11 C4.02 7.37 2.04 3.74 0 0 Z " fill="#DEFAE2" transform="translate(464,59)"/>
<path d="M0 0 C-1.24420647 0.5345256 -2.49570936 1.05208611 -3.75 1.5625 C-4.44609375 1.85253906 -5.1421875 2.14257812 -5.859375 2.44140625 C-8.30012784 3.07831803 -9.6403655 2.80248831 -12 2 C-7.93192322 -0.71205119 -4.69252613 -1.56417538 0 0 Z " fill="#A3D566" transform="translate(317,495)"/>
<path d="M0 0 C0.99 0.33 1.98 0.66 3 1 C2.071875 1.763125 1.14375 2.52625 0.1875 3.3125 C-1.98276101 5.11848552 -4.05568065 6.9476629 -6 9 C-4.68775452 5.06326356 -3.08089673 2.77280706 0 0 Z " fill="#F59923" transform="translate(124,337)"/>
<path d="M0 0 C-0.625 1.875 -0.625 1.875 -2 4 C-5.125 5.25 -5.125 5.25 -8 6 C-7.34 5.01 -6.68 4.02 -6 3 C-5.34 3 -4.68 3 -4 3 C-4 2.34 -4 1.68 -4 1 C-2 0 -2 0 0 0 Z " fill="#F6DA63" transform="translate(146,89)"/>
<path d="M0 0 C-1.26418246 0.69965443 -2.53665402 1.38434763 -3.8125 2.0625 C-4.52019531 2.44535156 -5.22789062 2.82820313 -5.95703125 3.22265625 C-8 4 -8 4 -11 3 C-4.03571429 -1.41964286 -4.03571429 -1.41964286 0 0 Z " fill="#FEF5D0" transform="translate(180,68)"/>
<path d="M0 0 C2.5 2.3125 2.5 2.3125 5 5 C5 5.99 5 6.98 5 8 C3.0625 7.375 3.0625 7.375 1 6 C0.25 2.875 0.25 2.875 0 0 Z " fill="#AD3B62" transform="translate(418,62)"/>
<path d="M0 0 C1.9375 0.8125 1.9375 0.8125 4 2 C4.33 2.99 4.66 3.98 5 5 C5.99 5.33 6.98 5.66 8 6 C7.67 6.99 7.34 7.98 7 9 C5.83037314 7.69013727 4.66437056 6.3770374 3.5 5.0625 C2.8503125 4.33160156 2.200625 3.60070312 1.53125 2.84765625 C0 1 0 1 0 0 Z " fill="#DEF8E1" transform="translate(440,27)"/>
<path d="M0 0 C2.31 1.98 4.62 3.96 7 6 C6.01 6.33 5.02 6.66 4 7 C1.8125 5.8125 1.8125 5.8125 0 4 C0 2.68 0 1.36 0 0 Z " fill="#69BC76" transform="translate(427,14)"/>
<path d="M0 0 C0.66 0.33 1.32 0.66 2 1 C0.35 2.65 -1.3 4.3 -3 6 C-3.99 5.34 -4.98 4.68 -6 4 C-4.02 2.68 -2.04 1.36 0 0 Z " fill="#E9FAD9" transform="translate(377,464)"/>
<path d="M0 0 C1.125 3.75 1.125 3.75 0 6 C-1.65 6 -3.3 6 -5 6 C-3.35 4.02 -1.7 2.04 0 0 Z " fill="#E9F9DA" transform="translate(412,437)"/>
<path d="M0 0 C3.2542015 2.83430453 4.5206753 4.68607774 5 9 C3.0625 8.4375 3.0625 8.4375 1 7 C0.25 3.375 0.25 3.375 0 0 Z " fill="#A84662" transform="translate(428,76)"/>
<path d="M0 0 C0.66 0.33 1.32 0.66 2 1 C0.87926138 1.83905565 -0.24674547 2.67107831 -1.375 3.5 C-2.00148438 3.9640625 -2.62796875 4.428125 -3.2734375 4.90625 C-5 6 -5 6 -7 6 C-7 5.01 -7 4.02 -7 3 C-4.69631264 1.93347808 -2.35981813 0.93578995 0 0 Z " fill="#A3D564" transform="translate(387,456)"/>
<path d="M0 0 C1.32 0 2.64 0 4 0 C4.33 2.31 4.66 4.62 5 7 C2.47411298 4.63707344 1.11179163 3.33537489 0 0 Z " fill="#F0C655" transform="translate(21,450)"/>
<path d="M0 0 C1.32 0.66 2.64 1.32 4 2 C0.25 5 0.25 5 -2 5 C-1.34 3.35 -0.68 1.7 0 0 Z " fill="#74AC70" transform="translate(423,357)"/>
<path d="M0 0 C1.32 0 2.64 0 4 0 C2.8141763 3.37503669 1.72426311 5.64722731 -1 8 C-0.67 5.36 -0.34 2.72 0 0 Z " fill="#BD2860" transform="translate(422,352)"/>
<path d="M0 0 C0.66 0 1.32 0 2 0 C0.25 5.75 0.25 5.75 -2 8 C-2.125 5.125 -2.125 5.125 -2 2 C-1.34 1.34 -0.68 0.68 0 0 Z " fill="#73C17F" transform="translate(479,346)"/>
<path d="M0 0 C0.99 0 1.98 0 3 0 C1.25 5.75 1.25 5.75 -1 8 C-0.67 5.36 -0.34 2.72 0 0 Z " fill="#B5315E" transform="translate(438,326)"/>
<path d="M0 0 C2.5 2.3125 2.5 2.3125 5 5 C5 5.99 5 6.98 5 8 C2.5 6.25 2.5 6.25 0 4 C0 2.68 0 1.36 0 0 Z " fill="#FD7B4B" transform="translate(236,304)"/>
<path d="M0 0 C0.33 0 0.66 0 1 0 C0.53199289 4.05606165 0.12046792 7.46588679 -2 11 C-2 8.36 -2 5.72 -2 3 C-1.34 3 -0.68 3 0 3 C0 2.01 0 1.02 0 0 Z " fill="#B0375F" transform="translate(459,273)"/>
<path d="M0 0 C0.33 0.99 0.66 1.98 1 3 C-1.97 5.475 -1.97 5.475 -5 8 C-5.66 7.67 -6.32 7.34 -7 7 C-4.69 4.69 -2.38 2.38 0 0 Z " fill="#DE5357" transform="translate(181,232)"/>
<path d="M0 0 C0.33 0.99 0.66 1.98 1 3 C-1.97 5.475 -1.97 5.475 -5 8 C-5.66 7.67 -6.32 7.34 -7 7 C-4.69 4.69 -2.38 2.38 0 0 Z " fill="#DF5359" transform="translate(189,224)"/>
<path d="M0 0 C0.33 0.99 0.66 1.98 1 3 C-1.97 5.475 -1.97 5.475 -5 8 C-5.66 7.67 -6.32 7.34 -7 7 C-4.69 4.69 -2.38 2.38 0 0 Z " fill="#DE5357" transform="translate(197,216)"/>
<path d="M0 0 C0.33 0.99 0.66 1.98 1 3 C-1.97 5.475 -1.97 5.475 -5 8 C-5.66 7.67 -6.32 7.34 -7 7 C-4.69 4.69 -2.38 2.38 0 0 Z " fill="#DF5359" transform="translate(205,208)"/>
<path d="M0 0 C0.33 0.99 0.66 1.98 1 3 C-1.97 5.475 -1.97 5.475 -5 8 C-5.66 7.67 -6.32 7.34 -7 7 C-4.69 4.69 -2.38 2.38 0 0 Z " fill="#DE5357" transform="translate(213,200)"/>
<path d="M0 0 C0.33 0.99 0.66 1.98 1 3 C-1.97 5.475 -1.97 5.475 -5 8 C-5.66 7.67 -6.32 7.34 -7 7 C-4.69 4.69 -2.38 2.38 0 0 Z " fill="#DF5359" transform="translate(221,192)"/>
<path d="M0 0 C1.46726798 3.81489674 0.43336419 6.29011622 -1 10 C-1.99 9.34 -2.98 8.68 -4 8 C-3.34 8 -2.68 8 -2 8 C-1.855625 6.865625 -1.71125 5.73125 -1.5625 4.5625 C-1 1 -1 1 0 0 Z " fill="#EDDC64" transform="translate(100,149)"/>
<path d="M0 0 C3.0916909 2.52956528 3.90931332 5.22454612 5 9 C4.01 8.67 3.02 8.34 2 8 C2 7.01 2 6.02 2 5 C1.34 5 0.68 5 0 5 C0 3.35 0 1.7 0 0 Z " fill="#77BF84" transform="translate(476,81)"/>
<path d="M0 0 C0.66 0 1.32 0 2 0 C4.1875 2.8125 4.1875 2.8125 6 6 C5.67 6.99 5.34 7.98 5 9 C2.67527795 6.14693203 1.2491742 3.45925163 0 0 Z " fill="#DEF7E3" transform="translate(473,74)"/>
</svg>
