<?xml version="1.0" encoding="UTF-8"?>
<svg version="1.1" xmlns="http://www.w3.org/2000/svg" width="512" height="512">
<path d="M0 0 C1.14404297 -0.0112793 2.28808594 -0.02255859 3.46679688 -0.03417969 C5.34334961 -0.0220343 5.34334961 -0.0220343 7.2578125 -0.00964355 C8.59180465 -0.01506511 9.9257908 -0.02218797 11.25976562 -0.03088379 C14.87966598 -0.04911656 18.49911024 -0.04205017 22.11901855 -0.02936745 C25.9074832 -0.01923938 29.69590882 -0.02863258 33.484375 -0.03491211 C39.84642548 -0.04218911 46.20829022 -0.03259956 52.5703125 -0.0135498 C59.92541387 0.00821921 67.28007173 0.00116786 74.63516235 -0.02085543 C80.95036617 -0.03900805 87.26543648 -0.04156848 93.58065796 -0.03110075 C97.35234853 -0.02486499 101.12383064 -0.02403225 104.89550781 -0.0372467 C108.44153603 -0.04880278 111.98699253 -0.04078487 115.53295898 -0.01766968 C117.45490737 -0.00985857 119.37690412 -0.02174065 121.29882812 -0.03417969 C123.01489258 -0.01726074 123.01489258 -0.01726074 124.765625 0 C125.75965332 0.0015081 126.75368164 0.0030162 127.77783203 0.00457001 C131.12454155 0.65126007 132.31259881 1.8473346 134.3828125 4.50793457 C134.92871094 7.62414551 134.92871094 7.62414551 134.9921875 11.24230957 C135.02441406 12.53781738 135.05664062 13.8333252 135.08984375 15.16809082 C135.10458719 16.53136759 135.11890472 17.89464902 135.1328125 19.25793457 C135.16098064 20.63687833 135.19090928 22.01578732 135.22265625 23.39465332 C135.29337975 26.76580673 135.34606754 30.13626737 135.3828125 33.50793457 C135.93627318 33.65370564 136.48973387 33.7994767 137.05996609 33.94966507 C150.55961723 37.50577722 164.05699644 41.07039968 177.55200863 44.6440773 C184.07827566 46.37216371 190.60525855 48.09744949 197.1340332 49.81604004 C203.43821382 51.47551853 209.74026276 53.14293793 216.04107857 54.8151474 C218.4416446 55.45087062 220.84290972 56.08396021 223.2448864 56.71433258 C226.61690476 57.59976958 229.98628408 58.49465799 233.35522461 59.39172363 C234.34209763 59.64851395 235.32897064 59.90530426 236.3457489 60.1698761 C252.03639922 64.3817085 252.03639922 64.3817085 255.25369263 69.46238708 C255.62388519 70.66069656 255.99407776 71.85900604 256.37548828 73.09362793 C256.60099932 73.78160682 256.82651035 74.4695857 257.05885506 75.17841244 C257.57052633 76.74175762 258.06820148 78.30972865 258.55442047 79.88117599 C259.45189451 82.72698758 260.41710409 85.54307215 261.39788818 88.36123657 C266.07785381 101.80856186 270.59565795 115.31267261 275.13050652 128.80957127 C277.65243251 136.31445772 280.18921738 143.81396532 282.74569595 151.30715424 C284.55786614 156.62296104 286.35243955 161.94451822 288.13454926 167.27047676 C289.19298691 170.4320967 290.26087882 173.58964514 291.34356308 176.74310493 C301.96696583 207.73015016 301.96696583 207.73015016 296.3828125 219.44543457 C295.7228125 220.45605957 295.0628125 221.46668457 294.3828125 222.50793457 C295.0428125 222.50793457 295.7028125 222.50793457 296.3828125 222.50793457 C297.63671875 224.15246582 297.63671875 224.15246582 298.9453125 226.32043457 C299.37972656 227.02812988 299.81414062 227.7358252 300.26171875 228.46496582 C301.9880562 231.61086995 302.50958966 234.16040199 302.52998352 237.68717957 C302.54071648 238.96338921 302.54071648 238.96338921 302.55166626 240.26538086 C302.55435516 241.195802 302.55704407 242.12622314 302.55981445 243.08483887 C302.56638565 244.0672908 302.57295685 245.04974274 302.57972717 246.06196594 C302.59946397 249.31869583 302.61112439 252.57537957 302.62109375 255.83215332 C302.62516928 256.94473825 302.6292448 258.05732319 302.63344383 259.20362282 C302.65430736 265.09371378 302.66860722 270.98378144 302.67797852 276.87390137 C302.6890364 282.95239111 302.72342872 289.03051412 302.76315022 295.10887432 C302.78932034 299.78697888 302.79767079 304.46499617 302.80125999 309.1431675 C302.80612581 311.38340541 302.81773959 313.62363944 302.83629799 315.86380577 C302.86069445 319.00418344 302.859723 322.14361382 302.8527832 325.28405762 C302.86559326 326.2043576 302.87840332 327.12465759 302.89160156 328.07284546 C302.84802664 333.50043527 302.00343077 337.18508297 299.18025494 341.85491657 C298.11371242 343.62419107 298.11371242 343.62419107 299.0078125 346.19543457 C299.4615625 346.95855957 299.9153125 347.72168457 300.3828125 348.50793457 C302.44761624 352.70313493 302.67929773 356.51523696 302.67333984 361.10876465 C302.68005707 361.85742294 302.68677429 362.60608124 302.69369507 363.37742615 C302.71264018 365.8441742 302.71659762 368.31064961 302.71875 370.77746582 C302.7251809 372.499935 302.73190948 374.22240309 302.73892212 375.94487 C302.75088655 379.55356375 302.75460386 383.16216184 302.75341797 386.77087402 C302.75321495 391.38088162 302.78050272 395.99027156 302.81496239 400.60013294 C302.83727014 404.15792116 302.84125431 407.71556172 302.84019852 411.2734127 C302.84254919 412.97217624 302.85134253 414.67094418 302.86686325 416.36963844 C303.01478883 434.2336334 303.01478883 434.2336334 296.3828125 441.78527832 C295.7228125 442.33312988 295.0628125 442.88098145 294.3828125 443.44543457 C293.7228125 444.01133301 293.0628125 444.57723145 292.3828125 445.16027832 C290.32985113 446.54362143 288.77102926 446.97835994 286.3828125 447.50793457 C286.40375977 448.3654834 286.42470703 449.22303223 286.44628906 450.10656738 C286.51457777 453.29711929 286.56466763 456.48729803 286.60253906 459.67834473 C286.62261892 461.05770137 286.64988916 462.43697326 286.68457031 463.81604004 C286.73324067 465.80150436 286.75367668 467.78759711 286.7734375 469.77355957 C286.79438477 470.96755371 286.81533203 472.16154785 286.83691406 473.39172363 C286.27910109 477.21964021 285.37524514 478.13500098 282.3828125 480.50793457 C279.80273438 481.01586914 279.80273438 481.01586914 276.8515625 481.0255127 C275.74361328 481.03812134 274.63566406 481.05072998 273.49414062 481.0637207 C272.30240234 481.05562378 271.11066406 481.04752686 269.8828125 481.03918457 C268.04106445 481.04492493 268.04106445 481.04492493 266.16210938 481.05078125 C263.56639791 481.05350299 260.97065914 481.04612368 258.375 481.02941895 C254.39781651 481.00801532 250.42243968 481.0292142 246.4453125 481.05480957 C243.92447517 481.05216634 241.40363897 481.04704148 238.8828125 481.03918457 C237.69107422 481.04728149 236.49933594 481.05537842 235.27148438 481.0637207 C233.60956055 481.04480774 233.60956055 481.04480774 231.9140625 481.0255127 C230.94017578 481.02233032 229.96628906 481.01914795 228.96289062 481.01586914 C225.63949198 480.36159862 224.46847148 479.12613062 222.3828125 476.50793457 C221.31665742 473.30946932 221.30142821 471.09476818 221.34765625 467.73840332 C221.34185547 466.60209473 221.33605469 465.46578613 221.33007812 464.29504395 C221.32359928 461.90694103 221.34417156 459.51860251 221.39257812 457.13098145 C221.47529382 450.808341 221.47529382 450.808341 218.62304688 445.43640137 C216.60708744 443.94342868 214.56430191 442.73818201 212.3828125 441.50793457 C205.97464879 434.5938632 205.23525707 427.0424069 205.23132324 417.9173584 C205.22497463 416.80120887 205.22497463 416.80120887 205.21849775 415.66251087 C205.2055268 413.17999372 205.19945982 410.69750864 205.19335938 408.21496582 C205.18541261 406.4307333 205.17702431 404.6465027 205.16822815 402.86227417 C205.15019914 399.02528442 205.13517359 395.18829882 205.12245178 391.35128784 C205.10219869 385.28344004 205.07455096 379.2156397 205.04577637 373.14782715 C204.98063177 359.17254655 204.92517696 345.19723063 204.86978912 331.22190857 C204.81892075 318.41206625 204.76600985 305.60224115 204.70526361 292.79244137 C204.6769418 286.76112713 204.65333617 280.7298184 204.63333893 274.69847107 C204.61993782 270.94625896 204.60252636 267.1940732 204.58402824 263.44188309 C204.57628276 261.70284315 204.57020857 259.96379483 204.56593513 258.22474289 C204.55987031 255.84928748 204.54781308 253.4739338 204.53430176 251.09851074 C204.53400577 250.41192792 204.53370978 249.7253451 204.53340483 249.01795673 C204.50364336 245.08330641 204.13290469 241.36991479 203.3828125 237.50793457 C203.11210937 238.08027832 202.84140625 238.65262207 202.5625 239.24230957 C201.3828125 241.50793457 201.3828125 241.50793457 199.953125 243.58605957 C199.47617187 244.30277832 198.99921875 245.01949707 198.5078125 245.75793457 C198.01539063 246.46434082 197.52296875 247.17074707 197.015625 247.89855957 C196.24881495 251.06046767 196.72301308 251.426095 198.32250977 254.12097168 C200.6838347 258.65162045 200.8988579 262.27172149 200.71484375 267.30871582 C200.69895706 268.16065018 200.68307037 269.01258453 200.66670227 269.89033508 C200.6009603 272.76453444 200.49664281 275.63524928 200.3828125 278.50793457 C200.32380768 280.07435699 200.32380768 280.07435699 200.26361084 281.67242432 C199.99396212 288.507555 199.65029187 295.33680477 199.26586914 302.16638184 C199.06849494 305.72823463 198.89051108 309.29075162 198.71289062 312.8536377 C198.58711505 315.14862441 198.46020352 317.44354921 198.33203125 319.73840332 C198.28189377 320.78852097 198.23175629 321.83863861 198.18009949 322.920578 C197.76032401 329.90705077 197.0971501 337.13841204 192.5703125 342.75793457 C192.1784375 343.33543457 191.7865625 343.91293457 191.3828125 344.50793457 C192.03591335 346.93694055 192.03591335 346.93694055 193.3828125 349.50793457 C197.04657956 359.48152268 195.36743363 370.67699319 194.796875 381.10559082 C194.73503021 382.26110947 194.67318542 383.41662811 194.60946655 384.60716248 C194.47836723 387.03161957 194.3455022 389.45598179 194.2109375 391.88024902 C194.00818164 395.56372843 193.81638108 399.24767698 193.625 402.9317627 C193.4954621 405.30224214 193.36527558 407.67268624 193.234375 410.04309082 C193.17907623 411.12985611 193.12377747 412.2166214 193.06680298 413.33631897 C191.77687556 435.76173636 191.77687556 435.76173636 182.9453125 443.88293457 C180.16625645 446.29445885 177.97441294 446.86388285 174.3828125 447.50793457 C174.40375977 448.3654834 174.42470703 449.22303223 174.44628906 450.10656738 C174.51457777 453.29711929 174.56466763 456.48729803 174.60253906 459.67834473 C174.62261892 461.05770137 174.64988916 462.43697326 174.68457031 463.81604004 C174.73324067 465.80150436 174.75367668 467.78759711 174.7734375 469.77355957 C174.79438477 470.96755371 174.81533203 472.16154785 174.83691406 473.39172363 C174.3828125 476.50793457 174.3828125 476.50793457 172.89532471 478.67095184 C169.32088904 481.28434276 165.98930929 481.06189286 161.72851562 481.01586914 C160.40455151 481.02522908 160.40455151 481.02522908 159.05384064 481.03477812 C156.09031114 481.05075853 153.12759839 481.0380841 150.1640625 481.0255127 C148.04190592 481.03093156 145.91975309 481.03805289 143.79760742 481.04675293 C138.02907115 481.06501707 132.26082044 481.05790589 126.49227905 481.04523659 C120.46164162 481.03512498 114.431029 481.04449715 108.40039062 481.05078125 C98.27209066 481.05806301 88.14390728 481.04845603 78.015625 481.02941895 C66.29805407 481.00764928 54.58076151 481.01470027 42.86319733 481.03672457 C32.81130842 481.05486346 22.75950343 481.05744427 12.70760345 481.04696989 C6.70028621 481.04072667 0.6930999 481.03992214 -5.31420898 481.05311584 C-10.96134503 481.06465167 -16.60812141 481.05668989 -22.25521851 481.03353882 C-24.33050946 481.02823962 -26.40583057 481.02978609 -28.48110962 481.03858948 C-31.3087817 481.04948065 -34.13529301 481.03585923 -36.96289062 481.01586914 C-38.20198811 481.02925347 -38.20198811 481.02925347 -39.46611786 481.04290819 C-43.05701957 480.99348726 -45.19060056 480.81982672 -48.12969971 478.67095184 C-50.22275464 475.62735445 -50.07216995 473.44193429 -50.0078125 469.77355957 C-49.99492187 468.47805176 -49.98203125 467.18254395 -49.96875 465.84777832 C-49.93533116 464.48448633 -49.90147141 463.12120508 -49.8671875 461.75793457 C-49.84711457 460.37905393 -49.82886517 459.00014545 -49.8125 457.62121582 C-49.76534198 454.24941713 -49.69953288 450.8790277 -49.6171875 447.50793457 C-51.0410376 447.05088135 -51.0410376 447.05088135 -52.49365234 446.58459473 C-55.32560091 445.60844238 -56.99473628 444.78954011 -59.2421875 442.88293457 C-59.79132813 442.43691895 -60.34046875 441.99090332 -60.90625 441.53137207 C-66.36564439 435.07482802 -67.31163066 428.49635059 -67.7421875 420.25793457 C-67.84829346 418.60422852 -67.84829346 418.60422852 -67.95654297 416.91711426 C-68.1511577 413.80753714 -68.32882575 410.69748702 -68.5 407.58654785 C-68.66771192 404.61175769 -68.85165485 401.63801881 -69.03445435 398.66412354 C-69.27712743 394.69578881 -69.51031959 390.72691327 -69.7421875 386.75793457 C-69.78684143 386.00202026 -69.83149536 385.24610596 -69.87750244 384.46728516 C-71.56248914 355.54023863 -71.56248914 355.54023863 -67.296875 348.37512207 C-66.37356232 346.47231021 -66.37356232 346.47231021 -67.40234375 344.44934082 C-67.80324219 343.80867676 -68.20414062 343.1680127 -68.6171875 342.50793457 C-71.4956253 337.09647151 -72.64030108 332.58319699 -73.00610352 326.50012207 C-73.06609024 325.52720215 -73.12607697 324.55428223 -73.18788147 323.55187988 C-73.24834152 322.50612793 -73.30880157 321.46037598 -73.37109375 320.38293457 C-73.43626694 319.28562012 -73.50144012 318.18830566 -73.56858826 317.05773926 C-73.70568478 314.72776853 -73.84089538 312.39768618 -73.97436523 310.06750488 C-74.17577067 306.57583872 -74.38730435 303.08489011 -74.59960938 299.59387207 C-75.22752727 288.98828125 -75.76559566 278.38265388 -75.89453125 267.75793457 C-75.91423477 266.91907715 -75.93393829 266.08021973 -75.95423889 265.21594238 C-75.96878081 259.85406393 -74.92448457 256.335651 -72.6171875 251.50793457 C-72.80916567 247.47639302 -74.46804225 244.86060116 -76.6171875 241.50793457 C-77.29443771 240.17994572 -77.96301046 238.84743994 -78.6171875 237.50793457 C-80.76444053 247.50060478 -80.89891244 257.29172189 -80.87255859 267.45031738 C-80.87531378 269.23218953 -80.87899686 271.01406044 -80.88352966 272.79592896 C-80.89159425 276.60991327 -80.89382223 280.42383913 -80.89158249 284.23783112 C-80.88873315 290.27312449 -80.90315957 296.30830237 -80.92056274 302.34356689 C-80.96744192 319.49729713 -80.99153986 336.65101803 -80.99804688 353.80480957 C-81.00179913 363.29636028 -81.01983462 372.78777877 -81.05314124 382.27927279 C-81.07332379 388.27502672 -81.07574192 394.27043897 -81.06486106 400.26621294 C-81.06225059 403.9967356 -81.07627305 407.72705983 -81.09494209 411.45753098 C-81.10025498 413.18283489 -81.09878275 414.90817555 -81.08990669 416.63346481 C-81.0065646 434.25794795 -81.0065646 434.25794795 -87.6171875 441.78527832 C-88.2771875 442.33312988 -88.9371875 442.88098145 -89.6171875 443.44543457 C-90.2771875 444.01133301 -90.9371875 444.57723145 -91.6171875 445.16027832 C-93.67014887 446.54362143 -95.22897074 446.97835994 -97.6171875 447.50793457 C-97.5857666 448.79425781 -97.5857666 448.79425781 -97.55371094 450.10656738 C-97.48542223 453.29711929 -97.43533237 456.48729803 -97.39746094 459.67834473 C-97.37738108 461.05770137 -97.35011084 462.43697326 -97.31542969 463.81604004 C-97.26675933 465.80150436 -97.24632332 467.78759711 -97.2265625 469.77355957 C-97.20561523 470.96755371 -97.18466797 472.16154785 -97.16308594 473.39172363 C-97.72089891 477.21964021 -98.62475486 478.13500098 -101.6171875 480.50793457 C-104.19726562 481.01586914 -104.19726562 481.01586914 -107.1484375 481.0255127 C-108.25638672 481.03812134 -109.36433594 481.05072998 -110.50585938 481.0637207 C-111.69759766 481.05562378 -112.88933594 481.04752686 -114.1171875 481.03918457 C-115.95893555 481.04492493 -115.95893555 481.04492493 -117.83789062 481.05078125 C-120.43360209 481.05350299 -123.02934086 481.04612368 -125.625 481.02941895 C-129.60218349 481.00801532 -133.57756032 481.0292142 -137.5546875 481.05480957 C-140.07552483 481.05216634 -142.59636103 481.04704148 -145.1171875 481.03918457 C-146.30892578 481.04728149 -147.50066406 481.05537842 -148.72851562 481.0637207 C-150.39043945 481.04480774 -150.39043945 481.04480774 -152.0859375 481.0255127 C-153.05982422 481.02233032 -154.03371094 481.01914795 -155.03710938 481.01586914 C-158.36295228 480.36111742 -159.55824716 479.15388463 -161.6171875 476.50793457 C-162.07128906 473.39172363 -162.07128906 473.39172363 -162.0078125 469.77355957 C-161.99492187 468.47805176 -161.98203125 467.18254395 -161.96875 465.84777832 C-161.93533116 464.48448633 -161.90147141 463.12120508 -161.8671875 461.75793457 C-161.84711457 460.37905393 -161.82886517 459.00014545 -161.8125 457.62121582 C-161.76534198 454.24941713 -161.69953288 450.8790277 -161.6171875 447.50793457 C-162.79655884 447.05088135 -162.79655884 447.05088135 -163.99975586 446.58459473 C-166.46480162 445.57061732 -168.1437454 444.57404193 -170.1796875 442.88293457 C-170.73785156 442.43691895 -171.29601562 441.99090332 -171.87109375 441.53137207 C-178.98694158 433.28526654 -178.20528083 424.2109796 -178.1484375 413.94543457 C-178.15113598 412.227252 -178.15502136 410.50907093 -178.16003418 408.79089355 C-178.16591252 405.20000588 -178.15742036 401.60951777 -178.13867188 398.01867676 C-178.11588308 393.43222747 -178.12901515 388.84671467 -178.15296173 384.26029968 C-178.167465 380.71534256 -178.16279307 377.17060486 -178.15245056 373.62564087 C-178.14979576 371.93527107 -178.15300883 370.24488088 -178.16236877 368.55453491 C-178.23023799 352.85516393 -178.23023799 352.85516393 -173.6171875 345.50793457 C-174.10872833 342.77896291 -174.10872833 342.77896291 -175.6171875 340.50793457 C-178.14992203 335.68861612 -177.9129281 331.01419958 -177.90771484 325.70397949 C-177.91443207 324.7212355 -177.92114929 323.73849152 -177.92807007 322.72596741 C-177.94705364 319.48006114 -177.95097455 316.23436163 -177.953125 312.98840332 C-177.95955296 310.72784846 -177.96628132 308.46729444 -177.97329712 306.20674133 C-177.985271 301.4681709 -177.98897785 296.72967337 -177.98779297 291.99108887 C-177.98758984 285.92832267 -178.01488529 279.86602556 -178.04933739 273.80337048 C-178.07160945 269.13383348 -178.0756304 264.46440927 -178.07457352 259.7948246 C-178.07692926 257.56017758 -178.08575123 255.32552744 -178.10123825 253.09093285 C-178.12090259 249.96031531 -178.11505775 246.83070814 -178.10302734 243.70007324 C-178.11426636 242.78291534 -178.12550537 241.86575745 -178.13708496 240.92080688 C-178.06423984 233.43555536 -175.70819561 228.64444674 -171.6171875 222.50793457 C-170.9571875 222.50793457 -170.2971875 222.50793457 -169.6171875 222.50793457 C-169.89433594 222.01164551 -170.17148438 221.51535645 -170.45703125 221.00402832 C-175.55439444 211.44420482 -174.65047936 203.70378474 -171.76979256 193.50899124 C-170.74407037 190.25006067 -169.67271805 187.00994381 -168.58227539 183.77209473 C-168.17715225 182.54957001 -167.77202911 181.32704529 -167.35462952 180.06747437 C-166.2540502 176.74738363 -165.1441881 173.43046856 -164.03217244 170.11419344 C-162.86508816 166.62944347 -161.70563949 163.14215299 -160.54502869 159.65524292 C-158.59755167 153.80830695 -156.64400421 147.96342663 -154.68676758 142.11975098 C-152.42692286 135.37233768 -150.17676764 128.62175227 -147.9317227 121.86940157 C-145.76523172 115.35405221 -143.59195996 108.84098418 -141.41558647 102.3289299 C-140.49200328 99.56503628 -139.5707828 96.80037206 -138.65147591 94.03505325 C-137.36843255 90.17682186 -136.07548536 86.32198066 -134.78149414 82.46740723 C-134.40269104 81.32447205 -134.02388794 80.18153687 -133.63360596 79.00396729 C-133.10166374 77.42722733 -133.10166374 77.42722733 -132.55897522 75.81863403 C-132.25461579 74.90836267 -131.95025637 73.99809132 -131.63667393 73.06023598 C-129.96570645 68.8769408 -128.84179 66.06919389 -124.65588379 64.15071106 C-122.80078186 63.62818001 -122.80078186 63.62818001 -120.90820312 63.09509277 C-119.8624197 62.79331478 -119.8624197 62.79331478 -118.79550934 62.48544025 C-116.40826847 61.80455612 -114.01379656 61.15502874 -111.6171875 60.50793457 C-109.83739401 60.01642786 -108.0576936 59.52458398 -106.27807617 59.03244019 C-100.18115088 57.35952631 -94.07141853 55.73595952 -87.9609375 54.11340332 C-85.7192811 53.51549988 -83.47770533 52.91729408 -81.23620605 52.31880188 C-75.39119855 50.75900945 -69.54511887 49.20327447 -63.6987915 47.6484375 C-57.71129033 46.05526691 -51.72483279 44.4581847 -45.73828125 42.8614502 C-34.03225714 39.73982391 -22.3250944 36.6224913 -10.6171875 33.50793457 C-10.60316895 32.22161133 -10.60316895 32.22161133 -10.58886719 30.90930176 C-10.54477459 27.71820778 -10.48312694 24.52806701 -10.40966797 21.33752441 C-10.38149651 19.95841806 -10.36026278 18.57915139 -10.34619141 17.1998291 C-10.32471205 15.21370508 -10.27595618 13.22793548 -10.2265625 11.24230957 C-10.20561523 10.04831543 -10.18466797 8.85432129 -10.16308594 7.62414551 C-9.1169092 1.65214199 -5.74671219 0.0087187 0 0 Z " fill="#000000" transform="translate(193.6171875,15.4920654296875)"/>
<path d="M0 0 C9.013125 0.103125 18.02625 0.20625 27.3125 0.3125 C27.3125 31.9925 27.3125 63.6725 27.3125 96.3125 C-2.91289178 97.59773739 -2.91289178 97.59773739 -17.96470928 97.92062378 C-26.07456372 98.09730402 -34.17364125 98.32148359 -42.27563477 98.7265625 C-91.25812592 101.12725046 -91.25812592 101.12725046 -101.12469482 93.32113647 C-107.47024168 87.04788114 -110.84804384 79.05441873 -113.48936558 70.66345501 C-115.84943082 63.18261827 -119.80823224 56.91773854 -124.05972481 50.37607288 C-125.8784922 47.55211091 -127.60606599 44.6752402 -129.34375 41.80078125 C-129.91931641 40.85759033 -130.49488281 39.91439941 -131.08789062 38.94262695 C-131.61576172 38.07468506 -132.14363281 37.20674316 -132.6875 36.3125 C-133.27208984 35.4361792 -133.85667969 34.5598584 -134.45898438 33.65698242 C-134.86439453 32.88330322 -135.26980469 32.10962402 -135.6875 31.3125 C-135.1925 29.8275 -135.1925 29.8275 -134.6875 28.3125 C-131.75562629 27.38938913 -128.930828 26.658521 -125.9375 26 C-124.09299336 25.56832456 -122.24926226 25.13332419 -120.40625 24.6953125 C-119.45492187 24.47004883 -118.50359375 24.24478516 -117.5234375 24.01269531 C-113.12400286 22.92647126 -108.7841591 21.65364914 -104.4375 20.375 C-96.89412743 18.1742613 -89.31907146 16.18387597 -81.6875 14.3125 C-73.26964796 12.24699291 -64.91736505 10.03205607 -56.60351562 7.58007812 C-54.97985415 7.10382239 -53.35204644 6.64158687 -51.72143555 6.18969727 C-49.40730391 5.52061583 -47.14702796 4.79582931 -44.86645508 4.02709961 C-30.02930175 -0.7053267 -15.44068843 -0.2507686 0 0 Z " fill="#2C7EB1" transform="translate(220.6875,63.6875)"/>
<path d="M0 0 C61.01286145 -1.01688102 61.01286145 -1.01688102 81.26513672 6.05517578 C84.85153747 7.29418408 88.48419688 8.31404937 92.13793945 9.33349609 C94.69701029 10.04771102 97.24663131 10.79013013 99.796875 11.53515625 C105.49556741 13.16943643 111.24285998 14.5881223 117 16 C127.34938575 18.53920491 137.58420269 21.3878093 147.81347656 24.37011719 C151.57333582 25.45323877 155.35293241 26.461298 159.13671875 27.45703125 C161 28 161 28 163 29 C161.56594155 32.86140222 159.76853075 36.29785785 157.68359375 39.84765625 C157.3549382 40.40879623 157.02628265 40.96993622 156.68766785 41.54808044 C155.60801705 43.3884469 154.52299367 45.22557466 153.4375 47.0625 C152.68206169 48.34631462 151.92669161 49.63016938 151.17138672 50.9140625 C143.77890654 63.45656337 136.22517971 75.90091119 128.63134766 88.32226562 C126.97564653 90.94709219 126.97564653 90.94709219 125.71480846 93.62977886 C124 96 124 96 121.69430256 96.61523914 C120.7826493 96.61063018 119.87099604 96.60602121 118.93171692 96.60127258 C117.88423782 96.6081459 116.83675873 96.61501923 115.75753784 96.62210083 C114.60883209 96.60412445 113.46012634 96.58614807 112.27661133 96.56762695 C110.46179008 96.56872215 110.46179008 96.56872215 108.61030579 96.56983948 C105.29179894 96.56695044 101.97484295 96.54186036 98.65661073 96.50696969 C95.18930766 96.47573517 91.72198442 96.47277779 88.25456238 96.46684265 C81.68834233 96.45129549 75.12253799 96.4102558 68.55650109 96.3600952 C60.34829405 96.2987492 52.14001964 96.27136167 43.93164062 96.24414062 C29.28743648 96.1954265 14.64413962 96.09527053 0 96 C0 64.32 0 32.64 0 0 Z " fill="#2C7EB1" transform="translate(264,64)"/>
<path d="M0 0 C39.27 0 78.54 0 119 0 C119 26.4 119 52.8 119 80 C91.4987264 80.24065286 91.4987264 80.24065286 79.78710938 80.29296875 C71.79164974 80.32885357 63.79665694 80.37133018 55.80151367 80.45263672 C49.35649285 80.51777005 42.91191349 80.55369423 36.46658897 80.56926346 C34.00612117 80.58036038 31.54567787 80.60203 29.08539772 80.63438034 C25.64209171 80.67786089 22.20061589 80.68393724 18.75708008 80.68115234 C17.22714668 80.71350983 17.22714668 80.71350983 15.66630554 80.746521 C9.02062917 80.68826116 9.02062917 80.68826116 6.25675488 78.82444286 C3.25566424 75.55203111 2.34171917 72.4736833 2.15698242 68.14086914 C2.06745552 66.44233543 2.06745552 66.44233543 1.97612 64.70948792 C1.93630508 63.49695847 1.89649017 62.28442902 1.85546875 61.03515625 C1.79595535 59.76965439 1.73644196 58.50415253 1.67512512 57.20030212 C1.52175469 53.83782892 1.38907276 50.47581124 1.26599121 47.11218262 C1.16240332 44.40713712 1.03905863 41.7031762 0.91439342 38.99903202 C0.31511712 25.98295008 0 13.04000447 0 0 Z " fill="#5AA0DC" transform="translate(129,176)"/>
<path d="M0 0 C39.27 0 78.54 0 119 0 C119 13.73268042 118.59011537 27.35834635 117.93798828 41.06445312 C117.80941942 43.78904497 117.69186833 46.51378908 117.58349609 49.23925781 C117.42575728 53.20483982 117.23751789 57.16866931 117.046875 61.1328125 C117.0018988 62.35050323 116.95692261 63.56819397 116.9105835 64.82278442 C116.85082336 65.95521576 116.79106323 67.08764709 116.72949219 68.25439453 C116.68507996 69.24617706 116.64066772 70.23795959 116.59490967 71.25979614 C115.84729877 74.70335468 114.39762236 76.45940985 112 79 C109.63351117 80.18324441 108.2226868 80.12326046 105.58346558 80.12025452 C104.19100616 80.12231651 104.19100616 80.12231651 102.77041626 80.12442017 C101.74902557 80.12082489 100.72763489 80.11722961 99.67529297 80.11352539 C98.06551575 80.11374443 98.06551575 80.11374443 96.42321777 80.1139679 C92.86285405 80.11326917 89.30254213 80.10547861 85.7421875 80.09765625 C83.27881906 80.09579193 80.81545024 80.09436809 78.3520813 80.09336853 C71.85832705 80.08954446 65.36459505 80.07971511 58.87084961 80.06866455 C51.08486911 80.05665282 43.29888077 80.05204766 35.51289368 80.04621124 C23.67524696 80.03650331 11.8376491 80.01734595 0 80 C0 53.6 0 27.2 0 0 Z " fill="#5AA0DC" transform="translate(264,176)"/>
<path d="M0 0 C1.06386932 -0.00073013 2.12773865 -0.00146027 3.22384644 -0.00221252 C6.73593345 0.00126744 10.24668993 0.04015046 13.75854492 0.0793457 C16.19519832 0.08867231 18.6318611 0.09578914 21.06852722 0.1007843 C27.47864718 0.11986576 33.88819976 0.16897773 40.2980957 0.2243042 C47.99059067 0.28446883 55.68327545 0.30740732 63.37593842 0.33657074 C75.05985798 0.38504064 86.7425329 0.4808504 98.42651367 0.56762695 C98.42651367 26.96762695 98.42651367 53.36762695 98.42651367 80.56762695 C72.42263562 80.768171 72.42263562 80.768171 61.34643555 80.81176758 C53.78562906 80.84166823 46.22512504 80.87705744 38.66455078 80.94482422 C32.56967032 80.99911245 26.47511417 81.0290412 20.3800106 81.04201317 C18.05353374 81.05125864 15.72707482 81.06931278 13.40073586 81.09627724 C10.14436987 81.13252375 6.88934744 81.13757395 3.6328125 81.13525391 C2.66896133 81.15323029 1.70511017 81.17120667 0.71205139 81.18972778 C-3.89320252 81.15417654 -5.91063173 81.07656286 -9.6635437 78.19509888 C-11.95124607 75.04795003 -12.3052615 73.44642028 -12.57348633 69.56762695 C-12.66570969 68.3760347 -12.66570969 68.3760347 -12.75979614 67.16036987 C-12.97779274 64.20229501 -13.15587737 61.24359721 -13.32739258 58.2824707 C-13.39256577 57.18979385 -13.45773895 56.097117 -13.52488708 54.97132874 C-13.66175295 52.66083071 -13.79697483 50.35023479 -13.93066406 48.03955078 C-14.13387808 44.54141844 -14.34453496 41.04379022 -14.5559082 37.54614258 C-14.8786954 32.13312661 -15.17079554 26.71931784 -15.43560791 21.30316162 C-15.52046128 19.61965424 -15.6121655 17.93645546 -15.715271 16.25396729 C-15.82651172 14.42364184 -15.90328294 12.59130028 -15.97583008 10.7590332 C-16.0208667 9.84452393 -16.06590332 8.93001465 -16.11230469 7.98779297 C-14.23111597 -0.46178734 -7.03556884 -0.12631564 0 0 Z " fill="#2C7EB1" transform="translate(149.573486328125,271.432373046875)"/>
<path d="M0 0 C26.79268464 -0.08021762 26.79268464 -0.08021762 38.1953125 -0.09765625 C45.98212401 -0.10962135 53.76888857 -0.12379065 61.55566406 -0.15087891 C67.83205938 -0.1725768 74.10840437 -0.18456221 80.38483429 -0.18975449 C82.78187096 -0.19345573 85.17890481 -0.20068311 87.5759201 -0.21146011 C90.92795306 -0.22593429 94.27977686 -0.22797963 97.63183594 -0.22705078 C98.62733459 -0.23424133 99.62283325 -0.24143188 100.64849854 -0.24884033 C101.56272583 -0.246091 102.47695313 -0.24334167 103.41888428 -0.24050903 C104.21162624 -0.24235262 105.00436821 -0.24419621 105.82113266 -0.24609566 C108.3257331 0.03679045 109.87798694 0.64685946 112 2 C116.84907695 9.27361543 113.8244576 21.97913714 113.125 30.4375 C112.51505027 38.04917561 111.94526223 45.65674127 111.52734375 53.28125 C111.40994852 55.33223589 111.29175909 57.38317499 111.17352295 59.43411255 C111.06424444 61.40602198 110.96877695 63.37868114 110.87353516 65.35131836 C110.80312012 66.55409424 110.73270508 67.75687012 110.66015625 68.99609375 C110.60480713 70.06013428 110.54945801 71.1241748 110.49243164 72.22045898 C109.94310314 75.32115555 109.18634806 76.75917968 107 79 C104.21426647 79.92857784 102.56520886 80.1237216 99.69099426 80.12025452 C98.81179825 80.12162918 97.93260223 80.12300385 97.02676392 80.12442017 C95.58422745 80.11902725 95.58422745 80.11902725 94.11254883 80.11352539 C93.09773941 80.11367142 92.08292999 80.11381744 91.03736877 80.1139679 C87.67723465 80.11327026 84.31715571 80.10548478 80.95703125 80.09765625 C78.62961355 80.09579154 76.30219546 80.09436789 73.97477722 80.09336853 C67.84435953 80.08954751 61.71396547 80.07972074 55.58355713 80.06866455 C48.23056781 80.05664461 40.8775706 80.05204621 33.52457428 80.04621124 C22.34969974 80.0365088 11.17487707 80.0173493 0 80 C0 53.6 0 27.2 0 0 Z " fill="#2C7EB1" transform="translate(264,272)"/>
<path d="M0 0 C1.01495544 -0.00058411 2.02991089 -0.00116821 3.07562256 -0.00177002 C6.43064566 0.00101686 9.78478053 0.03213843 13.13964844 0.06347656 C15.46563227 0.07093678 17.79162238 0.07663074 20.11761475 0.08062744 C26.23996327 0.09590091 32.36193229 0.13519803 38.48413086 0.17944336 C45.82956093 0.22755233 53.17511788 0.24592186 60.5206604 0.26925659 C71.6803787 0.30804741 82.83926429 0.38469048 93.99902344 0.45410156 C93.99902344 26.85410156 93.99902344 53.25410156 93.99902344 80.45410156 C69.24297501 80.65464561 69.24297501 80.65464561 58.69628906 80.69824219 C51.49761548 80.72814006 44.29925965 80.76352161 37.10083008 80.83129883 C31.2977214 80.88559684 25.49495343 80.91551782 19.69161034 80.92848778 C17.47677432 80.93773151 15.26195711 80.95578235 13.04726601 80.98275185 C9.94654567 81.01901175 6.84723588 81.02404805 3.74633789 81.02172852 C2.82924042 81.0397049 1.91214294 81.05768127 0.96725464 81.07620239 C-3.41646733 81.04068296 -5.41419798 80.87780179 -9.05749512 78.24705505 C-11.13491862 75.26161507 -11.67527985 73.78581189 -11.84399414 70.19921875 C-11.90367874 69.17334656 -11.96336334 68.14747437 -12.02485657 67.09051514 C-12.06467148 65.98846741 -12.10448639 64.88641968 -12.14550781 63.75097656 C-12.20502121 62.59978333 -12.26453461 61.44859009 -12.32585144 60.26251221 C-12.51046029 56.57705896 -12.66190221 52.89104537 -12.81347656 49.20410156 C-12.93315359 46.76910322 -13.05487753 44.33420457 -13.17871094 41.89941406 C-13.46363733 36.11492252 -13.69955111 30.33038839 -13.89605713 24.54223633 C-13.96278104 22.57832529 -14.03474097 20.61457989 -14.1137085 18.65112305 C-14.20612285 16.25729128 -14.27156846 13.86469469 -14.32519531 11.46972656 C-14.36088623 10.1887207 -14.39657715 8.90771484 -14.43334961 7.58789062 C-14.00097656 4.45410156 -14.00097656 4.45410156 -12.59901428 2.28662109 C-8.58985602 -0.54122885 -4.79147333 -0.07192045 0 0 Z " fill="#5AA0DC" transform="translate(154.0009765625,367.5458984375)"/>
<path d="M0 0 C25.5047462 -0.16043524 25.5047462 -0.16043524 36.36914062 -0.1953125 C43.78502842 -0.21923195 51.20071883 -0.247541 58.61645508 -0.30175781 C64.59461443 -0.34519134 70.57256213 -0.36913219 76.55086708 -0.37950897 C78.83266851 -0.38690475 81.11445824 -0.4013468 83.39616966 -0.42292023 C86.59013353 -0.45192029 89.78322076 -0.45595732 92.97729492 -0.45410156 C94.39501945 -0.47567322 94.39501945 -0.47567322 95.84138489 -0.49768066 C100.05586468 -0.47115158 102.40157135 -0.35438065 106.09288025 1.83155823 C108.82852125 4.94204891 108.54410569 6.93826559 108.3984375 11.04296875 C108.37824554 11.77162643 108.35805359 12.50028412 108.33724976 13.25102234 C108.25453784 15.83599237 108.12851746 18.41691223 108 21 C107.91023139 23.09715727 107.82072731 25.19432587 107.73144531 27.29150391 C107.46989194 33.09903157 107.15853312 38.9028032 106.828125 44.70678711 C106.62287181 48.35027802 106.43228723 51.99436249 106.2421875 55.63867188 C106.11286484 57.9635911 105.98268841 60.28846303 105.8515625 62.61328125 C105.79626373 63.69861649 105.74096497 64.78395172 105.68399048 65.9021759 C105.59412369 67.41106636 105.59412369 67.41106636 105.50244141 68.95043945 C105.42916122 70.27251152 105.42916122 70.27251152 105.35440063 71.62129211 C104.96985336 74.2023418 104.45797382 75.83516574 103 78 C100.16474348 79.71890164 98.05576979 80.24887251 94.76055908 80.24050903 C93.92205917 80.24325836 93.08355927 80.24600769 92.21965027 80.24884033 C90.85263725 80.2380545 90.85263725 80.2380545 89.45800781 80.22705078 C88.49182022 80.22734283 87.52563263 80.22763489 86.53016663 80.22793579 C83.33772795 80.22654285 80.14552289 80.21098318 76.953125 80.1953125 C74.73923876 80.19158225 72.52535088 80.18873533 70.3114624 80.18673706 C64.48516276 80.1791016 58.65896287 80.15945376 52.83270264 80.1373291 C45.84180258 80.11327142 38.85086918 80.10408928 31.85993958 80.09242249 C21.23989035 80.07302941 10.62005997 80.03470608 0 80 C0 53.6 0 27.2 0 0 Z " fill="#5AA0DC" transform="translate(264,368)"/>
<path d="M0 0 C2.57787619 2.26617926 3.64426291 4.18021409 4.72746277 7.42048645 C5.03449631 8.32466812 5.34152985 9.22884979 5.65786743 10.16043091 C5.98370819 11.15009857 6.30954895 12.13976624 6.64526367 13.15942383 C6.99683029 14.20360977 7.34839691 15.24779572 7.71061707 16.32362366 C8.87215357 19.78179139 10.02044157 23.24419181 11.16796875 26.70703125 C11.97028278 29.10993255 12.77313118 31.51265548 13.57649231 33.91520691 C15.25925547 38.9546435 16.93564828 43.99613765 18.60717773 49.03930664 C20.53735435 54.86245746 22.480436 60.68118038 24.4303152 66.49776059 C26.30783099 72.09974958 28.17517782 77.70508915 30.03826332 83.31189537 C30.83103455 85.69421186 31.6264815 88.07563966 32.42464256 90.45615578 C33.5394739 93.7854084 34.64268728 97.11829173 35.74291992 100.45239258 C36.07483337 101.43598755 36.40674683 102.41958252 36.74871826 103.4329834 C40.12157487 113.74267893 40.12157487 113.74267893 38.22241211 119.25830078 C36.77606276 121.31906696 35.7559533 121.91137331 33.44140625 122.8671875 C32.29853149 123.34961914 32.29853149 123.34961914 31.13256836 123.84179688 C30.2844458 124.18275391 29.43632324 124.52371094 28.5625 124.875 C27.67248291 125.24431641 26.78246582 125.61363281 25.86547852 125.99414062 C22.58392991 127.34704312 19.29253182 128.67404827 16 130 C14.54771913 130.58854049 13.09557813 131.17742623 11.64355469 131.76660156 C6.91130434 133.6854631 2.1754292 135.59520656 -2.5625 137.5 C-3.73702225 137.97249176 -3.73702225 137.97249176 -4.93527222 138.45452881 C-7.18605925 139.35828673 -9.43841484 140.2580035 -11.69140625 141.15625 C-12.70897507 141.56503891 -12.70897507 141.56503891 -13.74710083 141.98208618 C-16.80763274 143.19735392 -19.79672576 144.2463847 -23 145 C-24.70279691 135.09993958 -26.39840675 125.19867733 -28.08496857 115.2958374 C-28.86841264 110.69710491 -29.65428331 106.09881523 -30.44580078 101.50146484 C-31.21022007 97.06096471 -31.96813274 92.61939783 -32.72163391 88.17703247 C-33.0095749 86.48626501 -33.2998191 84.79588806 -33.592453 83.10592651 C-34.00337216 80.73047929 -34.40592084 78.35374856 -34.80664062 75.9765625 C-34.98898003 74.93969551 -34.98898003 74.93969551 -35.17500305 73.88188171 C-36.41156842 66.43328738 -36.91273902 60.50333486 -32.87890625 53.859375 C-32.38161011 53.02389633 -32.38161011 53.02389633 -31.87426758 52.17153931 C-30.78677058 50.35386665 -29.67519385 48.55233735 -28.5625 46.75 C-27.79721649 45.482205 -27.03348655 44.21347105 -26.27124023 42.94384766 C-24.27357557 39.62576149 -22.25518918 36.32076912 -20.23242188 33.01794434 C-18.19329063 29.67910929 -16.17569228 26.32732857 -14.15625 22.9765625 C-3.06138388 4.59207582 -3.06138388 4.59207582 0 0 Z " fill="#5A9FDA" transform="translate(437,108)"/>
<path d="M0 0 C3.9610941 1.3203647 4.36517686 2.86460686 6.4140625 6.45703125 C6.90505936 7.30743484 6.90505936 7.30743484 7.40597534 8.17501831 C8.11541576 9.40558691 8.82083623 10.63847978 9.52270508 11.87338257 C11.39561206 15.16813291 13.29723087 18.44627273 15.1953125 21.7265625 C15.58660339 22.40460434 15.97789429 23.08264618 16.38104248 23.78123474 C20.643504 31.15053321 25.06199105 38.42300883 29.5 45.6875 C30.92738734 48.02455444 32.35445885 50.36180012 33.78125 52.69921875 C34.38001953 53.67721436 34.97878906 54.65520996 35.59570312 55.6628418 C39.37564373 61.95376173 38.09425571 68.44027873 36.91430664 75.45410156 C36.79887009 76.15110168 36.68343353 76.84810181 36.5644989 77.56622314 C36.18594638 79.84211615 35.79820734 82.11633403 35.41015625 84.390625 C35.14298712 85.98377896 34.87634841 87.57702195 34.61021423 89.17034912 C34.05338944 92.49607604 33.49239942 95.82106175 32.92797852 99.14550781 C32.20503783 103.40376621 31.48915712 107.66317087 30.77594852 111.923069 C30.09380633 115.99597319 29.40845749 120.06833558 28.72265625 124.140625 C28.59244646 124.91509224 28.46223667 125.68955948 28.32808113 126.48749542 C27.95883415 128.67978981 27.58734334 130.87169126 27.21508789 133.06347656 C27.00412979 134.30953674 26.79317169 135.55559692 26.57582092 136.8394165 C26.13404275 139.26426205 25.64346758 141.62302969 25 144 C18.81946038 143.38148495 13.36462708 140.95807419 7.65234375 138.66796875 C6.56288956 138.23494949 5.47343536 137.80193024 4.35096741 137.35578918 C2.05266186 136.44004223 -0.24439769 135.52116271 -2.5402832 134.59936523 C-6.04933713 133.19277628 -9.56435149 131.80192198 -13.08007812 130.41210938 C-15.3154837 129.51917872 -17.55052247 128.62532913 -19.78515625 127.73046875 C-20.83421646 127.31677536 -21.88327667 126.90308197 -22.96412659 126.47685242 C-34.61835596 121.76328808 -34.61835596 121.76328808 -37 117 C-36.5974922 109.91308079 -34.86187177 103.75677355 -32.58178711 97.06420898 C-32.23051254 96.00950912 -31.87923798 94.95480927 -31.51731873 93.8681488 C-30.36251081 90.40788086 -29.19503778 86.95203217 -28.02734375 83.49609375 C-27.22085736 81.08783351 -26.41516917 78.67930583 -25.61024475 76.27052307 C-23.71154352 70.59493088 -21.80485688 64.92208435 -19.89420754 59.25050837 C-17.71777592 52.78849136 -15.55167768 46.32302639 -13.38640201 39.8572644 C-8.93568244 26.56766613 -4.47212899 13.28240766 0 0 Z " fill="#5A9FDA" transform="translate(73,108)"/>
<path d="M0 0 C2.67103576 1.98701006 4.66458718 3.58577769 5.45782375 6.93035126 C5.6373507 9.30879325 5.65272372 11.6403765 5.61523438 14.02539062 C5.62078339 14.92517136 5.6263324 15.82495209 5.63204956 16.7519989 C5.64384207 19.72062758 5.61957457 22.68772851 5.59375 25.65625 C5.59203873 27.72220795 5.59210475 29.78816807 5.59387207 31.85412598 C5.59221905 36.18177086 5.57352388 40.5088976 5.54199219 44.83642578 C5.50231492 50.38157877 5.49794712 55.92605311 5.50545502 61.47132111 C5.50852566 65.73673715 5.49640079 70.00200083 5.47932434 74.26737976 C5.47229677 76.31189518 5.46916951 78.35642787 5.47001648 80.4009552 C5.46821726 83.25915691 5.44682451 86.11654797 5.41992188 88.97460938 C5.42285248 89.81839645 5.42578308 90.66218353 5.42880249 91.53153992 C5.36201613 96.13408022 5.06700358 99.31053599 2 103 C-1.15334826 104.05111609 -3.35512283 104.12070472 -6.66479492 104.11352539 C-7.84199097 104.11340454 -9.01918701 104.11328369 -10.23205566 104.11315918 C-11.46903198 104.10804321 -12.7060083 104.10292725 -13.98046875 104.09765625 C-15.68620056 104.09614563 -15.68620056 104.09614563 -17.4263916 104.09460449 C-21.68010464 104.0893668 -25.93380332 104.07540556 -30.1875 104.0625 C-44.4496875 104.0315625 -44.4496875 104.0315625 -59 104 C-59 76.61 -59 49.22 -59 21 C-50.564375 17.535 -42.12875 14.07 -33.4375 10.5 C-30.7864624 9.40365234 -28.1354248 8.30730469 -25.40405273 7.17773438 C-23.28929433 6.3154379 -21.17416575 5.45404847 -19.05859375 4.59375 C-17.97163208 4.14032227 -16.88467041 3.68689453 -15.76477051 3.21972656 C-5.25149269 -1.02942502 -5.25149269 -1.02942502 0 0 Z " fill="#2C7EB1" transform="translate(475,248)"/>
<path d="M0 0 C4.45054675 0.59398124 8.11910311 1.86750697 12.24804688 3.57470703 C13.04601685 3.89341766 13.84398682 4.2121283 14.6661377 4.54049683 C17.20853569 5.55892487 19.74386781 6.59375589 22.27929688 7.62939453 C23.95072706 8.30237534 25.62259908 8.97425988 27.29492188 9.64501953 C30.43247143 10.90536848 33.56725925 12.17211715 36.69921875 13.44628906 C43.38368336 16.15438387 50.08293627 18.82585029 56.77929688 21.50439453 C56.77929688 48.89439453 56.77929688 76.28439453 56.77929688 104.50439453 C47.12679687 104.56626953 37.47429687 104.62814453 27.52929688 104.69189453 C24.48549805 104.71920654 21.44169922 104.74651855 18.30566406 104.7746582 C15.89583737 104.7834192 13.48600626 104.79106405 11.07617188 104.79736328 C9.19599365 104.82038513 9.19599365 104.82038513 7.27783203 104.84387207 C5.48176514 104.84441589 5.48176514 104.84441589 3.64941406 104.8449707 C2.61016785 104.85163254 1.57092163 104.85829437 0.50018311 104.86515808 C-2.63635784 104.44928268 -3.97878136 103.70743916 -6.22070312 101.50439453 C-7.53213334 97.57010388 -7.3847428 93.80832289 -7.39770508 89.70605469 C-7.40427628 88.80656601 -7.41084747 87.90707733 -7.4176178 86.98033142 C-7.4373417 84.00137246 -7.44901012 81.02246384 -7.45898438 78.04345703 C-7.4630599 77.02642071 -7.46713543 76.00938438 -7.47133446 74.96152878 C-7.49218925 69.58063714 -7.50649471 64.19977097 -7.51586914 58.81884766 C-7.5269448 53.25795099 -7.56135986 47.69745323 -7.60104084 42.13669777 C-7.62716451 37.8627548 -7.6355571 33.58890761 -7.63915062 29.31489182 C-7.64402595 27.26475702 -7.65566673 25.21462677 -7.67418861 23.16456985 C-7.69849412 20.29656405 -7.69763095 17.42960036 -7.69067383 14.56152344 C-7.70348389 13.71459427 -7.71629395 12.8676651 -7.72949219 11.99507141 C-7.69421521 8.00672659 -7.49613971 5.96160937 -5.3926239 2.46984863 C-3.22070312 0.50439453 -3.22070312 0.50439453 0 0 Z " fill="#2C7EB1" transform="translate(39.220703125,247.49560546875)"/>
<path d="M0 0 C1.77127007 0.00056648 1.77127007 0.00056648 3.57832336 0.00114441 C5.47544319 0.03985405 5.47544319 0.03985405 7.41088867 0.0793457 C9.36462654 0.08995781 9.36462654 0.08995781 11.35783386 0.1007843 C14.80899626 0.11981182 18.25909481 0.16887257 21.70983887 0.2243042 C25.23569346 0.27559046 28.76172116 0.29831813 32.2878418 0.32348633 C39.19778211 0.37699798 46.10701859 0.46225723 53.01635742 0.56762695 C53.08590143 10.12963836 53.13919099 19.69156255 53.17179394 29.25377178 C53.18744259 33.69401171 53.2086662 38.13407848 53.24267578 42.57421875 C53.27529786 46.8600872 53.29321646 51.14578919 53.30098915 55.43177223 C53.30652755 57.06603427 53.31734277 58.7002873 53.33354759 60.33447838 C53.35536014 62.62552882 53.35832281 64.9158935 53.35693359 67.20703125 C53.36692635 69.16227974 53.36692635 69.16227974 53.37712097 71.1570282 C52.99031002 74.81387479 52.28821554 76.70095008 50.01635742 79.56762695 C47.02268725 80.56551701 45.00247734 80.70561196 41.87402344 80.72875977 C40.3020797 80.74317108 40.3020797 80.74317108 38.69837952 80.75787354 C37.56710129 80.76212341 36.43582306 80.76637329 35.27026367 80.77075195 C34.10760483 80.77645203 32.94494598 80.7821521 31.74705505 80.7880249 C29.28662019 80.79747545 26.82617266 80.8040091 24.36572266 80.80786133 C20.59735146 80.81757926 16.82952274 80.84860796 13.0612793 80.88012695 C10.67261067 80.88665575 8.28393813 80.8919067 5.89526367 80.89575195 C4.76600967 80.90809875 3.63675568 80.92044556 2.47328186 80.9331665 C1.42216721 80.93016541 0.37105255 80.92716431 -0.71191406 80.92407227 C-2.09732643 80.92954071 -2.09732643 80.92954071 -3.51072693 80.93511963 C-6.48256974 80.49348286 -7.83006092 79.63696152 -9.98364258 77.56762695 C-11.11338438 74.17840156 -11.13833901 71.54645136 -11.17651367 67.97241211 C-11.18469116 67.30700912 -11.19286865 66.64160614 -11.20129395 65.95603943 C-11.22608611 63.75626516 -11.24264635 61.55655507 -11.25708008 59.35668945 C-11.26240376 58.60443462 -11.26772743 57.85217979 -11.27321243 57.07712936 C-11.29991487 53.09675873 -11.31930055 49.11641917 -11.33374023 45.13598633 C-11.34708938 41.84371212 -11.37496268 38.55205629 -11.41577148 35.26000977 C-11.46508222 31.28183553 -11.48985866 27.30422288 -11.49696732 23.32575607 C-11.50367918 21.81147504 -11.51889986 20.2972065 -11.54285812 18.78310013 C-11.57451198 16.66194669 -11.57454825 14.54295886 -11.56713867 12.42163086 C-11.57522552 11.21600494 -11.58331238 10.01037903 -11.59164429 8.76821899 C-10.34831952 2.22321214 -6.34383905 -0.06792119 0 0 Z " fill="#5AA0DC" transform="translate(42.983642578125,367.432373046875)"/>
<path d="M0 0 C7.47584448 -0.06960318 14.95161873 -0.12286342 22.42772198 -0.15543652 C25.8994411 -0.17107243 29.37093803 -0.19227212 32.8425293 -0.22631836 C36.83644712 -0.26524063 40.83013263 -0.27972629 44.82421875 -0.29296875 C46.06709152 -0.30845261 47.30996429 -0.32393646 48.59049988 -0.33988953 C49.75132584 -0.34011612 50.91215179 -0.34034271 52.1081543 -0.34057617 C53.63704536 -0.35056892 53.63704536 -0.35056892 55.19682312 -0.36076355 C58.47230388 0.06078461 60.34857323 1.06215722 63 3 C64.42666016 5.85332032 64.14307693 8.29188273 64.16113281 11.48168945 C64.16858017 12.47957489 64.16858017 12.47957489 64.17617798 13.49761963 C64.19080622 15.70285063 64.19760326 17.90800966 64.203125 20.11328125 C64.20887667 21.64544171 64.2146344 23.17760215 64.22039795 24.70976257 C64.23091034 27.92524552 64.23675119 31.14070345 64.24023438 34.35620117 C64.24571442 38.4721189 64.26973067 42.58770503 64.29820633 46.70351887 C64.31685251 49.86999977 64.32203939 53.03640119 64.32357025 56.20293236 C64.32659372 57.7199605 64.33461198 59.23698735 64.34775543 60.75396156 C64.36485519 62.8796045 64.36292645 65.0044427 64.35644531 67.13012695 C64.36191376 68.94309013 64.36191376 68.94309013 64.36749268 70.79267883 C63.96251872 74.32712084 63.17941535 76.20819075 61 79 C58.00632982 79.99789006 55.98611991 80.137985 52.85766602 80.16113281 C51.28572227 80.17554413 51.28572227 80.17554413 49.68202209 80.19024658 C48.55074387 80.19449646 47.41946564 80.19874634 46.25390625 80.203125 C45.09124741 80.20882507 43.92858856 80.21452515 42.73069763 80.22039795 C40.27026276 80.2298485 37.80981524 80.23638215 35.34936523 80.24023438 C31.58099403 80.24995231 27.81316532 80.28098101 24.04492188 80.3125 C21.65625324 80.3190288 19.26758071 80.32427975 16.87890625 80.328125 C15.74965225 80.3404718 14.62039825 80.3528186 13.45692444 80.36553955 C12.40580978 80.36253845 11.35469513 80.35953735 10.27172852 80.35644531 C8.88631615 80.36191376 8.88631615 80.36191376 7.47291565 80.36749268 C4.50107284 79.92585591 3.15358166 79.06933457 1 77 C-0.18574288 73.44277137 -0.11990193 70.62223456 -0.11352539 66.86645508 C-0.11367142 66.14425278 -0.11381744 65.42205048 -0.1139679 64.67796326 C-0.11327145 62.29178866 -0.1054916 59.90569221 -0.09765625 57.51953125 C-0.09579112 55.8647211 -0.09436766 54.20991039 -0.09336853 52.55509949 C-0.08955085 48.20018997 -0.07972695 43.84531382 -0.06866455 39.49041748 C-0.05843433 35.04635062 -0.05386745 30.60227837 -0.04882812 26.15820312 C-0.03810402 17.43878677 -0.02103657 8.71939754 0 0 Z " fill="#5AA0DC" transform="translate(416,368)"/>
<path d="M0 0 C15.84 0 31.68 0 48 0 C48 5.28 48 10.56 48 16 C32.16 16 16.32 16 0 16 C0 10.72 0 5.44 0 0 Z " fill="#2D7FB2" transform="translate(264,32)"/>
<path d="M0 0 C15.84 0 31.68 0 48 0 C48 5.28 48 10.56 48 16 C32.16 16 16.32 16 0 16 C0 10.72 0 5.44 0 0 Z " fill="#2D7FB2" transform="translate(200,32)"/>
<path d="M0 0 C10.56 0 21.12 0 32 0 C32 5.28 32 10.56 32 16 C21.44 16 10.88 16 0 16 C0 10.72 0 5.44 0 0 Z " fill="#2D7FB2" transform="translate(432,464)"/>
<path d="M0 0 C10.56 0 21.12 0 32 0 C32 5.28 32 10.56 32 16 C21.44 16 10.88 16 0 16 C0 10.72 0 5.44 0 0 Z " fill="#2D7FB2" transform="translate(48,464)"/>
<path d="M0 0 C5.28 0 10.56 0 16 0 C16 5.28 16 10.56 16 16 C10.72 16 5.44 16 0 16 C0 10.72 0 5.44 0 0 Z " fill="#2D7FB2" transform="translate(312,464)"/>
<path d="M0 0 C5.28 0 10.56 0 16 0 C16 5.28 16 10.56 16 16 C10.72 16 5.44 16 0 16 C0 10.72 0 5.44 0 0 Z " fill="#2D7FB2" transform="translate(280,464)"/>
<path d="M0 0 C5.28 0 10.56 0 16 0 C16 5.28 16 10.56 16 16 C10.72 16 5.44 16 0 16 C0 10.72 0 5.44 0 0 Z " fill="#2D7FB2" transform="translate(248,464)"/>
<path d="M0 0 C5.28 0 10.56 0 16 0 C16 5.28 16 10.56 16 16 C10.72 16 5.44 16 0 16 C0 10.72 0 5.44 0 0 Z " fill="#2D7FB2" transform="translate(216,464)"/>
<path d="M0 0 C5.28 0 10.56 0 16 0 C16 5.28 16 10.56 16 16 C10.72 16 5.44 16 0 16 C0 10.72 0 5.44 0 0 Z " fill="#2D7FB2" transform="translate(184,464)"/>
<path d="M0 0 C2.64 0 5.28 0 8 0 C8 5.28 8 10.56 8 16 C5.36 16 2.72 16 0 16 C0 10.72 0 5.44 0 0 Z " fill="#2D7FB2" transform="translate(344,464)"/>
<path d="M0 0 C2.64 0 5.28 0 8 0 C8 5.28 8 10.56 8 16 C5.36 16 2.72 16 0 16 C0 10.72 0 5.44 0 0 Z " fill="#2D7FB2" transform="translate(160,464)"/>
</svg>
