<?xml version="1.0" encoding="UTF-8"?>
<svg version="1.1" xmlns="http://www.w3.org/2000/svg" width="512" height="512">
<path d="M0 0 C2.10923902 0.67626492 3.87668429 1.50150621 5.81274414 2.57202148 C6.51270508 2.95229492 7.21266602 3.33256836 7.93383789 3.72436523 C9.36419681 4.51220998 10.79391475 5.30121989 12.22290039 6.09155273 C18.34381321 9.41306441 24.66554822 12.08822752 31.12524414 14.68139648 C31.15030029 15.94322754 31.17535645 17.20505859 31.20117188 18.50512695 C31.2951652 23.17548218 31.39540545 27.84568585 31.49755859 32.51586914 C31.54093809 34.53927064 31.58261092 36.56270947 31.62255859 38.58618164 C31.68018822 41.49043033 31.74390354 44.3944906 31.80883789 47.29858398 C31.82555038 48.20696014 31.84226288 49.1153363 31.85948181 50.05123901 C31.88939964 51.31231979 31.88939964 51.31231979 31.91992188 52.59887695 C31.9432383 53.71140335 31.9432383 53.71140335 31.96702576 54.84640503 C32.0199791 56.77813753 32.0199791 56.77813753 33.12524414 58.68139648 C34.44524414 58.68139648 35.76524414 58.68139648 37.12524414 58.68139648 C38.78873733 55.35441011 38.36902471 51.61710263 38.44165039 47.95483398 C38.47282204 46.6606102 38.47282204 46.6606102 38.50462341 45.34024048 C38.57010448 42.57904155 38.62899712 39.81774611 38.68774414 37.05639648 C38.73093074 35.18659476 38.77454507 33.31680287 38.81860352 31.44702148 C38.92578438 26.8585792 39.02705589 22.27003966 39.12524414 17.68139648 C41.81325391 18.30426489 44.50064334 18.92962855 47.18774414 19.55639648 C48.31599609 19.81743164 48.31599609 19.81743164 49.46704102 20.08374023 C50.58369141 20.34477539 50.58369141 20.34477539 51.72290039 20.61108398 C52.73622437 20.84674072 52.73622437 20.84674072 53.77001953 21.0871582 C56.90777433 21.87883387 60.01366952 22.79237516 63.12524414 23.68139648 C63.12524414 109.81139648 63.12524414 195.94139648 63.12524414 284.68139648 C32.10524414 284.68139648 1.08524414 284.68139648 -30.87475586 284.68139648 C-29.71515526 266.12778686 -28.55331486 247.593462 -27.12350464 229.0615387 C-27.01939023 227.70816044 -26.91533647 226.35477752 -26.81133652 225.00139046 C-26.7589789 224.32051408 -26.70662127 223.6396377 -26.65267706 222.93812871 C-26.37541607 219.32159569 -26.10172788 215.70479261 -25.82791138 212.08799744 C-24.902975 199.87727285 -23.97465009 187.66681375 -23.03735352 175.45703125 C-22.51471359 168.64833377 -21.99672741 161.83929822 -21.48374474 155.02986616 C-21.21450546 151.45862401 -20.94300074 147.88758977 -20.66558456 144.31697273 C-20.08281192 136.80339057 -19.53266756 129.28930007 -19.06694794 121.7674427 C-18.94711473 119.84326962 -18.81973184 117.91953357 -18.6808548 115.99664116 C-17.90885342 104.77931902 -20.21030607 96.63743605 -25.43725586 86.89624023 C-26.1128611 85.57685324 -26.78541069 84.25589762 -27.45507812 82.93348694 C-29.20066812 79.50630709 -30.98609754 76.10160378 -32.78161621 72.70037842 C-34.61657091 69.20638288 -36.41175249 65.69207542 -38.21069336 62.17944336 C-41.72744602 55.32664515 -45.2866724 48.49716868 -48.87475586 41.68139648 C-42.41569002 35.19690652 -35.69543156 29.10667723 -28.56225586 23.36889648 C-24.28676303 19.9109554 -20.21124135 16.29909818 -16.18725586 12.55639648 C-15.63714844 12.04657227 -15.08704102 11.53674805 -14.52026367 11.01147461 C-12.1360989 8.79811996 -9.76404681 6.57543211 -7.41381836 4.32592773 C-6.72030273 3.68010742 -6.02678711 3.03428711 -5.31225586 2.36889648 C-4.7334668 1.81588867 -4.15467773 1.26288086 -3.55834961 0.69311523 C-1.87475586 -0.31860352 -1.87475586 -0.31860352 0 0 Z " fill="#000000" transform="translate(164.874755859375,183.318603515625)"/>
<path d="M0 0 C3.20392807 1.59892426 5.5802324 4.05573414 8.12109375 6.52734375 C12.17560036 10.37658775 16.25336165 14.091849 20.62109375 17.58984375 C24.60278426 20.7844559 28.38819346 24.11358408 32.12109375 27.58984375 C37.22764527 32.34510705 42.55208395 36.74473238 48.05859375 41.02734375 C43.45200419 50.9744734 38.70658019 60.81405127 33.5859375 70.5078125 C32.19124058 73.17961011 30.79908302 75.85271769 29.4074707 78.52612305 C28.46084573 80.32947554 27.50365803 82.12731997 26.53637695 83.91967773 C25.10515783 86.57978698 23.71779698 89.25929956 22.3359375 91.9453125 C21.90482162 92.72182663 21.47370575 93.49834076 21.02952576 94.29838562 C15.11303672 106.06430299 18.16775148 121.8283226 19.16015625 134.63549805 C19.27889614 136.22574595 19.397105 137.81603357 19.51483154 139.40635681 C19.83191964 143.67047629 20.15617624 147.93402257 20.48174286 152.1975019 C20.82258345 156.67908516 21.15630013 161.16119883 21.49072266 165.64326477 C22.12361552 174.11216611 22.76220839 182.58062651 23.40318489 191.0489195 C24.55282256 206.24015971 25.69229327 221.43216491 26.83019829 236.6242879 C27.22934144 241.95024135 27.63088026 247.27600728 28.03445435 252.60162675 C28.28464186 255.90682535 28.53336886 259.2121328 28.78177643 262.51746559 C28.89721574 264.04897121 29.01330359 265.58042809 29.13008881 267.11183167 C29.289439 269.20229362 29.44650225 271.2929156 29.60302734 273.3835907 C29.73576553 275.13747117 29.73576553 275.13747117 29.8711853 276.92678356 C30.03414008 279.62277254 30.05859375 282.32643449 30.05859375 285.02734375 C-0.96140625 285.02734375 -31.98140625 285.02734375 -63.94140625 285.02734375 C-63.94140625 198.89734375 -63.94140625 112.76734375 -63.94140625 24.02734375 C-41.94140625 18.02734375 -41.94140625 18.02734375 -39.94140625 18.02734375 C-39.9163501 19.1982959 -39.89129395 20.36924805 -39.86547852 21.57568359 C-39.77146922 25.91059753 -39.67123284 30.24534879 -39.5690918 34.58007812 C-39.52571836 36.45796917 -39.48404507 38.33590027 -39.4440918 40.21386719 C-39.38644749 42.90962815 -39.32273644 45.60518702 -39.2578125 48.30078125 C-39.24110001 49.14353607 -39.22438751 49.98629089 -39.20716858 50.85458374 C-39.20904481 55.07600985 -39.20904481 55.07600985 -37.94140625 59.02734375 C-36.62140625 59.02734375 -35.30140625 59.02734375 -33.94140625 59.02734375 C-32.81121198 56.76695521 -32.78871668 55.45615549 -32.73608398 52.94482422 C-32.71613876 52.1041037 -32.69619354 51.26338318 -32.67564392 50.39718628 C-32.65057518 49.03462204 -32.65057518 49.03462204 -32.625 47.64453125 C-32.6042189 46.71512726 -32.58343781 45.78572327 -32.56202698 44.82815552 C-32.49652979 41.85296165 -32.43764573 38.87767798 -32.37890625 35.90234375 C-32.33572119 33.88801147 -32.29210691 31.87368834 -32.24804688 29.859375 C-32.14084822 24.91545712 -32.03958124 19.97144872 -31.94140625 15.02734375 C-31.17750076 14.69573997 -31.17750076 14.69573997 -30.39816284 14.35743713 C-28.05377434 13.3366385 -25.71244445 12.30899605 -23.37109375 11.28125 C-22.57018311 10.93372681 -21.76927246 10.58620361 -20.9440918 10.22814941 C-15.06763326 7.64052986 -9.70982203 4.68569989 -4.32421875 1.1796875 C-1.94140625 0.02734375 -1.94140625 0.02734375 0 0 Z M-46.47070312 110.38867188 C-48.85835408 114.67249184 -48.51105553 118.95546394 -48.47265625 123.77734375 C-48.47839661 125.35273926 -48.47839661 125.35273926 -48.48425293 126.95996094 C-48.48697321 129.17904622 -48.47960402 131.39816349 -48.46289062 133.6171875 C-48.4414837 137.0150497 -48.4626895 140.41079736 -48.48828125 143.80859375 C-48.485638 145.96484842 -48.48051307 148.12110177 -48.47265625 150.27734375 C-48.48075317 151.2940918 -48.4888501 152.31083984 -48.49719238 153.35839844 C-48.43293425 158.74635601 -48.43293425 158.74635601 -46.47070312 163.66601562 C-42.66262427 165.71561483 -39.20546196 165.59960998 -34.94140625 165.55859375 C-33.63236328 165.56433411 -33.63236328 165.56433411 -32.296875 165.57019043 C-30.45441533 165.57290865 -28.61191701 165.56555369 -26.76953125 165.54882812 C-23.95094691 165.52741623 -21.1349114 165.54863176 -18.31640625 165.57421875 C-16.52473396 165.57157546 -14.73306326 165.56645044 -12.94140625 165.55859375 C-12.09964844 165.56669067 -11.25789063 165.5747876 -10.390625 165.58312988 C-6.88009606 165.52693126 -4.53245733 165.34546159 -1.41210938 163.66601562 C0.97554158 159.38219566 0.62824303 155.09922356 0.58984375 150.27734375 C0.59367065 149.22708008 0.59749756 148.17681641 0.60144043 147.09472656 C0.60416071 144.87564128 0.59679152 142.65652401 0.58007812 140.4375 C0.5586712 137.0396378 0.579877 133.64389014 0.60546875 130.24609375 C0.6028255 128.08983908 0.59770057 125.93358573 0.58984375 123.77734375 C0.59794067 122.7605957 0.6060376 121.74384766 0.61437988 120.69628906 C0.55012175 115.30833149 0.55012175 115.30833149 -1.41210938 110.38867188 C-5.22018823 108.33907267 -8.67735054 108.45507752 -12.94140625 108.49609375 C-14.25044922 108.49035339 -14.25044922 108.49035339 -15.5859375 108.48449707 C-17.42839717 108.48177885 -19.27089549 108.48913381 -21.11328125 108.50585938 C-23.93186559 108.52727127 -26.7479011 108.50605574 -29.56640625 108.48046875 C-31.35807854 108.48311204 -33.14974924 108.48823706 -34.94140625 108.49609375 C-35.78316406 108.48799683 -36.62492187 108.4798999 -37.4921875 108.47155762 C-41.00271644 108.52775624 -43.35035517 108.70922591 -46.47070312 110.38867188 Z " fill="#000000" transform="translate(347.94140625,182.97265625)"/>
<path d="M0 0 C1.10518478 -0.01469078 1.10518478 -0.01469078 2.23269653 -0.02967834 C36.99761159 -0.39665123 66.85722033 5.50671228 92.9296875 30.48828125 C113.99409134 52.3093088 123.86542111 82.10587933 123.59130859 112.06689453 C123.15157414 129.19858999 120.02835598 145.30258717 107.640625 158.09375 C83.53426926 179.64812997 48.72398624 188.90810328 17.2421875 192.23828125 C25.63568263 168.56110843 54.19971323 151.08061261 75.46948242 140.33178711 C84.70321097 135.61797362 90.68671708 129.42370031 94.1171875 119.48828125 C98.62474973 102.02147761 93.0777082 81.28681787 84.4296875 65.98828125 C74.19323809 50.02767122 58.5093936 40.65247354 40.19067383 36.52514648 C11.41806013 30.52277692 -20.10893595 31.77456929 -45.7578125 47.23828125 C-63.0464138 58.65701261 -70.20696728 75.90180166 -74.22265625 95.5078125 C-76.1493772 108.04469537 -75.2928096 119.34920479 -68.1953125 129.98828125 C-64.02624837 135.36140722 -59.78443384 138.23275691 -53.7578125 141.23828125 C-42.90820878 146.71613058 -33.02126343 152.32407855 -23.7578125 160.23828125 C-23.24911621 160.66866699 -22.74041992 161.09905273 -22.21630859 161.54248047 C-12.41050079 169.92481443 -3.76699829 179.38377825 3.2421875 190.23828125 C2.9121875 190.89828125 2.5821875 191.55828125 2.2421875 192.23828125 C-31.79535689 186.14346714 -31.79535689 186.14346714 -47.7578125 180.23828125 C-48.77681641 179.86703125 -48.77681641 179.86703125 -49.81640625 179.48828125 C-69.15099019 172.3630603 -87.85174913 162.15421474 -97.5703125 143.17578125 C-107.17155837 119.95114598 -104.5934638 90.1420842 -95.54833984 67.13427734 C-84.36526316 40.31285253 -65.31352717 19.31624293 -38.3828125 7.92578125 C-26.20714678 3.30698287 -13.0391064 0.14258 0 0 Z " fill="#000000" transform="translate(245.7578125,11.76171875)"/>
<path d="M0 0 C2.26213543 0.00314488 4.52293864 -0.02032728 6.78491211 -0.0456543 C28.69469002 -0.14252636 48.9645925 4.79617638 65.34545898 20.12817383 C77.5470186 32.89553157 82.06013045 50.50072415 82.47045898 67.75317383 C82.18816053 77.32960585 79.96410342 82.9838473 73.52124023 90.06591797 C69.39379023 93.89386199 64.61410409 96.16385976 59.59545898 98.62817383 C36.57795513 110.5684166 18.66017141 126.83889449 4.09545898 148.31567383 C0.31210196 147.05455482 -0.30660389 145.6393964 -2.52954102 142.37817383 C-6.6096517 136.61538976 -11.0561496 131.44065134 -15.90454102 126.31567383 C-16.65219727 125.50356445 -17.39985352 124.69145508 -18.17016602 123.85473633 C-29.28599906 112.18679237 -42.03377836 104.2625112 -56.4284668 97.16992188 C-64.5579902 93.01701354 -71.27861091 87.75250063 -74.90454102 79.12817383 C-79.16867361 63.123832 -74.37064395 44.0036733 -66.56469727 29.89379883 C-56.6332643 13.93747994 -41.37335674 6.12441385 -23.59521484 1.74707031 C-15.76369096 0.08269557 -7.9680307 -0.02306108 0 0 Z " fill="#000000" transform="translate(252.904541015625,51.684326171875)"/>
<path d="M0 0 C3.63 0.33 7.26 0.66 11 1 C14.01099013 1.08646424 16.99139909 1.14123346 20 1.125 C20.71671875 1.12886719 21.4334375 1.13273438 22.171875 1.13671875 C28.21259772 1.12600825 33.91823325 0.55288789 40 0 C40 96.03 40 192.06 40 291 C26.8 291 13.6 291 0 291 C0 194.97 0 98.94 0 0 Z M14.625 41.625 C12.51293494 44.71186432 12.38804855 46.3282913 13 50 C14.5 52.5 14.5 52.5 17 54 C20.6717087 54.61195145 22.28813568 54.48706506 25.375 52.375 C27.48706506 49.28813568 27.61195145 47.6717087 27 44 C25.5 41.5 25.5 41.5 23 40 C19.3282913 39.38804855 17.71186432 39.51293494 14.625 41.625 Z M14.625 81.625 C12.51293494 84.71186432 12.38804855 86.3282913 13 90 C14.5 92.5 14.5 92.5 17 94 C20.6717087 94.61195145 22.28813568 94.48706506 25.375 92.375 C27.48706506 89.28813568 27.61195145 87.6717087 27 84 C25.5 81.5 25.5 81.5 23 80 C19.3282913 79.38804855 17.71186432 79.51293494 14.625 81.625 Z M14.625 121.625 C12.51293494 124.71186432 12.38804855 126.3282913 13 130 C14.5 132.5 14.5 132.5 17 134 C20.6717087 134.61195145 22.28813568 134.48706506 25.375 132.375 C27.48706506 129.28813568 27.61195145 127.6717087 27 124 C25.5 121.5 25.5 121.5 23 120 C19.3282913 119.38804855 17.71186432 119.51293494 14.625 121.625 Z M14.625 161.625 C12.51293494 164.71186432 12.38804855 166.3282913 13 170 C14.5 172.5 14.5 172.5 17 174 C20.6717087 174.61195145 22.28813568 174.48706506 25.375 172.375 C27.48706506 169.28813568 27.61195145 167.6717087 27 164 C25.5 161.5 25.5 161.5 23 160 C19.3282913 159.38804855 17.71186432 159.51293494 14.625 161.625 Z M14.625 201.625 C12.51293494 204.71186432 12.38804855 206.3282913 13 210 C14.5 212.5 14.5 212.5 17 214 C20.6717087 214.61195145 22.28813568 214.48706506 25.375 212.375 C27.48706506 209.28813568 27.61195145 207.6717087 27 204 C25.5 201.5 25.5 201.5 23 200 C19.3282913 199.38804855 17.71186432 199.51293494 14.625 201.625 Z M14.625 241.625 C12.51293494 244.71186432 12.38804855 246.3282913 13 250 C14.5 252.5 14.5 252.5 17 254 C20.6717087 254.61195145 22.28813568 254.48706506 25.375 252.375 C27.48706506 249.28813568 27.61195145 247.6717087 27 244 C25.5 241.5 25.5 241.5 23 240 C19.3282913 239.38804855 17.71186432 239.51293494 14.625 241.625 Z " fill="#000000" transform="translate(236,209)"/>
<path d="M0 0 C2.41610527 2.2288549 4.02785066 4.49634818 5.6796875 7.33203125 C6.18951172 8.20150391 6.69933594 9.07097656 7.22460938 9.96679688 C7.76923828 10.90587891 8.31386719 11.84496094 8.875 12.8125 C10.04935849 14.81908105 11.22384107 16.82558948 12.3984375 18.83203125 C12.9975293 19.85893066 13.59662109 20.88583008 14.21386719 21.94384766 C16.95828591 26.63966963 19.72958206 31.31948732 22.5 36 C23.58348163 37.8332457 24.66681448 39.66657933 25.75 41.5 C26.28625 42.4075 26.8225 43.315 27.375 44.25 C45.25 74.5 63.125 104.75 81 135 C77.50926451 138.57400074 73.88907964 141.91060254 70.0625 145.125 C69.49893799 145.60018066 68.93537598 146.07536133 68.35473633 146.56494141 C63.80152917 150.37970572 59.15544232 154.06561728 54.46777344 157.71313477 C48.99138615 161.98024198 43.60918843 166.35909892 38.2409668 170.76123047 C37.60070557 171.28475098 36.96044434 171.80827148 36.30078125 172.34765625 C35.73528564 172.81179932 35.16979004 173.27594238 34.5871582 173.75415039 C30.45208701 177 30.45208701 177 27 177 C25.38110352 174.91479492 25.38110352 174.91479492 23.62890625 171.98046875 C22.97849365 170.90522949 22.32808105 169.82999023 21.65795898 168.72216797 C20.95944355 167.54396257 20.26095793 166.36573949 19.5625 165.1875 C18.83859014 163.98507483 18.11340073 162.78341912 17.38696289 161.58251953 C16.28925171 159.76750257 15.19232664 157.9520647 14.09941101 156.13415527 C11.11441623 151.16943159 8.04916191 146.26099184 4.9375 141.375 C1.70335598 136.27826867 -1.52072219 131.17564223 -4.72265625 126.05859375 C-5.68606934 124.51957397 -5.68606934 124.51957397 -6.66894531 122.94946289 C-7.96707528 120.86762666 -9.25945627 118.78219399 -10.54589844 116.69311523 C-13.27764953 112.26874278 -16.00681264 107.90454848 -19.10546875 103.7265625 C-26.35801669 93.74419395 -27.81818374 84.41977801 -27.94088745 72.15457153 C-27.98042417 70.0446742 -28.07214777 67.93513742 -28.21479797 65.82969666 C-28.65561569 56.3904413 -26.51755253 50.11638581 -22.12890625 41.85546875 C-21.53198471 40.67906326 -20.93506317 39.50265778 -20.3200531 38.29060364 C-18.75217228 35.20202996 -17.15109551 32.13195146 -15.54211426 29.06463623 C-13.90144036 25.92077792 -12.29562465 22.75921102 -10.68554688 19.59960938 C-1.36382902 1.36382902 -1.36382902 1.36382902 0 0 Z " fill="#000000" transform="translate(400,232)"/>
<path d="M0 0 C2.62097086 2.35428054 4.10591154 4.77575148 5.72729492 7.8918457 C6.24760788 8.88751053 6.76792084 9.88317535 7.30400085 10.90901184 C9.65641014 15.49292229 12.00664607 20.07774767 14.3347168 24.67407227 C15.55959063 27.08845824 16.80026305 29.49357878 18.05639648 31.8918457 C19.87148324 35.3687836 21.64817642 38.86311217 23.41796875 42.36328125 C23.97727585 43.41904861 24.53658295 44.47481598 25.11283875 45.56257629 C29.09751612 53.59921098 29.5260799 60.13041971 29 69 C29.01575116 70.85173769 29.04295548 72.70347653 29.08984375 74.5546875 C28.87490938 90.32092777 22.99446608 100.31066625 14.08447266 112.98388672 C10.70464095 117.87431082 7.61676624 122.93958599 4.5 128 C3.26058027 129.98659227 2.01968996 131.97226779 0.77734375 133.95703125 C0.15972168 134.94525879 -0.45790039 135.93348633 -1.09423828 136.95166016 C-3.06074647 140.09716634 -5.02831625 143.2420065 -6.99609375 146.38671875 C-13.36649289 156.56934372 -19.73511028 166.75200149 -26 177 C-30.2480836 176.46383411 -33.04390278 173.86048564 -36.25 171.25 C-36.85553711 170.7655542 -37.46107422 170.2811084 -38.08496094 169.78198242 C-40.06293108 168.19562212 -42.032143 166.59888381 -44 165 C-44.67804688 164.45102051 -45.35609375 163.90204102 -46.0546875 163.33642578 C-49.47619377 160.56613544 -52.89268481 157.78979809 -56.3046875 155.0078125 C-60.8451622 151.30756799 -65.41952837 147.65054367 -70 144 C-71.87525267 142.50031589 -73.75025548 141.00031929 -75.625 139.5 C-76.46289062 138.8296875 -77.30078125 138.159375 -78.1640625 137.46875 C-79.07285156 136.74171875 -79.07285156 136.74171875 -80 136 C-76.65145571 128.84858631 -72.73379235 122.10361081 -68.640625 115.36328125 C-65.63484473 110.41292176 -62.69216283 105.42585116 -59.75 100.4375 C-59.19892578 99.50389648 -58.64785156 98.57029297 -58.08007812 97.60839844 C-56.94970316 95.69329496 -55.81949602 93.77809241 -54.68945312 91.86279297 C-51.96172198 87.2406289 -49.23073618 82.62038912 -46.5 78 C-45.41665021 76.16667639 -44.33331689 74.33334305 -43.25 72.5 C-41.08333333 68.83333333 -38.91666667 65.16666667 -36.75 61.5 C-36.21383057 60.59258057 -35.67766113 59.68516113 -35.12524414 58.75024414 C-34.04129438 56.91598035 -32.95714707 55.08183329 -31.87280273 53.24780273 C-29.17227291 48.6796395 -26.47514856 44.10953357 -23.78515625 39.53515625 C-15.98290088 26.27900035 -8.03141427 13.11852189 0 0 Z " fill="#000000" transform="translate(111,232)"/>
<path d="M0 0 C12.23880658 -0.02254946 24.47759947 -0.04091418 36.71642208 -0.05181217 C42.39876512 -0.05704139 48.08109327 -0.06413973 53.76342773 -0.07543945 C59.24229136 -0.08626696 64.72114062 -0.09227654 70.20001411 -0.09487724 C72.29529611 -0.09673174 74.39057728 -0.10035282 76.4858532 -0.10573006 C79.40977584 -0.11293868 82.33363833 -0.11399102 85.25756836 -0.11352539 C86.57062958 -0.1189183 86.57062958 -0.1189183 87.91021729 -0.12442017 C93.88594784 -0.11405216 93.88594784 -0.11405216 95 1 C95.24108872 2.97335582 95.41674885 4.95482162 95.5625 6.9375 C95.64628906 8.01902344 95.73007812 9.10054688 95.81640625 10.21484375 C96.03904091 14.80490722 96 19.40454041 96 24 C64.32 24 32.64 24 0 24 C0 16.08 0 8.16 0 0 Z " fill="#000000" transform="translate(284,476)"/>
<path d="M0 0 C0.87537415 0.00359528 1.75074829 0.00719055 2.65264893 0.01089478 C4.02812141 0.01067574 4.02812141 0.01067574 5.43138123 0.01045227 C8.47773564 0.01115177 11.52402973 0.01894589 14.57037354 0.02676392 C16.67644721 0.02862796 18.78252132 0.03005193 20.88859558 0.03105164 C26.44364612 0.03487786 31.99867069 0.04470903 37.55371094 0.05575562 C43.21746469 0.0659675 48.88122262 0.07054878 54.54498291 0.07559204 C65.66674097 0.08633121 76.78847291 0.10392884 87.91021729 0.12442017 C87.91021729 8.04442017 87.91021729 15.96442017 87.91021729 24.12442017 C56.23021729 24.12442017 24.55021729 24.12442017 -8.08978271 24.12442017 C-8.08978271 12.70903555 -8.08978271 12.70903555 -7.65228271 7.06192017 C-7.57107178 5.9571936 -7.48986084 4.85246704 -7.40618896 3.71426392 C-6.8139661 -1.1331899 -4.34895391 0.00754552 0 0 Z " fill="#000000" transform="translate(140.08978271484375,475.8755798339844)"/>
<path d="M0 0 C3.86225539 1.67801873 6.98678695 4.20339947 10.25 6.8125 C11.16265625 7.53566406 11.16265625 7.53566406 12.09375 8.2734375 C17.43556819 12.51866293 22.72526522 16.82807709 28.01196289 21.14160156 C33.62596744 25.71582392 39.3049962 30.20242618 45.01171875 34.66015625 C47.6887134 36.75626056 50.34940139 38.87066939 53 41 C51.62338544 44.74876369 49.90090804 47.94495205 47.7421875 51.30078125 C47.11699219 52.27724609 46.49179688 53.25371094 45.84765625 54.25976562 C45.19667969 55.26716797 44.54570313 56.27457031 43.875 57.3125 C43.21628906 58.33923828 42.55757812 59.36597656 41.87890625 60.42382812 C40.2563783 62.95167965 38.62997014 65.47694337 37 68 C32.74230591 66.41767089 30.17816998 64.58783674 26.875 61.4375 C23.15353467 57.96080219 19.40628308 54.63504439 15.4375 51.4375 C11.0022954 47.85788097 6.76879787 44.11314365 2.55859375 40.2734375 C-1.07965124 37.0406763 -4.85779763 33.99186896 -8.65234375 30.9453125 C-9.42707031 30.30335938 -10.20179687 29.66140625 -11 29 C-11.62003906 28.50242187 -12.24007813 28.00484375 -12.87890625 27.4921875 C-13.24886719 26.99976563 -13.61882813 26.50734375 -14 26 C-13.50216473 22.60980212 -12.00823437 19.99411546 -10.3125 17.05078125 C-9.77882813 16.12072266 -9.24515625 15.19066406 -8.6953125 14.23242188 C-8.13585937 13.26884766 -7.57640625 12.30527344 -7 11.3125 C-6.44054687 10.33732422 -5.88109375 9.36214844 -5.3046875 8.35742188 C-1.1541718 1.1541718 -1.1541718 1.1541718 0 0 Z " fill="#000000" transform="translate(27,374)"/>
<path d="M0 0 C5.21898731 1.73966244 7.06656946 7.23335562 9.75 11.8125 C10.67232422 13.3294043 10.67232422 13.3294043 11.61328125 14.87695312 C12.18949219 15.85212891 12.76570313 16.82730469 13.359375 17.83203125 C13.89014648 18.72639893 14.42091797 19.6207666 14.96777344 20.54223633 C16 23 16 23 15.79736328 25.18164062 C14.54185822 28.04477648 12.45650501 29.63670027 10.125 31.6875 C9.63394775 32.12247803 9.14289551 32.55745605 8.63696289 33.00561523 C4.41530607 36.7158008 0.05671391 40.25564508 -4.31640625 43.78515625 C-6.94708557 45.95632827 -9.47942424 48.20241357 -12 50.5 C-17.16881849 55.20716963 -22.55113421 59.62249338 -28 64 C-28.87011719 64.76699219 -29.74023438 65.53398437 -30.63671875 66.32421875 C-31.41660156 66.87722656 -32.19648438 67.43023437 -33 68 C-38.0840409 66.3053197 -39.96101655 61.25194834 -42.68994141 56.83544922 C-43.74696076 55.12990394 -44.8235046 53.43789851 -45.90234375 51.74609375 C-46.56878906 50.67746094 -47.23523438 49.60882813 -47.921875 48.5078125 C-48.53643555 47.52441895 -49.15099609 46.54102539 -49.78417969 45.52783203 C-51 43 -51 43 -50 40 C-48.27734375 38.4140625 -48.27734375 38.4140625 -45.9375 36.625 C-45.03386719 35.92246094 -44.13023437 35.21992188 -43.19921875 34.49609375 C-42.69181152 34.10276855 -42.1844043 33.70944336 -41.66162109 33.30419922 C-38.48665398 30.81218124 -35.37476606 28.24194661 -32.25 25.6875 C-26.51058666 21.01131721 -20.73570159 16.38535592 -14.89233398 11.83959961 C-12.22852943 9.76543628 -9.60360626 7.66889464 -7.01171875 5.50390625 C-6.12097656 4.76011719 -5.23023438 4.01632812 -4.3125 3.25 C-3.16201172 2.26773437 -3.16201172 2.26773437 -1.98828125 1.265625 C-1.33214844 0.84796875 -0.67601562 0.4303125 0 0 Z " fill="#000000" transform="translate(483,374)"/>
<path d="M0 0 C10.56 0 21.12 0 32 0 C32 13.2 32 26.4 32 40 C21.44 40 10.88 40 0 40 C0 26.8 0 13.6 0 0 Z " fill="#000000" transform="translate(308,300)"/>
<path d="M0 0 C3.2036195 4.80542925 3.31202384 10.29183226 4.125 15.9375 C4.30675781 17.11119141 4.48851563 18.28488281 4.67578125 19.49414062 C7.74057098 40.33701516 7.74057098 40.33701516 3 47 C-0.56368349 49.95276632 -3.58659696 50.48387533 -8.078125 50.28125 C-12.48417734 49.63646185 -14.5580928 47.53745471 -17.3125 44.1875 C-19.23279802 40.5602704 -19.39320281 39.04367831 -19 35 C-17.96917775 32.45461768 -16.90904113 30.15821929 -15.625 27.75 C-15.27429443 27.07122803 -14.92358887 26.39245605 -14.56225586 25.69311523 C-2.44134139 2.44134139 -2.44134139 2.44134139 0 0 Z " fill="#000000" transform="translate(87,27)"/>
<path d="M0 0 C0.66 0 1.32 0 2 0 C8.15289168 37.5432759 8.15289168 37.5432759 4.94140625 44.19140625 C2.69830466 47.0601801 0.44532694 48.81803438 -3.171875 49.2734375 C-10.98876369 49.58137554 -10.98876369 49.58137554 -14.5625 46.625 C-17.82263559 43.11408475 -18.59336714 40.78649534 -18.53125 35.93359375 C-17.30064374 29.13811358 -13.31648731 22.98631327 -10 17 C-9.58878906 16.25008789 -9.17757813 15.50017578 -8.75390625 14.72753906 C-1.46981838 1.46981838 -1.46981838 1.46981838 0 0 Z " fill="#000000" transform="translate(462,147)"/>
<path d="M0 0 C0.66 0 1.32 0 2 0 C8.15289168 37.5432759 8.15289168 37.5432759 4.94140625 44.19140625 C2.69830466 47.0601801 0.44532694 48.81803438 -3.171875 49.2734375 C-10.98876369 49.58137554 -10.98876369 49.58137554 -14.5625 46.625 C-17.82263559 43.11408475 -18.59336714 40.78649534 -18.53125 35.93359375 C-17.30064374 29.13811358 -13.31648731 22.98631327 -10 17 C-9.58878906 16.25008789 -9.17757813 15.50017578 -8.75390625 14.72753906 C-1.46981838 1.46981838 -1.46981838 1.46981838 0 0 Z " fill="#000000" transform="translate(438,51)"/>
<path d="M0 0 C-0.18788914 4.03999831 -0.40023019 8.0779125 -0.63476562 12.11547852 C-0.71107104 13.48752098 -0.78082474 14.85994483 -0.84375 16.23266602 C-0.93564458 18.21198922 -1.05349599 20.19005284 -1.171875 22.16796875 C-1.2347168 23.35672607 -1.29755859 24.5454834 -1.36230469 25.77026367 C-2.10488356 29.5312039 -3.35256803 31.27307024 -6 34 C-9.69725375 35.84862688 -13.96461442 35.47587094 -18 35 C-20.93423195 33.20353146 -22.47205355 32.0558929 -24 29 C-24.55218903 25.54881856 -24.70409757 23.08594359 -22.75390625 20.078125 C-20.91699734 17.95698307 -18.99143731 15.97682126 -17 14 C-16.26652344 13.23042969 -15.53304687 12.46085938 -14.77734375 11.66796875 C-3.49637231 0 -3.49637231 0 0 0 Z " fill="#000000" transform="translate(84,128)"/>
</svg>
