<?xml version="1.0" encoding="UTF-8"?>
<svg version="1.1" xmlns="http://www.w3.org/2000/svg" width="256" height="256">
<path d="M0 0 C1.59328125 0.54333984 1.59328125 0.54333984 3.21875 1.09765625 C24.17558425 9.06449401 39.96015861 25.48584274 49.49609375 45.46484375 C57.8901218 65.19626033 58.96842106 87.66779777 52 108 C51.649375 109.05058594 51.29875 110.10117188 50.9375 111.18359375 C42.94016259 132.53759538 26.04984284 147.57814334 5.95703125 157.2734375 C1.74327466 159.11201639 -2.6385203 160.54617343 -7 162 C-7.33 175.86 -7.66 189.72 -8 204 C-4.37 204 -0.74 204 3 204 C12.52206855 206.83251406 18.38486725 213.51525595 23 222 C25.32139805 228.96419414 24 236.65909482 24 244 C-10.32 244 -44.64 244 -80 244 C-80 243.01 -80 242.02 -80 241 C-80.80373047 241.48699371 -81.60746094 241.97398743 -82.43554688 242.47573853 C-86.8386151 244.35861565 -90.30333376 244.42280583 -95.03125 244.38818359 C-95.91981689 244.39344055 -96.80838379 244.39869751 -97.72387695 244.40411377 C-100.64943222 244.4172746 -103.57443958 244.40858952 -106.5 244.3984375 C-108.5397146 244.40045936 -110.57942849 244.40337173 -112.61914062 244.40713501 C-116.88939308 244.41155306 -121.159457 244.40514393 -125.4296875 244.39111328 C-130.89732878 244.37402182 -136.36452824 244.38386576 -141.83215332 244.40183067 C-146.04267696 244.41268246 -150.25309623 244.40921574 -154.46362305 244.4014473 C-156.47941134 244.39944915 -158.49520918 244.40189099 -160.51098633 244.40888596 C-163.33049544 244.4165233 -166.14929369 244.40486412 -168.96875 244.38818359 C-169.79802002 244.39425629 -170.62729004 244.40032898 -171.48168945 244.40658569 C-177.76748321 244.3378563 -181.83349363 242.86420316 -186.6875 238.6875 C-190.84267007 233.85851856 -192.37399144 229.79734394 -192.38768005 223.44790649 C-192.39758469 222.14702591 -192.40748932 220.84614532 -192.41769409 219.50584412 C-192.41345652 218.07632351 -192.40889871 216.64680383 -192.40405273 215.21728516 C-192.40975896 213.702301 -192.41672421 212.18732113 -192.42485046 210.67234802 C-192.4427707 206.56686303 -192.44161547 202.46159191 -192.43590808 198.35607958 C-192.43281409 194.92427868 -192.43891113 191.49251873 -192.44494683 188.06072366 C-192.45898717 179.96167164 -192.4574353 171.86272511 -192.44604492 163.76367188 C-192.43456831 155.41911761 -192.4486327 147.07488491 -192.4754414 138.73037302 C-192.49762295 131.55649038 -192.50423013 124.38270849 -192.49836498 117.208794 C-192.49499956 112.92838998 -192.49738258 108.64819199 -192.51461601 104.36781693 C-192.53012198 100.34082179 -192.52608953 96.31430153 -192.50731087 92.28732491 C-192.50363482 90.81357855 -192.50670471 89.33979673 -192.51719666 87.86608315 C-192.57677592 78.8019622 -192.40321395 71.99030914 -186.18359375 64.94140625 C-185.60738281 64.48636719 -185.03117188 64.03132813 -184.4375 63.5625 C-183.85871094 63.08941406 -183.27992188 62.61632812 -182.68359375 62.12890625 C-179.06086502 59.69974476 -175.64757093 59.84941404 -171.41723633 59.79467773 C-170.42171501 59.77982834 -170.42171501 59.77982834 -169.40608215 59.76467896 C-167.21476801 59.7331191 -165.02343219 59.70832845 -162.83203125 59.68359375 C-161.31173645 59.66301945 -159.79144731 59.64202285 -158.27116394 59.62062073 C-154.27141913 59.56544916 -150.27162311 59.51601825 -146.27178955 59.46777344 C-142.18961026 59.4175225 -138.10750526 59.36185519 -134.02539062 59.30664062 C-126.0169899 59.19911918 -118.00852701 59.09766089 -110 59 C-109.67531738 58.06551025 -109.35063477 57.13102051 -109.01611328 56.16821289 C-108.58024902 54.9280542 -108.14438477 53.68789551 -107.6953125 52.41015625 C-107.26750488 51.1869165 -106.83969727 49.96367676 -106.39892578 48.70336914 C-98.70763399 28.34225131 -83.45601895 12.59638819 -64 3 C-43.57889542 -5.54467972 -21.09668731 -7.24604688 0 0 Z M-72 152 C-72 171.47 -72 190.94 -72 211 C-69.00369046 209.50190487 -69.00369046 209.50190487 -66.02734375 207.96484375 C-59.45035539 204.73167003 -55.98301726 204.72572884 -48 204 C-48 190.14 -48 176.28 -48 162 C-53.94 159.69 -59.88 157.38 -66 155 C-67.98 154.01 -69.96 153.02 -72 152 Z " fill="#000000" transform="translate(196,8)"/>
<path d="M0 0 C2.39971112 1.59980741 4.69753038 3.26035629 7 5 C5.57505239 9.25943799 3.49331063 12.05651685 0.5625 15.4375 C-0.34161912 16.49457785 -1.24389206 17.5532369 -2.14453125 18.61328125 C-2.84763428 19.44013428 -2.84763428 19.44013428 -3.56494141 20.28369141 C-6.46669074 23.75414017 -9.23098838 27.33354259 -12.00878906 30.90332031 C-15.46750558 35.34386604 -19.01956895 39.69868442 -22.63671875 44.01171875 C-24.28274843 46.0105807 -24.28274843 46.0105807 -24 49 C-20.07622506 49.06883816 -16.44995858 49.06544852 -12.5625 48.5 C-2.84609753 47.13629439 5.18087698 48.03227827 13.3125 53.875 C20.03347001 59.33162912 24.06856313 65.90840285 25.390625 74.5546875 C25.85224348 85.13893986 20.16899682 92.88012384 14 101 C13.24976563 102.03640625 13.24976563 102.03640625 12.484375 103.09375 C5.69939633 111.7291774 -5.09750989 117.62005245 -15 122 C-15.66 122 -16.32 122 -17 122 C-17.22693039 121.40087296 -17.45386078 120.80174591 -17.68766785 120.1844635 C-20.04879025 113.96262926 -22.43762996 107.75197089 -24.84301758 101.54711914 C-25.73758227 99.2285933 -26.62498889 96.90729263 -27.50512695 94.58325195 C-28.76993825 91.2471965 -30.05997706 87.92189734 -31.35546875 84.59765625 C-31.94016182 83.03048607 -31.94016182 83.03048607 -32.53666687 81.43165588 C-32.9166835 80.47073532 -33.29670013 79.50981476 -33.68823242 78.51977539 C-34.01466232 77.66928116 -34.34109222 76.81878693 -34.67741394 75.94252014 C-35.88310774 73.73119604 -35.88310774 73.73119604 -38.64448547 73.21751404 C-39.42180527 73.14573441 -40.19912506 73.07395477 -41 73 C-41.12246094 73.87011719 -41.24492187 74.74023438 -41.37109375 75.63671875 C-43.17455913 85.28133794 -47.57850816 93.5489058 -55 100 C-62.7024361 105.03244464 -70.91564307 106.1884192 -80 105 C-88.81056537 101.74072164 -94.77548912 96.32477144 -99 88 C-100.93340793 83.40427902 -102.57346618 78.77648402 -104 74 C-104.55880859 72.17855469 -104.55880859 72.17855469 -105.12890625 70.3203125 C-106.4417385 64.93270332 -106.2146647 59.51093016 -106.125 54 C-106.11597656 52.93910156 -106.10695313 51.87820312 -106.09765625 50.78515625 C-106.07427524 48.18986362 -106.04150556 45.59505535 -106 43 C-97.61322534 44.00721586 -89.24240899 45.08342953 -80.88671875 46.32421875 C-79.75280197 46.49161057 -79.75280197 46.49161057 -78.59597778 46.66238403 C-75.49702292 47.12047752 -72.39831062 47.57980583 -69.30102539 48.04907227 C-66.99714726 48.39712657 -64.69211774 48.73640664 -62.38671875 49.07421875 C-61.33686043 49.23660286 -61.33686043 49.23660286 -60.26579285 49.40226746 C-57.05859991 49.86552949 -55.12462372 50.04154124 -52 49 C-52.52038004 44.7120685 -55.23631576 41.96330411 -57.875 38.75 C-64.80298115 29.95641773 -67.05751909 23.4212062 -66 12 C-64.66037897 3.75213721 -59.74408022 -2.52802194 -53.0625 -7.41796875 C-37.30399482 -16.82552465 -14.31562565 -8.72904003 0 0 Z " fill="#030304" transform="translate(206,31)"/>
<path d="M0 0 C0.99 0.35191406 1.98 0.70382813 3 1.06640625 C24.28818109 9.29385379 38.94196454 24.63747445 48.20605469 45.14794922 C55.91206511 63.12390096 54.70734859 84.19203219 47.75 102.125 C39.65017734 120.38554695 24.97903494 136.6819577 6 144 C-14.67209333 151.01690103 -35.35757053 151.56462581 -55.39770508 142.16186523 C-63.97167613 137.93312815 -71.47083644 133.3796411 -77.48046875 125.80859375 C-79.07849789 123.8431338 -79.07849789 123.8431338 -81.42578125 121.65625 C-89.405541 113.42220352 -93.77879756 102.83732481 -97 92 C-97.36931641 90.81083984 -97.36931641 90.81083984 -97.74609375 89.59765625 C-102.73580767 70.01733058 -97.89383963 49.96251504 -88.10302734 32.81005859 C-76.94200463 14.4949142 -59.26967539 3.46624348 -39 -2 C-26.68329504 -4.69320707 -11.83410049 -4.28298114 0 0 Z M-45.1875 15.1875 C-50.46261527 21.72255094 -51.61333988 28.83551767 -51.33203125 37.09765625 C-50.37740032 45.44225368 -45.54917549 51.27095207 -40.26611328 57.48413086 C-38.94921875 59.08203125 -38.94921875 59.08203125 -37 62 C-37.37817383 64.18237305 -37.37817383 64.18237305 -38 66 C-51.40620845 64.21069816 -64.79210522 62.31950907 -78.16137695 60.27050781 C-79.8023938 60.02252441 -79.8023938 60.02252441 -81.4765625 59.76953125 C-82.9318335 59.54680542 -82.9318335 59.54680542 -84.41650391 59.31958008 C-87.22775932 58.91815672 -87.22775932 58.91815672 -91 59 C-91.67193423 78.82981297 -90.91275787 98.26909763 -77 114 C-75.05174072 115.53311341 -75.05174072 115.53311341 -73 116.6875 C-72.34 117.08324219 -71.68 117.47898437 -71 117.88671875 C-70.34 118.25410156 -69.68 118.62148437 -69 119 C-68.38382813 119.36996094 -67.76765625 119.73992187 -67.1328125 120.12109375 C-60.93566543 122.67486315 -52.85536768 121.66558243 -46.6875 119.4375 C-36.70039631 114.75958595 -32.26204603 107.96287193 -28 98 C-27.61585938 97.13632813 -27.23171875 96.27265625 -26.8359375 95.3828125 C-25.77930708 92.79178712 -25.77930708 92.79178712 -26 89 C-23.64448547 89.21751404 -23.64448547 89.21751404 -21 90 C-19.67741394 91.94252014 -19.67741394 91.94252014 -18.68823242 94.51977539 C-18.30821579 95.48069595 -17.92819916 96.44161652 -17.53666687 97.43165588 C-16.9519738 98.99882607 -16.9519738 98.99882607 -16.35546875 100.59765625 C-15.73349358 102.19364906 -15.73349358 102.19364906 -15.09895325 103.82188416 C-13.77631631 107.22849455 -12.48173774 110.64501214 -11.1875 114.0625 C-10.29674667 116.3711476 -9.40419093 118.67910065 -8.50976562 120.98632812 C-6.31885047 126.64965278 -4.15088872 132.3213617 -2 138 C15.61569941 132.27182333 29.31392803 120.38674923 38 104 C41.132458 97.13842532 40.95732088 89.90454323 38.4375 82.875 C34.61100431 74.35235051 28.64826813 68.56015278 20 65 C12.91545521 63.2399334 6.14823541 63.96025667 -1 65 C-3.67363784 65.08030361 -6.32422433 65.04694343 -9 65 C-8.40920179 61.92508778 -7.52877833 60.09276712 -5.515625 57.70703125 C-4.99863037 57.08481689 -4.48163574 56.46260254 -3.94897461 55.8215332 C-3.38831299 55.15855225 -2.82765137 54.49557129 -2.25 53.8125 C3.22511388 47.21676223 8.5058208 40.50352646 13.68457031 33.6730957 C14.19213867 33.00366943 14.69970703 32.33424316 15.22265625 31.64453125 C15.69590332 31.01498535 16.16915039 30.38543945 16.65673828 29.73681641 C17.8606789 28.18014001 19.14284998 26.68471359 20.43359375 25.19921875 C20.95050781 24.47347656 21.46742188 23.74773438 22 23 C20.11953485 17.35860454 13.03449692 14.78755702 8 12 C-9.11182708 3.82540851 -30.93703714 -0.01065374 -45.1875 15.1875 Z " fill="#1570E9" transform="translate(191,15)"/>
<path d="M0 0 C1.30119781 0.00007553 2.60239563 0.00015106 3.94302368 0.00022888 C5.36875445 0.00533592 6.79448484 0.01055192 8.22021484 0.01586914 C9.67467195 0.01773392 11.12912969 0.01915754 12.58358765 0.02015686 C16.4140801 0.02397734 20.24453472 0.03380363 24.07501221 0.04486084 C27.98278288 0.05508504 31.89055966 0.05965665 35.79833984 0.06469727 C43.46762794 0.07542631 51.13688484 0.09249711 58.80615234 0.11352539 C58.47615234 2.75352539 58.14615234 5.39352539 57.80615234 8.11352539 C49.88615234 8.11352539 41.96615234 8.11352539 33.80615234 8.11352539 C33.80615234 10.75352539 33.80615234 13.39352539 33.80615234 16.11352539 C41.72615234 16.11352539 49.64615234 16.11352539 57.80615234 16.11352539 C58.30115234 20.07352539 58.30115234 20.07352539 58.80615234 24.11352539 C58.06112961 24.12383286 57.31610687 24.13414032 56.54850769 24.14476013 C49.52976352 24.24270947 42.51110429 24.34522031 35.49250317 24.45286465 C31.88411174 24.50804539 28.27571214 24.56145759 24.66723633 24.61083984 C21.18532091 24.658555 17.70350316 24.71090031 14.22170448 24.76646614 C12.24584681 24.79678576 10.26991733 24.82230114 8.29399109 24.84776306 C7.09297256 24.86770828 5.89195404 24.8876535 4.65454102 24.90820312 C3.5953093 24.92374741 2.53607758 24.93929169 1.44474792 24.95530701 C-1.30200101 25.00575607 -1.30200101 25.00575607 -4.19384766 26.11352539 C-5.508287 30.05684342 -5.33300134 33.81745673 -5.32324219 37.92773438 C-5.32499451 38.82882935 -5.32674683 39.72992432 -5.32855225 40.6583252 C-5.33295958 43.64210934 -5.33003643 46.62583438 -5.32666016 49.60961914 C-5.32733358 51.68083203 -5.32830392 53.75204483 -5.32955933 55.82325745 C-5.33103483 60.16684724 -5.32888666 64.51041649 -5.32421875 68.85400391 C-5.31852511 74.42380378 -5.32179909 79.99355544 -5.32779121 85.56335354 C-5.33140381 89.84154117 -5.33025495 94.11971737 -5.32766342 98.39790535 C-5.32699591 100.45163033 -5.32781647 102.50535635 -5.33014297 104.55908012 C-5.33268052 107.42938871 -5.3288131 110.29961911 -5.32324219 113.16992188 C-5.32526642 114.02044632 -5.32729065 114.87097076 -5.32937622 115.74726868 C-5.31633628 119.37130199 -5.1741328 122.62612687 -4.19384766 126.11352539 C-0.01665361 127.12168097 3.9043801 127.24031249 8.19506836 127.24291992 C8.92089111 127.24467224 9.64671387 127.24642456 10.39453125 127.24822998 C12.783065 127.2526153 15.17152415 127.24972253 17.56005859 127.24633789 C19.22484857 127.24701181 20.88963846 127.24798257 22.5544281 127.24923706 C26.03865498 127.25070947 29.52285619 127.24857386 33.00708008 127.24389648 C37.47151765 127.23819504 41.93589516 127.24148372 46.40033054 127.24746895 C49.83612012 127.25108309 53.27189546 127.24993212 56.70768547 127.24734116 C58.35391179 127.24667448 60.00013941 127.24749125 61.64636421 127.24982071 C63.94648792 127.25236168 66.24651439 127.24848642 68.54663086 127.24291992 C70.50923607 127.24172653 70.50923607 127.24172653 72.51148987 127.24050903 C76.26570748 127.14252908 76.26570748 127.14252908 79.80615234 126.11352539 C80.79579471 123.14459828 80.95888962 121.10202631 81.01147461 117.99951172 C81.03141983 116.95865921 81.05136505 115.9178067 81.07191467 114.84541321 C81.08862717 113.72346054 81.10533966 112.60150787 81.12255859 111.44555664 C81.15373024 109.7206324 81.15373024 109.7206324 81.18553162 107.96086121 C81.25098576 104.28264414 81.30989309 100.60435491 81.36865234 96.92602539 C81.41184148 94.43448143 81.4554559 91.9429448 81.49951172 89.45141602 C81.60666296 83.33886238 81.70843718 77.22623675 81.80615234 71.11352539 C85.32344608 72.47163348 87.54165715 74.08057105 89.80615234 77.11352539 C91.05824881 83.25603319 90.88391032 89.36260845 90.79833984 95.60961914 C90.79865 97.44515715 90.80163081 99.28069648 90.80715942 101.1162262 C90.80992507 104.95909695 90.78486104 108.80047262 90.73925781 112.64306641 C90.6825229 117.55744865 90.68795223 122.46934445 90.71343803 127.38391018 C90.72738146 131.17345744 90.71174046 134.96243479 90.68692398 138.75190926 C90.67792067 140.56309889 90.67719894 142.37434999 90.68505478 144.18554497 C90.69090916 146.72326799 90.65774247 149.25762562 90.61425781 151.79492188 C90.62326111 152.53643997 90.6322644 153.27795807 90.64154053 154.04194641 C90.49291731 159.28879191 88.85029443 161.9641738 85.28555489 165.77707005 C81.82895333 168.89967764 77.98068481 168.26856899 73.58032227 168.2746582 C72.72974747 168.27962311 71.87917267 168.28458801 71.00282288 168.28970337 C68.18074747 168.30434296 65.35872828 168.3111303 62.53662109 168.31665039 C60.57847593 168.32240077 58.62033079 168.32815852 56.66218567 168.33392334 C52.5522129 168.34443873 48.44225972 168.35027774 44.33227539 168.35375977 C39.06624049 168.35924279 33.80046437 168.38326448 28.53451061 168.41173172 C24.4878921 168.4303582 20.44133588 168.43556373 16.39467812 168.43709564 C14.4534088 168.44012314 12.51214061 168.44815495 10.57091331 168.46128082 C7.85379762 168.47833997 5.13731357 168.4764613 2.42016602 168.4699707 C1.21754623 168.48379288 1.21754623 168.48379288 -0.0093689 168.49789429 C-4.57973259 168.46370289 -7.68263574 168.14047949 -11.19384766 165.11352539 C-13.73400511 160.82740146 -14.57229803 157.66561931 -14.59498596 152.70655823 C-14.60778091 151.4378891 -14.62057587 150.16921997 -14.63375854 148.86210632 C-14.63271017 147.46878024 -14.63132567 146.07545437 -14.62963867 144.68212891 C-14.63862179 143.20492796 -14.64883131 141.72773405 -14.66017151 140.25054932 C-14.68661622 136.24845826 -14.69370252 132.24655976 -14.69561887 128.24438977 C-14.69775426 125.74202245 -14.70416444 123.23970378 -14.71211052 120.73734856 C-14.73984327 112.00195085 -14.75211834 103.26669027 -14.74975586 94.53125 C-14.74795298 86.39672178 -14.77962489 78.26279005 -14.82698685 70.12841278 C-14.86624318 63.13627973 -14.88230638 56.14434146 -14.88038963 49.15209907 C-14.87962568 44.979462 -14.88812281 40.80735557 -14.91992378 36.63482857 C-14.94902034 32.71026497 -14.94917094 28.78673748 -14.92737389 24.86213684 C-14.92424298 23.42504293 -14.93128647 21.98788388 -14.94945526 20.55090141 C-15.09358219 8.35869063 -15.09358219 8.35869063 -11.27330017 3.76597595 C-7.57701164 0.21273234 -5.10174454 -0.00984893 0 0 Z " fill="#959EA9" transform="translate(26.19384765625,75.886474609375)"/>
<path d="M0 0 C19.47 0 38.94 0 59 0 C60.98 5.28 62.96 10.56 65 16 C67.90088448 22.30568432 67.90088448 22.30568432 72 28 C72.09386381 29.8718094 72.11743804 31.7471806 72.11352539 33.62133789 C72.11340454 34.8393811 72.11328369 36.05742432 72.11315918 37.31237793 C72.10804321 38.60276978 72.10292725 39.89316162 72.09765625 41.22265625 C72.09664917 42.40114136 72.09564209 43.57962646 72.09460449 44.79382324 C72.08935316 49.21672532 72.07539205 53.63961359 72.0625 58.0625 C72.041875 67.941875 72.02125 77.82125 72 88 C48.24 88 24.48 88 0 88 C0 58.96 0 29.92 0 0 Z " fill="#68D4F2" transform="translate(28,108)"/>
<path d="M0 0 C7.95208627 4.36345246 12.43094837 10.6912826 15.28515625 19.25390625 C16.10759131 29.04404665 14.38538915 36.45916421 8.28515625 44.25390625 C2.15615651 50.64870445 -3.80734842 53.34344324 -12.65234375 53.69140625 C-21.23497471 53.43230796 -27.69226823 50.20762724 -33.91796875 44.35546875 C-39.56162892 37.75484012 -41.48613102 30.54387788 -41.06640625 21.97265625 C-40.17560624 15.08380283 -36.51456929 9.17312703 -31.71484375 4.25390625 C-21.57802868 -3.04081114 -11.70656583 -5.32453945 0 0 Z " fill="#F5D16C" transform="translate(76.71484375,118.74609375)"/>
<path d="M0 0 C1.13515549 -0.01283524 2.27031097 -0.02567047 3.43986511 -0.03889465 C4.66796402 -0.04628159 5.89606293 -0.05366852 7.16137695 -0.0612793 C8.42552933 -0.06935104 9.6896817 -0.07742279 10.99214172 -0.08573914 C13.67123071 -0.0995816 16.35019661 -0.11059685 19.02929688 -0.11816406 C22.44441433 -0.12919788 25.85887469 -0.16356611 29.2737608 -0.20333576 C32.54873368 -0.23593466 35.82376658 -0.2402927 39.09887695 -0.2487793 C40.31685471 -0.26628738 41.53483246 -0.28379547 42.78971863 -0.30183411 C50.70096793 -0.28172413 56.65300298 0.41121472 62.52075195 6.2121582 C62.97579102 6.88118164 63.43083008 7.55020508 63.8996582 8.23950195 C64.37274414 8.91110352 64.84583008 9.58270508 65.33325195 10.2746582 C68.25212993 15.1933211 67.4621582 17.74626061 67.4621582 24.17700195 C38.4221582 24.17700195 9.3821582 24.17700195 -20.5378418 24.17700195 C-20.5378418 12.45124018 -20.5378418 12.45124018 -16.5378418 7.17700195 C-11.34758925 2.37314647 -7.13878636 0.07030577 0 0 Z " fill="#9ED267" transform="translate(144.537841796875,219.822998046875)"/>
<path d="M0 0 C6.18254112 0.61219317 12.35432688 1.28501002 18.52416992 2.01416016 C20.62226996 2.25348962 22.72232056 2.47633138 24.82397461 2.68212891 C27.85157327 2.98152239 30.86712443 3.34023751 33.88671875 3.7109375 C35.29167854 3.83038223 35.29167854 3.83038223 36.72502136 3.95223999 C40.75408914 4.49843789 43.14335954 4.89396878 45.70205688 8.1975708 C48.58894505 13.75591446 50.74053837 18.64440592 48.8125 24.77734375 C48.22815165 26.17252949 47.62304214 27.5591587 47 28.9375 C46.68111816 29.65244629 46.36223633 30.36739258 46.03369141 31.10400391 C43.10220668 37.3483398 40.05072447 41.1109922 33.62109375 44.109375 C27.86100841 46.06660221 21.31459471 45.93237258 15.6875 43.5625 C7.44226172 38.75699303 3.78111519 28.30474296 1.3125 19.56640625 C0.23627874 14.89530701 -0.08642665 10.47202943 -0.046875 5.6796875 C-0.04010742 4.61218262 -0.03333984 3.54467773 -0.02636719 2.44482422 C-0.01766602 1.63803223 -0.00896484 0.83124023 0 0 Z " fill="#DAA57D" transform="translate(108,83)"/>
<path d="M0 0 C16.11081447 -0.84694702 16.11081447 -0.84694702 22.96875 4.12841797 C27.76319224 8.79328069 29.51807237 14.42435217 30.59375 20.87841797 C30.06819461 31.22781638 21.06315378 39.84830066 13.9140625 46.54248047 C10.38474239 49.64116736 7.1848294 52.05870627 2.96875 54.12841797 C-0.03125 53.12841797 -0.03125 53.12841797 -1.76464844 49.69775391 C-2.40229792 48.17453425 -3.02673287 46.64574158 -3.640625 45.11279297 C-3.9716925 44.30481262 -4.30276001 43.49683228 -4.64385986 42.66436768 C-5.34185876 40.95167564 -6.03415181 39.23664891 -6.72119141 37.51953125 C-7.77424781 34.89586377 -8.85251937 32.2836134 -9.93359375 29.67138672 C-10.60832609 28.00665165 -11.2815531 26.3413055 -11.953125 24.67529297 C-12.27698181 23.89490662 -12.60083862 23.11452026 -12.93450928 22.31048584 C-15.07285895 16.88808858 -15.0610251 14.00497982 -13.0859375 8.48779297 C-12.69664062 7.62669922 -12.30734375 6.76560547 -11.90625 5.87841797 C-11.53242188 5.00701172 -11.15859375 4.13560547 -10.7734375 3.23779297 C-9.03125 1.12841797 -9.03125 1.12841797 -5.87890625 0.35107422 C-3.91905846 0.23766171 -1.95921502 0.12386383 0 0 Z " fill="#DAA57D" transform="translate(193.03125,87.87158203125)"/>
<path d="M0 0 C2.3359375 2.1640625 2.3359375 2.1640625 4 4 C0.94895447 8.04947737 -2.12085867 12.08124327 -5.23046875 16.0859375 C-7.73056777 19.31058134 -10.13405844 22.58174711 -12.48828125 25.9140625 C-20.49181962 36.91963659 -20.49181962 36.91963659 -26.609375 39.5546875 C-30.83277923 40.00653642 -33.11748847 39.74871581 -37 38 C-43.20735455 32.84956842 -49.18166133 24.74740184 -50.3359375 16.640625 C-50.44876104 9.73582456 -49.28994895 3.6955591 -44.57421875 -1.6015625 C-32.92886745 -11.89280319 -12.37602613 -6.93517254 0 0 Z " fill="#DAA67D" transform="translate(198,35)"/>
<path d="M0 0 C7.95208627 4.36345246 12.43094837 10.6912826 15.28515625 19.25390625 C16.10759131 29.04404665 14.38538915 36.45916421 8.28515625 44.25390625 C2.15615651 50.64870445 -3.80734842 53.34344324 -12.65234375 53.69140625 C-21.23497471 53.43230796 -27.69226823 50.20762724 -33.91796875 44.35546875 C-39.56162892 37.75484012 -41.48613102 30.54387788 -41.06640625 21.97265625 C-40.17560624 15.08380283 -36.51456929 9.17312703 -31.71484375 4.25390625 C-21.57802868 -3.04081114 -11.70656583 -5.32453945 0 0 Z M-23.71484375 8.25390625 C-25.01421875 9.08921875 -25.01421875 9.08921875 -26.33984375 9.94140625 C-30.60432572 14.09366501 -32.9112148 18.70258698 -33.21484375 24.69140625 C-32.88614023 30.64915764 -31.13645804 35.92974122 -26.7734375 40.1171875 C-20.59552613 44.88430512 -15.46362229 46.04835754 -7.71484375 45.25390625 C-1.7378211 43.60471019 1.611482 40.19919567 5.15625 35.25390625 C7.77665504 30.61152778 7.89303056 25.45936512 7.28515625 20.25390625 C5.14539123 13.40665818 1.15962089 9.51401062 -4.96484375 5.94140625 C-11.65676518 4.26842589 -17.8350991 4.42523532 -23.71484375 8.25390625 Z " fill="#040606" transform="translate(76.71484375,118.74609375)"/>
<path d="M0 0 C0.8245166 -0.00478363 1.6490332 -0.00956726 2.49853516 -0.01449585 C4.23667313 -0.01788872 5.97487544 -0.00872903 7.71289062 0.01220703 C10.36733825 0.03898521 13.01755825 0.01244254 15.671875 -0.01953125 C17.36459263 -0.01622704 19.05730763 -0.00982056 20.75 0 C21.93456787 -0.01518173 21.93456787 -0.01518173 23.14306641 -0.03067017 C27.33673061 0.05813537 28.94624782 0.33071274 32.37255859 2.99462891 C34.92649845 6.39925928 35.04551818 8.43997502 35 12.6640625 C35.01289062 13.8603125 35.02578125 15.0565625 35.0390625 16.2890625 C34.17658323 20.67248654 32.88715023 21.93340718 29.375 24.6640625 C26.49312831 25.3796434 23.70841414 25.36604081 20.75 25.328125 C19.5132251 25.33530045 19.5132251 25.33530045 18.25146484 25.34262085 C16.51332687 25.34601372 14.77512456 25.33685403 13.03710938 25.31591797 C10.38266175 25.28913979 7.73244175 25.31568246 5.078125 25.34765625 C3.38540737 25.34435204 1.69269237 25.33794556 0 25.328125 C-0.78971191 25.33824615 -1.57942383 25.34836731 -2.39306641 25.35879517 C-6.58673061 25.26998963 -8.19624782 24.99741226 -11.62255859 22.33349609 C-14.17649845 18.92886572 -14.29551818 16.88814998 -14.25 12.6640625 C-14.26289062 11.4678125 -14.27578125 10.2715625 -14.2890625 9.0390625 C-12.68764243 0.90008049 -7.18007418 -0.09202171 0 0 Z " fill="#010101" transform="translate(53.625,211.3359375)"/>
<path d="M0 0 C7.92 0 15.84 0 24 0 C24 13.53 24 27.06 24 41 C16.08 41 8.16 41 0 41 C0 27.47 0 13.94 0 0 Z " fill="#DCA77E" transform="translate(156,171)"/>
<path d="M0 0 C13.2 0 26.4 0 40 0 C40 2.64 40 5.28 40 8 C26.8 8 13.6 8 0 8 C0 5.36 0 2.72 0 0 Z " fill="#000000" transform="translate(52,180)"/>
<path d="M0 0 C10.56 0 21.12 0 32 0 C32 2.64 32 5.28 32 8 C21.44 8 10.88 8 0 8 C0 5.36 0 2.72 0 0 Z " fill="#1674F0" transform="translate(48,220)"/>
<path d="M0 0 C0.77601563 0.16371094 1.55203125 0.32742187 2.3515625 0.49609375 C7.0492078 1.144912 11.64013661 1.10640387 16.375 1.0625 C17.76525391 1.05573242 17.76525391 1.05573242 19.18359375 1.04882812 C21.45579709 1.03711574 23.72786388 1.02071372 26 1 C28 6.75 28 6.75 28 9 C19.78954467 11.54807234 8.37893577 10.83505618 0 9 C-0.66 8.34 -1.32 7.68 -2 7 C-1.34 4.69 -0.68 2.38 0 0 Z " fill="#01050A" transform="translate(153,146)"/>
<path d="M0 0 C5.79998431 2.27176628 8.16767941 7.75262034 11 13 C12.84687148 17.27550749 14.48134268 21.59799331 16 26 C13.36 26.66 10.72 27.32 8 28 C7.46890625 26.91460937 6.9378125 25.82921875 6.390625 24.7109375 C5.6773009 23.26551761 4.96374699 21.82021111 4.25 20.375 C3.90195313 19.66214844 3.55390625 18.94929688 3.1953125 18.21484375 C1.06281642 13.91036093 -1.2438475 9.93558712 -4 6 C-2.84826645 3.53199953 -1.95216435 1.95216435 0 0 Z " fill="#00050A" transform="translate(218,44)"/>
<path d="M0 0 C3.47899158 1.39159663 4.48052501 2.63251488 6 6 C5.154375 6.86625 4.30875 7.7325 3.4375 8.625 C-1.24120673 14.01835406 -3.99324947 20.58619191 -7 27 C-12.75 26.125 -12.75 26.125 -15 25 C-12.31189647 15.35445205 -7.5904217 6.67037059 0 0 Z " fill="#000408" transform="translate(119,41)"/>
<path d="M0 0 C4.0743356 0.84881992 5.54405875 2.30225596 8 5.625 C8.625 8.625 8.625 8.625 8 11.625 C5.54405875 14.94774404 4.0743356 16.40118008 0 17.25 C-4.0743356 16.40118008 -5.54405875 14.94774404 -8 11.625 C-8.625 8.625 -8.625 8.625 -8 5.625 C-5.54405875 2.30225596 -4.0743356 0.84881992 0 0 Z " fill="#97C862" transform="translate(168,79.375)"/>
<path d="M0 0 C2.64 0 5.28 0 8 0 C8.01417969 0.73605469 8.02835938 1.47210938 8.04296875 2.23046875 C8.1761169 8.83191687 8.1761169 8.83191687 11.5625 14.1875 C12.366875 14.785625 13.17125 15.38375 14 16 C12.60840337 19.47899158 11.36748512 20.48052501 8 22 C4.75673449 19.66890292 2.20169468 17.3508248 0 14 C-0.69075389 9.25614608 -0.48120567 4.75858944 0 0 Z " fill="#010100" transform="translate(60,132)"/>
<path d="M0 0 C2.64 0 5.28 0 8 0 C8 2.64 8 5.28 8 8 C5.36 8 2.72 8 0 8 C0 5.36 0 2.72 0 0 Z " fill="#000000" transform="translate(180,228)"/>
<path d="M0 0 C2.64 0 5.28 0 8 0 C8 2.64 8 5.28 8 8 C5.36 8 2.72 8 0 8 C0 5.36 0 2.72 0 0 Z " fill="#000000" transform="translate(164,228)"/>
<path d="M0 0 C2.64 0 5.28 0 8 0 C8 2.64 8 5.28 8 8 C5.36 8 2.72 8 0 8 C0 5.36 0 2.72 0 0 Z " fill="#000000" transform="translate(148,228)"/>
<path d="M0 0 C2.64 0 5.28 0 8 0 C8 2.64 8 5.28 8 8 C5.36 8 2.72 8 0 8 C0 5.36 0 2.72 0 0 Z " fill="#000000" transform="translate(36,180)"/>
<path d="M0 0 C2.64 0 5.28 0 8 0 C8 2.64 8 5.28 8 8 C5.36 8 2.72 8 0 8 C0 5.36 0 2.72 0 0 Z " fill="#000000" transform="translate(44,84)"/>
<path d="M0 0 C5.75 0.75 5.75 0.75 8 3 C7.01 5.31 6.02 7.62 5 10 C2.69 9.01 0.38 8.02 -2 7 C-1.125 2.25 -1.125 2.25 0 0 Z " fill="#010811" transform="translate(139,142)"/>
<path d="M0 0 C2.64 0 5.28 0 8 0 C8.38063221 2.3260857 8.71269945 4.66055264 9 7 C8 8 8 8 4.4375 8.0625 C3.303125 8.041875 2.16875 8.02125 1 8 C0.67 5.36 0.34 2.72 0 0 Z " fill="#020B16" transform="translate(227,78)"/>
<path d="M0 0 C3 4.22222222 3 4.22222222 3 7 C0.4385343 9.29648649 -0.47967572 10 -4 10 C-6.1875 7 -6.1875 7 -8 4 C-3.375 0 -3.375 0 0 0 Z " fill="#01070F" transform="translate(133,31)"/>
</svg>
