<?xml version="1.0" encoding="UTF-8"?>
<svg version="1.1" xmlns="http://www.w3.org/2000/svg" width="512" height="512">
<path d="M0 0 C168.96 0 337.92 0 512 0 C512 168.96 512 337.92 512 512 C343.04 512 174.08 512 0 512 C0 343.04 0 174.08 0 0 Z " fill="#E59E25" transform="translate(0,0)"/>
<path d="M0 0 C75.57 0 151.14 0 229 0 C229 168.96 229 337.92 229 512 C132.64 512 36.28 512 -63 512 C-63 478.34 -63 444.68 -63 410 C-58.71 408.02 -54.42 406.04 -50 404 C-38.60908103 397.40525744 -30.69246599 388.35604109 -26 376 C-23.00763224 364.11549114 -22.21706943 352.06384042 -21.5 339.875 C-21.37762499 337.92199555 -21.25455895 335.96903429 -21.13085938 334.01611328 C-20.097121 317.48177673 -19.20789996 300.93854482 -18.31149292 284.39630127 C-17.51302494 269.67106915 -16.62797582 254.95831532 -15.5625 240.25 C-14.24098057 221.9870167 -13.09905225 203.71494807 -12 185.4375 C-11.95725197 184.72723663 -11.91450394 184.01697327 -11.87046051 183.28518677 C-11.03307541 169.36953942 -10.20518657 155.45332965 -9.37789917 141.53707886 C-7.79686605 114.94954993 -6.14750191 88.36806508 -4.38378906 61.79199219 C-4.0490129 56.7462372 -3.71732125 51.70028362 -3.3862915 46.65428162 C-3.11552528 42.53065601 -2.84346025 38.40711682 -2.57104492 34.28359985 C-2.44222411 32.33129485 -2.31379423 30.378964 -2.18579102 28.42660522 C-2.00800312 25.71790743 -1.82843909 23.00933273 -1.6484375 20.30078125 C-1.57204544 19.12873642 -1.57204544 19.12873642 -1.49411011 17.93301392 C-1.09313191 11.9410847 -0.54418273 5.98601008 0 0 Z " fill="#F6F7F6" transform="translate(283,0)"/>
<path d="M0 0 C43.89 0 87.78 0 133 0 C133 8.91 133 17.82 133 27 C132.34 27 131.68 27 131 27 C131.00523682 27.93384521 131.01047363 28.86769043 131.01586914 29.82983398 C131.0328762 33.28312796 131.04543302 36.73637767 131.05493164 40.18969727 C131.05997121 41.68644918 131.06680287 43.18319616 131.07543945 44.67993164 C131.08752159 46.82699807 131.09323191 48.97399962 131.09765625 51.12109375 C131.10289307 52.4145874 131.10812988 53.70808105 131.11352539 55.04077148 C131 58 131 58 130 59 C129.85253758 61.3500873 129.76513698 63.67466707 129.71875 66.02734375 C129.69113586 67.08351646 129.69113586 67.08351646 129.66296387 68.161026 C129.6040464 70.41976343 129.5513119 72.67857774 129.5 74.9375 C129.4324323 77.9051114 129.35872795 80.87247647 129.28125 83.83984375 C129.26767456 84.52634506 129.25409912 85.21284637 129.2401123 85.92015076 C129.11277219 90.77445562 129.11277219 90.77445562 128 93 C127.84391977 95.40560273 127.74195542 97.78702772 127.68359375 100.1953125 C127.66281265 100.90275604 127.64203156 101.61019958 127.62062073 102.33908081 C127.55518922 104.60095425 127.49627026 106.86294462 127.4375 109.125 C127.39430867 110.65756422 127.35069418 112.19011657 127.30664062 113.72265625 C127.19951445 117.48165073 127.0982291 121.24076292 127 125 C126.34 125 125.68 125 125 125 C125.00523682 125.86278564 125.01047363 126.72557129 125.01586914 127.61450195 C125.03291996 130.81811273 125.04545453 134.02170036 125.05493164 137.2253418 C125.05995777 138.61141725 125.06677966 139.99748741 125.07543945 141.38354492 C125.08758018 143.37676715 125.09271021 145.37002819 125.09765625 147.36328125 C125.10289307 148.56251221 125.10812988 149.76174316 125.11352539 150.99731445 C125 154 125 154 124 157 C123.87979758 159.84894616 123.81383225 162.67732739 123.7890625 165.52734375 C123.76304659 167.3450607 123.73640421 169.16276877 123.70922852 170.98046875 C123.69594513 171.94903809 123.68266174 172.91760742 123.66897583 173.91552734 C123.39410696 192.80422632 122.66950513 211.64217629 121.5625 230.5 C121.50096741 231.56854218 121.43943481 232.63708435 121.3760376 233.73800659 C120.96387817 240.82880179 120.50686098 247.915343 120 255 C119.92883972 256.00240723 119.85767944 257.00481445 119.78436279 258.03759766 C119.56724289 260.9951486 119.3319807 263.95065159 119.08984375 266.90625 C119.02567764 267.77745483 118.96151154 268.64865967 118.895401 269.54626465 C117.48381802 285.7638434 110.61905047 297.89449873 99 309 C92.81807851 314.18617575 86.80067278 316.16339172 79 319 C78.67 352.66 78.34 386.32 78 421 C26.19 421 -25.62 421 -79 421 C-79 387.01 -79 353.02 -79 318 C-81.31 317.67 -83.62 317.34 -86 317 C-99.47271861 311.61860027 -109.3345462 301.3254244 -115.24609375 288.2421875 C-120.01146367 275.98837913 -120 265.49550462 -120 252 C-80.4 252 -40.8 252 0 252 C-0.33 241.77 -0.66 231.54 -1 221 C-1.07774543 215.5349536 -1.14388039 210.08772502 -1.125 204.625 C-1.12886719 203.39007813 -1.13273437 202.15515625 -1.13671875 200.8828125 C-1.12703315 192.12703315 -1.12703315 192.12703315 0 191 C1.65346448 190.74251068 3.30757982 190.4886625 4.96435547 190.25341797 C22.44016438 187.62208253 35.68228356 179.14998568 46.6875 165.375 C54.91811774 153.8870353 59.12024889 141.71752409 62 128 C62.1757959 127.20134521 62.3515918 126.40269043 62.53271484 125.57983398 C66.37719845 104.35482964 61.24735593 80.13564042 50.078125 61.94921875 C37.20249885 43.67647863 21.72399272 35.34479854 0 31 C0 20.77 0 10.54 0 0 Z " fill="#D97D1E" transform="translate(142,91)"/>
<path d="M0 0 C4.3558609 -0.0500364 8.7115624 -0.08601534 13.06762695 -0.10986328 C14.54454468 -0.11982183 16.02144322 -0.13339361 17.49829102 -0.15087891 C39.12164514 -0.40018173 56.82138828 4.68777606 72.6875 20.0625 C86.46566878 33.97179338 92.26899105 51.27932589 92.3190918 70.60522461 C92.15243609 81.8399695 88.37173784 91.24721368 83 101 C83.72832031 101.12375 84.45664062 101.2475 85.20703125 101.375 C96.05192748 103.80182992 105.08684467 111.51084734 111.375 120.4375 C115.98210681 127.87673763 119.1333086 135.8109827 119.11352539 144.59472656 C119.11344986 145.71558655 119.11337433 146.83644653 119.11329651 147.99127197 C119.10555458 149.79770172 119.10555458 149.79770172 119.09765625 151.640625 C119.09553383 153.49660309 119.09553383 153.49660309 119.09336853 155.39007568 C119.0887211 158.67144941 119.07974347 161.95277373 119.06866455 165.23413086 C119.0584152 168.58577011 119.05394859 171.93741148 119.04882812 175.2890625 C119.03780025 181.85939431 119.02106296 188.42969311 119 195 C92.10472226 195.09355487 65.20946901 195.16403389 38.31406116 195.20724869 C25.82528548 195.22784984 13.33661107 195.25592371 0.84790039 195.30175781 C-10.04073208 195.34170041 -20.92929119 195.36745059 -31.81799489 195.37635398 C-37.58034145 195.38155612 -43.34247818 195.39373217 -49.10475731 195.42292023 C-54.53594914 195.45020656 -59.96684603 195.45841834 -65.3980999 195.45243073 C-67.38416398 195.45352507 -69.37023863 195.46139968 -71.35624313 195.4768219 C-82.34717114 195.55793631 -91.67327548 195.13989874 -102 191 C-103.13307225 190.58044226 -103.13307225 190.58044226 -104.28903484 190.1524086 C-114.53043816 186.1644967 -122.02621688 175.65973226 -126.6953125 166.1875 C-131.03521127 155.58463354 -131.89923718 142.4232214 -128.09765625 131.53125 C-122.05548271 117.59769678 -113.6901299 108.5252021 -100 102 C-100.48035586 99.27798345 -101.06750254 96.81888942 -102.03515625 94.22265625 C-105.44156461 82.8449765 -103.43085409 70.33842276 -98 60 C-93.11911679 51.37303893 -93.11911679 51.37303893 -89 50 C-88.67 49.01 -88.34 48.02 -88 47 C-79.68872544 39.76331447 -69.39526418 34.88051316 -58.27661133 34.87402344 C-56.91413017 34.86831329 -56.91413017 34.86831329 -55.52412415 34.86248779 C-54.55323349 34.86146057 -53.58234283 34.86043335 -52.58203125 34.859375 C-50.50194221 34.84104266 -48.42186379 34.82147196 -46.34179688 34.80078125 C-43.08111654 34.77188015 -39.82111928 34.75000129 -36.56030273 34.74951172 C-33.40027081 34.74615585 -30.24179117 34.71147934 -27.08203125 34.671875 C-26.12126175 34.6789447 -25.16049225 34.6860144 -24.17060852 34.69329834 C-17.26130487 34.57056132 -11.72510956 32.98083788 -6 29 C-2.48993142 24.77694817 -0.93829453 19.97226926 -0.68359375 14.55078125 C-0.64169922 13.70322266 -0.59980469 12.85566406 -0.55664062 11.98242188 C-0.51732422 11.10134766 -0.47800781 10.22027344 -0.4375 9.3125 C-0.37272461 7.97348633 -0.37272461 7.97348633 -0.30664062 6.60742188 C-0.20064647 4.40509892 -0.09857949 2.20266527 0 0 Z " fill="#71C1E5" transform="translate(393,317)"/>
<path d="M0 0 C0.33 0 0.66 0 1 0 C1.05534912 1.05687012 1.11069824 2.11374023 1.16772461 3.20263672 C1.37805212 7.2173001 1.58875646 11.23194365 1.79956055 15.24658203 C1.88982866 16.96662893 1.98000171 18.68668082 2.07006836 20.40673828 C2.20139423 22.91440205 2.33309093 25.42204614 2.46484375 27.9296875 C2.50343002 28.66798798 2.5420163 29.40628845 2.58177185 30.16696167 C3.03499872 38.77912878 3.52161439 47.38905904 4 56 C49.54 56 95.08 56 142 56 C142 65.9 142 75.8 142 86 C97.12 86 52.24 86 6 86 C6.66 93.26 7.32 100.52 8 108 C8.26934259 112.11219317 8.52126664 116.20975113 8.7109375 120.32421875 C8.82037223 122.50024932 8.92991466 124.67627448 9.03955078 126.85229492 C9.12127533 128.52151505 9.12127533 128.52151505 9.20465088 130.22445679 C10.39931937 154.51098422 11.92856494 178.76173758 13.64208984 203.01635742 C14.44011863 214.3663177 15.16800622 225.70763365 15.66970825 237.07479858 C15.95102597 243.33885274 16.40762504 249.5698677 17 255.8125 C17.81270517 264.93468562 18.34027751 274.0401 18.65820312 283.19262695 C18.95919453 291.81311293 19.49273244 300.37645153 20 309 C60.26 309 100.52 309 142 309 C142 318.9 142 328.8 142 339 C102.4 339 62.8 339 22 339 C23.25150473 360.27558047 25.18763399 378.92991415 41.0625 394.125 C47.14852733 399.08552912 55.40848472 403.10212118 63 405 C63 438.99 63 472.98 63 508 C42.21 508 21.42 508 0 508 C0 340.36 0 172.72 0 0 Z " fill="#F7F6F5" transform="translate(0,4)"/>
<path d="M0 0 C93.39 0 186.78 0 283 0 C283 7.32632327 282.87657899 14.48960041 282.37890625 21.77734375 C282.31468979 22.75111465 282.25047333 23.72488556 282.18431091 24.72816467 C282.04906396 26.76429017 281.91200741 28.80029622 281.77319336 30.83618164 C281.56140629 33.9535989 281.35750034 37.07146585 281.15429688 40.18945312 C281.02130201 42.17711475 280.88785473 44.16474616 280.75390625 46.15234375 C280.6934462 47.08151108 280.63298615 48.01067841 280.57069397 48.96800232 C280.51070724 49.83312943 280.45072052 50.69825653 280.38891602 51.58959961 C280.33784195 52.34695908 280.28676788 53.10431854 280.23414612 53.8846283 C280 56 280 56 279 60 C188.25 60 97.5 60 4 60 C1.78646685 40.07820167 0.95341465 20.02170768 0 0 Z " fill="#E69D24" transform="translate(0,0)"/>
<path d="M0 0 C0 54.45 0 108.9 0 165 C-20.1403125 165.12375 -20.1403125 165.12375 -40.6875 165.25 C-47.00974731 165.30462402 -47.00974731 165.30462402 -53.4597168 165.36035156 C-58.66955566 165.37841797 -58.66955566 165.37841797 -61.12068176 165.3817749 C-62.80598699 165.38785393 -64.49127656 165.40178837 -66.1764679 165.42230225 C-76.92305462 165.54640096 -85.88838705 164.99888109 -96 161 C-96.75685593 160.72021301 -97.51371185 160.44042603 -98.29350281 160.15216064 C-108.53260347 156.1568052 -116.0253146 145.66156273 -120.6953125 136.1875 C-125.03521127 125.58463354 -125.89923718 112.4232214 -122.09765625 101.53125 C-116.05548271 87.59769678 -107.6901299 78.5252021 -94 72 C-94.48035586 69.27798345 -95.06750254 66.81888942 -96.03515625 64.22265625 C-99.44156461 52.8449765 -97.43085409 40.33842276 -92 30 C-87.11911679 21.37303893 -87.11911679 21.37303893 -83 20 C-82.505 18.515 -82.505 18.515 -82 17 C-73.67132098 9.74816029 -63.39311854 4.90677313 -52.26074219 4.8581543 C-51.34919373 4.85111984 -50.43764526 4.84408539 -49.49847412 4.83683777 C-48.52444641 4.83267349 -47.5504187 4.82850922 -46.546875 4.82421875 C-44.46222952 4.80101718 -42.37759408 4.7768997 -40.29296875 4.75195312 C-37.02353215 4.71690069 -33.75446464 4.68751836 -30.48486328 4.67407227 C-27.31758477 4.65851589 -24.1513694 4.61825784 -20.984375 4.57421875 C-20.01844421 4.57612717 -19.05251343 4.57803558 -18.05731201 4.58000183 C-11.60420034 4.46485057 -5.68207987 0 0 0 Z " fill="#9BDFF4" transform="translate(387,347)"/>
<path d="M0 0 C0.98097656 0.46277344 1.96195312 0.92554687 2.97265625 1.40234375 C20.03984597 10.40941549 31.91490064 26.9363586 38 45 C45.56240113 70.48338532 43.56827795 97.50074245 31 121 C28.90006396 124.55970682 26.60625464 127.79523176 24 131 C23.31035156 131.85207031 22.62070313 132.70414063 21.91015625 133.58203125 C12.93531104 144.10263187 0.11218461 153.30653785 -14 155 C-32.19468855 156.16846624 -47.42607195 151.58729679 -61.3359375 139.6015625 C-78.09105559 123.23952636 -86.72376286 100.74266154 -87.29272461 77.50708008 C-87.49463828 53.82335487 -80.35541423 30.63379302 -63.75 13.25 C-47.04955919 -2.74318171 -21.78435954 -10.35143325 0 0 Z " fill="#B5DADA" transform="translate(164,127)"/>
<path d="M0 0 C51.81 0 103.62 0 157 0 C157 33.66 157 67.32 157 102 C105.19 102 53.38 102 0 102 C0 68.34 0 34.68 0 0 Z " fill="#4F6997" transform="translate(63,410)"/>
<path d="M0 0 C46.53 0 93.06 0 141 0 C141 7.32632327 140.87657899 14.48960041 140.37890625 21.77734375 C140.28258156 23.23800011 140.28258156 23.23800011 140.18431091 24.72816467 C140.04906396 26.76429017 139.91200741 28.80029622 139.77319336 30.83618164 C139.56140629 33.9535989 139.35750034 37.07146585 139.15429688 40.18945312 C139.02130201 42.17711475 138.88785473 44.16474616 138.75390625 46.15234375 C138.6934462 47.08151108 138.63298615 48.01067841 138.57069397 48.96800232 C138.51070724 49.83312943 138.45072052 50.69825653 138.38891602 51.58959961 C138.33784195 52.34695908 138.28676788 53.10431854 138.23414612 53.8846283 C138 56 138 56 137 60 C91.79 60 46.58 60 0 60 C0 40.2 0 20.4 0 0 Z " fill="#D97D1E" transform="translate(142,0)"/>
<path d="M0 0 C0 51.81 0 103.62 0 157 C4.29 156.67 8.58 156.34 13 156 C4.68523644 160.15738178 -6.37313827 158.55851492 -15.1015625 156.03125 C-33.24369866 149.57636598 -45.85136065 137.03479892 -54.8125 120.3125 C-65.63118929 97.47304483 -67.51510421 70.74286864 -59.23632812 46.79052734 C-51.63121467 26.67892335 -39.52327304 12.46723984 -20.5625 2.125 C-13.87905806 0.01443939 -6.9646695 0 0 0 Z " fill="#E2F3F5" transform="translate(141,124)"/>
<path d="M0 0 C39.27 0 78.54 0 119 0 C119.33 21.78 119.66 43.56 120 66 C133.69254034 65.90915048 133.69254034 65.90915048 147.38476562 65.79101562 C152.97206053 65.73675733 158.55925652 65.68564469 164.14672852 65.65356445 C168.65322007 65.62748974 173.15937816 65.58705795 177.66566277 65.53681374 C179.38193541 65.52017317 181.0982657 65.50864142 182.81460762 65.50238609 C185.22514647 65.49271423 187.6348376 65.46461931 190.04516602 65.43237305 C191.10145203 65.43452568 191.10145203 65.43452568 192.17907715 65.4367218 C197.22619733 65.34169402 200.49965948 64.03789045 205 62 C206.32 62 207.64 62 209 62 C209 61.34 209 60.68 209 60 C211.475 59.505 211.475 59.505 214 59 C214 58.34 214 57.68 214 57 C214.99 57.33 215.98 57.66 217 58 C208.49764529 64.80188377 198.73596896 68.11024245 187.86082458 68.14044189 C186.00858528 68.14900711 186.00858528 68.14900711 184.118927 68.15774536 C182.75823985 68.15899058 181.39755258 68.16011571 180.03686523 68.16113281 C178.59748712 68.16576454 177.15811022 68.17078968 175.71873474 68.17617798 C171.81339142 68.18927361 167.90806527 68.1957419 164.00270343 68.20018864 C161.55844631 68.20312518 159.11419382 68.20723117 156.66993904 68.21169281 C149.01008611 68.22536299 141.35024384 68.23503084 133.69037956 68.2388947 C124.87185308 68.24336829 116.05348215 68.26088564 107.23500293 68.2898953 C100.40419466 68.31157957 93.57342992 68.32160264 86.74258763 68.32293582 C82.66997447 68.32397943 78.59750762 68.3297915 74.52493095 68.34775543 C70.68762323 68.36435226 66.85056995 68.36633598 63.01323891 68.35761642 C61.61373076 68.3568521 60.21420828 68.36110788 58.81473541 68.37107468 C41.62456057 68.4862053 27.93327504 64.46236539 15.2890625 52.48046875 C1.27911306 37.29903889 0 19.95315243 0 0 Z " fill="#E49D26" transform="translate(22,343)"/>
<path d="M0 0 C0 33.66 0 67.32 0 102 C-20.79 102 -41.58 102 -63 102 C-63 90.12 -63 78.24 -63 66 C-68.28 66 -73.56 66 -79 66 C-79 44.88 -79 23.76 -79 2 C-71.13027344 1.90912109 -71.13027344 1.90912109 -63.1015625 1.81640625 C-59.78384567 1.77592584 -56.46613732 1.73515973 -53.1484375 1.69335938 C-47.87893504 1.62699525 -42.60943423 1.56170672 -37.33984375 1.50268555 C-33.09284956 1.45505176 -28.84593744 1.40270932 -24.59904099 1.34705925 C-22.97630219 1.32663122 -21.35354088 1.30791888 -19.73076248 1.29092598 C-17.46316619 1.26689184 -15.19572557 1.23683607 -12.92822266 1.20532227 C-11.63582672 1.18977798 -10.34343079 1.1742337 -9.01187134 1.15821838 C-5.52446736 0.97501952 -3.62854156 0 0 0 Z " fill="#32436E" transform="translate(220,410)"/>
<path d="M0 0 C45.54 0 91.08 0 138 0 C138 9.9 138 19.8 138 30 C120.28507203 30.02254646 102.57015625 30.04097884 84.85521793 30.05181217 C76.63044281 30.05697527 68.40567721 30.06401823 60.1809082 30.07543945 C53.01479554 30.08538586 45.84868977 30.09185332 38.6825704 30.09408849 C34.88583011 30.09539568 31.08910955 30.09848198 27.29237556 30.10573006 C23.72281098 30.1124896 20.15327437 30.1146171 16.58370399 30.11310768 C14.64085154 30.11351636 12.69800216 30.1189119 10.75515747 30.12442017 C9.60945786 30.1230455 8.46375824 30.12167084 7.28334045 30.12025452 C6.28135148 30.12117631 5.27936251 30.1220981 4.24701023 30.12304783 C2 30 2 30 1 29 C-0.28046617 19.37279137 0 9.69508243 0 0 Z " fill="#F4DA75" transform="translate(4,60)"/>
<path d="M0 0 C45.21 0 90.42 0 137 0 C137 10.33870828 136.6449109 20.68142554 136 31 C91.12 30.67 46.24 30.34 0 30 C0 20.1 0 10.2 0 0 Z " fill="#EAB638" transform="translate(142,60)"/>
<path d="M0 0 C40.26 0 80.52 0 122 0 C122 9.9 122 19.8 122 30 C82.4 30 42.8 30 2 30 C1.67 30.99 1.34 31.98 1 33 C0.82762301 30.31276583 0.662104 27.62535957 0.5 24.9375 C0.45230469 24.20466797 0.40460937 23.47183594 0.35546875 22.71679688 C-0.09401029 15.10775882 0 7.67311713 0 0 Z " fill="#F5DA76" transform="translate(20,313)"/>
<path d="M0 0 C0.33 0 0.66 0 1 0 C0.34 12.21 -0.32 24.42 -1 37 C-1.33 36.01 -1.66 35.02 -2 34 C-41.27 34 -80.54 34 -121 34 C-121 24.1 -121 14.2 -121 4 C-81.07 4 -41.14 4 0 4 C0 2.68 0 1.36 0 0 Z " fill="#EBB639" transform="translate(263,309)"/>
<path d="M0 0 C9.9 0 19.8 0 30 0 C30 11.88 30 23.76 30 36 C20.1 36 10.2 36 0 36 C0 24.12 0 12.24 0 0 Z " fill="#B5D8DC" transform="translate(127,476)"/>
<path d="M0 0 C89.43 0 178.86 0 271 0 C271 13.50119495 271 13.50119495 270.62036133 19.66772461 C270.55910379 20.68684795 270.55910379 20.68684795 270.49660873 21.72655964 C270.36192389 23.95205124 270.22204703 26.17718171 270.08203125 28.40234375 C269.98326899 30.01404086 269.8848021 31.6257561 269.78660583 33.23748779 C269.52156645 37.57082917 269.25177847 41.9038626 268.98091125 46.23684311 C268.75483953 49.86214804 268.53149293 53.48761896 268.30806541 57.11308765 C265.65861857 100.08291656 262.87074166 143.0444101 260 186 C259.67 186 259.34 186 259 186 C258.97526132 182.06731133 258.95712165 178.13465287 258.94506836 174.2019043 C258.93757271 172.20685232 258.92486655 170.21182214 258.91210938 168.21679688 C258.90727539 166.33637695 258.90727539 166.33637695 258.90234375 164.41796875 C258.89448853 162.68196411 258.89448853 162.68196411 258.88647461 160.91088867 C259 158 259 158 260 155 C260.15109093 152.79040747 260.24873801 150.57699953 260.31640625 148.36328125 C260.35830078 147.06455078 260.40019531 145.76582031 260.44335938 144.42773438 C260.48316987 143.05599239 260.52288216 141.68424756 260.5625 140.3125 C260.60570835 138.92902355 260.64932339 137.54555973 260.69335938 136.16210938 C260.79958028 132.77484281 260.90162358 129.38750201 261 126 C261.66 126 262.32 126 263 126 C262.99214478 124.56164795 262.99214478 124.56164795 262.98413086 123.09423828 C262.96605321 119.54216441 262.95455785 115.99009463 262.94506836 112.43798828 C262.94003448 110.89956987 262.93320692 109.36115625 262.92456055 107.82275391 C262.91245361 105.61359474 262.90676231 103.40449874 262.90234375 101.1953125 C262.89718246 100.50567413 262.89202118 99.81603577 262.88670349 99.10549927 C262.88612829 94.22774341 262.88612829 94.22774341 264 92 C264.14404736 89.60595513 264.23386465 87.23609089 264.28125 84.83984375 C264.30886414 83.78223595 264.30886414 83.78223595 264.33703613 82.70326233 C264.41582102 79.68148147 264.48360015 76.6594767 264.55224609 73.63745117 C264.60385884 71.43396592 264.66114275 69.23067908 264.71875 67.02734375 C264.73232544 66.33881821 264.74590088 65.65029266 264.7598877 64.94090271 C264.88716922 60.11283078 264.88716922 60.11283078 266 59 C266.15888092 56.71011219 266.25138073 54.41556559 266.31640625 52.12109375 C266.33718735 51.4344313 266.35796844 50.74776886 266.37937927 50.04029846 C266.44494143 47.83947065 266.50379015 45.63852025 266.5625 43.4375 C266.60567892 41.94855486 266.649293 40.45962227 266.69335938 38.97070312 C266.8006293 35.31393447 266.90187772 31.65702682 267 28 C267.66 28 268.32 28 269 28 C269 19.09 269 10.18 269 1 C180.56 1 92.12 1 1 1 C1.66 4.3 2.32 7.6 3 11 C3.19168602 13.26625081 3.3254657 15.5387849 3.37890625 17.8125 C3.41306641 18.98941406 3.44722656 20.16632813 3.48242188 21.37890625 C3.50884766 22.57386719 3.53527344 23.76882812 3.5625 25 C3.62222042 27.41677098 3.68581562 29.83345036 3.75390625 32.25 C3.77783447 33.30703125 3.8017627 34.3640625 3.82641602 35.453125 C3.83506808 37.99126892 3.83506808 37.99126892 5 40 C5.08691001 42.84429357 5.11553802 45.66379176 5.09765625 48.5078125 C5.0962413 49.34843231 5.09482635 50.18905212 5.09336853 51.05514526 C5.08776237 53.74513275 5.07520886 56.43503759 5.0625 59.125 C5.05748579 60.94661338 5.05292275 62.76822807 5.04882812 64.58984375 C5.03779094 69.05992777 5.0205222 73.52994986 5 78 C4.67 78 4.34 78 4 78 C3.47574899 69.01145523 2.95400066 60.02276962 2.43539429 51.0338974 C2.1944743 46.85944055 1.95271186 42.68503614 1.70898438 38.51074219 C1.47354551 34.47786261 1.24037153 30.44485772 1.00872803 26.41175842 C0.92022354 24.87764367 0.83092068 23.34357475 0.74078369 21.80955505 C0.6140992 19.65114964 0.49032596 17.49259461 0.3671875 15.33398438 C0.29612793 14.10820679 0.22506836 12.8824292 0.15185547 11.61950684 C-0.01051337 7.74941171 0 3.8734997 0 0 Z " fill="#E5A537" transform="translate(6,90)"/>
<path d="M0 0 C4.62 0 9.24 0 14 0 C14 11.88 14 23.76 14 36 C9.38 36 4.76 36 0 36 C0 24.12 0 12.24 0 0 Z " fill="#E1F3F7" transform="translate(127,476)"/>
<path d="M0 0 C0.33 0 0.66 0 1 0 C1 13.2 1 26.4 1 40 C-12.2 40 -25.4 40 -39 40 C-35.76284016 38.38142008 -32.61375469 37.05715856 -29.25 35.75 C-15.57801495 30.0519552 -7.76836488 20.47180425 -2 7 C-1.17794005 4.65968578 -0.55034658 2.42152494 0 0 Z " fill="#F6F6F7" transform="translate(511,472)"/>
<path d="M0 0 C0.66 0 1.32 0 2 0 C2.16073894 9.12981998 1.65304511 18.19803563 1.08203125 27.3046875 C0.98329648 28.91781555 0.88482866 30.53095996 0.78660583 32.14411926 C0.52129945 36.48567769 0.25160903 40.82695336 -0.01908875 45.16817856 C-0.24499573 48.79911083 -0.46841529 52.43019462 -0.69193459 56.06127453 C-3.33959384 99.04850039 -6.12810786 142.02719515 -9 185 C-9.33 185 -9.66 185 -10 185 C-10.02473868 181.06731133 -10.04287835 177.13465287 -10.05493164 173.2019043 C-10.06242729 171.20685232 -10.07513345 169.21182214 -10.08789062 167.21679688 C-10.09111328 165.96318359 -10.09433594 164.70957031 -10.09765625 163.41796875 C-10.10289307 162.26063232 -10.10812988 161.1032959 -10.11352539 159.91088867 C-10 157 -10 157 -9 154 C-8.84890907 151.79040747 -8.75126199 149.57699953 -8.68359375 147.36328125 C-8.62075195 145.41518555 -8.62075195 145.41518555 -8.55664062 143.42773438 C-8.51683013 142.05599239 -8.47711784 140.68424756 -8.4375 139.3125 C-8.39429165 137.92902355 -8.35067661 136.54555973 -8.30664062 135.16210938 C-8.20041972 131.77484281 -8.09837642 128.38750201 -8 125 C-7.34 125 -6.68 125 -6 125 C-6.00523682 124.04109863 -6.01047363 123.08219727 -6.01586914 122.09423828 C-6.03394679 118.54216441 -6.04544215 114.99009463 -6.05493164 111.43798828 C-6.05996552 109.89956987 -6.06679308 108.36115625 -6.07543945 106.82275391 C-6.08754639 104.61359474 -6.09323769 102.40449874 -6.09765625 100.1953125 C-6.10281754 99.50567413 -6.10797882 98.81603577 -6.11329651 98.10549927 C-6.11387171 93.22774341 -6.11387171 93.22774341 -5 91 C-4.85595264 88.60595513 -4.76613535 86.23609089 -4.71875 83.83984375 C-4.70034058 83.13477188 -4.68193115 82.42970001 -4.66296387 81.70326233 C-4.58417898 78.68148147 -4.51639985 75.6594767 -4.44775391 72.63745117 C-4.39614116 70.43396592 -4.33885725 68.23067908 -4.28125 66.02734375 C-4.26767456 65.33881821 -4.25409912 64.65029266 -4.2401123 63.94090271 C-4.11283078 59.11283078 -4.11283078 59.11283078 -3 58 C-2.84111908 55.71011219 -2.74861927 53.41556559 -2.68359375 51.12109375 C-2.66281265 50.4344313 -2.64203156 49.74776886 -2.62062073 49.04029846 C-2.55505857 46.83947065 -2.49620985 44.63852025 -2.4375 42.4375 C-2.39432108 40.94855486 -2.350707 39.45962227 -2.30664062 37.97070312 C-2.1993707 34.31393447 -2.09812228 30.65702682 -2 27 C-1.34 27 -0.68 27 0 27 C0 18.09 0 9.18 0 0 Z " fill="#CE8A40" transform="translate(275,91)"/>
<path d="M0 0 C0.33 0 0.66 0 1 0 C1.02480062 4.32331963 1.04290758 8.64660106 1.05493164 12.9699707 C1.05994669 14.43937909 1.06676033 15.90878252 1.07543945 17.37817383 C1.08762928 19.49561795 1.09325669 21.61299583 1.09765625 23.73046875 C1.10289307 25.00301514 1.10812988 26.27556152 1.11352539 27.58666992 C1.01452609 30.56324903 0.60016028 33.10118287 0 36 C-0.13343818 38.26363424 -0.22317394 40.53005501 -0.28125 42.796875 C-0.31863281 44.08464844 -0.35601562 45.37242187 -0.39453125 46.69921875 C-0.44837272 48.73580921 -0.50056927 50.77243555 -0.55224609 52.80908203 C-0.6038143 54.78428629 -0.66118606 56.75933638 -0.71875 58.734375 C-0.76418945 60.50119629 -0.76418945 60.50119629 -0.81054688 62.30371094 C-1 65 -1 65 -2 66 C-2.21926063 67.83954335 -2.37268599 69.68697171 -2.5 71.53515625 C-2.58193604 72.72270508 -2.66387207 73.91025391 -2.74829102 75.13378906 C-2.83135498 76.43026367 -2.91441895 77.72673828 -3 79.0625 C-3.04357635 79.71939819 -3.08715271 80.37629639 -3.13204956 81.05310059 C-3.94357766 93.34880075 -4.38236758 105.64653941 -4.65820312 117.96508789 C-4.68978516 119.25020264 -4.72136719 120.53531738 -4.75390625 121.859375 C-4.77783447 122.99858398 -4.8017627 124.13779297 -4.82641602 125.31152344 C-5 128 -5 128 -6 130 C-6.14050732 131.58378542 -6.22570688 133.17268334 -6.28125 134.76171875 C-6.31863281 135.71626953 -6.35601562 136.67082031 -6.39453125 137.65429688 C-6.42933594 138.65525391 -6.46414063 139.65621094 -6.5 140.6875 C-6.71884408 146.85971357 -6.976812 152.90350482 -8 159 C-8.33 159 -8.66 159 -9 159 C-9.06839154 151.15308162 -8.89636899 143.36108356 -8.44921875 135.52734375 C-8.39083328 134.46312698 -8.33244781 133.39891022 -8.27229309 132.30244446 C-8.08121578 128.84723533 -7.88470985 125.39236416 -7.6875 121.9375 C-7.58671143 120.14366882 -7.58671143 120.14366882 -7.48388672 118.31359863 C-6.50544272 100.91846036 -5.38785412 83.5377613 -4.13232422 66.16064453 C-2.54661969 44.12039829 -1.28593751 22.0594103 0 0 Z " fill="#FBEBCF" transform="translate(272,168)"/>
<path d="M0 0 C2.03194657 3.04791986 2.26316289 3.81602326 2.37890625 7.2734375 C2.41306641 8.0984375 2.44722656 8.9234375 2.48242188 9.7734375 C2.50884766 10.63195313 2.53527344 11.49046875 2.5625 12.375 C2.62286788 14.07043826 2.68657449 15.76576152 2.75390625 17.4609375 C2.77783447 18.21165527 2.8017627 18.96237305 2.82641602 19.73583984 C2.99073933 22.47623219 2.99073933 22.47623219 4 27 C4 34.26 4 41.52 4 49 C48.88 49 93.76 49 140 49 C140 49.33 140 49.66 140 50 C94.79 50 49.58 50 3 50 C1.68652126 38.17869135 0.63980929 26.71142365 0.375 14.875 C0.33663084 13.41534619 0.29756986 11.95571041 0.2578125 10.49609375 C0.16397019 6.99756514 0.07924211 3.49889355 0 0 Z " fill="#DDA237" transform="translate(1,10)"/>
<path d="M0 0 C45.21 0 90.42 0 137 0 C137 16.875 137 16.875 136.5 23.9375 C136.45230469 24.63294922 136.40460938 25.32839844 136.35546875 26.04492188 C136.2415368 27.69693522 136.1215275 29.34852804 136 31 C135.67 31 135.34 31 135 31 C135 21.43 135 11.86 135 2 C91.11 2 47.22 2 2 2 C1.67 8.27 1.34 14.54 1 21 C0.67 21 0.34 21 0 21 C0 14.07 0 7.14 0 0 Z " fill="#ECB749" transform="translate(142,60)"/>
<path d="M0 0 C0.99 0.495 0.99 0.495 2 1 C2.02505615 1.63502441 2.0501123 2.27004883 2.07592773 2.92431641 C2.19256789 5.82471542 2.31498393 8.72484349 2.4375 11.625 C2.47681641 12.62402344 2.51613281 13.62304688 2.55664062 14.65234375 C2.59853516 15.62558594 2.64042969 16.59882813 2.68359375 17.6015625 C2.72025146 18.49182129 2.75690918 19.38208008 2.79467773 20.29931641 C2.94599212 22.99459332 2.94599212 22.99459332 3.50892639 25.58285522 C4.12567644 29.87452182 4.10736784 34.04697866 4.0625 38.375 C4.05798828 39.20644531 4.05347656 40.03789062 4.04882812 40.89453125 C4.03713164 42.92971897 4.01919935 44.96486923 4 47 C4.91717584 46.99723462 4.91717584 46.99723462 5.85288048 46.99441338 C20.7163712 46.95028515 35.57985561 46.91716822 50.44339561 46.89637566 C57.63123295 46.88605381 64.81902662 46.8719762 72.00683594 46.84912109 C78.27019136 46.82921493 84.53351517 46.81629017 90.79690135 46.81182301 C94.11472109 46.8092109 97.43242902 46.80201169 100.75022507 46.78853989 C104.44991259 46.77410931 108.14941014 46.77201852 111.84912109 46.77294922 C112.95466843 46.76575867 114.06021576 46.75856812 115.19926453 46.75115967 C116.70531502 46.75528366 116.70531502 46.75528366 118.24179077 46.75949097 C119.11749411 46.75764738 119.99319744 46.75580379 120.89543724 46.75390434 C123 47 123 47 125 49 C84.74 49 44.48 49 3 49 C0.75 29.875 0.75 29.875 0.5859375 23.33984375 C0.56657135 22.65362442 0.5472052 21.96740509 0.5272522 21.26039124 C0.4693547 19.15287114 0.42186692 17.04529071 0.375 14.9375 C0.33664348 13.47328863 0.297583 12.00909552 0.2578125 10.54492188 C0.16382309 7.03011924 0.07913722 3.51517229 0 0 Z " fill="#DCA53B" transform="translate(17,264)"/>
<path d="M0 0 C39.27 0 78.54 0 119 0 C117 2 117 2 114.94228935 2.23047829 C114.08870905 2.22126036 113.23512875 2.21204243 112.35568237 2.20254517 C111.37689117 2.19688034 110.39809998 2.19121552 109.38964844 2.18537903 C108.31215332 2.16883774 107.2346582 2.15229645 106.12451172 2.13525391 C104.99280548 2.12579239 103.86109924 2.11633087 102.69509888 2.10658264 C98.93980109 2.07279964 95.18482634 2.02471284 91.4296875 1.9765625 C88.83180597 1.95040626 86.23391535 1.9251384 83.63601685 1.90072632 C77.48776941 1.84079875 71.33968235 1.77188564 65.19158089 1.69865549 C58.19295547 1.61579345 51.19422817 1.54435442 44.19546866 1.47388959 C29.79683051 1.32866466 15.39837718 1.16904669 1 1 C1.14069196 3.12534659 1.28770921 5.25027529 1.4375 7.375 C1.51871094 8.55835938 1.59992187 9.74171875 1.68359375 10.9609375 C1.81084936 13.91518901 1.81084936 13.91518901 3 16 C3.07065617 18.04055005 3.08421976 20.08334257 3.0625 22.125 C3.05347656 23.22070312 3.04445313 24.31640625 3.03515625 25.4453125 C3.02355469 26.28835938 3.01195312 27.13140625 3 28 C2.67 28 2.34 28 2 28 C-0.319305 18.41215879 0 10.21654115 0 0 Z " fill="#DAA231" transform="translate(22,343)"/>
<path d="M0 0 C0.33 0 0.66 0 1 0 C1.02473982 5.19612278 1.04287892 10.39221118 1.05493164 15.58837891 C1.05995687 17.35563759 1.06677809 19.12289212 1.07543945 20.89013672 C1.08758428 23.43197657 1.09324645 25.9737614 1.09765625 28.515625 C1.10281754 29.30430969 1.10797882 30.09299438 1.11329651 30.90557861 C1.11365904 34.45959593 0.89008436 37.5760584 0 41 C-0.13542492 43.08495041 -0.22393319 45.17316113 -0.28125 47.26171875 C-0.31863281 48.46248047 -0.35601562 49.66324219 -0.39453125 50.90039062 C-0.46516986 53.4368399 -0.53547936 55.97329836 -0.60546875 58.50976562 C-0.64285156 59.70666016 -0.68023437 60.90355469 -0.71875 62.13671875 C-0.74904297 63.23717529 -0.77933594 64.33763184 -0.81054688 65.47143555 C-1 68 -1 68 -2 69 C-2.15825258 70.99782126 -2.25119171 73.00088834 -2.31640625 75.00390625 C-2.35830078 76.21884766 -2.40019531 77.43378906 -2.44335938 78.68554688 C-2.48267578 79.96494141 -2.52199219 81.24433594 -2.5625 82.5625 C-2.60568359 83.84576172 -2.64886719 85.12902344 -2.69335938 86.45117188 C-2.799848 89.63399853 -2.90185962 92.81690674 -3 96 C-3.99 96.495 -3.99 96.495 -5 97 C-5.10685083 87.01251254 -4.82446788 77.13787739 -4.16015625 67.16796875 C-4.07243407 65.79766075 -3.98515944 64.42732403 -3.89830017 63.05696106 C-3.67101663 59.48811674 -3.43824014 55.91965362 -3.20404053 52.35125732 C-2.96961621 48.76756755 -2.73969998 45.1835896 -2.50976562 41.59960938 C-2.46489202 40.90025331 -2.42001842 40.20089725 -2.37378502 39.48034859 C-2.28425233 38.08492384 -2.19473586 36.68949805 -2.10523605 35.2940712 C-1.97401312 33.25158842 -1.84212111 31.20914972 -1.71011353 29.16671753 C-1.0843077 19.44725818 -0.50692536 9.72636588 0 0 Z " fill="#FBECD2" transform="translate(280,38)"/>
<path d="M0 0 C4.3558609 -0.0500364 8.7115624 -0.08601534 13.06762695 -0.10986328 C14.54454468 -0.11982183 16.02144322 -0.13339361 17.49829102 -0.15087891 C28.71518389 -0.28020219 39.26539786 -0.03429272 49.6875 4.625 C50.70199219 5.07101562 51.71648437 5.51703125 52.76171875 5.9765625 C53.50035156 6.31429688 54.23898437 6.65203125 55 7 C51.02273207 8.32575598 49.7679544 7.22314025 45.95703125 5.5859375 C37.26051977 2.18517154 28.89819878 2.40181438 19.6875 2.625 C18.07358907 2.64155626 16.45965378 2.65589146 14.84570312 2.66796875 C7.94000117 2.15011171 7.94000117 2.15011171 2 4 C1.78769037 6.77476893 1.62330497 9.53357133 1.5 12.3125 C1.43073546 13.85042925 1.35793055 15.38820392 1.28125 16.92578125 C1.25095703 17.61067627 1.22066406 18.29557129 1.18945312 19.0012207 C0.9923039 21.08119583 0.55591919 22.98873165 0 25 C-0.66 25 -1.32 25 -2 25 C-1.84660156 24.21367187 -1.69320313 23.42734375 -1.53515625 22.6171875 C-0.87005679 18.12169774 -0.64586315 13.66116824 -0.4375 9.125 C-0.39431641 8.24585938 -0.35113281 7.36671875 -0.30664062 6.4609375 C-0.20130661 4.30744203 -0.10022351 2.15373936 0 0 Z " fill="#85BED8" transform="translate(393,317)"/>
<path d="M0 0 C1.32 0.33 2.64 0.66 4 1 C3.01 1 2.02 1 1 1 C1.13784912 1.55945313 1.27569824 2.11890625 1.41772461 2.6953125 C3.0920745 10.1308904 3.39440121 17.39865456 3.5625 25 C3.62222042 27.41677098 3.68581562 29.83345036 3.75390625 32.25 C3.77783447 33.30703125 3.8017627 34.3640625 3.82641602 35.453125 C3.83506808 37.99126892 3.83506808 37.99126892 5 40 C5.08691001 42.84429357 5.11553802 45.66379176 5.09765625 48.5078125 C5.0962413 49.34843231 5.09482635 50.18905212 5.09336853 51.05514526 C5.08776237 53.74513275 5.07520886 56.43503759 5.0625 59.125 C5.05748579 60.94661338 5.05292275 62.76822807 5.04882812 64.58984375 C5.03779094 69.05992777 5.0205222 73.52994986 5 78 C4.67 78 4.34 78 4 78 C3.47574899 69.01145523 2.95400066 60.02276962 2.43539429 51.0338974 C2.1944743 46.85944055 1.95271186 42.68503614 1.70898438 38.51074219 C1.47354551 34.47786261 1.24037153 30.44485772 1.00872803 26.41175842 C0.92022354 24.87764367 0.83092068 23.34357475 0.74078369 21.80955505 C0.6140992 19.65114964 0.49032596 17.49259461 0.3671875 15.33398438 C0.29612793 14.10820679 0.22506836 12.8824292 0.15185547 11.61950684 C-0.01098396 7.73819499 -0.02516911 3.88420874 0 0 Z " fill="#DDA64A" transform="translate(6,90)"/>
<path d="M0 0 C0.33 0 0.66 0 1 0 C2.96694083 21.03796389 4.20233936 41.86677797 4 63 C1.64245766 59.46368648 1.71245236 57.8138085 1.62109375 53.6171875 C1.56985352 51.74353516 1.56985352 51.74353516 1.51757812 49.83203125 C1.49115234 48.52621094 1.46472656 47.22039062 1.4375 45.875 C1.37786127 43.28896313 1.31428253 40.70301305 1.24609375 38.1171875 C1.22216553 36.96847168 1.1982373 35.81975586 1.17358398 34.63623047 C1.29586911 32.07616256 1.29586911 32.07616256 0 31 C-0.08790975 28.70848583 -0.10694038 26.41427476 -0.09765625 24.12109375 C-0.0962413 23.4344313 -0.09482635 22.74776886 -0.09336853 22.04029846 C-0.08775479 19.83932199 -0.07520007 17.63844591 -0.0625 15.4375 C-0.05748676 13.94856917 -0.05292355 12.45963676 -0.04882812 10.97070312 C-0.03778093 7.31376925 -0.02050713 3.65689442 0 0 Z " fill="#FBEACA" transform="translate(5,89)"/>
<path d="M0 0 C1.14508106 2.86270266 0.97895572 4.06787641 0.046875 7.07421875 C-1.26815857 11.46547115 -1.38322868 15.68902346 -1.375 20.25 C-1.37483887 21.08539307 -1.37467773 21.92078613 -1.37451172 22.78149414 C-1.25174268 29.4491453 -0.01341386 35.00616585 3 41 C3.49886719 42.10021484 3.49886719 42.10021484 4.0078125 43.22265625 C4.87821695 45.17368788 4.87821695 45.17368788 7 46 C7 46.66 7 47.32 7 48 C7.99 48.33 8.98 48.66 10 49 C9.67 50.32 9.34 51.64 9 53 C-1.37648745 41.89957156 -4.48065131 30.1800664 -4.265625 15.1640625 C-3.81697808 9.81988597 -2.39874599 4.79749197 0 0 Z " fill="#ABDDED" transform="translate(267,444)"/>
<path d="M0 0 C0 0.99 0 1.98 0 3 C-2.93755428 4.67565595 -5.05419349 5.25228143 -8.42626953 5.27124023 C-9.29462433 5.28142685 -10.16297913 5.29161346 -11.05764771 5.30210876 C-11.98995209 5.30424881 -12.92225647 5.30638885 -13.8828125 5.30859375 C-15.87500273 5.33376956 -17.86719016 5.35916734 -19.859375 5.38476562 C-22.98599416 5.41339857 -26.11256441 5.43742493 -29.23925781 5.45629883 C-32.26654116 5.47812789 -35.29323653 5.51759523 -38.3203125 5.55859375 C-39.70055099 5.55876747 -39.70055099 5.55876747 -41.1086731 5.5589447 C-46.7145948 5.64322155 -51.43772207 6.48683682 -56.73629761 8.34095764 C-60.23432225 9.35935406 -63.38094093 9.20105884 -67 9 C-59.68245755 4.12163837 -51.56399808 3.5666055 -42.98828125 3.59375 C-41.46958687 3.57749573 -41.46958687 3.57749573 -39.92021179 3.56091309 C-35.63329331 3.5154349 -31.34644251 3.50356933 -27.05932617 3.48876953 C-23.91042872 3.47303815 -20.76202837 3.4400462 -17.61328125 3.40625 C-16.17242912 3.41078186 -16.17242912 3.41078186 -14.70246887 3.41540527 C-9.03161633 3.35226898 -5.04781474 2.62404691 0 0 Z " fill="#B4E2F1" transform="translate(384,348)"/>
<path d="M0 0 C4.17017537 6.25526306 4.390188 13.901287 4.375 21.25 C4.37338867 22.07411377 4.37177734 22.89822754 4.37011719 23.74731445 C4.16443813 34.09881867 0.94732735 42.98879661 -4 52 C-5 50 -5 50 -4.29296875 47.86328125 C-3.92816406 47.02152344 -3.56335938 46.17976563 -3.1875 45.3125 C3.11257108 30.06198311 1.93217675 16.01630809 0 0 Z " fill="#88C2DC" transform="translate(481,364)"/>
<path d="M0 0 C0.66 0 1.32 0 2 0 C2.03738281 1.1859375 2.07476562 2.371875 2.11328125 3.59375 C2.68304123 18.57407859 5.12599694 32.49309492 9 47 C5.24556323 44.49704216 5.30801254 43.23858526 4.375 38.9375 C3.81514737 35.15914199 3.81514737 35.15914199 2 32 C1.92773498 30.14712498 1.9161878 28.29166122 1.9375 26.4375 C1.94652344 25.42558594 1.95554687 24.41367188 1.96484375 23.37109375 C1.97644531 22.58863281 1.98804687 21.80617187 2 21 C1.34 21 0.68 21 0 21 C0 14.07 0 7.14 0 0 Z " fill="#D9A547" transform="translate(75,192)"/>
<path d="M0 0 C1.2065625 0.0309375 1.2065625 0.0309375 2.4375 0.0625 C2.01339844 0.68253906 1.58929688 1.30257812 1.15234375 1.94140625 C-3.95116598 9.64714511 -7.82387494 17.64207091 -11.5625 26.0625 C-12.7296568 22.56102959 -12.69607453 19.73579964 -12.5625 16.0625 C-11.5625 14.0625 -11.5625 14.0625 -8.5625 13.0625 C-8.4078125 11.886875 -8.4078125 11.886875 -8.25 10.6875 C-7.5625 8.0625 -7.5625 8.0625 -4.5625 6.0625 C-3.90694881 3.53516765 -3.90694881 3.53516765 -3.5625 1.0625 C-2.5625 0.0625 -2.5625 0.0625 0 0 Z " fill="#DCA33C" transform="translate(94.5625,143.9375)"/>
<path d="M0 0 C0.66 0 1.32 0 2 0 C1.34 2.31 0.68 4.62 0 7 C-0.53625 7.0825 -1.0725 7.165 -1.625 7.25 C-9.59205922 9.76591344 -16.28660984 17.11347681 -22 23 C-22.33 22.34 -22.66 21.68 -23 21 C-16.97676114 13.78675954 -11.37004792 7.66417084 -2.6015625 3.95703125 C-0.64590753 3.02464498 -0.64590753 3.02464498 0 0 Z " fill="#A8DDEC" transform="translate(294,416)"/>
<path d="M0 0 C-2 1 -2 1 -3.9453125 0.44140625 C-4.66460937 0.15136719 -5.38390625 -0.13867188 -6.125 -0.4375 C-6.84945312 -0.72496094 -7.57390625 -1.01242188 -8.3203125 -1.30859375 C-8.87460938 -1.53675781 -9.42890625 -1.76492187 -10 -2 C-10 -2.66 -10 -3.32 -10 -4 C-11.4540625 -3.9690625 -11.4540625 -3.9690625 -12.9375 -3.9375 C-16 -4 -16 -4 -17 -5 C-19.85916643 -5.24099114 -22.6980398 -5.42415315 -25.5625 -5.5625 C-26.34947266 -5.60568359 -27.13644531 -5.64886719 -27.94726562 -5.69335938 C-32.97155013 -5.95430738 -37.96922053 -6.04033844 -43 -6 C-43 -6.33 -43 -6.66 -43 -7 C-28.17260065 -10.68438408 -12.78872554 -8.13827989 0 0 Z " fill="#D7D5B9" transform="translate(171,131)"/>
<path d="M0 0 C0.99 0 1.98 0 3 0 C1.49731954 4.92289181 -1.35890953 7.96678325 -4.8125 11.625 C-5.59463867 12.48351562 -5.59463867 12.48351562 -6.39257812 13.359375 C-9.34834595 16.53285856 -12.10746002 18.97098655 -16 21 C-16 20.01 -16 19.02 -16 18 C-15.360625 17.773125 -14.72125 17.54625 -14.0625 17.3125 C-11.72806339 16.14749104 -11.72806339 16.14749104 -11.25 13.375 C-11.1675 12.59125 -11.085 11.8075 -11 11 C-10.67 11.66 -10.34 12.32 -10 13 C-9.34 13 -8.68 13 -8 13 C-7.8453125 11.576875 -7.8453125 11.576875 -7.6875 10.125 C-7 7 -7 7 -4 5 C-3.01 5 -2.02 5 -1 5 C-0.67 3.35 -0.34 1.7 0 0 Z " fill="#C5D3C3" transform="translate(189,251)"/>
<path d="M0 0 C0.33 0 0.66 0 1 0 C1.02465504 4.39656173 1.04283842 8.7930872 1.05493164 13.18969727 C1.05997121 14.68644918 1.06680287 16.18319616 1.07543945 17.67993164 C1.08752159 19.82699807 1.09323191 21.97399962 1.09765625 24.12109375 C1.10289307 25.4145874 1.10812988 26.70808105 1.11352539 28.04077148 C1 31 1 31 0 32 C-0.28101946 34.31952569 -0.44782625 36.63885514 -0.62109375 38.96875 C-0.74613281 39.6390625 -0.87117188 40.309375 -1 41 C-1.99 41.495 -1.99 41.495 -3 42 C-2.01 28.14 -1.02 14.28 0 0 Z " fill="#FDF1DA" transform="translate(262,330)"/>
<path d="M0 0 C0.33 0 0.66 0 1 0 C3.38776806 29.13902594 3.38776806 29.13902594 3 42 C2.67 42 2.34 42 2 42 C0.2134604 32.4902517 -0.25206396 23.34924781 -0.125 13.6875 C-0.11493218 12.34961621 -0.10581316 11.01172493 -0.09765625 9.67382812 C-0.07437244 6.44902038 -0.0416741 3.22461346 0 0 Z " fill="#FBEECF" transform="translate(9,152)"/>
<path d="M0 0 C0.66 0 1.32 0 2 0 C3.25378968 7.52273811 3.25378968 7.52273811 2.02514648 9.83325195 C0.85268844 12.31135749 0.70381197 14.07836041 0.62109375 16.80859375 C0.58693359 17.72060547 0.55277344 18.63261719 0.51757812 19.57226562 C0.49115234 20.51779297 0.46472656 21.46332031 0.4375 22.4375 C0.37721986 24.31131453 0.31352643 26.18502298 0.24609375 28.05859375 C0.22216553 28.88673584 0.1982373 29.71487793 0.17358398 30.56811523 C-0.00806003 33.11291973 -0.44953144 35.51110564 -1 38 C-1.33 38 -1.66 38 -2 38 C-2.40379866 25.25790896 -1.17467711 12.67464105 0 0 Z " fill="#FCEBCF" transform="translate(283,0)"/>
<path d="M0 0 C0.33 0 0.66 0 1 0 C1.33893581 3.83285925 1.67012787 7.66635091 2 11.5 C2.14308594 13.11648438 2.14308594 13.11648438 2.2890625 14.765625 C2.78162326 20.53562244 3.11244203 26.20923553 3 32 C2.34 32 1.68 32 1 32 C0.09183202 28.13792926 -0.11643845 24.56851344 -0.09765625 20.60546875 C-0.09443359 19.40341797 -0.09121094 18.20136719 -0.08789062 16.96289062 C-0.07951172 15.71701172 -0.07113281 14.47113281 -0.0625 13.1875 C-0.05798828 11.92228516 -0.05347656 10.65707031 -0.04882812 9.35351562 C-0.03706251 6.2356289 -0.02062272 3.11783867 0 0 Z " fill="#F9E7C2" transform="translate(15,248)"/>
<path d="M0 0 C0.33 0 0.66 0 1 0 C0.34 12.21 -0.32 24.42 -1 37 C-1.33 37 -1.66 37 -2 37 C-2 26.11 -2 15.22 -2 4 C-1.34 4 -0.68 4 0 4 C0 2.68 0 1.36 0 0 Z " fill="#E3BC67" transform="translate(263,309)"/>
<path d="M0 0 C0.33 0.66 0.66 1.32 1 2 C-1.13688012 7.31309882 -3.45562697 11.96051815 -8.25 15.1875 C-11 16 -11 16 -13 16 C-13 16.66 -13 17.32 -13 18 C-17.625 20.125 -17.625 20.125 -21 19 C-20.05640625 18.48953125 -20.05640625 18.48953125 -19.09375 17.96875 C-11.24983897 13.52701725 -4.12510821 8.25021642 0 0 Z " fill="#DEF5FC" transform="translate(505,488)"/>
<path d="M0 0 C0.81339844 0.39832031 1.62679687 0.79664063 2.46484375 1.20703125 C11.84293705 5.54268518 20.78984707 7.59085056 31 9 C31 9.33 31 9.66 31 10 C23.48956199 10.30493508 17.7313299 10.43435199 11 7 C9.01178687 6.60235737 7.01267638 6.24544834 5 6 C5 5.34 5 4.68 5 4 C3.35 3.67 1.7 3.34 0 3 C0 2.01 0 1.02 0 0 Z " fill="#D7A445" transform="translate(111,273)"/>
<path d="M0 0 C0.33 0.99 0.66 1.98 1 3 C0.67 3.66 0.34 4.32 0 5 C-0.99 5 -1.98 5 -3 5 C-3.33 6.65 -3.66 8.3 -4 10 C-4.928125 10.12375 -4.928125 10.12375 -5.875 10.25 C-8.13923356 10.78253383 -8.13923356 10.78253383 -8.96875 12.78125 C-9.3090625 13.5134375 -9.649375 14.245625 -10 15 C-10.85898429 16.42643452 -11.73408294 17.84328886 -12.625 19.25 C-13.07101563 19.95640625 -13.51703125 20.6628125 -13.9765625 21.390625 C-14.48316406 22.18726563 -14.48316406 22.18726563 -15 23 C-15.33 22.34 -15.66 21.68 -16 21 C-12.39900385 12.85861741 -6.22647469 6.22647469 0 0 Z " fill="#EFEBD1" transform="translate(103,138)"/>
<path d="M0 0 C0.33 0.66 0.66 1.32 1 2 C-0.3125 4 -0.3125 4 -2 6 C-2.99 6 -3.98 6 -5 6 C-5 6.66 -5 7.32 -5 8 C-5.99 8 -6.98 8 -8 8 C-8.33 8.99 -8.66 9.98 -9 11 C-11.3125 12.3125 -11.3125 12.3125 -14 13 C-16.16796875 12.04296875 -16.16796875 12.04296875 -18 11 C-17.11957031 10.54109375 -16.23914063 10.0821875 -15.33203125 9.609375 C-14.17058594 8.99578125 -13.00914062 8.3821875 -11.8125 7.75 C-10.66394531 7.14671875 -9.51539063 6.5434375 -8.33203125 5.921875 C-5.28265749 4.16303339 -2.67513694 2.27714105 0 0 Z " fill="#C6853C" transform="translate(179,267)"/>
<path d="M0 0 C0.33 0 0.66 0 1 0 C0.41632611 6.30367803 -1.04071619 11.98660063 -3 18 C-1.35 18.33 0.3 18.66 2 19 C1.67 19.66 1.34 20.32 1 21 C-1.64 20.01 -4.28 19.02 -7 18 C-6.72414063 17.31550781 -6.44828125 16.63101562 -6.1640625 15.92578125 C-4.87623368 12.68892291 -3.62335037 9.43978124 -2.375 6.1875 C-1.92898438 5.02605469 -1.48296875 3.86460937 -1.0234375 2.66796875 C-0.68570312 1.78753906 -0.34796875 0.90710938 0 0 Z " fill="#DDF5FC" transform="translate(483,400)"/>
<path d="M0 0 C0.33 0 0.66 0 1 0 C1.12675376 7.18271287 0.94478741 14.32866549 0.5625 21.5 C0.52326416 22.27714355 0.48402832 23.05428711 0.44360352 23.85498047 C0.24460881 27.35744003 -0.07522547 30.61871968 -1 34 C-1.66 34 -2.32 34 -3 34 C-3.042721 32.33388095 -3.04063832 30.66617115 -3 29 C-2.67 28.67 -2.34 28.34 -2 28 C-1.85474087 26.43752844 -1.77284339 24.86905785 -1.71875 23.30078125 C-1.68136719 22.33849609 -1.64398438 21.37621094 -1.60546875 20.38476562 C-1.57066406 19.37091797 -1.53585937 18.35707031 -1.5 17.3125 C-1.07880127 5.2771362 -1.07880127 5.2771362 0 0 Z " fill="#CC873D" transform="translate(280,26)"/>
<path d="M0 0 C4.95 0.33 9.9 0.66 15 1 C15 1.66 15 2.32 15 3 C22.92 2.505 22.92 2.505 31 2 C21.59677554 6.70161223 9.63179669 4.01329952 0 1 C0 0.67 0 0.34 0 0 Z " fill="#E7DEBE" transform="translate(123,278)"/>
<path d="M0 0 C0.66 0 1.32 0 2 0 C2.33 1.65 2.66 3.3 3 5 C3.66 5 4.32 5 5 5 C5.9765625 6.79036458 6.953125 8.58072917 7.9296875 10.37109375 C8.91410024 12.16618315 8.91410024 12.16618315 11 13 C11.625 15.5625 11.625 15.5625 12 18 C7.92293553 15.08479328 5.64246949 12.22869317 3.1875 7.875 C2.58292969 6.82054687 1.97835938 5.76609375 1.35546875 4.6796875 C0 2 0 2 0 0 Z " fill="#DCA645" transform="translate(27,378)"/>
<path d="M0 0 C3.29292575 2.68790023 4.64891915 6.24244544 6.25 10.0625 C6.53101563 10.69994141 6.81203125 11.33738281 7.1015625 11.99414062 C7.80057532 13.63612867 8.40758203 15.31661513 9 17 C8.67 17.66 8.34 18.32 8 19 C6.68 16.36 5.36 13.72 4 11 C3.01 11.33 2.02 11.66 1 12 C1.33 9.36 1.66 6.72 2 4 C1.34 4 0.68 4 0 4 C0 2.68 0 1.36 0 0 Z " fill="#CACDB6" transform="translate(193,155)"/>
<path d="M0 0 C0.33 0 0.66 0 1 0 C1.04898437 0.85980469 1.09796875 1.71960938 1.1484375 2.60546875 C1.66866734 10.83048185 2.61026149 18.87745064 4 27 C3.34 26.67 2.68 26.34 2 26 C2 24.68 2 23.36 2 22 C1.34 22 0.68 22 0 22 C0 14.74 0 7.48 0 0 Z " fill="#FBEECE" transform="translate(21,346)"/>
<path d="M0 0 C1.98 0 3.96 0 6 0 C2.27074217 3.2428329 -2.30238735 5.5119901 -7 7 C-7.99 6.67 -8.98 6.34 -10 6 C-9.34 6 -8.68 6 -8 6 C-8 5.01 -8 4.02 -8 3 C-6.865625 2.87625 -5.73125 2.7525 -4.5625 2.625 C-3.386875 2.41875 -2.21125 2.2125 -1 2 C-0.67 1.34 -0.34 0.68 0 0 Z " fill="#C8D1BF" transform="translate(165,273)"/>
<path d="M0 0 C0.66 0 1.32 0 2 0 C1.9175 0.9075 1.835 1.815 1.75 2.75 C1.68975201 6.10041408 1.68975201 6.10041408 4 8.375 C4.66 8.91125 5.32 9.4475 6 10 C1.40693504 8.5140084 -1.43569245 6.14985318 -5 3 C-4.360625 2.690625 -3.72125 2.38125 -3.0625 2.0625 C-1.06389179 1.1654837 -1.06389179 1.1654837 0 0 Z " fill="#DFA53F" transform="translate(44,394)"/>
<path d="M0 0 C-5.49687876 2.96656949 -11.74410231 4.4036063 -18 4 C-11.91236773 -0.05842151 -7.15871449 -0.2502075 0 0 Z " fill="#AADDED" transform="translate(335,353)"/>
<path d="M0 0 C1.32 0 2.64 0 4 0 C4 0.66 4 1.32 4 2 C5.32 2 6.64 2 8 2 C10.82657503 4.49007801 12.90957186 6.8643578 15 10 C11.49250024 10 11.11317894 9.5242631 8.625 7.25 C7.71427734 6.43402344 7.71427734 6.43402344 6.78515625 5.6015625 C6.19605469 5.07304687 5.60695313 4.54453125 5 4 C3.34024611 2.65807132 1.67653359 1.32090525 0 0 Z " fill="#DDF5FC" transform="translate(486,421)"/>
<path d="M0 0 C0.33 0 0.66 0 1 0 C1.125 7.625 1.125 7.625 0 11 C-0.66 11 -1.32 11 -2 11 C-2.33 12.65 -2.66 14.3 -3 16 C-3.66 16 -4.32 16 -5 16 C-4.80664062 15.43152344 -4.61328125 14.86304688 -4.4140625 14.27734375 C-2.81863577 9.54635062 -1.33099414 4.81205575 0 0 Z " fill="#E1F7FC" transform="translate(511,472)"/>
<path d="M0 0 C3.47901564 2.68833027 4.10668406 5.80828675 5 10 C5.14598431 12.693646 5.09478095 15.29874304 5 18 C4.67 18 4.34 18 4 18 C3.51779737 16.12577848 3.03938167 14.25058246 2.5625 12.375 C2.16224609 10.80878906 2.16224609 10.80878906 1.75390625 9.2109375 C1.03547461 6.15108876 0.48023284 3.1051949 0 0 Z " fill="#E2F7FD" transform="translate(480,358)"/>
<path d="M0 0 C0.33 0 0.66 0 1 0 C3.07965362 6.75887425 3.21133202 12.95559921 3 20 C2.67 20 2.34 20 2 20 C0.57997892 13.2168636 -0.22731216 6.93302093 0 0 Z " fill="#E2AC57" transform="translate(22,351)"/>
<path d="M0 0 C3.55570759 1.73543212 6.80167641 3.6545627 10 6 C10.33 6.99 10.66 7.98 11 9 C5.70841026 7.59928507 3.22521956 4.14512755 0 0 Z " fill="#AFDFEB" transform="translate(277,497)"/>
<path d="M0 0 C0.66 0 1.32 0 2 0 C2 0.66 2 1.32 2 2 C2.99 2.33 3.98 2.66 5 3 C5.73046875 5.06640625 5.73046875 5.06640625 6.1875 7.5625 C6.34605469 8.38878906 6.50460937 9.21507812 6.66796875 10.06640625 C6.77753906 10.70449219 6.88710938 11.34257812 7 12 C3.95950199 8.35140239 2.03481238 4.2555467 0 0 Z " fill="#E4F8FD" transform="translate(473,346)"/>
<path d="M0 0 C0.33 0 0.66 0 1 0 C1.36263859 5.8022175 0.25684543 9.63999211 -2 15 C-3.31534494 11.34142468 -2.65468309 8.91973519 -1.5625 5.25 C-1.27503906 4.26515625 -0.98757812 3.2803125 -0.69140625 2.265625 C-0.46324219 1.51796875 -0.23507813 0.7703125 0 0 Z " fill="#EFE6C7" transform="translate(82,170)"/>
<path d="M0 0 C0.66 0 1.32 0 2 0 C3.42857143 8.57142857 3.42857143 8.57142857 1 12 C0.67 12 0.34 12 0 12 C0 8.04 0 4.08 0 0 Z " fill="#FEF3E3" transform="translate(283,0)"/>
<path d="M0 0 C0.66 0.33 1.32 0.66 2 1 C1.360625 1.433125 0.72125 1.86625 0.0625 2.3125 C-2.26746003 3.91239177 -2.26746003 3.91239177 -3 7 C-3.66 7 -4.32 7 -5 7 C-5 6.01 -5 5.02 -5 4 C-5.66 3.67 -6.32 3.34 -7 3 C-4.69631264 1.93347808 -2.35981813 0.93578995 0 0 Z " fill="#FAEDDC" transform="translate(227,407)"/>
<path d="M0 0 C0 0.99 0 1.98 0 3 C-2.25 4.125 -2.25 4.125 -5 5 C-6.32 4.34 -7.64 3.68 -9 3 C-6.03 2.01 -3.06 1.02 0 0 Z " fill="#CE8331" transform="translate(170,275)"/>
<path d="M0 0 C0.33 2.64 0.66 5.28 1 8 C-0.70884005 6.37660195 -2.37446717 4.70680947 -4 3 C-4 2.34 -4 1.68 -4 1 C-2 0 -2 0 0 0 Z " fill="#EBEFDD" transform="translate(94,248)"/>
<path d="M0 0 C3.36720387 1.39332574 4.9859524 2.9789286 7 6 C4.36 5.34 1.72 4.68 -1 4 C-0.67 2.68 -0.34 1.36 0 0 Z " fill="#7DBFDC" transform="translate(492,426)"/>
<path d="M0 0 C0.66 0.66 1.32 1.32 2 2 C1.9375 3.9375 1.9375 3.9375 1 6 C-3.17857143 9 -3.17857143 9 -6 9 C-5.67 8.01 -5.34 7.02 -5 6 C-4.34 5.690625 -3.68 5.38125 -3 5.0625 C-0.79394438 4.17972859 -0.79394438 4.17972859 -0.25 1.875 C-0.1675 1.25625 -0.085 0.6375 0 0 Z " fill="#DAF6FC" transform="translate(292,414)"/>
<path d="M0 0 C2.31966166 2.84685749 3.91581154 5.4763875 5 9 C4.67 9.99 4.34 10.98 4 12 C3.32332002 10.75539217 2.65905281 9.50403104 2 8.25 C1.62875 7.55390625 1.2575 6.8578125 0.875 6.140625 C0 4 0 4 0 0 Z " fill="#8AC2DC" transform="translate(476,352)"/>
<path d="M0 0 C-0.99766109 2.49415272 -1.68616685 3.78740335 -3.9375 5.3125 C-6 6 -6 6 -9 5 C-7.87926138 4.16094435 -6.75325453 3.32892169 -5.625 2.5 C-4.99851562 2.0359375 -4.37203125 1.571875 -3.7265625 1.09375 C-2 0 -2 0 0 0 Z " fill="#EEEBCF" transform="translate(117,129)"/>
<path d="M0 0 C1.32 0.66 2.64 1.32 4 2 C2.35 3.32 0.7 4.64 -1 6 C-1.33 5.01 -1.66 4.02 -2 3 C-1.34 2.01 -0.68 1.02 0 0 Z " fill="#7FC0DE" transform="translate(492,498)"/>
<path d="M0 0 C0.33 0 0.66 0 1 0 C1.33 2.97 1.66 5.94 2 9 C1.01 9.33 0.02 9.66 -1 10 C-0.67 6.7 -0.34 3.4 0 0 Z " fill="#FAF1E3" transform="translate(258,372)"/>
<path d="M0 0 C2.97 0 5.94 0 9 0 C8.67 1.32 8.34 2.64 8 4 C2.25 2.25 2.25 2.25 0 0 Z " fill="#EFE9D2" transform="translate(114,274)"/>
<path d="M0 0 C2.64 1.98 5.28 3.96 8 6 C5 7 5 7 2 6 C0.8125 2.9375 0.8125 2.9375 0 0 Z " fill="#DCA446" transform="translate(98,262)"/>
<path d="M0 0 C2 0 2 0 4.625 2.3125 C7 5 7 5 7 8 C1.125 3.375 1.125 3.375 0 0 Z " fill="#ECE7CA" transform="translate(97,259)"/>
</svg>
