<?xml version="1.0" encoding="UTF-8"?>
<svg version="1.1" xmlns="http://www.w3.org/2000/svg" width="512" height="512">
<path d="M0 0 C8.74100715 5.3193629 16.45568071 12.09571862 24.19921875 18.7421875 C27.16917764 21.28605725 30.2028593 23.74426088 33.25 26.1953125 C36.96831082 29.21946688 40.40288119 32.35239327 43.73046875 35.796875 C45.37764502 37.44796381 47.09283942 38.94173377 48.875 40.4453125 C58.37995921 48.6482225 67.32422624 57.81739399 75.375 67.4453125 C76.17808594 68.35925781 76.98117188 69.27320312 77.80859375 70.21484375 C102.06785777 97.96852914 124.16771282 133.25639184 122.54980469 171.34130859 C121.98490229 178.14065059 118.86838505 182.99332973 114.72265625 188.22265625 C114.09496338 189.01792725 113.46727051 189.81319824 112.82055664 190.63256836 C112.34352295 191.23077393 111.86648926 191.82897949 111.375 192.4453125 C123.54303207 203.97010687 123.54303207 203.97010687 135.93359375 215.25390625 C138.87641804 217.89538533 141.78392324 220.57334131 144.6875 223.2578125 C145.23349854 223.76256104 145.77949707 224.26730957 146.34204102 224.78735352 C148.58257218 226.85975453 150.82202337 228.93332082 153.06152344 231.00683594 C161.11338244 238.45998974 161.11338244 238.45998974 169.25 245.8203125 C173.51255059 249.63855814 177.69818587 253.53395627 181.875 257.4453125 C186.91418046 262.16295004 191.96406199 266.8621319 197.140625 271.4296875 C198.60672973 272.75225751 200.0363088 274.11671762 201.421875 275.5234375 C206.39386719 280.42066289 211.63108526 283.11071725 218.00927734 285.73535156 C238.09039598 294.03995899 254.13760652 307.18256562 269.375 322.4453125 C269.91382813 322.93773437 270.45265625 323.43015625 271.0078125 323.9375 C281.88859794 334.02074095 289.63056871 347.38441984 296.375 360.4453125 C296.72159668 361.11256348 297.06819336 361.77981445 297.42529297 362.46728516 C313.88614004 394.59261141 319.01728228 430.70539017 320.375 466.4453125 C320.47167969 468.25322266 320.47167969 468.25322266 320.5703125 470.09765625 C320.91527032 480.68786131 319.02602454 490.3522261 312.13671875 498.69921875 C308.90679362 501.90049709 305.34161649 504.24999544 301.375 506.4453125 C300.47007812 506.95771484 300.47007812 506.95771484 299.546875 507.48046875 C292.30874197 510.86350919 283.08681805 510.56476457 275.46484375 508.75390625 C266.13201961 505.30638698 258.75237107 499.48413182 254.375 490.4453125 C251.21656499 482.70093389 250.83344444 474.90522878 250.52352905 466.6449585 C249.22366049 433.40908529 244.57853124 399.68221902 222.375 373.4453125 C221.74078125 372.64996094 221.1065625 371.85460937 220.453125 371.03515625 C207.20899829 355.08200363 185.67831936 344.12782641 165.30859375 340.63671875 C160.98595462 340.42638179 157.80706088 341.20740282 153.875 342.8203125 C153.19284424 343.08996826 152.51068848 343.35962402 151.80786133 343.63745117 C139.43772653 348.70987218 128.25530229 355.40333889 118.375 364.4453125 C117.46234375 365.26515625 116.5496875 366.085 115.609375 366.9296875 C87.74153358 393.24066627 79.17126688 432.19043001 78.09057617 469.12280273 C77.67642833 482.31413701 76.31467355 491.42263566 66.8203125 501.27734375 C57.88478999 509.19941243 48.81625996 510.15415085 37.31054688 509.61132812 C28.17982091 508.82816798 21.2395147 503.13127519 15.375 496.4453125 C1.77043573 475.13357535 9.72351012 438.00978328 14.5625 414.8203125 C20.22078032 389.5996161 29.66003051 366.09656772 44.22265625 344.71875 C46.45807925 341.62436761 46.45807925 341.62436761 47.375 338.4453125 C46.85035156 338.7340625 46.32570313 339.0228125 45.78515625 339.3203125 C31.48754441 346.17174713 14.07167245 341.83572469 -0.8659668 339.24707031 C-4.07896676 338.69247015 -7.29564806 338.16519927 -10.51367188 337.640625 C-12.59141681 337.29066753 -14.66890133 336.93915964 -16.74609375 336.5859375 C-18.16359169 336.35441986 -18.16359169 336.35441986 -19.60972595 336.1182251 C-31.11764665 334.08623714 -39.71314007 330.22660759 -47.625 321.4453125 C-49.37863529 318.87647378 -50.58387853 316.36892685 -51.625 313.4453125 C-52.0375 312.3521875 -52.45 311.2590625 -52.875 310.1328125 C-55.32113722 298.10597117 -52.74083314 288.10637053 -46.14624023 277.91357422 C-45.26947632 276.59897217 -45.26947632 276.59897217 -44.375 275.2578125 C-43.45279663 273.84266357 -43.45279663 273.84266357 -42.51196289 272.39892578 C-41.21459008 270.41076965 -39.91184128 268.42611228 -38.60400391 266.44482422 C-36.66515387 263.50617241 -34.74206113 260.55786484 -32.82421875 257.60546875 C-30.31957836 253.75140138 -27.80945695 249.90102984 -25.29296875 246.0546875 C-21.81116565 240.73248966 -18.34059628 235.40307451 -14.875 230.0703125 C-14.07872192 228.84598511 -14.07872192 228.84598511 -13.26635742 227.59692383 C-10.25372581 222.96221347 -7.25516646 218.3187859 -4.26708984 213.66821289 C-2.47686532 210.88994267 -0.67212622 208.12130508 1.13574219 205.35449219 C2.3054948 203.55239104 3.45412282 201.73822571 4.6015625 199.921875 C9.72660773 192.07589667 15.53804737 186.20054859 22.52587891 180.08886719 C26.66629604 176.40873936 30.65641278 172.56195503 34.67578125 168.75073242 C38.97349279 164.69582052 43.36959088 160.84761636 48.06640625 157.25390625 C49.65752904 155.43897614 49.65752904 155.43897614 49.30859375 152.64453125 C46.15904758 141.85173497 38.25869972 132.10927939 31.375 123.4453125 C30.68921875 122.56617187 30.0034375 121.68703125 29.296875 120.78125 C18.98668481 107.83623342 7.37315539 95.31860827 -5.1953125 84.53515625 C-7.10067003 82.89630371 -8.98730894 81.24192262 -10.8671875 79.57421875 C-18.26333414 73.04761908 -25.78748703 66.8551384 -33.81420898 61.11083984 C-41.56358401 55.40371217 -47.40510731 47.93597733 -49.625 38.4453125 C-50.4995966 29.58332857 -50.67076116 21.14047038 -45.625 13.4453125 C-45.11582031 12.66542969 -44.60664062 11.88554687 -44.08203125 11.08203125 C-34.32941822 -2.55377323 -15.33991482 -7.41083722 0 0 Z M60.375 240.4453125 C59.118969 241.90902587 59.118969 241.90902587 57.90625 243.85546875 C57.4218042 244.59144287 56.9373584 245.32741699 56.43823242 246.08569336 C55.92236572 246.88499268 55.40649902 247.68429199 54.875 248.5078125 C53.79865685 250.15656331 52.7218255 251.80499549 51.64453125 253.453125 C51.10135254 254.2874707 50.55817383 255.12181641 49.99853516 255.98144531 C48.46990946 258.30127848 46.90761138 260.59230582 45.32421875 262.875 C44.62425781 263.89194946 44.62425781 263.89194946 43.91015625 264.92944336 C43.02567157 266.21146545 42.13395114 267.48853166 41.234375 268.76000977 C40.20226354 270.27074176 39.27751311 271.85376127 38.375 273.4453125 C39.04642902 276.55935082 39.04642902 276.55935082 41.44921875 277.65625 C42.74279297 278.23246094 42.74279297 278.23246094 44.0625 278.8203125 C53.27341864 283.25519925 57.72374261 288.78955177 61.5 298.26953125 C63.81190335 306.66050189 63.06104412 316.21930238 60.375 324.4453125 C64.05693397 321.37703419 67.53149773 318.31322806 70.8125 314.8203125 C81.1087529 304.42467492 93.76101912 296.68183503 106.375 289.4453125 C108.04402144 288.44924764 109.71165923 287.45083489 111.375 286.4453125 C108.6098728 282.6432626 105.51753647 279.75071281 101.97265625 276.72265625 C98.5775108 273.74616031 95.29194546 270.66004196 92 267.5703125 C87.00293897 262.88641209 81.97791679 258.24339384 76.86328125 253.6875 C74.94615503 251.95997967 73.05186431 250.2163222 71.16796875 248.453125 C70.62100342 247.94354248 70.07403809 247.43395996 69.51049805 246.90893555 C68.4391585 245.90924253 67.37145989 244.90563 66.30786133 243.89770508 C63.76693433 241.24092854 63.76693433 241.24092854 60.375 240.4453125 Z " fill="#F05E31" transform="translate(136.625,2.5546875)"/>
<path d="M0 0 C3.90911521 1.70127752 7.11693861 4.25046349 10.4375 6.875 C11.04932129 7.35678711 11.66114258 7.83857422 12.29150391 8.33496094 C17.72099058 12.66906158 22.82311013 17.3056454 27.8671875 22.078125 C30.10299832 24.19078132 32.39706789 26.21457314 34.73046875 28.21875 C39.85025026 32.67571354 44.63767048 37.45363106 49.4375 42.25 C50.32759766 43.12785156 51.21769531 44.00570312 52.13476562 44.91015625 C58.19752226 50.95962707 63.6540606 57.31571788 69 64 C69.87415401 65.02843385 70.75404792 66.05207846 71.64453125 67.06640625 C78.9557159 75.48414858 85.01224715 84.61421411 91 94 C91.67160156 95.04027344 92.34320313 96.08054687 93.03515625 97.15234375 C103.90161973 114.80106461 115.02598789 140.58382565 110.421875 161.64453125 C107.95586473 168.76233361 103.24694795 173.73062919 98 179 C99.46616507 182.49086922 101.33280412 184.41718814 104.1875 186.875 C108.70485339 190.83667316 113.12004287 194.88691211 117.5 199 C121.69768758 202.93193845 125.90564298 206.84692937 130.1875 210.6875 C130.95191406 211.37328125 131.71632813 212.0590625 132.50390625 212.765625 C133.86324454 213.98243486 135.22308183 215.19869192 136.58544922 216.41210938 C138.27004975 217.91536618 139.94790748 219.42587601 141.625 220.9375 C142.15891357 221.41082764 142.69282715 221.88415527 143.24291992 222.37182617 C144.53363159 223.54019952 145.77210561 224.76577625 147 226 C147 226.66 147 227.32 147 228 C144.99330911 229.70172267 142.97510093 231.29551 140.875 232.875 C135.70537629 236.84230861 130.6716655 240.91628988 125.75 245.1875 C120.95706671 249.34026758 116.11037479 253.3919932 111.1171875 257.3046875 C109.21527021 258.82762496 107.42562147 260.42312821 105.625 262.0625 C103 264 103 264 101.2109375 263.95703125 C97.89678861 262.5224615 95.56370024 260.09996707 93 257.625 C91.83492093 256.52443725 90.66955002 255.42418338 89.50390625 254.32421875 C88.62436279 253.48769775 88.62436279 253.48769775 87.72705078 252.63427734 C85.15892641 250.20410706 82.54957571 247.8202185 79.9375 245.4375 C78.95163324 244.53536349 77.96595643 243.63301935 76.98046875 242.73046875 C76.49239746 242.28364746 76.00432617 241.83682617 75.50146484 241.37646484 C73.95354524 239.95741269 72.40814167 238.5356628 70.86328125 237.11328125 C67.91612289 234.40081168 64.96054958 231.69785293 62 229 C61.18789062 228.25878906 60.37578125 227.51757812 59.5390625 226.75390625 C58.82492188 226.11324219 58.11078125 225.47257813 57.375 224.8125 C56.76398438 224.26207031 56.15296875 223.71164063 55.5234375 223.14453125 C54.05107566 221.7997814 54.05107566 221.7997814 52 222 C50.39973461 224.06613044 50.39973461 224.06613044 48.76171875 226.765625 C47.7871875 228.30585327 47.7871875 228.30585327 46.79296875 229.87719727 C46.09816406 230.99022217 45.40335937 232.10324707 44.6875 233.25 C43.97216875 234.38454721 43.25601701 235.51857749 42.5390625 236.65209961 C41.44248791 238.38587543 40.3463666 240.11991497 39.2527771 241.85557556 C35.72102921 247.45879642 32.1189835 253.01526488 28.5 258.5625 C27.94272217 259.41811523 27.38544434 260.27373047 26.8112793 261.15527344 C25.54171767 263.10408193 24.2713403 265.0523516 23 267 C24.32 267 25.64 267 27 267 C25.03517526 274.46066099 22.83848617 281.80945614 20.42578125 289.13671875 C19.9327375 290.64489922 19.9327375 290.64489922 19.42973328 292.18354797 C18.39317382 295.35236313 17.35290578 298.51994587 16.3125 301.6875 C15.60326858 303.85343475 14.89428198 306.01944967 14.18554688 308.18554688 C12.45985694 313.45796037 10.73113166 318.72937088 9 324 C0.20748948 323.2611619 -8.42110057 322.07709047 -17.125 320.625 C-18.44398201 320.41388493 -19.76299232 320.20294663 -21.08203125 319.9921875 C-34.75692862 317.72456043 -44.01333159 315.16412784 -52.7421875 303.71484375 C-56.70347728 297.01198337 -57.88123784 288.58601951 -56 281 C-52.59876032 272.52235224 -47.56087448 264.97776324 -42.42684937 257.47122192 C-40.40613482 254.51579001 -38.40955407 251.5440942 -36.41015625 248.57421875 C-36.02007889 247.9960289 -35.63000153 247.41783905 -35.22810364 246.8221283 C-32.28906313 242.45695336 -29.44560617 238.04368743 -26.6875 233.5625 C-22.08882175 226.10656196 -17.35391874 218.74661053 -12.54296875 211.42578125 C-10.04127945 207.61745927 -7.59776771 203.77741911 -5.17578125 199.91796875 C2.42764809 187.94920798 10.13043401 178.01298547 20.91748047 168.8125 C24.72563342 165.49811225 28.34689987 161.98319783 32 158.5 C37.22746382 153.5387582 42.54369016 148.70896953 48 144 C45.51740826 129.79872078 34.85143585 116.93903864 26 106 C25.53303711 105.42266113 25.06607422 104.84532227 24.58496094 104.25048828 C16.05100891 93.7907866 7.15798837 83.20688372 -3.21875 74.53125 C-5.02434739 72.97906979 -6.6608049 71.33902322 -8.3125 69.625 C-11.97321876 65.90630606 -15.96510931 62.67112938 -20.02734375 59.40234375 C-22.60989391 57.31526314 -25.15842468 55.19652754 -27.69750977 53.05737305 C-32.33550594 49.15165367 -36.99002073 45.41589496 -42 42 C-37.06035761 35.9982502 -31.66194683 30.50871024 -26.16015625 25.02978516 C-24.63165942 23.50663612 -23.10856762 21.97822998 -21.5859375 20.44921875 C-16.74300509 15.60328375 -11.86041744 10.85135753 -6.63427734 6.41381836 C-4.29653189 4.39142757 -2.15111608 2.21833845 0 0 Z " fill="#6F7DC8" transform="translate(144,15)"/>
<path d="M0 0 C8.74100715 5.3193629 16.45568071 12.09571862 24.19921875 18.7421875 C27.16917764 21.28605725 30.2028593 23.74426088 33.25 26.1953125 C36.96831082 29.21946688 40.40288119 32.35239327 43.73046875 35.796875 C45.37764502 37.44796381 47.09283942 38.94173377 48.875 40.4453125 C58.37995921 48.6482225 67.32422624 57.81739399 75.375 67.4453125 C76.17808594 68.35925781 76.98117188 69.27320312 77.80859375 70.21484375 C102.06785777 97.96852914 124.16771282 133.25639184 122.54980469 171.34130859 C121.98490229 178.14065059 118.86838505 182.99332973 114.72265625 188.22265625 C114.09496338 189.01792725 113.46727051 189.81319824 112.82055664 190.63256836 C112.34352295 191.23077393 111.86648926 191.82897949 111.375 192.4453125 C123.54303207 203.97010687 123.54303207 203.97010687 135.93359375 215.25390625 C138.87641804 217.89538533 141.78392324 220.57334131 144.6875 223.2578125 C145.23349854 223.76256104 145.77949707 224.26730957 146.34204102 224.78735352 C148.58257218 226.85975453 150.82202337 228.93332082 153.06152344 231.00683594 C161.11338244 238.45998974 161.11338244 238.45998974 169.25 245.8203125 C173.51255059 249.63855814 177.69818587 253.53395627 181.875 257.4453125 C186.91418046 262.16295004 191.96406199 266.8621319 197.140625 271.4296875 C198.60672973 272.75225751 200.0363088 274.11671762 201.421875 275.5234375 C206.39386719 280.42066289 211.63108526 283.11071725 218.00927734 285.73535156 C238.09039598 294.03995899 254.13760652 307.18256562 269.375 322.4453125 C269.91382813 322.93773437 270.45265625 323.43015625 271.0078125 323.9375 C281.88859794 334.02074095 289.63056871 347.38441984 296.375 360.4453125 C296.72159668 361.11256348 297.06819336 361.77981445 297.42529297 362.46728516 C313.88614004 394.59261141 319.01728228 430.70539017 320.375 466.4453125 C320.47167969 468.25322266 320.47167969 468.25322266 320.5703125 470.09765625 C320.91527032 480.68786131 319.02602454 490.3522261 312.13671875 498.69921875 C308.90679362 501.90049709 305.34161649 504.24999544 301.375 506.4453125 C300.47007812 506.95771484 300.47007812 506.95771484 299.546875 507.48046875 C292.30874197 510.86350919 283.08681805 510.56476457 275.46484375 508.75390625 C266.13201961 505.30638698 258.75237107 499.48413182 254.375 490.4453125 C251.21656499 482.70093389 250.83344444 474.90522878 250.52352905 466.6449585 C249.22366049 433.40908529 244.57853124 399.68221902 222.375 373.4453125 C221.74078125 372.64996094 221.1065625 371.85460937 220.453125 371.03515625 C207.20899829 355.08200363 185.67831936 344.12782641 165.30859375 340.63671875 C160.98595462 340.42638179 157.80706088 341.20740282 153.875 342.8203125 C153.19284424 343.08996826 152.51068848 343.35962402 151.80786133 343.63745117 C139.43772653 348.70987218 128.25530229 355.40333889 118.375 364.4453125 C117.46234375 365.26515625 116.5496875 366.085 115.609375 366.9296875 C87.74153358 393.24066627 79.17126688 432.19043001 78.09057617 469.12280273 C77.67642833 482.31413701 76.31467355 491.42263566 66.8203125 501.27734375 C57.88478999 509.19941243 48.81625996 510.15415085 37.31054688 509.61132812 C28.17982091 508.82816798 21.2395147 503.13127519 15.375 496.4453125 C1.77043573 475.13357535 9.72351012 438.00978328 14.5625 414.8203125 C20.22078032 389.5996161 29.66003051 366.09656772 44.22265625 344.71875 C46.45807925 341.62436761 46.45807925 341.62436761 47.375 338.4453125 C46.85035156 338.7340625 46.32570313 339.0228125 45.78515625 339.3203125 C31.48754441 346.17174713 14.07167245 341.83572469 -0.8659668 339.24707031 C-4.07896676 338.69247015 -7.29564806 338.16519927 -10.51367188 337.640625 C-12.59141681 337.29066753 -14.66890133 336.93915964 -16.74609375 336.5859375 C-18.16359169 336.35441986 -18.16359169 336.35441986 -19.60972595 336.1182251 C-31.11764665 334.08623714 -39.71314007 330.22660759 -47.625 321.4453125 C-49.37863529 318.87647378 -50.58387853 316.36892685 -51.625 313.4453125 C-52.0375 312.3521875 -52.45 311.2590625 -52.875 310.1328125 C-55.32113722 298.10597117 -52.74083314 288.10637053 -46.14624023 277.91357422 C-45.26947632 276.59897217 -45.26947632 276.59897217 -44.375 275.2578125 C-43.45279663 273.84266357 -43.45279663 273.84266357 -42.51196289 272.39892578 C-41.21459008 270.41076965 -39.91184128 268.42611228 -38.60400391 266.44482422 C-36.66515387 263.50617241 -34.74206113 260.55786484 -32.82421875 257.60546875 C-30.31957836 253.75140138 -27.80945695 249.90102984 -25.29296875 246.0546875 C-21.81116565 240.73248966 -18.34059628 235.40307451 -14.875 230.0703125 C-14.07872192 228.84598511 -14.07872192 228.84598511 -13.26635742 227.59692383 C-10.25372581 222.96221347 -7.25516646 218.3187859 -4.26708984 213.66821289 C-2.47686532 210.88994267 -0.67212622 208.12130508 1.13574219 205.35449219 C2.3054948 203.55239104 3.45412282 201.73822571 4.6015625 199.921875 C9.72660773 192.07589667 15.53804737 186.20054859 22.52587891 180.08886719 C26.66629604 176.40873936 30.65641278 172.56195503 34.67578125 168.75073242 C38.97349279 164.69582052 43.36959088 160.84761636 48.06640625 157.25390625 C49.65752904 155.43897614 49.65752904 155.43897614 49.30859375 152.64453125 C46.15904758 141.85173497 38.25869972 132.10927939 31.375 123.4453125 C30.68921875 122.56617187 30.0034375 121.68703125 29.296875 120.78125 C18.98668481 107.83623342 7.37315539 95.31860827 -5.1953125 84.53515625 C-7.10067003 82.89630371 -8.98730894 81.24192262 -10.8671875 79.57421875 C-18.26333414 73.04761908 -25.78748703 66.8551384 -33.81420898 61.11083984 C-41.56358401 55.40371217 -47.40510731 47.93597733 -49.625 38.4453125 C-50.4995966 29.58332857 -50.67076116 21.14047038 -45.625 13.4453125 C-45.11582031 12.66542969 -44.60664062 11.88554687 -44.08203125 11.08203125 C-34.32941822 -2.55377323 -15.33991482 -7.41083722 0 0 Z M5.0546875 14.60546875 C4.11479224 15.56806035 3.18011437 16.53576674 2.25 17.5078125 C-0.82036703 20.67820565 -3.88605864 23.70510213 -7.2421875 26.5703125 C-12.99187447 31.54029983 -18.27671813 36.99044681 -23.625 42.3828125 C-24.69637887 43.45921904 -25.76799182 44.53539264 -26.83984375 45.61132812 C-29.43759638 48.21997995 -32.03217962 50.83175721 -34.625 53.4453125 C-31.09495083 57.03458693 -27.47483073 60.19944536 -23.4375 63.1953125 C-18.36634292 67.02511132 -13.57699831 71.04786179 -8.8984375 75.35546875 C-6.77869788 77.30402665 -4.62016531 79.19288583 -2.4375 81.0703125 C0.74376287 83.83635029 3.71067056 86.75594572 6.66015625 89.765625 C8.33342049 91.40458542 10.06810703 92.89383611 11.875 94.3828125 C15.09310801 97.09317458 17.79407027 100.06769695 20.51171875 103.2734375 C22.47039486 105.55650651 24.51260008 107.74397853 26.5625 109.9453125 C36.86885931 121.4280365 45.24326251 133.78750525 52.375 147.4453125 C52.97183594 148.50492188 53.56867188 149.56453125 54.18359375 150.65625 C55.375 153.4453125 55.375 153.4453125 55.3125 155.5859375 C54.05697172 158.07606859 52.50970966 159.39234826 50.375 161.1953125 C44.74091635 166.08891659 39.30483849 171.16464903 33.90283203 176.31323242 C30.56673269 179.48336943 27.23017506 182.61029805 23.6953125 185.55859375 C13.57469851 194.12426564 7.01141111 204.4365836 0.09423828 215.66699219 C-2.33441023 219.59173232 -4.85287155 223.45529766 -7.375 227.3203125 C-8.25856814 228.68570923 -9.14138998 230.05158921 -10.0234375 231.41796875 C-12.68099406 235.53208993 -15.33996805 239.64529138 -18 243.7578125 C-18.44819092 244.45108643 -18.89638184 245.14436035 -19.3581543 245.85864258 C-21.84964173 249.71024503 -24.34838141 253.55696875 -26.85546875 257.3984375 C-32.05295883 265.36441305 -37.23727907 273.33819736 -42.3125 281.3828125 C-42.92750366 282.34876343 -42.92750366 282.34876343 -43.55493164 283.33422852 C-48.78647849 291.6821566 -49.58068964 298.75899976 -48.625 308.4453125 C-45.97202186 317.41095737 -39.74083816 324.05883727 -31.65527344 328.53515625 C-27.90229854 330.21758656 -23.97243982 330.82930472 -19.9375 331.5078125 C-18.5772168 331.75096191 -18.5772168 331.75096191 -17.18945312 331.99902344 C-14.33754391 332.50062046 -11.48266711 332.97769425 -8.625 333.4453125 C-7.21613525 333.67613525 -7.21613525 333.67613525 -5.77880859 333.91162109 C-3.06238782 334.35005927 -0.34457895 334.77693516 2.375 335.1953125 C3.61963013 335.38685913 3.61963013 335.38685913 4.8894043 335.58227539 C5.66840088 335.69692139 6.44739746 335.81156738 7.25 335.9296875 C8.26707031 336.08002441 8.26707031 336.08002441 9.3046875 336.23339844 C11.67193464 336.47570628 13.99674656 336.45859986 16.375 336.4453125 C18.77955316 328.97111906 21.18210195 321.49628352 23.58325195 314.02099609 C24.40035287 311.47750551 25.21820274 308.93425922 26.03637695 306.39111328 C27.21165822 302.73769195 28.38528809 299.08374371 29.55859375 295.4296875 C29.92528671 294.29102234 30.29197968 293.15235718 30.66978455 291.97918701 C31.0100618 290.91838928 31.35033905 289.85759155 31.70092773 288.76464844 C32.0007103 287.83199158 32.30049286 286.89933472 32.60935974 285.93841553 C33.27077448 283.78469508 33.85538366 281.63688178 34.375 279.4453125 C33.055 279.4453125 31.735 279.4453125 30.375 279.4453125 C39.97775515 264.40328645 49.62016074 249.38938148 59.375 234.4453125 C63.18102186 236.22951164 65.79618542 238.49849293 68.875 241.3828125 C69.94780471 242.38163068 71.02072458 243.38032518 72.09375 244.37890625 C72.63902344 244.88921387 73.18429688 245.39952148 73.74609375 245.92529297 C76.27279779 248.28309563 78.82426072 250.61358033 81.375 252.9453125 C84.9477401 256.21759102 88.51591164 259.49475323 92.08007812 262.77636719 C93.58618589 264.15966338 95.097182 265.53742465 96.609375 266.9140625 C98.34368343 268.50139564 100.0647251 270.10348155 101.765625 271.7265625 C102.46171875 272.37625 103.1578125 273.0259375 103.875 273.6953125 C104.4628125 274.25734375 105.050625 274.819375 105.65625 275.3984375 C107.30318982 276.61009913 107.30318982 276.61009913 109.2265625 276.421875 C112.34686802 275.00355431 114.71427649 272.82671891 117.25 270.5703125 C121.84135477 266.57956151 126.49861262 262.72707967 131.3125 259.0078125 C137.00930617 254.59355018 142.5061387 249.98186934 147.93334961 245.24047852 C152.1808834 241.5423708 152.1808834 241.5423708 154.375 240.4453125 C153.06072922 237.50783402 151.68997601 235.5472788 149.3203125 233.37890625 C148.7116333 232.8166333 148.1029541 232.25436035 147.47583008 231.67504883 C146.82380615 231.08361084 146.17178223 230.49217285 145.5 229.8828125 C144.49005981 228.95408325 144.49005981 228.95408325 143.4597168 228.0065918 C141.43617222 226.14762916 139.4059182 224.29621173 137.375 222.4453125 C136.29496105 221.45379108 135.21548155 220.46165971 134.13671875 219.46875 C132.1893481 217.67746146 130.2383608 215.89042957 128.28515625 214.10546875 C126.26893467 212.26245278 124.25560483 210.41669887 122.24609375 208.56640625 C116.68703647 203.45065635 111.09851938 198.37763949 105.375 193.4453125 C106.75716256 190.33886794 108.38585765 188.24639744 110.75 185.8203125 C116.84836768 178.91986306 119.04688201 171.86737034 118.6953125 162.703125 C115.14400112 126.5836897 93.70203672 95.93023284 70.375 69.4453125 C69.56160156 68.51976562 68.74820313 67.59421875 67.91015625 66.640625 C62.03590034 60.10562844 55.88729512 53.85770317 49.6875 47.6328125 C48.89150391 46.83214355 48.09550781 46.03147461 47.27539062 45.20654297 C42.46953477 40.41367052 37.5366514 35.85098132 32.375 31.4453125 C31.19881343 30.4249462 30.02301939 29.4041272 28.84765625 28.3828125 C17.39928737 16.31256078 17.39928737 16.31256078 5.0546875 14.60546875 Z M60.375 240.4453125 C59.118969 241.90902587 59.118969 241.90902587 57.90625 243.85546875 C57.4218042 244.59144287 56.9373584 245.32741699 56.43823242 246.08569336 C55.92236572 246.88499268 55.40649902 247.68429199 54.875 248.5078125 C53.79865685 250.15656331 52.7218255 251.80499549 51.64453125 253.453125 C51.10135254 254.2874707 50.55817383 255.12181641 49.99853516 255.98144531 C48.46990946 258.30127848 46.90761138 260.59230582 45.32421875 262.875 C44.62425781 263.89194946 44.62425781 263.89194946 43.91015625 264.92944336 C43.02567157 266.21146545 42.13395114 267.48853166 41.234375 268.76000977 C40.20226354 270.27074176 39.27751311 271.85376127 38.375 273.4453125 C39.04642902 276.55935082 39.04642902 276.55935082 41.44921875 277.65625 C42.74279297 278.23246094 42.74279297 278.23246094 44.0625 278.8203125 C53.27341864 283.25519925 57.72374261 288.78955177 61.5 298.26953125 C63.81190335 306.66050189 63.06104412 316.21930238 60.375 324.4453125 C64.05693397 321.37703419 67.53149773 318.31322806 70.8125 314.8203125 C81.1087529 304.42467492 93.76101912 296.68183503 106.375 289.4453125 C108.04402144 288.44924764 109.71165923 287.45083489 111.375 286.4453125 C108.6098728 282.6432626 105.51753647 279.75071281 101.97265625 276.72265625 C98.5775108 273.74616031 95.29194546 270.66004196 92 267.5703125 C87.00293897 262.88641209 81.97791679 258.24339384 76.86328125 253.6875 C74.94615503 251.95997967 73.05186431 250.2163222 71.16796875 248.453125 C70.62100342 247.94354248 70.07403809 247.43395996 69.51049805 246.90893555 C68.4391585 245.90924253 67.37145989 244.90563 66.30786133 243.89770508 C63.76693433 241.24092854 63.76693433 241.24092854 60.375 240.4453125 Z M153.05859375 245.015625 C152.04853271 245.85540894 152.04853271 245.85540894 151.01806641 246.7121582 C150.29022949 247.32534912 149.56239258 247.93854004 148.8125 248.5703125 C147.26703381 249.85820099 145.72145775 251.14595766 144.17578125 252.43359375 C143.38123535 253.0982666 142.58668945 253.76293945 141.76806641 254.44775391 C138.02759958 257.57002483 134.26359205 260.6634927 130.5 263.7578125 C129.09763722 264.9127373 127.69529296 266.06768461 126.29296875 267.22265625 C121.32916992 271.30771381 116.35477863 275.37974809 111.375 279.4453125 C112.15875 280.2084375 112.9425 280.9715625 113.75 281.7578125 C116.375 284.4453125 116.375 284.4453125 118.375 287.4453125 C117.34503906 287.95578125 116.31507813 288.46625 115.25390625 288.9921875 C98.66401352 297.38842366 84.11416673 307.95267037 70.375 320.4453125 C69.57964844 321.156875 68.78429687 321.8684375 67.96484375 322.6015625 C44.81312406 344.45073534 29.83650662 375.17579914 21.375 405.4453125 C21.00761719 406.70214844 20.64023438 407.95898438 20.26171875 409.25390625 C17.69605229 418.93211526 16.38944993 428.77921452 15.125 438.6953125 C15.03587341 439.36653137 14.94674683 440.03775024 14.85491943 440.72930908 C13.27775399 452.78264973 13.375 464.13241123 13.375 476.4453125 C33.175 476.4453125 52.975 476.4453125 73.375 476.4453125 C73.705 468.1953125 74.035 459.9453125 74.375 451.4453125 C78.16376932 415.55170842 90.03576183 380.76201733 118.94580078 357.16308594 C130.53796923 348.12373023 149.58451986 334.26419828 164.9375 335.3828125 C166.42883416 335.68162762 167.90859345 336.04155529 169.375 336.4453125 C170.798125 336.80689453 170.798125 336.80689453 172.25 337.17578125 C198.6107544 344.573591 221.33769882 359.94779176 235.3984375 383.83984375 C251.01848204 411.91076129 254.81674142 441.61002954 255.2331543 473.49707031 C255.16190519 475.45018224 255.16190519 475.45018224 256.375 476.4453125 C258.21618029 476.53912552 260.06097641 476.56275204 261.90454102 476.55883789 C263.67626427 476.55872459 263.67626427 476.55872459 265.48377991 476.55860901 C267.41186745 476.55086708 267.41186745 476.55086708 269.37890625 476.54296875 C270.68705795 476.5415538 271.99520966 476.54013885 273.34300232 476.53868103 C276.82662859 476.5348566 280.31021339 476.52502696 283.79382324 476.51397705 C287.34626708 476.50376132 290.89871759 476.49918306 294.45117188 476.49414062 C301.42579832 476.48340462 308.40039717 476.4663291 315.375 476.4453125 C315.37807965 474.5432953 315.38026528 472.64127664 315.38208008 470.73925781 C315.38339432 469.68007141 315.38470856 468.62088501 315.38606262 467.52960205 C315.25112617 429.90894737 308.50263129 392.67141476 290.375 359.4453125 C289.83488281 358.42695313 289.29476563 357.40859375 288.73828125 356.359375 C271.37935582 325.00402785 244.7340043 302.8449757 212.3515625 288.28515625 C205.91438938 285.34236369 201.2729938 281.68890786 196.1875 276.8203125 C194.84308897 275.54880102 193.49803684 274.27796705 192.15234375 273.0078125 C191.50249512 272.39292969 190.85264648 271.77804687 190.18310547 271.14453125 C187.14069188 268.2853362 184.02380652 265.51144186 180.91015625 262.73046875 C177.8088923 259.93503052 174.74909258 257.09653052 171.6875 254.2578125 C163.15915895 244.32547219 163.15915895 244.32547219 153.05859375 245.015625 Z " fill="#050303" transform="translate(136.625,2.5546875)"/>
<path d="M0 0 C8.72354331 8.08555283 14.43645802 18.74366759 15.453125 30.68359375 C15.79661494 46.39079139 12.15668286 58.15423798 1.171875 69.80078125 C-9.05054744 79.40240881 -21.08952098 82.43750196 -34.77734375 82.046875 C-47.46983644 81.33301485 -57.47641654 75.58354225 -66.1328125 66.55078125 C-76.61718223 54.17369568 -78.08161633 41.30678953 -76.8828125 25.73828125 C-74.63562348 14.8565127 -67.75731982 3.94974467 -58.6328125 -2.38671875 C-39.64134158 -14.33851758 -17.8516519 -14.00556429 0 0 Z " fill="#F1C19A" transform="translate(132.8828125,109.26171875)"/>
<path d="M0 0 C8.63839714 2.15959929 14.24770764 7.40115375 18.8125 14.84375 C22.48102257 21.50501467 22.96453221 27.61628775 21.34765625 34.96484375 C18.98588051 43.00299038 15.72197919 49.04876301 8.5 53.5625 C2.39676799 56.75943105 -2.78177842 58.14384235 -9.6875 58.125 C-11.11642578 58.12886719 -11.11642578 58.12886719 -12.57421875 58.1328125 C-15 58 -15 58 -17 57 C-16.37891057 51.35710655 -14.95997824 46.29301203 -13.1640625 40.91796875 C-12.88404388 40.06374832 -12.60402527 39.20952789 -12.31552124 38.329422 C-11.42414689 35.61361308 -10.52490538 32.90049265 -9.625 30.1875 C-8.73382972 27.4847189 -7.84432914 24.78139703 -6.9559021 22.07771301 C-6.40464268 20.40185091 -5.85157297 18.72658268 -5.29629517 17.05204773 C-3.42846169 11.39738533 -1.68558855 5.7115516 0 0 Z " fill="#EEBE97" transform="translate(174,283)"/>
<path d="M0 0 C-1.63687603 4.17258919 -4.69330968 6.96425073 -7.8203125 10.05078125 C-8.39780243 10.62781296 -8.97529236 11.20484467 -9.57028198 11.79936218 C-10.79351367 13.01957662 -12.01917105 14.23736351 -13.24707031 15.45288086 C-15.10271027 17.2904276 -16.95038537 19.13568538 -18.796875 20.98242188 C-24.22247279 26.39128531 -29.6415989 31.75906686 -35.49365234 36.71191406 C-37.43551334 38.37240979 -39.23128748 40.15759112 -41 42 C-44.5590842 40.8136386 -44.91297148 40.12951978 -46.6875 36.9375 C-50.3307907 29.21903916 -50.51846659 20.14405643 -48.11328125 11.99609375 C-44.16337614 3.40078528 -37.8143013 -2.61967002 -29 -6 C-18.3732063 -9.15023529 -9.05598417 -5.58773492 0 0 Z " fill="#F8CBA2" transform="translate(141,11)"/>
<path d="M0 0 C8.72354331 8.08555283 14.43645802 18.74366759 15.453125 30.68359375 C15.79661494 46.39079139 12.15668286 58.15423798 1.171875 69.80078125 C-9.05054744 79.40240881 -21.08952098 82.43750196 -34.77734375 82.046875 C-47.46983644 81.33301485 -57.47641654 75.58354225 -66.1328125 66.55078125 C-76.61718223 54.17369568 -78.08161633 41.30678953 -76.8828125 25.73828125 C-74.63562348 14.8565127 -67.75731982 3.94974467 -58.6328125 -2.38671875 C-39.64134158 -14.33851758 -17.8516519 -14.00556429 0 0 Z M-62.51171875 7 C-70.51461929 16.24222945 -73.3101534 26.9335244 -73.234375 38.95703125 C-72.04064094 51.7963042 -65.2711911 60.91775853 -56.0703125 69.30078125 C-48.16930587 75.72666388 -38.9550582 78.27438518 -28.87890625 78.05078125 C-19.47701804 77.07014102 -11.19623235 73.67235276 -3.8828125 67.73828125 C-3.25761719 67.23683594 -2.63242188 66.73539062 -1.98828125 66.21875 C5.95287466 59.10804177 10.40853944 48.48911938 11.3671875 38.00390625 C11.86917021 25.89357342 7.90526326 15.93076411 0.1171875 6.73828125 C-7.50434399 -1.52914273 -16.99800006 -5.80841199 -28.1796875 -6.37890625 C-42.12732341 -6.76874701 -52.30468195 -2.47455054 -62.51171875 7 Z " fill="#050403" transform="translate(132.8828125,109.26171875)"/>
<path d="M0 0 C19.14 0 38.28 0 58 0 C55.47462973 10.10148107 52.31143018 16.41449784 43.28125 21.84765625 C36.64945066 25.19762338 29.3487711 26.00164057 22 25 C12.03575737 21.53043638 6.05735804 15.78296191 1.1015625 6.62109375 C0 4 0 4 0 0 Z " fill="#EAB892" transform="translate(151,483)"/>
<path d="M0 0 C18.81 0 37.62 0 57 0 C55.71488277 8.99582061 52.83276829 14.10543117 45.76171875 19.75 C38.72130406 24.74541619 31.45162652 25.86115554 23 25 C14.81040706 22.94951368 7.94859946 18.65606095 3.39453125 11.46484375 C1.21610483 7.32156213 0 4.75420696 0 0 Z " fill="#EAB892" transform="translate(394,483)"/>
</svg>
