<?xml version="1.0" encoding="UTF-8"?>
<svg version="1.1" xmlns="http://www.w3.org/2000/svg" width="512" height="512">
<path d="M0 0 C2.24614119 -0.0215726 4.49198094 -0.05251867 6.73797393 -0.08602643 C13.85965948 -0.18976926 20.98062675 -0.26262123 28.1030274 -0.28923148 C35.35544302 -0.31642427 42.59991673 -0.4060202 49.84973884 -0.60598302 C92.18014156 -1.7484559 124.46187325 1.60895452 162.47434211 21.7145431 C168.69819017 24.99496546 175.08439188 27.85855648 181.5314815 30.66864371 C201.55114002 39.44307151 215.31224945 54.10900703 224.91345954 73.56857753 C225.5179536 74.76755842 226.12393439 75.96579081 226.73133063 77.16330409 C227.93498149 79.53862068 229.13226567 81.91676318 230.3260572 84.29709315 C232.52991011 88.6669702 234.80666408 92.99570612 237.10095954 97.31857753 C240.74785055 104.22389779 244.36717412 111.1432715 247.97595954 118.06857753 C251.62808654 125.07630615 255.29059361 132.07827054 258.97595954 139.06857753 C263.17380799 147.03094814 267.34319139 155.00793413 271.49744391 162.99313807 C273.91716725 167.64046247 276.3490364 172.28014032 278.81970954 176.90060878 C289.09781214 196.1310259 293.43992559 212.86952685 293.39588141 234.657933 C293.40324236 236.40759765 293.41183438 238.15725748 293.4215467 239.90691066 C293.44354255 244.60694191 293.44670505 249.30679678 293.44479918 254.00687242 C293.44467862 257.94599345 293.45327632 261.88507824 293.4615767 265.82418907 C293.48072639 275.1172656 293.48372328 284.41025231 293.4769361 293.70334315 C293.47027997 303.26710689 293.49324219 312.83048648 293.53024983 322.39417231 C293.56097874 330.63664367 293.57230405 338.87899151 293.56841302 347.12151897 C293.56635129 352.0312146 293.57173785 356.94061003 293.59630561 361.85025096 C293.61862722 366.46182043 293.6166502 371.07276365 293.59637809 375.68433642 C293.59297921 377.37011463 293.59800851 379.05593554 293.61236167 380.74165606 C293.68362521 389.7353595 293.73482296 398.08401037 287.97595954 405.56857753 C286.98595954 406.22857753 285.99595954 406.88857753 284.97595954 407.56857753 C284.39114832 410.45453699 284.39114832 410.45453699 284.28845954 413.69357753 C284.18984626 415.33713222 284.18984626 415.33713222 284.08924079 417.01389003 C284.05185798 417.8569369 284.01447516 418.69998378 283.97595954 419.56857753 C284.78033454 419.85732753 285.58470954 420.14607753 286.41345954 420.44357753 C288.97595954 421.56857753 288.97595954 421.56857753 289.97595954 423.56857753 C290.50375221 429.78029122 290.71999597 435.32692652 286.97595954 440.56857753 C282.79479399 444.76116703 279.27688995 446.6747357 273.34021735 446.74557948 C272.40204169 446.75841472 271.46386603 446.77124995 270.49726081 446.78447413 C268.97851356 446.79555453 268.97851356 446.79555453 267.42908454 446.80685878 C266.38452094 446.81493052 265.33995734 446.82300227 264.2637403 446.83131862 C262.05129378 446.84515389 259.83882596 446.85587853 257.62635016 446.86374354 C254.25288852 446.88094025 250.88041102 446.9248305 247.50720954 446.96896815 C245.35617507 446.97909677 243.20513228 446.98761235 241.05408454 446.99435878 C240.04968329 447.01186687 239.04528205 447.02937495 238.0104444 447.04741359 C231.76589573 447.02819908 228.06946634 446.25156828 222.97595954 442.56857753 C218.69205666 437.8337375 217.68425659 432.81935512 217.97595954 426.56857753 C219.30805981 423.46034356 219.96599337 422.07356061 222.97595954 420.56857753 C223.44428604 417.98252421 223.44428604 417.98252421 223.60095954 415.00607753 C223.67572516 413.99416347 223.75049079 412.9822494 223.82752204 411.93967128 C223.87650641 411.15721034 223.92549079 410.3747494 223.97595954 409.56857753 C223.21670173 409.30560878 222.45744391 409.04264003 221.67517829 408.77170253 C218.94253044 407.55367715 217.68641971 406.57781161 215.78845954 404.31857753 C215.29990485 403.75654628 214.81135016 403.19451503 214.30799079 402.61545253 C211.4727602 398.2586759 210.72614068 393.85009807 210.72440314 388.72916102 C210.71632888 387.01407847 210.71632888 387.01407847 210.7080915 385.26434779 C210.71221549 384.02379634 210.71633948 382.78324489 210.72058845 381.50510097 C210.71503028 379.4817582 210.70946779 377.45841544 210.70374441 375.43507314 C210.69941212 373.26581272 210.69987239 371.09659817 210.70156455 368.92733455 C210.70441137 364.3851791 210.68999058 359.84317753 210.6725843 355.30106044 C210.62570089 342.38635042 210.60165639 329.47165015 210.59510016 316.55685878 C210.59132398 309.41938849 210.5730858 302.28209205 210.5400058 295.14469624 C210.52325522 291.37815811 210.51386584 287.61193585 210.52294517 283.84536433 C210.56588353 264.37528238 210.14648698 246.1875525 201.85095954 228.19357753 C201.52353766 227.44076503 201.19611579 226.68795253 200.85877204 225.91232753 C198.04641818 219.57434165 194.90780143 213.39572512 191.80066657 207.19894862 C191.33636741 206.27172496 190.87206824 205.3445013 190.39369941 204.38917994 C189.2550081 202.11536689 188.11574629 199.84184162 186.97595954 197.56857753 C186.97237701 199.31097917 186.97237701 199.31097917 186.96872211 201.08858085 C186.91132644 228.6805644 186.83857046 256.27247281 186.74697326 283.86436492 C186.73570549 287.26259493 186.72456697 290.66082535 186.71350837 294.05905604 C186.71130468 294.7355648 186.709101 295.41207356 186.70683054 296.10908259 C186.67148604 307.05405312 186.64660585 317.99902359 186.62561252 328.94402998 C186.60382775 340.1798309 186.57053049 351.4155581 186.52725798 362.65130025 C186.50332428 368.96005678 186.48459639 375.26873164 186.47834563 381.57753253 C186.47229557 387.51761072 186.45229806 393.45747992 186.42168403 399.39748073 C186.41290264 401.57547563 186.40918143 403.75349785 186.41095138 405.93150973 C186.41260776 408.91074334 186.39587322 411.8893426 186.37468696 414.86848903 C186.38195832 416.15403356 186.38195832 416.15403356 186.38937658 417.46554869 C186.29221932 425.77368607 184.41149225 432.88162987 178.66345954 439.06076503 C175.69557444 441.71262532 172.08297207 444.56857753 167.97595954 444.56857753 C167.97595954 448.19857753 167.97595954 451.82857753 167.97595954 455.56857753 C169.29595954 455.89857753 170.61595954 456.22857753 171.97595954 456.56857753 C174.61825354 459.21087153 174.26524529 461.20019649 174.29822516 464.8009994 C174.29500251 465.61117518 174.29177985 466.42135097 174.28845954 467.25607753 C174.30457282 468.04691737 174.3206861 468.83775722 174.33728766 469.6525619 C174.34283483 476.37017472 173.09800137 481.11147646 168.60095954 486.31857753 C162.8538719 491.24465265 159.06208681 492.00588103 151.68337226 491.94952846 C150.74411649 491.95420843 149.80486071 491.9588884 148.83714265 491.96371019 C145.68804044 491.97568163 142.53937167 491.96619437 139.39026618 491.95676112 C137.13328015 491.96082589 134.87629612 491.96616723 132.61931586 491.9726913 C126.48712373 491.98638272 120.35508281 491.98105843 114.22288799 491.97155404 C107.80882281 491.96396602 101.3947707 491.97100076 94.98070502 491.97571254 C83.51734407 491.98152289 72.05406695 491.97219081 60.59072017 491.95693453 C50.20062586 491.94353456 39.81063211 491.94585676 29.42053962 491.95969081 C17.35191213 491.97575227 5.28336059 491.98171749 -6.78528148 491.97285402 C-13.17268694 491.96817518 -19.56002315 491.96755843 -25.94742417 491.97746348 C-31.95319605 491.98612586 -37.95877793 491.98012434 -43.96452928 491.96278071 C-46.16960101 491.95881183 -48.37468872 491.95995676 -50.57975411 491.96656871 C-53.5882089 491.97475829 -56.59605368 491.96449345 -59.60446954 491.94952846 C-60.4785 491.95622062 -61.35253046 491.96291279 -62.25304669 491.96980774 C-68.07919557 491.91353996 -72.30260271 490.91785285 -76.85216546 486.99045253 C-83.00539953 479.75533115 -83.2494501 473.0553036 -83.28966546 463.77560878 C-83.03738689 460.72971604 -82.85465373 458.99587803 -81.02404046 456.56857753 C-79.70404046 456.23857753 -78.38404046 455.90857753 -77.02404046 455.56857753 C-77.02404046 451.93857753 -77.02404046 448.30857753 -77.02404046 444.56857753 C-77.84904046 444.38295253 -78.67404046 444.19732753 -79.52404046 444.00607753 C-86.0695004 441.31776362 -90.33795888 437.56892697 -93.11220956 431.03000522 C-95.13877485 425.81145216 -95.59349352 421.30312155 -95.54302239 415.74823451 C-95.55052365 414.81272388 -95.5580249 413.87721324 -95.56575346 412.9133538 C-95.58590589 409.80714898 -95.57795239 406.70168282 -95.5699389 403.595433 C-95.57868066 401.35752593 -95.58916854 399.1196251 -95.60126519 396.88173366 C-95.62907165 390.82668385 -95.63253104 384.77183855 -95.63154531 378.71673417 C-95.63467898 372.38126103 -95.66030671 366.04587938 -95.68352532 359.71045375 C-95.71945294 349.08340414 -95.74157979 338.45641646 -95.75304437 327.82931972 C-95.76488646 316.88755266 -95.78510934 305.94585354 -95.81652093 295.0041244 C-95.81942508 293.99099326 -95.81942508 293.99099326 -95.8223879 292.95739482 C-95.83215302 289.56871659 -95.84208203 286.18003885 -95.8520925 282.79136133 C-95.9348147 254.71713279 -95.98856753 226.64290253 -96.02404046 198.56857753 C-97.93784065 202.82783886 -99.83934694 207.09232616 -101.73082757 211.36154628 C-102.37253152 212.80565972 -103.01727033 214.24842936 -103.66539788 215.68967128 C-112.31594703 234.93999976 -117.36677959 252.8611324 -117.26354241 274.20822597 C-117.266634 276.17785459 -117.26973182 278.14748321 -117.27306521 280.11711144 C-117.27487226 282.20282748 -117.27197787 284.28849119 -117.26787019 286.37420344 C-117.26017001 290.74677451 -117.27101403 295.11918595 -117.28507257 299.49173427 C-117.32256464 311.91432901 -117.34098956 324.33684649 -117.32946038 336.7594955 C-117.32322818 343.6450042 -117.33489358 350.5302501 -117.3659057 357.41569424 C-117.38444974 361.75351621 -117.38135133 366.09058701 -117.36173809 370.42839551 C-117.35318937 373.76790428 -117.37732836 377.1070448 -117.39635491 380.44650722 C-117.37870332 382.22505847 -117.37870332 382.22505847 -117.36069512 384.03954005 C-117.44317768 391.44203148 -118.5595148 397.48882703 -123.02404046 403.56857753 C-124.95493817 404.95994639 -124.95493817 404.95994639 -126.77404046 405.94357753 C-128.64250885 406.935279 -128.64250885 406.935279 -130.02404046 408.56857753 C-130.92698515 412.57638465 -131.06979878 416.46993992 -131.02404046 420.56857753 C-130.40529046 420.67170253 -129.78654046 420.77482753 -129.14904046 420.88107753 C-127.02404046 421.56857753 -127.02404046 421.56857753 -125.02404046 424.56857753 C-123.94102758 430.95331626 -125.33426606 436.30767338 -129.02404046 441.56857753 C-133.05935625 445.40704864 -136.1713489 446.68431734 -141.67565179 446.72971034 C-142.61705514 446.73931788 -143.55845849 446.74892543 -144.52838922 446.75882411 C-146.05184205 446.76519893 -146.05184205 446.76519893 -147.60607171 446.77170253 C-148.65300698 446.7774026 -149.69994226 446.78310267 -150.77860284 446.78897548 C-152.9952521 446.79842519 -155.21191542 446.80495934 -157.42858148 446.8088119 C-160.81286536 446.81850969 -164.19653995 446.84953066 -167.58068109 446.88107753 C-169.73497436 446.88760851 -171.88927197 446.89285861 -174.04357171 446.89670253 C-175.05313424 446.90904933 -176.06269677 446.92139613 -177.10285211 446.93411708 C-183.26270791 446.91467538 -187.91437649 446.40494562 -192.66857171 442.06857753 C-197.07272379 436.41240898 -197.88815283 431.60821299 -197.02404046 424.56857753 C-195.14904046 421.94357753 -195.14904046 421.94357753 -193.02404046 420.56857753 C-192.36404046 420.56857753 -191.70404046 420.56857753 -191.02404046 420.56857753 C-191.02404046 416.93857753 -191.02404046 413.30857753 -191.02404046 409.56857753 C-191.86966546 409.40357753 -192.71529046 409.23857753 -193.58654046 409.06857753 C-199.45575539 406.50746556 -202.76747414 402.07308755 -205.60060906 396.4262588 C-208.03465713 389.70876855 -207.44156649 382.43231701 -207.41222405 375.38473964 C-207.41629381 373.74289039 -207.42163795 372.10104389 -207.42815423 370.45920253 C-207.44179317 366.01452725 -207.43654135 361.57006169 -207.42701697 357.1253829 C-207.41939364 352.45723672 -207.42647422 347.78910787 -207.43117547 343.12096095 C-207.43662904 335.27542363 -207.42945584 327.4299711 -207.41515374 319.58444667 C-207.39886785 310.54703634 -207.40408773 301.50982951 -207.42063296 292.47242421 C-207.43430695 284.68863582 -207.43613756 276.90490823 -207.42831695 269.12111169 C-207.42366763 264.48341305 -207.4229385 259.84580956 -207.43292642 255.20811725 C-207.44167881 250.83887944 -207.43542542 246.46989994 -207.41824365 242.10068965 C-207.41432078 240.50894352 -207.41533947 238.91717516 -207.42203164 237.32543826 C-207.4783503 222.55223954 -205.70034411 209.46431817 -198.83654046 196.13107753 C-198.32043206 195.09322108 -197.80432366 194.05536464 -197.27257562 192.986058 C-195.84661503 190.12532164 -194.40510307 187.2730032 -192.95928216 184.42227626 C-191.29692953 181.12740504 -189.66439774 177.81777252 -188.02794671 174.50998378 C-177.8341871 153.95001457 -177.8341871 153.95001457 -172.70629144 144.30321193 C-167.84393202 135.15321327 -163.16435892 125.91834696 -158.54747796 116.64279628 C-158.21807591 115.98132091 -157.88867387 115.31984553 -157.54928994 114.63832545 C-154.46896269 108.45138867 -151.39369063 102.26194635 -148.32286859 96.07028651 C-146.62255543 92.64252742 -144.91811552 89.21684467 -143.21131539 85.79231143 C-142.57440231 84.51239214 -141.93899276 83.23172324 -141.3053019 81.95020556 C-122.55859655 44.04148248 -100.20455971 30.48106756 -61.88756585 15.14816737 C-61.17520902 14.86232846 -60.46285218 14.57648955 -59.72890878 14.28198886 C-58.1928435 13.66891256 -56.65453831 13.06139486 -55.11326814 12.46152377 C-51.32517508 10.97135174 -47.6532446 9.42470088 -44.05963922 7.508641 C-29.95610296 0.26738976 -15.5075825 0.14022162 0 0 Z " fill="#E7AF31" transform="translate(213.02404046058655,9.431422472000122)"/>
<path d="M0 0 C2.24614119 -0.0215726 4.49198094 -0.05251867 6.73797393 -0.08602643 C13.85965948 -0.18976926 20.98062675 -0.26262123 28.1030274 -0.28923148 C35.35544302 -0.31642427 42.59991673 -0.4060202 49.84973884 -0.60598302 C92.18014156 -1.7484559 124.46187325 1.60895452 162.47434211 21.7145431 C168.69819017 24.99496546 175.08439188 27.85855648 181.5314815 30.66864371 C201.55114002 39.44307151 215.31224945 54.10900703 224.91345954 73.56857753 C225.5179536 74.76755842 226.12393439 75.96579081 226.73133063 77.16330409 C227.93498149 79.53862068 229.13226567 81.91676318 230.3260572 84.29709315 C232.52991011 88.6669702 234.80666408 92.99570612 237.10095954 97.31857753 C240.74785055 104.22389779 244.36717412 111.1432715 247.97595954 118.06857753 C251.62808654 125.07630615 255.29059361 132.07827054 258.97595954 139.06857753 C263.17380799 147.03094814 267.34319139 155.00793413 271.49744391 162.99313807 C273.91716725 167.64046247 276.3490364 172.28014032 278.81970954 176.90060878 C289.09781214 196.1310259 293.43992559 212.86952685 293.39588141 234.657933 C293.40324236 236.40759765 293.41183438 238.15725748 293.4215467 239.90691066 C293.44354255 244.60694191 293.44670505 249.30679678 293.44479918 254.00687242 C293.44467862 257.94599345 293.45327632 261.88507824 293.4615767 265.82418907 C293.48072639 275.1172656 293.48372328 284.41025231 293.4769361 293.70334315 C293.47027997 303.26710689 293.49324219 312.83048648 293.53024983 322.39417231 C293.56097874 330.63664367 293.57230405 338.87899151 293.56841302 347.12151897 C293.56635129 352.0312146 293.57173785 356.94061003 293.59630561 361.85025096 C293.61862722 366.46182043 293.6166502 371.07276365 293.59637809 375.68433642 C293.59297921 377.37011463 293.59800851 379.05593554 293.61236167 380.74165606 C293.68362521 389.7353595 293.73482296 398.08401037 287.97595954 405.56857753 C286.98595954 406.22857753 285.99595954 406.88857753 284.97595954 407.56857753 C284.39114832 410.45453699 284.39114832 410.45453699 284.28845954 413.69357753 C284.18984626 415.33713222 284.18984626 415.33713222 284.08924079 417.01389003 C284.05185798 417.8569369 284.01447516 418.69998378 283.97595954 419.56857753 C284.78033454 419.85732753 285.58470954 420.14607753 286.41345954 420.44357753 C288.97595954 421.56857753 288.97595954 421.56857753 289.97595954 423.56857753 C290.50375221 429.78029122 290.71999597 435.32692652 286.97595954 440.56857753 C282.79479399 444.76116703 279.27688995 446.6747357 273.34021735 446.74557948 C272.40204169 446.75841472 271.46386603 446.77124995 270.49726081 446.78447413 C268.97851356 446.79555453 268.97851356 446.79555453 267.42908454 446.80685878 C266.38452094 446.81493052 265.33995734 446.82300227 264.2637403 446.83131862 C262.05129378 446.84515389 259.83882596 446.85587853 257.62635016 446.86374354 C254.25288852 446.88094025 250.88041102 446.9248305 247.50720954 446.96896815 C245.35617507 446.97909677 243.20513228 446.98761235 241.05408454 446.99435878 C240.04968329 447.01186687 239.04528205 447.02937495 238.0104444 447.04741359 C231.76589573 447.02819908 228.06946634 446.25156828 222.97595954 442.56857753 C218.69205666 437.8337375 217.68425659 432.81935512 217.97595954 426.56857753 C219.30805981 423.46034356 219.96599337 422.07356061 222.97595954 420.56857753 C223.44428604 417.98252421 223.44428604 417.98252421 223.60095954 415.00607753 C223.67572516 413.99416347 223.75049079 412.9822494 223.82752204 411.93967128 C223.87650641 411.15721034 223.92549079 410.3747494 223.97595954 409.56857753 C223.21670173 409.30560878 222.45744391 409.04264003 221.67517829 408.77170253 C218.94253044 407.55367715 217.68641971 406.57781161 215.78845954 404.31857753 C215.29990485 403.75654628 214.81135016 403.19451503 214.30799079 402.61545253 C211.4727602 398.2586759 210.72614068 393.85009807 210.72440314 388.72916102 C210.71632888 387.01407847 210.71632888 387.01407847 210.7080915 385.26434779 C210.71221549 384.02379634 210.71633948 382.78324489 210.72058845 381.50510097 C210.71503028 379.4817582 210.70946779 377.45841544 210.70374441 375.43507314 C210.69941212 373.26581272 210.69987239 371.09659817 210.70156455 368.92733455 C210.70441137 364.3851791 210.68999058 359.84317753 210.6725843 355.30106044 C210.62570089 342.38635042 210.60165639 329.47165015 210.59510016 316.55685878 C210.59132398 309.41938849 210.5730858 302.28209205 210.5400058 295.14469624 C210.52325522 291.37815811 210.51386584 287.61193585 210.52294517 283.84536433 C210.56588353 264.37528238 210.14648698 246.1875525 201.85095954 228.19357753 C201.52353766 227.44076503 201.19611579 226.68795253 200.85877204 225.91232753 C198.04641818 219.57434165 194.90780143 213.39572512 191.80066657 207.19894862 C191.33636741 206.27172496 190.87206824 205.3445013 190.39369941 204.38917994 C189.2550081 202.11536689 188.11574629 199.84184162 186.97595954 197.56857753 C186.97237701 199.31097917 186.97237701 199.31097917 186.96872211 201.08858085 C186.91132644 228.6805644 186.83857046 256.27247281 186.74697326 283.86436492 C186.73570549 287.26259493 186.72456697 290.66082535 186.71350837 294.05905604 C186.71130468 294.7355648 186.709101 295.41207356 186.70683054 296.10908259 C186.67148604 307.05405312 186.64660585 317.99902359 186.62561252 328.94402998 C186.60382775 340.1798309 186.57053049 351.4155581 186.52725798 362.65130025 C186.50332428 368.96005678 186.48459639 375.26873164 186.47834563 381.57753253 C186.47229557 387.51761072 186.45229806 393.45747992 186.42168403 399.39748073 C186.41290264 401.57547563 186.40918143 403.75349785 186.41095138 405.93150973 C186.41260776 408.91074334 186.39587322 411.8893426 186.37468696 414.86848903 C186.38195832 416.15403356 186.38195832 416.15403356 186.38937658 417.46554869 C186.29221932 425.77368607 184.41149225 432.88162987 178.66345954 439.06076503 C175.69557444 441.71262532 172.08297207 444.56857753 167.97595954 444.56857753 C167.97595954 448.19857753 167.97595954 451.82857753 167.97595954 455.56857753 C169.29595954 455.89857753 170.61595954 456.22857753 171.97595954 456.56857753 C174.61825354 459.21087153 174.26524529 461.20019649 174.29822516 464.8009994 C174.29500251 465.61117518 174.29177985 466.42135097 174.28845954 467.25607753 C174.30457282 468.04691737 174.3206861 468.83775722 174.33728766 469.6525619 C174.34283483 476.37017472 173.09800137 481.11147646 168.60095954 486.31857753 C162.8538719 491.24465265 159.06208681 492.00588103 151.68337226 491.94952846 C150.74411649 491.95420843 149.80486071 491.9588884 148.83714265 491.96371019 C145.68804044 491.97568163 142.53937167 491.96619437 139.39026618 491.95676112 C137.13328015 491.96082589 134.87629612 491.96616723 132.61931586 491.9726913 C126.48712373 491.98638272 120.35508281 491.98105843 114.22288799 491.97155404 C107.80882281 491.96396602 101.3947707 491.97100076 94.98070502 491.97571254 C83.51734407 491.98152289 72.05406695 491.97219081 60.59072017 491.95693453 C50.20062586 491.94353456 39.81063211 491.94585676 29.42053962 491.95969081 C17.35191213 491.97575227 5.28336059 491.98171749 -6.78528148 491.97285402 C-13.17268694 491.96817518 -19.56002315 491.96755843 -25.94742417 491.97746348 C-31.95319605 491.98612586 -37.95877793 491.98012434 -43.96452928 491.96278071 C-46.16960101 491.95881183 -48.37468872 491.95995676 -50.57975411 491.96656871 C-53.5882089 491.97475829 -56.59605368 491.96449345 -59.60446954 491.94952846 C-60.4785 491.95622062 -61.35253046 491.96291279 -62.25304669 491.96980774 C-68.07919557 491.91353996 -72.30260271 490.91785285 -76.85216546 486.99045253 C-83.00539953 479.75533115 -83.2494501 473.0553036 -83.28966546 463.77560878 C-83.03738689 460.72971604 -82.85465373 458.99587803 -81.02404046 456.56857753 C-79.70404046 456.23857753 -78.38404046 455.90857753 -77.02404046 455.56857753 C-77.02404046 451.93857753 -77.02404046 448.30857753 -77.02404046 444.56857753 C-77.84904046 444.38295253 -78.67404046 444.19732753 -79.52404046 444.00607753 C-86.0695004 441.31776362 -90.33795888 437.56892697 -93.11220956 431.03000522 C-95.13877485 425.81145216 -95.59349352 421.30312155 -95.54302239 415.74823451 C-95.55052365 414.81272388 -95.5580249 413.87721324 -95.56575346 412.9133538 C-95.58590589 409.80714898 -95.57795239 406.70168282 -95.5699389 403.595433 C-95.57868066 401.35752593 -95.58916854 399.1196251 -95.60126519 396.88173366 C-95.62907165 390.82668385 -95.63253104 384.77183855 -95.63154531 378.71673417 C-95.63467898 372.38126103 -95.66030671 366.04587938 -95.68352532 359.71045375 C-95.71945294 349.08340414 -95.74157979 338.45641646 -95.75304437 327.82931972 C-95.76488646 316.88755266 -95.78510934 305.94585354 -95.81652093 295.0041244 C-95.81942508 293.99099326 -95.81942508 293.99099326 -95.8223879 292.95739482 C-95.83215302 289.56871659 -95.84208203 286.18003885 -95.8520925 282.79136133 C-95.9348147 254.71713279 -95.98856753 226.64290253 -96.02404046 198.56857753 C-97.93784065 202.82783886 -99.83934694 207.09232616 -101.73082757 211.36154628 C-102.37253152 212.80565972 -103.01727033 214.24842936 -103.66539788 215.68967128 C-112.31594703 234.93999976 -117.36677959 252.8611324 -117.26354241 274.20822597 C-117.266634 276.17785459 -117.26973182 278.14748321 -117.27306521 280.11711144 C-117.27487226 282.20282748 -117.27197787 284.28849119 -117.26787019 286.37420344 C-117.26017001 290.74677451 -117.27101403 295.11918595 -117.28507257 299.49173427 C-117.32256464 311.91432901 -117.34098956 324.33684649 -117.32946038 336.7594955 C-117.32322818 343.6450042 -117.33489358 350.5302501 -117.3659057 357.41569424 C-117.38444974 361.75351621 -117.38135133 366.09058701 -117.36173809 370.42839551 C-117.35318937 373.76790428 -117.37732836 377.1070448 -117.39635491 380.44650722 C-117.37870332 382.22505847 -117.37870332 382.22505847 -117.36069512 384.03954005 C-117.44317768 391.44203148 -118.5595148 397.48882703 -123.02404046 403.56857753 C-124.95493817 404.95994639 -124.95493817 404.95994639 -126.77404046 405.94357753 C-128.64250885 406.935279 -128.64250885 406.935279 -130.02404046 408.56857753 C-130.92698515 412.57638465 -131.06979878 416.46993992 -131.02404046 420.56857753 C-130.40529046 420.67170253 -129.78654046 420.77482753 -129.14904046 420.88107753 C-127.02404046 421.56857753 -127.02404046 421.56857753 -125.02404046 424.56857753 C-123.94102758 430.95331626 -125.33426606 436.30767338 -129.02404046 441.56857753 C-133.05935625 445.40704864 -136.1713489 446.68431734 -141.67565179 446.72971034 C-142.61705514 446.73931788 -143.55845849 446.74892543 -144.52838922 446.75882411 C-146.05184205 446.76519893 -146.05184205 446.76519893 -147.60607171 446.77170253 C-148.65300698 446.7774026 -149.69994226 446.78310267 -150.77860284 446.78897548 C-152.9952521 446.79842519 -155.21191542 446.80495934 -157.42858148 446.8088119 C-160.81286536 446.81850969 -164.19653995 446.84953066 -167.58068109 446.88107753 C-169.73497436 446.88760851 -171.88927197 446.89285861 -174.04357171 446.89670253 C-175.05313424 446.90904933 -176.06269677 446.92139613 -177.10285211 446.93411708 C-183.26270791 446.91467538 -187.91437649 446.40494562 -192.66857171 442.06857753 C-197.07272379 436.41240898 -197.88815283 431.60821299 -197.02404046 424.56857753 C-195.14904046 421.94357753 -195.14904046 421.94357753 -193.02404046 420.56857753 C-192.36404046 420.56857753 -191.70404046 420.56857753 -191.02404046 420.56857753 C-191.02404046 416.93857753 -191.02404046 413.30857753 -191.02404046 409.56857753 C-191.86966546 409.40357753 -192.71529046 409.23857753 -193.58654046 409.06857753 C-199.45575539 406.50746556 -202.76747414 402.07308755 -205.60060906 396.4262588 C-208.03465713 389.70876855 -207.44156649 382.43231701 -207.41222405 375.38473964 C-207.41629381 373.74289039 -207.42163795 372.10104389 -207.42815423 370.45920253 C-207.44179317 366.01452725 -207.43654135 361.57006169 -207.42701697 357.1253829 C-207.41939364 352.45723672 -207.42647422 347.78910787 -207.43117547 343.12096095 C-207.43662904 335.27542363 -207.42945584 327.4299711 -207.41515374 319.58444667 C-207.39886785 310.54703634 -207.40408773 301.50982951 -207.42063296 292.47242421 C-207.43430695 284.68863582 -207.43613756 276.90490823 -207.42831695 269.12111169 C-207.42366763 264.48341305 -207.4229385 259.84580956 -207.43292642 255.20811725 C-207.44167881 250.83887944 -207.43542542 246.46989994 -207.41824365 242.10068965 C-207.41432078 240.50894352 -207.41533947 238.91717516 -207.42203164 237.32543826 C-207.4783503 222.55223954 -205.70034411 209.46431817 -198.83654046 196.13107753 C-198.32043206 195.09322108 -197.80432366 194.05536464 -197.27257562 192.986058 C-195.84661503 190.12532164 -194.40510307 187.2730032 -192.95928216 184.42227626 C-191.29692953 181.12740504 -189.66439774 177.81777252 -188.02794671 174.50998378 C-177.8341871 153.95001457 -177.8341871 153.95001457 -172.70629144 144.30321193 C-167.84393202 135.15321327 -163.16435892 125.91834696 -158.54747796 116.64279628 C-158.21807591 115.98132091 -157.88867387 115.31984553 -157.54928994 114.63832545 C-154.46896269 108.45138867 -151.39369063 102.26194635 -148.32286859 96.07028651 C-146.62255543 92.64252742 -144.91811552 89.21684467 -143.21131539 85.79231143 C-142.57440231 84.51239214 -141.93899276 83.23172324 -141.3053019 81.95020556 C-122.55859655 44.04148248 -100.20455971 30.48106756 -61.88756585 15.14816737 C-61.17520902 14.86232846 -60.46285218 14.57648955 -59.72890878 14.28198886 C-58.1928435 13.66891256 -56.65453831 13.06139486 -55.11326814 12.46152377 C-51.32517508 10.97135174 -47.6532446 9.42470088 -44.05963922 7.508641 C-29.95610296 0.26738976 -15.5075825 0.14022162 0 0 Z M-34.90685296 17.10983729 C-35.73281976 17.44761699 -36.55878655 17.78539668 -37.40978265 18.13341212 C-38.31373773 18.50518077 -39.2176928 18.87694942 -40.14904046 19.25998378 C-41.08393304 19.64291087 -42.01882562 20.02583797 -42.98204827 20.42036891 C-45.99671826 21.65563832 -49.01038219 22.8933422 -52.02404046 24.13107753 C-53.9953304 24.93917693 -55.96668385 25.74712142 -57.93810296 26.55490565 C-61.80472964 28.13951339 -65.67024001 29.72680256 -69.53502679 31.31589198 C-73.03672427 32.7551047 -76.54150802 34.18621104 -80.05016351 35.60837245 C-80.82283563 35.92285838 -81.59550775 36.23734431 -82.39159417 36.56136012 C-83.80630694 37.13697495 -85.22207143 37.7100156 -86.63915277 38.27977443 C-100.65428535 43.99767132 -111.48532454 53.38851173 -119.22106194 66.32931972 C-119.61570169 66.98923537 -120.01034144 67.64915103 -120.41693997 68.32906413 C-124.62687812 75.46022788 -128.32859436 82.81670796 -131.98888421 90.24045253 C-132.7137536 91.69837204 -133.43923733 93.15598624 -134.16529107 94.6133163 C-136.05553724 98.41070955 -137.93888141 102.21147888 -139.82024407 106.01327968 C-143.18085438 112.80135666 -146.55351306 119.58346174 -149.92638421 126.36545253 C-150.28763202 127.09231194 -150.64887982 127.81917136 -151.02107453 128.56805682 C-155.40383409 137.38264553 -159.84187661 146.15838362 -164.46642327 154.84929347 C-169.39625078 164.1168538 -174.14430699 173.47634225 -178.86754632 182.85055995 C-179.93780355 184.96927257 -181.0130742 187.08545951 -182.09313226 189.19919276 C-183.68475054 192.3152048 -185.26023241 195.4389268 -186.83263421 198.56467128 C-187.31075051 199.49307323 -187.78886682 200.42147517 -188.28147149 201.37801051 C-194.31212088 213.47665812 -195.4679425 224.96261437 -195.41222405 238.25754237 C-195.41629775 239.90473217 -195.42164408 241.55191924 -195.42815423 243.19910121 C-195.4417324 247.63673774 -195.43657054 252.07416309 -195.42701697 256.51180291 C-195.41937848 261.16945596 -195.42647684 265.82709192 -195.43117547 270.48474574 C-195.43661762 278.29706491 -195.42947858 286.10929869 -195.41515374 293.92160487 C-195.39879585 302.9467807 -195.40414465 311.97175352 -195.42063296 320.99692452 C-195.4342509 328.76281871 -195.43616701 336.52865185 -195.42831695 344.29455411 C-195.42364654 348.92575838 -195.42299889 353.5568672 -195.43292642 358.18806529 C-195.44159951 362.53681013 -195.43556802 366.88529294 -195.41824365 371.2340095 C-195.41428211 372.82792674 -195.41540717 374.42186609 -195.42203164 376.01577449 C-195.43024981 378.1941027 -195.41992374 380.37159506 -195.40499139 382.54987025 C-195.40386031 383.76764344 -195.40272923 384.98541663 -195.40156388 386.24009204 C-194.83208429 391.26098469 -193.18449844 394.49562326 -189.48888421 397.91257167 C-184.7590963 400.17315167 -180.76478708 400.12549528 -175.58654046 400.06467128 C-174.58824212 400.06612651 -173.58994378 400.06758174 -172.56139398 400.06908107 C-170.45679063 400.06742566 -168.35217473 400.05590473 -166.24767327 400.03513026 C-163.03458264 400.00617254 -159.82314309 400.01453024 -156.60997796 400.0275619 C-154.56049081 400.02132397 -152.51100885 400.0129326 -150.46154046 400.00217128 C-149.02693475 400.00657474 -149.02693475 400.00657474 -147.5633471 400.01106715 C-141.13269254 399.92055073 -136.92001044 399.03818964 -131.89283013 394.75113368 C-128.92035629 389.68899905 -129.47968372 384.62663692 -129.52574944 378.8622787 C-129.52023065 377.57051723 -129.51471185 376.27875575 -129.50902581 374.94784999 C-129.49708533 372.1409514 -129.49755723 369.33442698 -129.5076201 366.52752185 C-129.52323163 362.07413723 -129.50946337 357.62113333 -129.49158502 353.16777492 C-129.46076823 344.50034676 -129.45926087 335.83303519 -129.46123528 327.16556239 C-129.46262747 316.17368586 -129.45197193 305.18190151 -129.41265756 294.19009072 C-129.40027036 290.49628148 -129.39442892 286.80270393 -129.40416551 283.10888171 C-129.48125274 253.38700216 -123.77659332 231.24799305 -111.54941583 204.20380092 C-109.4885575 199.63232398 -107.47924469 195.04002159 -105.49279046 190.43576503 C-105.20182488 189.76136882 -104.91085931 189.08697261 -104.61107659 188.39214015 C-103.47074201 185.74606947 -102.33196711 183.0993421 -101.19664788 180.45111537 C-98.31215953 173.72453128 -95.3914275 167.06860588 -92.02404046 160.56857753 C-89.14904046 160.44357753 -89.14904046 160.44357753 -86.02404046 160.56857753 C-83.6002857 162.99233229 -83.77344755 163.55927413 -83.77070737 166.87404704 C-83.76509197 167.78349519 -83.75947658 168.69294334 -83.75369102 169.62995052 C-83.75767211 170.63556963 -83.76165321 171.64118873 -83.76575494 172.67728114 C-83.76207923 173.74056376 -83.75840353 174.80384638 -83.75461644 175.89934969 C-83.74458312 179.48608027 -83.74879784 183.07265744 -83.75280023 186.65939784 C-83.7484162 189.2213553 -83.74311523 191.78331133 -83.7369616 194.34526515 C-83.72543453 199.87444786 -83.71980779 205.40358824 -83.71908021 210.93278193 C-83.71775618 218.93366329 -83.70265824 226.93447446 -83.68358504 234.93533108 C-83.65271967 247.92391106 -83.62856609 260.91249283 -83.61071038 273.90109706 C-83.60910136 275.06786544 -83.60910136 275.06786544 -83.60745984 276.25820491 C-83.59564389 284.93329582 -83.58543876 293.60838744 -83.57701898 302.28348231 C-83.57394523 305.42717943 -83.57085641 308.57087654 -83.56774163 311.71457362 C-83.56659362 312.87810559 -83.56659362 312.87810559 -83.56542242 314.06514326 C-83.55234048 326.99938686 -83.52769879 339.93357983 -83.49399823 352.86778593 C-83.47370417 360.84778332 -83.4634194 368.82767239 -83.46598744 376.80769578 C-83.46714491 382.92376368 -83.45299581 389.03970753 -83.43317819 395.15574145 C-83.42756867 397.66558094 -83.4271026 400.1754379 -83.43211579 402.68527865 C-83.43823578 406.10769331 -83.42606334 409.52957145 -83.40930963 412.95193934 C-83.41862735 414.44698367 -83.41862735 414.44698367 -83.42813331 415.97223091 C-83.38131223 421.20985563 -83.17554685 425.16469049 -80.02404046 429.56857753 C-75.03902461 434.09659293 -70.70194669 434.1376884 -64.30748773 434.06978297 C-63.33470911 434.07531737 -62.36193049 434.08085177 -61.35967374 434.08655387 C-58.10300415 434.10015721 -54.84710133 434.0851924 -51.59044671 434.07028651 C-49.25449573 434.07406979 -46.91854698 434.07956989 -44.58260369 434.08665919 C-38.23968795 434.10062981 -31.89704297 434.0894325 -25.55414224 434.07294798 C-19.59105248 434.06050855 -13.62799038 434.06470792 -7.66489208 434.06807769 C4.15130909 434.07395415 15.96740365 434.05979318 27.78357673 434.03513026 C39.24520592 434.0112101 50.70669268 434.00412626 62.16834235 434.01462245 C74.65411954 434.02603604 87.13983086 434.02795628 99.62560725 434.01352435 C106.23320322 434.00598136 112.84074222 434.00209014 119.44834113 434.00802875 C125.66014911 434.01279842 131.87175975 434.00269692 138.08353019 433.98107409 C140.3643894 433.97550598 142.64526758 433.97504114 144.92612815 433.98002696 C148.03744057 433.98597554 151.14814883 433.97348226 154.25940681 433.95625758 C155.16388273 433.96226763 156.06835866 433.96827767 157.00024295 433.97446984 C162.07618797 433.92330422 165.57421586 433.38030477 169.97595954 430.56857753 C173.20359768 427.00704578 174.09960959 423.86522054 174.10903811 419.12888694 C174.11327916 418.21498094 174.11752021 417.30107495 174.12188977 416.35947484 C174.12150364 415.3540401 174.1211175 414.34860536 174.12071967 413.31270289 C174.12424652 412.24574359 174.12777336 411.17878428 174.13140708 410.07949287 C174.142124 406.48657601 174.14578021 402.89368564 174.14954352 399.30075526 C174.15584632 396.73216077 174.16261182 394.16356738 174.1698072 391.59497523 C174.18474915 386.05544768 174.19629201 380.51592149 174.205755 374.97638202 C174.21961947 366.96491636 174.2408053 358.95348233 174.26418353 350.94203938 C174.30210572 337.94166436 174.33707209 324.94128363 174.36878181 311.94089198 C174.3706823 311.16256265 174.37258279 310.38423332 174.37454087 309.58231825 C174.40138845 298.53001156 174.4252588 287.47770042 174.44792587 276.42538447 C174.45032183 275.25743569 174.45032183 275.25743569 174.45276618 274.06589198 C174.45435965 273.28820511 174.45595311 272.51051824 174.45759486 271.70926511 C174.48433265 258.75693493 174.51871762 245.80463858 174.55941993 232.85234481 C174.58423388 224.85770852 174.60253872 216.86310867 174.61257554 208.86843992 C174.62081837 202.74915407 174.63929213 196.62993921 174.66163611 190.5106895 C174.66914143 187.9943331 174.67319445 185.4779638 174.67363143 182.96159625 C174.67470582 179.54011913 174.68787985 176.11890164 174.70421576 172.69746852 C174.70159891 171.68980306 174.69898206 170.68213759 174.6962859 169.64393681 C174.7031347 168.73263857 174.70998349 167.82134032 174.71703982 166.88242698 C174.71877607 166.09195659 174.72051232 165.3014862 174.72230119 164.48706216 C174.97595954 162.56857753 174.97595954 162.56857753 176.97595954 160.56857753 C180.29236579 160.31857753 180.29236579 160.31857753 183.97595954 161.56857753 C186.24054392 164.61765806 187.5077961 168.05876518 188.91345954 171.56857753 C189.85128529 173.76467943 190.7942953 175.95857233 191.74158454 178.15060878 C192.50632087 179.93652431 192.50632087 179.93652431 193.28650641 181.75851893 C196.00603265 187.98425971 199.0910537 194.03782115 202.108711 200.12262416 C207.00506097 210.02653393 211.82036023 219.93590937 215.78845954 230.25607753 C216.23064826 231.39145961 216.23064826 231.39145961 216.68177009 232.5497787 C220.93001753 244.12953509 222.42061901 255.65269104 222.34485602 267.93014979 C222.34733226 269.30339807 222.35117893 270.67664444 222.3562696 272.04988551 C222.36452043 274.97445561 222.36387601 277.8988304 222.35608459 280.82340121 C222.34438315 285.45086557 222.3567582 290.07808467 222.37270331 294.70552516 C222.40868145 306.18454019 222.41512091 317.66354677 222.41260505 329.14261317 C222.41089335 338.09613111 222.41798891 347.04944526 222.45258361 356.00290602 C222.46935302 360.60128004 222.46760742 365.19915532 222.45176089 369.79752719 C222.44596519 372.65275945 222.45669933 375.50775466 222.47200751 378.36294436 C222.47750756 380.31444196 222.4631246 382.26596392 222.44814277 384.21741176 C222.4577201 385.38203441 222.46729743 386.54665706 222.47716498 387.7465713 C222.4769557 388.75618702 222.47674642 389.76580274 222.47653079 390.80601287 C223.11210161 394.32164047 224.5370982 396.00764732 226.97595954 398.56857753 C229.31514546 399.73817049 230.73896874 399.71340133 233.34632087 399.74557948 C234.25098594 399.75841472 235.15565101 399.77124995 236.08773017 399.78447413 C237.06791617 399.79186107 238.04810218 399.799248 239.05799079 399.80685878 C240.56748549 399.8189664 240.56748549 399.8189664 242.10747504 399.83131862 C244.24013265 399.8451647 246.37281248 399.8558845 248.50550056 399.86374354 C251.76496173 399.88095346 255.02340801 399.92483506 258.28260016 399.96896815 C260.35355624 399.9790952 262.42452095 399.98761126 264.49549079 399.99435878 C265.4696041 400.01186687 266.44371741 400.02937495 267.44734931 400.04741359 C271.8158201 400.03343267 274.28021242 399.99639582 278.06848884 397.6669662 C281.41061901 393.99032357 281.10889831 391.51035653 281.12985969 386.60223842 C281.13424194 385.8767792 281.13862419 385.15131997 281.14313924 384.40387714 C281.15655012 381.95991402 281.1627115 379.51598699 281.16883063 377.0719955 C281.17673051 375.32428265 281.18499938 373.57657144 281.19361091 371.82886195 C281.21986887 366.07284556 281.23515347 360.31682181 281.24939704 354.56076503 C281.25475729 352.57686936 281.2601348 350.59297374 281.26552939 348.60907817 C281.2871736 340.348076 281.3059046 332.0870758 281.31715178 323.82605243 C281.33334858 312.00792158 281.3664044 300.19012179 281.42355263 288.37211573 C281.46239254 280.05427215 281.48180169 271.73651653 281.48707235 263.4185847 C281.49070983 258.4570373 281.50255718 253.49584268 281.53517509 248.53439403 C281.56549947 243.85409251 281.57148174 239.17435259 281.55979133 234.49397349 C281.55957254 232.78813517 281.56771368 231.08226896 281.58544517 229.37652278 C281.73992152 213.64209175 278.16255006 200.73247366 270.78845954 186.75607753 C270.31142585 185.82722743 269.83439216 184.89837733 269.3429029 183.94138026 C267.9009416 181.14306443 266.44112118 178.35480306 264.97595954 175.56857753 C264.13729143 173.96187269 263.29874377 172.35510497 262.46033454 170.74826503 C260.84023916 167.65369715 259.21022048 164.56459964 257.57361579 161.47873378 C254.68131565 156.02242459 251.82850928 150.54574491 248.97595954 145.06857753 C244.92279869 137.29085573 240.85329854 129.52211178 236.76062751 121.76511073 C234.52983763 117.53334042 232.31176453 113.29536213 230.10877204 109.04904628 C208.62608561 65.67198248 208.62608561 65.67198248 169.97595954 38.56857753 C168.73817583 38.02256021 167.5006333 37.47599585 166.26331306 36.92892909 C162.174328 35.12641557 158.07562048 33.34664477 153.97595954 31.56857753 C153.2120893 31.23656337 152.44821906 30.90454921 151.66120124 30.56247401 C146.08289556 28.1378822 140.49986643 25.72444051 134.91345954 23.31857753 C133.75898322 22.82043544 133.75898322 22.82043544 132.58118415 22.31222987 C130.39002673 21.36816612 128.19702326 20.42854377 126.00330329 19.49045253 C125.0239305 19.06793208 125.0239305 19.06793208 124.02477241 18.63687587 C121.04385472 17.36795053 118.15731879 16.2154987 114.97595954 15.56857753 C114.90119391 16.24920253 114.82642829 16.92982753 114.74939704 17.63107753 C112.82023426 31.85392465 107.69157711 44.15282746 98.97595954 55.56857753 C98.42166266 56.30592128 97.86736579 57.04326503 97.29627204 57.80295253 C87.02751848 70.47921291 70.1308796 79.48815669 53.97595954 81.56857753 C39.91598758 82.43169915 26.92593556 82.65090872 13.97595954 76.56857753 C12.84029548 76.04908534 11.70463141 75.52959315 10.53455329 74.99435878 C2.94050425 71.21933324 -3.07594531 66.57809879 -9.02404046 60.56857753 C-9.72142327 59.90471034 -10.41880609 59.24084315 -11.13732171 58.55685878 C-22.3385773 47.13810308 -27.57053309 31.01124158 -30.02404046 15.56857753 C-31.77364466 15.56857753 -33.30447333 16.45262097 -34.90685296 17.10983729 Z " fill="#4E1A58" transform="translate(213.02404046058655,9.431422472000122)"/>
<path d="M0 0 C2.87109375 2.28515625 2.87109375 2.28515625 5.4375 5.0625 C6.30246094 5.98160156 7.16742188 6.90070313 8.05859375 7.84765625 C8.69925781 8.55792969 9.33992188 9.26820313 10 10 C10.103125 8.741875 10.20625 7.48375 10.3125 6.1875 C10.64065065 3.68202542 10.88788577 2.18882396 12.1875 0 C14.92103786 -1.50815882 16.93903917 -1.3826201 20 -1 C21.8125 0 21.8125 0 23 2 C23.53940483 4.68115931 23.77568114 7.2633099 24 10 C24.64066406 9.28972656 25.28132813 8.57945312 25.94140625 7.84765625 C27.23884766 6.46900391 27.23884766 6.46900391 28.5625 5.0625 C29.40941406 4.14597656 30.25632812 3.22945312 31.12890625 2.28515625 C34.52537237 -0.41815352 36.70635713 -0.84173255 41 -1 C43 0 43 0 44 2 C44.14983764 4.9602071 44.17066777 6.35681516 43 9 C41.13232422 10.69042969 41.13232422 10.69042969 38.74609375 12.3984375 C28.80554044 19.62718966 28.80554044 19.62718966 23.45935059 30.33551025 C21.69412646 43.05793658 22.89043104 56.25927337 24 69 C43.0562525 54.6554358 43.0562525 54.6554358 53.72377014 34.5075531 C54.45628427 27.22467916 53.92821337 19.97622435 52.8984375 12.74194336 C53 10 53 10 54.8125 8.10766602 C57 7 57 7 59.625 7.1875 C62 8 62 8 64 10 C64.22705078 11.97119141 64.22705078 11.97119141 64.1953125 14.3515625 C64.18564453 15.62773437 64.18564453 15.62773437 64.17578125 16.9296875 C64.15064453 18.26386719 64.15064453 18.26386719 64.125 19.625 C64.11597656 20.5221875 64.10695313 21.419375 64.09765625 22.34375 C64.0740497 24.56276586 64.0411231 26.78125077 64 29 C64.66 29 65.32 29 66 29 C66.37125 28.1028125 66.37125 28.1028125 66.75 27.1875 C68.22418254 24.60768056 69.38713283 23.4184136 72 22 C74.86816781 22.13991062 76.49145296 22.66096864 78.875 24.25 C80 26 80 26 79.9375 28.375 C78.80825638 31.53688214 77.29585645 33.56500073 75 36 C74.34 36 73.68 36 73 36 C73 36.66 73 37.32 73 38 C73.83978394 37.97643433 73.83978394 37.97643433 74.6965332 37.95239258 C77.2350859 37.89000152 79.77347729 37.85099782 82.3125 37.8125 C83.19357422 37.78736328 84.07464844 37.76222656 84.98242188 37.73632812 C85.82998047 37.72666016 86.67753906 37.71699219 87.55078125 37.70703125 C88.72120972 37.68346558 88.72120972 37.68346558 89.9152832 37.65942383 C92.55458141 38.0906009 93.44206972 38.85310753 95 41 C94.875 44.0625 94.875 44.0625 94 47 C90.33363606 49.44424263 89.38186723 49.01703647 85.12890625 48.4296875 C73.76021778 47.43060246 63.98929967 46.88081169 54.7988739 54.47723389 C46.84823322 61.64619099 39.77921598 69.73106356 33 78 C58.00621869 81.36008445 58.00621869 81.36008445 80.70703125 73.8046875 C84.7679961 69.8643715 88.02417921 65.45750732 91.30932617 60.86816406 C93.16948057 58.81272703 94.13678778 58.26851088 96.83984375 57.83203125 C100 58 100 58 101.9375 59.125 C103.38351242 61.67678662 103.36585584 63.085769 103 66 C101.1015625 68.60546875 101.1015625 68.60546875 98.625 71.1875 C97.40683594 72.47720703 97.40683594 72.47720703 96.1640625 73.79296875 C94.78264368 75.20181646 93.39520067 76.60479933 92 78 C93.258125 78.103125 94.51625 78.20625 95.8125 78.3125 C98.31797458 78.64065065 99.81117604 78.88788577 102 80.1875 C103.50815882 82.92103786 103.3826201 84.93903917 103 88 C102 89.8125 102 89.8125 100 91 C97.31884069 91.53940483 94.7366901 91.77568114 92 92 C92.71027344 92.64066406 93.42054688 93.28132813 94.15234375 93.94140625 C95.07144531 94.80636719 95.99054688 95.67132813 96.9375 96.5625 C97.85402344 97.40941406 98.77054688 98.25632812 99.71484375 99.12890625 C102.41815352 102.52537237 102.84173255 104.70635713 103 109 C102 111 102 111 100 112 C97.0397929 112.14983764 95.64318484 112.17066777 93 111 C91.30957031 109.13232422 91.30957031 109.13232422 89.6015625 106.74609375 C82.37281034 96.80554044 82.37281034 96.80554044 71.66448975 91.45935059 C58.94206342 89.69412646 45.74072663 90.89043104 33 92 C48.01190134 111.84707511 48.01190134 111.84707511 69.3984375 121.94140625 C75.69653174 122.36658835 82.00334772 121.82521826 88.23632812 120.8984375 C91 121 91 121 93.38085938 122.8125 C95 125 95 125 94.875 127.625 C94 130 94 130 92 132 C90.02880859 132.22705078 90.02880859 132.22705078 87.6484375 132.1953125 C86.79765625 132.18886719 85.946875 132.18242187 85.0703125 132.17578125 C84.18085938 132.15902344 83.29140625 132.14226562 82.375 132.125 C81.4778125 132.11597656 80.580625 132.10695313 79.65625 132.09765625 C77.43723414 132.0740497 75.21874923 132.0411231 73 132 C73 132.66 73 133.32 73 134 C73.598125 134.2475 74.19625 134.495 74.8125 134.75 C77.39231944 136.22418254 78.5815864 137.38713283 80 140 C79.86008938 142.86816781 79.33903136 144.49145296 77.75 146.875 C76 148 76 148 73.625 147.9375 C70.46311786 146.80825638 68.43499927 145.29585645 66 143 C66 142.34 66 141.68 66 141 C65.34 141 64.68 141 64 141 C64.01571045 141.55985596 64.0314209 142.11971191 64.04760742 142.6965332 C64.10999848 145.2350859 64.14900218 147.77347729 64.1875 150.3125 C64.21263672 151.19357422 64.23777344 152.07464844 64.26367188 152.98242188 C64.27817383 154.25375977 64.27817383 154.25375977 64.29296875 155.55078125 C64.3086792 156.33106689 64.32438965 157.11135254 64.34057617 157.9152832 C63.9093991 160.55458141 63.14689247 161.44206972 61 163 C57.9375 162.875 57.9375 162.875 55 162 C52.55575737 158.33363606 52.98296353 157.38186723 53.5703125 153.12890625 C54.56939754 141.76021778 55.11918831 131.98929967 47.52276611 122.7988739 C40.35380901 114.84823322 32.26893644 107.77921598 24 101 C20.63991555 126.00621869 20.63991555 126.00621869 28.1953125 148.70703125 C32.1356285 152.7679961 36.54249268 156.02417921 41.13183594 159.30932617 C43.18727297 161.16948057 43.73148912 162.13678778 44.16796875 164.83984375 C44 168 44 168 42.875 169.9375 C40.32321338 171.38351242 38.914231 171.36585584 36 171 C33.39453125 169.1015625 33.39453125 169.1015625 30.8125 166.625 C29.52279297 165.40683594 29.52279297 165.40683594 28.20703125 164.1640625 C26.79818354 162.78264368 25.39520067 161.39520067 24 160 C23.87882812 160.62648438 23.75765625 161.25296875 23.6328125 161.8984375 C23.46523438 162.71570313 23.29765625 163.53296875 23.125 164.375 C22.96257812 165.18710937 22.80015625 165.99921875 22.6328125 166.8359375 C22 169 22 169 20 171 C17.0625 171.375 17.0625 171.375 14 171 C10.52699062 168.0060264 10.42230297 164.39195091 10 160 C9.38511719 160.62648438 8.77023438 161.25296875 8.13671875 161.8984375 C7.32847656 162.71570313 6.52023438 163.53296875 5.6875 164.375 C4.88699219 165.18710937 4.08648437 165.99921875 3.26171875 166.8359375 C0.74956258 169.23962406 -0.98851724 170.87356465 -4.5 171.3125 C-7 171 -7 171 -8.875 169.9375 C-10.28431271 167.51035033 -10.30373905 165.68064984 -9.86035156 162.93481445 C-8.68361208 160.2884863 -7.09232588 159.28104406 -4.74609375 157.6015625 C5.19445956 150.37281034 5.19445956 150.37281034 10.54064941 139.66448975 C12.30587354 126.94206342 11.10956896 113.74072663 10 101 C-9.84707511 116.01190134 -9.84707511 116.01190134 -19.94140625 137.3984375 C-20.36658835 143.69653174 -19.82521826 150.00334772 -18.8984375 156.23632812 C-19 159 -19 159 -20.8125 161.38085938 C-23 163 -23 163 -25.625 162.875 C-28 162 -28 162 -30 160 C-30.22705078 158.02880859 -30.22705078 158.02880859 -30.1953125 155.6484375 C-30.18886719 154.79765625 -30.18242187 153.946875 -30.17578125 153.0703125 C-30.15902344 152.18085938 -30.14226562 151.29140625 -30.125 150.375 C-30.11597656 149.4778125 -30.10695312 148.580625 -30.09765625 147.65625 C-30.0740497 145.43723414 -30.0411231 143.21874923 -30 141 C-30.66 141 -31.32 141 -32 141 C-32.2475 141.598125 -32.495 142.19625 -32.75 142.8125 C-34.22418254 145.39231944 -35.38713283 146.5815864 -38 148 C-40.86816781 147.86008938 -42.49145296 147.33903136 -44.875 145.75 C-46 144 -46 144 -45.9375 141.625 C-44.80825638 138.46311786 -43.29585645 136.43499927 -41 134 C-40.34 134 -39.68 134 -39 134 C-39 133.34 -39 132.68 -39 132 C-39.83978394 132.02356567 -39.83978394 132.02356567 -40.6965332 132.04760742 C-43.2350859 132.10999848 -45.77347729 132.14900218 -48.3125 132.1875 C-49.19357422 132.21263672 -50.07464844 132.23777344 -50.98242188 132.26367188 C-52.25375977 132.27817383 -52.25375977 132.27817383 -53.55078125 132.29296875 C-54.72120972 132.31653442 -54.72120972 132.31653442 -55.9152832 132.34057617 C-58.55427236 131.90944959 -59.44528929 131.14937109 -61 129 C-60.77669287 125.35265021 -60.61627165 123.61627165 -58 121 C-55.37158203 121.12548828 -55.37158203 121.12548828 -52.0078125 121.5703125 C-40.48283574 122.54390903 -30.12219925 123.23538402 -20.73474121 115.52276611 C-12.78334711 108.37506493 -5.73926949 100.28297624 1 92 C-24.00621869 88.63991555 -24.00621869 88.63991555 -46.70703125 96.1953125 C-50.76812287 100.1357515 -54.02445195 104.54273776 -57.30957031 109.13232422 C-59.16973249 111.1875294 -60.13271557 111.72811231 -62.8359375 112.16015625 C-66 112 -66 112 -68 111 C-69.61436938 107.77126125 -68.81519739 105.44556762 -68 102 C-65.71484375 99.12890625 -65.71484375 99.12890625 -62.9375 96.5625 C-62.01839844 95.69753906 -61.09929687 94.83257812 -60.15234375 93.94140625 C-59.44207031 93.30074219 -58.73179687 92.66007812 -58 92 C-59.258125 91.896875 -60.51625 91.79375 -61.8125 91.6875 C-64.31797458 91.35934935 -65.81117604 91.11211423 -68 89.8125 C-69.50815882 87.07896214 -69.3826201 85.06096083 -69 82 C-68 80.1875 -68 80.1875 -66 79 C-63.31884069 78.46059517 -60.7366901 78.22431886 -58 78 C-58.62648437 77.38511719 -59.25296875 76.77023438 -59.8984375 76.13671875 C-61.12433594 74.92435547 -61.12433594 74.92435547 -62.375 73.6875 C-63.59316406 72.48673828 -63.59316406 72.48673828 -64.8359375 71.26171875 C-67.23962406 68.74956258 -68.87356465 67.01148276 -69.3125 63.5 C-69 61 -69 61 -67.9375 59.125 C-65.51035033 57.71568729 -63.68064984 57.69626095 -60.93481445 58.13964844 C-58.2884863 59.31638792 -57.28104406 60.90767412 -55.6015625 63.25390625 C-48.37281034 73.19445956 -48.37281034 73.19445956 -37.66448975 78.54064941 C-24.94206342 80.30587354 -11.74072663 79.10956896 1 78 C-14.01190134 58.15292489 -14.01190134 58.15292489 -35.3984375 48.05859375 C-41.69653174 47.63341165 -48.00334772 48.17478174 -54.23632812 49.1015625 C-57 49 -57 49 -59.38085938 47.1875 C-61 45 -61 45 -60.875 42.375 C-60 40 -60 40 -58 38 C-56.02880859 37.77294922 -56.02880859 37.77294922 -53.6484375 37.8046875 C-52.79765625 37.81113281 -51.946875 37.81757813 -51.0703125 37.82421875 C-50.18085938 37.84097656 -49.29140625 37.85773438 -48.375 37.875 C-47.02921875 37.88853516 -47.02921875 37.88853516 -45.65625 37.90234375 C-43.43723414 37.9259503 -41.21874923 37.9588769 -39 38 C-39 37.34 -39 36.68 -39 36 C-39.598125 35.7525 -40.19625 35.505 -40.8125 35.25 C-43.39231944 33.77581746 -44.5815864 32.61286717 -46 30 C-45.86008938 27.13183219 -45.33903136 25.50854704 -43.75 23.125 C-42 22 -42 22 -39.625 22.0625 C-36.46311786 23.19174362 -34.43499927 24.70414355 -32 27 C-32 27.66 -32 28.32 -32 29 C-31.34 29 -30.68 29 -30 29 C-30.01571045 28.44014404 -30.0314209 27.88028809 -30.04760742 27.3034668 C-30.10999848 24.7649141 -30.14900218 22.22652271 -30.1875 19.6875 C-30.21263672 18.80642578 -30.23777344 17.92535156 -30.26367188 17.01757812 C-30.27333984 16.17001953 -30.28300781 15.32246094 -30.29296875 14.44921875 C-30.3086792 13.66893311 -30.32438965 12.88864746 -30.34057617 12.0847168 C-29.90944959 9.44572764 -29.14937109 8.55471071 -27 7 C-23.35265021 7.22330713 -21.61627165 7.38372835 -19 10 C-19.12548828 12.62841797 -19.12548828 12.62841797 -19.5703125 15.9921875 C-20.54390903 27.51716426 -21.23538402 37.87780075 -13.52276611 47.26525879 C-6.37506493 55.21665289 1.71702376 62.26073051 10 69 C13.36008445 43.99378131 13.36008445 43.99378131 5.8046875 21.29296875 C1.8642485 17.23187713 -2.54273776 13.97554805 -7.13232422 10.69042969 C-9.1875294 8.83026751 -9.72811231 7.86728443 -10.16015625 5.1640625 C-10 2 -10 2 -9 0 C-5.77126125 -1.61436938 -3.44556762 -0.81519739 0 0 Z " fill="#521E56" transform="translate(239,179)"/>
<path d="M0 0 C80.85 0 161.7 0 245 0 C245 3.63 245 7.26 245 11 C246.98 11.495 246.98 11.495 249 12 C251.642294 14.642294 251.28928575 16.63161896 251.32226562 20.23242188 C251.31904297 21.04259766 251.31582031 21.85277344 251.3125 22.6875 C251.32861328 23.47833984 251.34472656 24.26917969 251.36132812 25.08398438 C251.36687529 31.80159719 250.12204183 36.54289893 245.625 41.75 C239.87791236 46.67607512 236.08612727 47.43730351 228.70741272 47.38095093 C227.29852906 47.38797089 227.29852906 47.38797089 225.86118311 47.39513266 C222.7120809 47.40710411 219.56341213 47.39761684 216.41430664 47.38818359 C214.15732062 47.39224836 211.90033658 47.3975897 209.64335632 47.40411377 C203.51116419 47.41780519 197.37912327 47.4124809 191.24692845 47.40297651 C184.83286328 47.39538849 178.41881116 47.40242323 172.00474548 47.40713501 C160.54138453 47.41294536 149.07810741 47.40361328 137.61476063 47.388357 C127.22466632 47.37495703 116.83467257 47.37727923 106.44458008 47.39111328 C94.37595259 47.40717475 82.30740105 47.41313996 70.23875898 47.40427649 C63.85135352 47.39959765 57.46401731 47.3989809 51.07661629 47.40888596 C45.07084441 47.41754833 39.06526253 47.41154681 33.05951118 47.39420319 C30.85443945 47.3902343 28.64935174 47.39137923 26.44428635 47.39799118 C23.43583156 47.40618076 20.42798678 47.39591592 17.41957092 47.38095093 C16.54554046 47.38764309 15.67151 47.39433526 14.77099377 47.40123022 C8.94484489 47.34496243 4.72143775 46.34927532 0.171875 42.421875 C-5.98135907 35.18675363 -6.22540964 28.48672607 -6.265625 19.20703125 C-6.01334643 16.16113851 -5.83061327 14.4273005 -4 12 C-2.68 11.67 -1.36 11.34 0 11 C0 7.37 0 3.74 0 0 Z " fill="#F1F0F1" transform="translate(136,454)"/>
<path d="M0 0 C40.59 0 81.18 0 123 0 C123 14.99244398 116.31040722 29.10023159 106.61328125 40.39453125 C93.4678273 53.50068638 77.33507765 59.41252335 59.03491211 59.44116211 C41.96664934 58.98999522 27.81680083 50.97594966 16 39 C5.6399086 27.51118269 1.51981985 15.19819847 0 0 Z " fill="#B3A4B1" transform="translate(194,22)"/>
<path d="M0 0 C2.89136054 2.89136054 2.26764108 5.93737954 2.3125 9.8125 C2.30927734 10.52470703 2.30605469 11.23691406 2.30273438 11.97070312 C2.40807716 15.64410783 2.90621897 17.85373247 4.8984375 20.9609375 C9.31440308 23.86412897 13.12991856 23.77953658 18.3125 23.8125 C19.70952148 23.85020508 19.70952148 23.85020508 21.13476562 23.88867188 C23.42360186 23.94735998 25.71053426 23.98377168 28 24 C27.97905273 23.41508789 27.95810547 22.83017578 27.93652344 22.22753906 C27.85319885 19.56853535 27.80129103 16.90980645 27.75 14.25 C27.71648437 13.32960938 27.68296875 12.40921875 27.6484375 11.4609375 C27.54978717 4.65406457 27.54978717 4.65406457 29.8203125 1.35546875 C32 0 32 0 35.125 0.0625 C38 1 38 1 40 4 C40.22705078 6.0847168 40.22705078 6.0847168 40.1953125 8.44921875 C40.19031738 9.21322998 40.18532227 9.97724121 40.18017578 10.7644043 C40.16196777 11.72902588 40.14375977 12.69364746 40.125 13.6875 C40.08375 16.760625 40.0425 19.83375 40 23 C47.26 23 54.52 23 62 23 C61.84201223 16.55242064 61.84201223 16.55242064 61.63964844 10.10620117 C61.6296582 9.30158447 61.61966797 8.49696777 61.609375 7.66796875 C61.5779541 6.43469849 61.5779541 6.43469849 61.54589844 5.17651367 C62 3 62 3 63.86035156 1.1965332 C66 0 66 0 68.625 0.1875 C71 1 71 1 73 3 C73.22705078 5.15478516 73.22705078 5.15478516 73.1953125 7.7890625 C73.19031738 8.63678223 73.18532227 9.48450195 73.18017578 10.35791016 C73.16196777 11.4360498 73.14375977 12.51418945 73.125 13.625 C73.08375 17.04875 73.0425 20.4725 73 24 C80.59 24 88.18 24 96 24 C95.8814978 17.22363542 95.8814978 17.22363542 95.72973633 10.44799805 C95.72224365 9.60277588 95.71475098 8.75755371 95.70703125 7.88671875 C95.6913208 7.02264404 95.67561035 6.15856934 95.65942383 5.26831055 C96.07363394 2.50958214 96.78513785 1.64703342 99 0 C101.5 -0.375 101.5 -0.375 104 0 C106.21486215 1.64703342 106.92636606 2.50958214 107.34057617 5.26831055 C107.32486572 6.13238525 107.30915527 6.99645996 107.29296875 7.88671875 C107.28172974 9.154552 107.28172974 9.154552 107.27026367 10.44799805 C107.24295166 11.51703369 107.21563965 12.58606934 107.1875 13.6875 C107.0946875 18.7921875 107.0946875 18.7921875 107 24 C114.59 24 122.18 24 130 24 C129.8814978 17.22363542 129.8814978 17.22363542 129.72973633 10.44799805 C129.72224365 9.60277588 129.71475098 8.75755371 129.70703125 7.88671875 C129.68346558 6.59060669 129.68346558 6.59060669 129.65942383 5.26831055 C130.07363394 2.50958214 130.78513785 1.64703342 133 0 C135.5 -0.375 135.5 -0.375 138 0 C140.21486215 1.64703342 140.92636606 2.50958214 141.34057617 5.26831055 C141.32486572 6.13238525 141.30915527 6.99645996 141.29296875 7.88671875 C141.28547607 8.73194092 141.2779834 9.57716309 141.27026367 10.44799805 C141.24295166 11.51703369 141.21563965 12.58606934 141.1875 13.6875 C141.125625 17.090625 141.06375 20.49375 141 24 C148.59 24 156.18 24 164 24 C163.8814978 17.22363542 163.8814978 17.22363542 163.72973633 10.44799805 C163.72224365 9.60277588 163.71475098 8.75755371 163.70703125 7.88671875 C163.68346558 6.59060669 163.68346558 6.59060669 163.65942383 5.26831055 C164.07363394 2.50958214 164.78513785 1.64703342 167 0 C169.5 -0.375 169.5 -0.375 172 0 C174.21486215 1.64703342 174.92636606 2.50958214 175.34057617 5.26831055 C175.32486572 6.13238525 175.30915527 6.99645996 175.29296875 7.88671875 C175.28547607 8.73194092 175.2779834 9.57716309 175.27026367 10.44799805 C175.24295166 11.51703369 175.21563965 12.58606934 175.1875 13.6875 C175.125625 17.090625 175.06375 20.49375 175 24 C182.59 24 190.18 24 198 24 C197.8814978 17.22363542 197.8814978 17.22363542 197.72973633 10.44799805 C197.72224365 9.60277588 197.71475098 8.75755371 197.70703125 7.88671875 C197.68346558 6.59060669 197.68346558 6.59060669 197.65942383 5.26831055 C198.07363394 2.50958214 198.78513785 1.64703342 201 0 C203.5 -0.375 203.5 -0.375 206 0 C208.21486215 1.64703342 208.92636606 2.50958214 209.34057617 5.26831055 C209.32486572 6.13238525 209.30915527 6.99645996 209.29296875 7.88671875 C209.28330078 8.82451172 209.27363281 9.76230469 209.26367188 10.72851562 C209.23853516 11.70498047 209.21339844 12.68144531 209.1875 13.6875 C209.17396484 14.67556641 209.16042969 15.66363281 209.14648438 16.68164062 C209.11112203 19.12164231 209.06177033 21.56054719 209 24 C212.25031784 23.86076462 215.50016061 23.71245815 218.75 23.5625 C219.67039062 23.52318359 220.59078125 23.48386719 221.5390625 23.44335938 C222.42851562 23.40146484 223.31796875 23.35957031 224.234375 23.31640625 C225.05131836 23.27974854 225.86826172 23.24309082 226.70996094 23.20532227 C228.95588179 23.00395559 230.88764449 22.79929335 233 22 C234.42344151 17.72967548 234.28142934 13.36380044 234.34179688 8.89257812 C234.48161605 5.38409241 234.731798 3.35278022 236.8828125 0.5234375 C239 -1 239 -1 241.5625 -1.4375 C244.46053417 -0.91734002 245.19020309 -0.27013301 247 2 C247.38818359 3.88183594 247.38818359 3.88183594 247.3984375 5.984375 C247.40230469 6.75523437 247.40617187 7.52609375 247.41015625 8.3203125 C247.39275391 9.52300781 247.39275391 9.52300781 247.375 10.75 C247.38660156 11.53632813 247.39820313 12.32265625 247.41015625 13.1328125 C247.37689785 19.80666566 246.08847772 24.58176265 241.625 29.75 C235.87791236 34.67607512 232.08612727 35.43730351 224.70741272 35.38095093 C223.29852906 35.38797089 223.29852906 35.38797089 221.86118311 35.39513266 C218.7120809 35.40710411 215.56341213 35.39761684 212.41430664 35.38818359 C210.15732062 35.39224836 207.90033658 35.3975897 205.64335632 35.40411377 C199.51116419 35.41780519 193.37912327 35.4124809 187.24692845 35.40297651 C180.83286328 35.39538849 174.41881116 35.40242323 168.00474548 35.40713501 C156.54138453 35.41294536 145.07810741 35.40361328 133.61476063 35.388357 C123.22466632 35.37495703 112.83467257 35.37727923 102.44458008 35.39111328 C90.37595259 35.40717475 78.30740105 35.41313996 66.23875898 35.40427649 C59.85135352 35.39959765 53.46401731 35.3989809 47.07661629 35.40888596 C41.07084441 35.41754833 35.06526253 35.41154681 29.05951118 35.39420319 C26.85443945 35.3902343 24.64935174 35.39137923 22.44428635 35.39799118 C19.43583156 35.40618076 16.42798678 35.39591592 13.41957092 35.38095093 C12.54554046 35.38764309 11.67151 35.39433526 10.77099377 35.40123022 C4.94484489 35.34496243 0.72143775 34.34927532 -3.828125 30.421875 C-9.98135907 23.18675363 -10.22540964 16.48672607 -10.265625 7.20703125 C-10.0149476 4.18047025 -9.68632788 2.4879274 -8 0 C-5.09288879 -1.4535556 -3.10402897 -0.71133997 0 0 Z " fill="#4E1B59" transform="translate(140,466)"/>
<path d="M0 0 C0 3.96 0 7.92 0 12 C1.65 12.66 3.3 13.32 5 14 C6.96624161 17.93248322 6.32860277 22.70382306 6 27 C4.23692004 32.28923987 1.38844888 34.80008936 -3 38 C-5.84696173 38.94898724 -7.67893506 39.14171764 -10.63574219 39.17700195 C-12.04300568 39.19625481 -12.04300568 39.19625481 -13.47869873 39.21589661 C-14.99744598 39.22697701 -14.99744598 39.22697701 -16.546875 39.23828125 C-18.1137204 39.25038887 -18.1137204 39.25038887 -19.71221924 39.26274109 C-21.92466576 39.27657636 -24.13713358 39.287301 -26.34960938 39.29516602 C-29.72307102 39.31236273 -33.09554852 39.35625297 -36.46875 39.40039062 C-38.61978447 39.41051925 -40.77082726 39.41903482 -42.921875 39.42578125 C-43.92627625 39.44328934 -44.93067749 39.46079742 -45.96551514 39.47883606 C-52.21006381 39.45962155 -55.9064932 38.68299075 -61 35 C-65.28390288 30.26515997 -66.29170295 25.25077759 -66 19 C-64.66789973 15.89176603 -64.00996617 14.50498309 -61 13 C-60.5316735 10.41394668 -60.5316735 10.41394668 -60.375 7.4375 C-60.30023438 6.42558594 -60.22546875 5.41367187 -60.1484375 4.37109375 C-60.09945313 3.58863281 -60.05046875 2.80617188 -60 2 C-59.33458694 2.00444122 -58.66917389 2.00888245 -57.9835968 2.01345825 C-51.0568761 2.05771137 -44.13019557 2.08787475 -37.20336914 2.10986328 C-34.61839161 2.11991967 -32.03342545 2.13356649 -29.44848633 2.15087891 C-25.73255608 2.17514271 -22.01677627 2.18648684 -18.30078125 2.1953125 C-16.56771477 2.21079636 -16.56771477 2.21079636 -14.79963684 2.22659302 C-13.71889389 2.22674408 -12.63815094 2.22689514 -11.5246582 2.22705078 C-10.57645706 2.231492 -9.62825592 2.23593323 -8.65132141 2.24050903 C-5.63842287 1.96720029 -2.86065736 0 0 0 Z " fill="#F3F2F3" transform="translate(497,417)"/>
<path d="M0 0 C0 3.96 0 7.92 0 12 C1.32 12.33 2.64 12.66 4 13 C6.71792647 17.0768897 6.62732506 20.21374215 6 25 C4.27633186 30.31076131 1.7609718 33.948095 -3 37 C-5.85821401 37.952738 -7.68307548 38.13665183 -10.65161133 38.16113281 C-11.59301468 38.17074036 -12.53441803 38.1803479 -13.50434875 38.19024658 C-15.02780159 38.1966214 -15.02780159 38.1966214 -16.58203125 38.203125 C-17.62896652 38.20882507 -18.67590179 38.21452515 -19.75456238 38.22039795 C-21.97121164 38.22984766 -24.18787496 38.23638182 -26.40454102 38.24023438 C-29.7888249 38.24993216 -33.17249949 38.28095313 -36.55664062 38.3125 C-38.7109339 38.31903098 -40.86523151 38.32428108 -43.01953125 38.328125 C-44.02909378 38.3404718 -45.03865631 38.3528186 -46.07881165 38.36553955 C-52.23866745 38.34609785 -56.89033603 37.83636809 -61.64453125 33.5 C-66.04868333 27.84383145 -66.86411237 23.03963547 -66 16 C-64.125 13.375 -64.125 13.375 -62 12 C-61.34 12 -60.68 12 -60 12 C-60 8.37 -60 4.74 -60 1 C-57.51654053 1.00785522 -57.51654053 1.00785522 -54.98291016 1.01586914 C-48.85905495 1.03392538 -42.7352021 1.04543432 -36.61132812 1.05493164 C-33.95735275 1.05997042 -31.30338016 1.06680151 -28.64941406 1.07543945 C-24.84178989 1.08752489 -21.03420231 1.09323275 -17.2265625 1.09765625 C-16.03382721 1.10281754 -14.84109192 1.10797882 -13.61221313 1.11329651 C-11.96072769 1.11340981 -11.96072769 1.11340981 -10.27587891 1.11352539 C-9.30325104 1.115746 -8.33062317 1.11796661 -7.32852173 1.12025452 C-4.51524117 0.97496504 -2.90695147 0 0 0 Z " fill="#F3F2F3" transform="translate(82,418)"/>
<path d="M0 0 C5.75 1.75 5.75 1.75 8 4 C8.37890625 5.91015625 8.37890625 5.91015625 8.5625 8.0625 C8.55913448 11.76736617 8.55913448 11.76736617 10 13 C11.37609882 13.09795311 12.75713882 13.12798088 14.13671875 13.12939453 C15.45313354 13.13412277 15.45313354 13.13412277 16.79614258 13.13894653 C17.75029053 13.1369223 18.70443848 13.13489807 19.6875 13.1328125 C21.14675903 13.13424759 21.14675903 13.13424759 22.63549805 13.13571167 C24.696778 13.13639358 26.75806008 13.13453853 28.81933594 13.13037109 C31.98637688 13.125023 35.153276 13.13031572 38.3203125 13.13671875 C40.31770865 13.13605797 42.31510471 13.13477681 44.3125 13.1328125 C45.26664795 13.13483673 46.2207959 13.13686096 47.20385742 13.13894653 C48.08146729 13.13579437 48.95907715 13.13264221 49.86328125 13.12939453 C50.63969971 13.12859894 51.41611816 13.12780334 52.21606445 13.12698364 C54.02433662 13.19403542 54.02433662 13.19403542 55 12 C55.24261665 9.74456376 55.38332133 7.49054477 55.5234375 5.2265625 C56.09496328 2.5563191 56.83384604 1.627182 59 0 C62 -0.4375 62 -0.4375 65 0 C67.29088737 1.75634699 67.8667001 3.16235003 68.31640625 5.98828125 C68.62701242 11.78960299 67.3366718 16.24255181 64 21 C59.96468421 24.83847111 56.85269156 26.11573981 51.34838867 26.16113281 C49.93628365 26.17554413 49.93628365 26.17554413 48.49565125 26.19024658 C46.97219841 26.1966214 46.97219841 26.1966214 45.41796875 26.203125 C44.37103348 26.20882507 43.32409821 26.21452515 42.24543762 26.22039795 C40.02878836 26.22984766 37.81212504 26.23638182 35.59545898 26.24023438 C32.2111751 26.24993216 28.82750051 26.28095313 25.44335938 26.3125 C23.2890661 26.31903098 21.13476849 26.32428108 18.98046875 26.328125 C17.97090622 26.3404718 16.96134369 26.3528186 15.92118835 26.36553955 C9.76133255 26.34609785 5.10966397 25.83636809 0.35546875 21.5 C-3.63677477 16.37283776 -4.32854776 12.72673876 -4.30078125 6.38671875 C-4 4 -4 4 -2 1.375 C-1.34 0.92125 -0.68 0.4675 0 0 Z " fill="#4D1A58" transform="translate(20,430)"/>
<path d="M0 0 C2.375 1.1875 2.375 1.1875 3.375 3.1875 C3.90279267 9.3992137 4.11903643 14.945849 0.375 20.1875 C-3.80616555 24.3800895 -7.32406959 26.29365817 -13.26074219 26.36450195 C-14.66800568 26.38375481 -14.66800568 26.38375481 -16.10369873 26.40339661 C-17.62244598 26.41447701 -17.62244598 26.41447701 -19.171875 26.42578125 C-20.7387204 26.43788887 -20.7387204 26.43788887 -22.33721924 26.45024109 C-24.54966576 26.46407636 -26.76213358 26.474801 -28.97460938 26.48266602 C-32.34807102 26.49986273 -35.72054852 26.54375297 -39.09375 26.58789062 C-41.24478447 26.59801925 -43.39582726 26.60653482 -45.546875 26.61328125 C-46.55127625 26.63078934 -47.55567749 26.64829742 -48.59051514 26.66633606 C-54.83506381 26.64712155 -58.5314932 25.87049075 -63.625 22.1875 C-67.91410307 17.44691239 -68.90648076 12.44262789 -68.625 6.1875 C-67.375 3.125 -67.375 3.125 -65.625 1.1875 C-62.625 0.1875 -62.625 0.1875 -60.0625 0.5 C-57.00097865 2.61951478 -57.05370492 3.67786885 -56.375 7.25 C-56.24609375 8.14847656 -56.1171875 9.04695313 -55.984375 9.97265625 C-55.8516848 12.15572394 -55.8516848 12.15572394 -54.625 13.1875 C-53.24890118 13.28545311 -51.86786118 13.31548088 -50.48828125 13.31689453 C-49.17186646 13.32162277 -49.17186646 13.32162277 -47.82885742 13.32644653 C-46.87470947 13.3244223 -45.92056152 13.32239807 -44.9375 13.3203125 C-43.47824097 13.32174759 -43.47824097 13.32174759 -41.98950195 13.32321167 C-39.928222 13.32389358 -37.86693992 13.32203853 -35.80566406 13.31787109 C-32.63862312 13.312523 -29.471724 13.31781572 -26.3046875 13.32421875 C-24.30729135 13.32355797 -22.30989529 13.32227681 -20.3125 13.3203125 C-19.35835205 13.32233673 -18.4042041 13.32436096 -17.42114258 13.32644653 C-16.54353271 13.32329437 -15.66592285 13.32014221 -14.76171875 13.31689453 C-13.98530029 13.31609894 -13.20888184 13.31530334 -12.40893555 13.31448364 C-10.60066338 13.38153542 -10.60066338 13.38153542 -9.625 12.1875 C-9.38238335 9.93206376 -9.24167867 7.67804477 -9.1015625 5.4140625 C-8.52908035 2.73935081 -7.76938806 1.84406519 -5.625 0.1875 C-2.625 -0.8125 -2.625 -0.8125 0 0 Z " fill="#4E1A58" transform="translate(499.625,429.8125)"/>
<path d="M0 0 C0.92783798 -0.01268417 1.85567596 -0.02536835 2.81163025 -0.03843689 C4.31168358 -0.03403343 4.31168358 -0.03403343 5.84204102 -0.02954102 C7.38626488 -0.03740379 7.38626488 -0.03740379 8.96168518 -0.04542542 C11.13964943 -0.051851 13.31764836 -0.05050171 15.49560547 -0.04199219 C18.82981152 -0.03348842 22.16230146 -0.06222734 25.49633789 -0.09399414 C27.61157175 -0.09560635 29.72680865 -0.09502824 31.84204102 -0.09204102 C32.84005234 -0.10327499 33.83806366 -0.11450897 34.86631775 -0.12608337 C41.75228455 -0.0566982 41.75228455 -0.0566982 45.07275391 2.27490234 C46.40844727 4.40405273 46.40844727 4.40405273 46.34594727 6.96655273 C45.33637054 9.59145221 44.58865961 10.66772348 42.40844727 12.40405273 C40.32826233 12.78500366 40.32826233 12.78500366 37.90869141 12.79223633 C36.54696556 12.80642105 36.54696556 12.80642105 35.1577301 12.82089233 C34.17956833 12.81481964 33.20140656 12.80874695 32.19360352 12.80249023 C31.18631699 12.80536041 30.17903046 12.80823059 29.14122009 12.81118774 C27.0103194 12.81322979 24.87940002 12.80769013 22.74853516 12.79516602 C19.48695896 12.77913145 16.22662516 12.79500174 12.96508789 12.81420898 C10.8954237 12.81222625 8.82576027 12.80838195 6.75610352 12.80249023 C5.2918972 12.81159927 5.2918972 12.81159927 3.79811096 12.82089233 C2.43165688 12.80670761 2.43165688 12.80670761 1.03759766 12.79223633 C0.23834366 12.78984955 -0.56091034 12.78746277 -1.38438416 12.78500366 C-4.17317935 12.30366566 -5.5581392 11.34997287 -7.59155273 9.40405273 C-8.02905273 6.40405273 -8.02905273 6.40405273 -7.59155273 3.40405273 C-5.34378855 0.3917794 -3.67800983 0.02434656 0 0 Z " fill="#552056" transform="translate(310.591552734375,120.595947265625)"/>
</svg>
