<?xml version="1.0" encoding="UTF-8"?>
<svg version="1.1" xmlns="http://www.w3.org/2000/svg" width="256" height="256">
<path d="M0 0 C5.9316264 5.0842512 6.51891378 10.81970317 7.625 18.25 C9.24341797 18.56130859 9.24341797 18.56130859 10.89453125 18.87890625 C34.10867453 23.5594304 53.27715052 32.26509867 71.625 47.25 C72.37523437 47.84554687 73.12546875 48.44109375 73.8984375 49.0546875 C79.61747311 53.77910822 84.09797293 59.40225853 88.625 65.25 C89.64787109 66.53197266 89.64787109 66.53197266 90.69140625 67.83984375 C101.27804012 81.61697002 108.29393622 98.21750018 111.9375 115.125 C112.10926758 115.92204346 112.28103516 116.71908691 112.45800781 117.5402832 C114.83964246 129.38754823 114.83964246 129.38754823 111.75 134.125 C109.03680334 136.83819666 108.2395304 137.20489007 104.37890625 137.48828125 C100.32701968 137.23108554 98.12133443 136.32483026 94.5625 134.4375 C80.91473253 127.78657184 67.08359816 126.32309086 52.70703125 131.25 C47.29760128 133.37738255 42.60701153 135.83452017 37.8125 139.125 C34.57108466 141.23353837 33.01415412 142.20830492 29.125 142.625 C24.98263515 140.99764238 21.57640939 138.81068826 17.95703125 136.234375 C14.82168473 134.36713464 11.78691921 133.00853803 8.41674805 131.62597656 C7.33306442 131.17981995 6.2493808 130.73366333 5.13285828 130.27398682 C4.30526505 129.93607117 3.47767181 129.59815552 2.625 129.25 C2.70934672 140.0028941 2.80420806 150.75563894 2.91252708 161.50831985 C2.96249183 166.50112372 3.00882193 171.49390642 3.046875 176.48681641 C3.08372545 181.30444856 3.13008487 186.12190361 3.18306351 190.93938446 C3.20160871 192.77816413 3.21671621 194.61698176 3.22834396 196.45581818 C3.24520421 199.02964955 3.27423866 201.60307523 3.30615234 204.17675781 C3.30831253 204.93848801 3.31047272 205.7002182 3.31269836 206.48503113 C3.39274429 211.68699757 3.39274429 211.68699757 5.625 216.25 C9.34071928 218.72714618 12.3221977 218.67593397 16.625 218.25 C20.0453866 217.07986774 20.54040482 216.37689277 22.625 213.25 C23.17118858 209.4786979 23.51547189 205.70810109 23.8671875 201.9140625 C24.69485329 197.91225576 25.78903006 196.13403723 28.625 193.25 C32.78920421 190.77398668 35.99365432 191.09216358 40.625 192.25 C43.83330153 194.17498092 45.29567208 195.57566188 46.9375 198.9375 C48.87607878 208.27792504 47.61360357 217.86209496 42.9609375 226.25 C36.67414473 235.4672898 29.68327817 240.53154414 18.73046875 242.8359375 C8.54118717 244.19450838 0.14889092 241.99279092 -8.375 236.25 C-16.31955252 229.33096978 -20.13655612 221.59290678 -21.375 211.25 C-21.45963178 208.46670882 -21.50201346 205.71014746 -21.48852539 202.92797852 C-21.48867142 202.12716354 -21.48881744 201.32634857 -21.4889679 200.50126648 C-21.48827605 197.87711801 -21.480518 195.25304219 -21.47265625 192.62890625 C-21.47078948 190.80045104 -21.4693668 188.97199532 -21.46836853 187.14353943 C-21.46456374 182.34809979 -21.45475097 177.55269078 -21.44366455 172.75726318 C-21.43340649 167.85705988 -21.42886152 162.95685159 -21.42382812 158.05664062 C-21.41312677 148.45441368 -21.39607498 138.85220939 -21.375 129.25 C-23.43314566 129.99573238 -25.48701223 130.7532799 -27.5390625 131.515625 C-29.25536865 132.14645996 -29.25536865 132.14645996 -31.00634766 132.79003906 C-34.2941591 134.21496387 -36.89561306 135.85148079 -39.75 138 C-43.6867374 140.89074437 -46.31074554 142.61830942 -51.375 142.25 C-55.328404 140.57688704 -58.89504367 138.46030327 -62.21875 135.7421875 C-65.05404791 133.78007916 -67.93953011 132.7721703 -71.1875 131.625 C-72.96060547 130.98691406 -72.96060547 130.98691406 -74.76953125 130.3359375 C-88.09589907 126.32214524 -101.43951028 127.89596004 -113.6875 134.4375 C-118.68028042 137.08228857 -121.76610482 138.25158842 -127.375 137.25 C-129.80619623 135.37984906 -131.01569173 133.96861655 -132.375 131.25 C-133.39463423 105.13849724 -118.96282901 78.3797753 -102.375 59.25 C-101.51875863 58.16830572 -100.66419858 57.08527478 -99.8125 56 C-80.68951727 34.42535281 -54.1087161 23.2002531 -26.375 18.25 C-26.27703125 17.52554687 -26.1790625 16.80109375 -26.078125 16.0546875 C-24.23202865 4.11871972 -24.23202865 4.11871972 -18.65234375 -0.03125 C-12.21016741 -3.82227226 -6.5275531 -3.38465716 0 0 Z " fill="#010102" transform="translate(137.375,7.75)"/>
<path d="M0 0 C15.69610473 9.64105309 20.96247153 32.20146884 25 49 C27.34067591 58.9924819 28.5569434 69.0616743 29.6875 79.25 C29.81914551 80.42224121 29.95079102 81.59448242 30.08642578 82.80224609 C30.86450517 90.23012912 31.16087723 97.53325374 31 105 C29.93523437 104.45730469 28.87046875 103.91460937 27.7734375 103.35546875 C10.55484915 94.78209652 -5.41081897 91.2042283 -24.32421875 96.64453125 C-29.21297418 98.44729228 -33.39844973 100.81288276 -37.8046875 103.609375 C-40 105 -40 105 -41 105 C-42.35415017 77.86684282 -37.46436586 48.10226286 -27 23 C-26.53851563 21.89269531 -26.07703125 20.78539062 -25.6015625 19.64453125 C-20.94724393 9.50017392 -12.92073632 -4.3225736 0 0 Z " fill="#D7DCF9" transform="translate(133,34)"/>
<path d="M0 0 C0 3.66355787 -0.89254623 4.49741383 -3 7.4375 C-6.45987181 12.71872709 -8.91462226 18.1402355 -11.25 24 C-11.57871094 24.81782959 -11.90742187 25.63565918 -12.24609375 26.47827148 C-16.41464957 37.18997118 -18.73465885 48.04697781 -20.5625 59.375 C-20.67016693 60.03476837 -20.77783386 60.69453674 -20.88876343 61.3742981 C-23.22798787 75.86150828 -24.2960089 90.34478483 -25 105 C-29.77861148 103.12772847 -34.23379111 100.83419228 -38.76953125 98.4375 C-46.10740806 95.17227791 -52.82215502 94.64035518 -60.75 94.6875 C-61.72283936 94.69241455 -62.69567871 94.6973291 -63.69799805 94.70239258 C-73.9241339 94.86894202 -82.36419962 96.42701453 -91.0625 102.01171875 C-93 103 -93 103 -97 103 C-96.41190066 74.77123162 -80.06950401 48.00945356 -60.26171875 28.953125 C-43.64634448 13.5478762 -22.30243149 3.59716637 0 0 Z " fill="#0D86D8" transform="translate(110,34)"/>
<path d="M0 0 C22.21701862 2.26221922 40.99321255 11.8682855 58 26 C58.67289063 26.52078125 59.34578125 27.0415625 60.0390625 27.578125 C78.49581718 42.24239584 93.6293467 69.80020421 96.65625 93.23046875 C96.8870609 96.17010196 97.03827485 99.0528364 97 102 C91.37265559 101.14737206 86.53090789 98.68626905 81.375 96.375 C70.34511505 91.88134317 53.51889037 92.04191209 42.25 95.5625 C38.21221181 97.31598134 34.46097564 99.41593931 30.671875 101.65234375 C29.60549805 102.28003662 28.53912109 102.90772949 27.44042969 103.55444336 C26.23241699 104.2699939 26.23241699 104.2699939 25 105 C24.96036133 104.19183838 24.92072266 103.38367676 24.87988281 102.55102539 C22.29384157 50.38126367 22.29384157 50.38126367 1.06640625 3.6015625 C0 2 0 2 0 0 Z " fill="#2195F0" transform="translate(146,35)"/>
<path d="M0 0 C2.59204646 1.76220108 4.81061836 3.76272564 7 6 C6.48050781 6.99257813 5.96101563 7.98515625 5.42578125 9.0078125 C-8.4343024 35.83904338 -12.72911812 64.29269629 -16 94 C-17.2375 94.37125 -18.475 94.7425 -19.75 95.125 C-25.80547977 97.13069774 -31.35239691 100.06586178 -37 103 C-38.33200532 103.66931611 -39.66476916 104.33714193 -41 105 C-42.35415017 77.86684282 -37.46436586 48.10226286 -27 23 C-26.53851563 21.89269531 -26.07703125 20.78539062 -25.6015625 19.64453125 C-22.10570181 12.02510007 -17.22343916 4.26840915 -9.96484375 -0.2734375 C-6.55408395 -1.53467273 -3.36892312 -1.10630685 0 0 Z " fill="#C2C9E9" transform="translate(133,34)"/>
<path d="M0 0 C2.64 0 5.28 0 8 0 C8.00364563 1.05964966 8.00729126 2.11929932 8.01104736 3.21105957 C8.04804928 13.2157281 8.10587881 23.22009032 8.18390274 33.22452545 C8.22334818 38.36746972 8.25555111 43.51024352 8.27099609 48.65332031 C8.2861819 53.62021597 8.32066183 58.58664287 8.36830902 63.55332947 C8.38310294 65.44461484 8.39103987 67.33596714 8.39188385 69.22731018 C8.39426127 71.88446551 8.42140238 74.54033352 8.45410156 77.19726562 C8.4490712 77.97266693 8.44404083 78.74806824 8.43885803 79.54696655 C8.54391881 85.09431232 9.93572743 89.34960216 13 94 C17.84119428 98.60503846 21.88512839 99.36245817 28.36328125 99.27734375 C32.4341392 98.8491498 35.8207978 97.59611708 39 95 C43.1205063 89.9090846 43.73260671 85.59972134 44.30859375 79.21484375 C44.82353864 74.17646136 44.82353864 74.17646136 47 72 C51.55555556 72.55555556 51.55555556 72.55555556 53 74 C53.93276965 82.83466112 53.02095237 89.60727178 48 97 C43.05371595 103.01575087 36.56582265 107.20344205 28.84375 108.30859375 C21.16091661 108.73114959 15.32395187 106.27984621 9 102 C3.13615725 96.50480748 -0.02753292 88.69817245 -0.36076355 80.69078064 C-0.3692945 79.1857086 -0.3618654 77.68048276 -0.34057617 76.17553711 C-0.34101425 75.34516937 -0.34145233 74.51480164 -0.34190369 73.65927124 C-0.33983429 70.94837908 -0.31659192 68.2381262 -0.29296875 65.52734375 C-0.2873662 63.63448932 -0.28309922 61.7416305 -0.28010559 59.84877014 C-0.26870873 54.89213835 -0.23928644 49.93577468 -0.20599365 44.97924805 C-0.17518102 39.91133245 -0.16157643 34.8433731 -0.14648438 29.77539062 C-0.11441139 19.8501433 -0.06327809 9.92509404 0 0 Z " fill="#9E6671" transform="translate(124,135)"/>
<path d="M0 0 C0.66 0 1.32 0 2 0 C1.49684224 3.72336742 0.66600531 7.23427868 -0.3828125 10.83203125 C-2.24391963 17.60726624 -3.44400822 24.44316145 -4.5625 31.375 C-4.7240004 32.36465256 -4.7240004 32.36465256 -4.88876343 33.3742981 C-7.22798787 47.86150828 -8.2960089 62.34478483 -9 77 C-12.71066608 75.54401941 -16.21215554 73.90161756 -19.75 72.0625 C-24.75396161 69.52955409 -29.63340821 67.60997754 -35 66 C-30.62120755 40.47624928 -18.26422792 18.26422792 0 0 Z " fill="#2194EF" transform="translate(94,62)"/>
<path d="M0 0 C1.65 0 3.3 0 5 0 C5.00546844 1.59827385 5.00546844 1.59827385 5.01104736 3.22883606 C5.04810568 13.30614856 5.10599618 23.38315853 5.18390274 33.46024036 C5.22328926 38.64009112 5.25552092 43.8197741 5.27099609 48.99975586 C5.28622093 54.00556508 5.32076931 59.01091281 5.36830902 64.01651573 C5.38306293 65.91927754 5.39103755 67.82210526 5.39188385 69.72492409 C5.40329825 82.52886342 5.98642919 93.41063858 14 104 C9.27440792 102.88809598 7.25422525 100.23049283 4.4296875 96.55859375 C0.77150533 90.01184697 -0.44557746 83.59812847 -0.34057617 76.17553711 C-0.34101425 75.34516937 -0.34145233 74.51480164 -0.34190369 73.65927124 C-0.33983429 70.94837908 -0.31659192 68.2381262 -0.29296875 65.52734375 C-0.2873662 63.63448932 -0.28309922 61.7416305 -0.28010559 59.84877014 C-0.26870873 54.89213835 -0.23928644 49.93577468 -0.20599365 44.97924805 C-0.17518102 39.91133245 -0.16157643 34.8433731 -0.14648438 29.77539062 C-0.11441139 19.8501433 -0.06327809 9.92509404 0 0 Z " fill="#935866" transform="translate(124,135)"/>
<path d="M0 0 C2.24432982 1.87027485 3.69443202 3.38886404 5 6 C5 8.31 5 10.62 5 13 C-0.28 13 -5.56 13 -11 13 C-11 5 -11 5 -9.86328125 3.125 C-6.4981388 0.68378835 -4.16198712 -0.98573379 0 0 Z " fill="#8E5563" transform="translate(131,13)"/>
<path d="M0 0 C2.375 0.25 2.375 0.25 5 1 C7.66181082 4.2955753 7.15640774 7.93339881 7 12 C4.03 11.67 1.06 11.34 -2 11 C-2.28571429 3.57142857 -2.28571429 3.57142857 0 0 Z " fill="#A26873" transform="translate(129,14)"/>
</svg>
