<?xml version="1.0" encoding="UTF-8"?>
<svg version="1.1" xmlns="http://www.w3.org/2000/svg" width="512" height="512">
<path d="M0 0 C1.27442711 -0.00856522 1.27442711 -0.00856522 2.57460022 -0.01730347 C3.50352585 -0.01842133 4.43245148 -0.01953918 5.38952637 -0.02069092 C6.3702562 -0.02565582 7.35098602 -0.03062073 8.36143494 -0.03573608 C11.60973813 -0.05035687 14.85799254 -0.05715851 18.10632324 -0.06268311 C20.35929364 -0.06843327 22.61226402 -0.07419102 24.86523438 -0.07995605 C29.58964262 -0.09046487 34.31403385 -0.09630877 39.03845215 -0.09979248 C45.10167315 -0.10528628 51.16467061 -0.1293338 57.22782135 -0.15776443 C61.88084581 -0.17635415 66.53381593 -0.18159439 71.18687439 -0.18312836 C73.42285895 -0.18616217 75.6588424 -0.19421504 77.89479065 -0.20731354 C81.01690908 -0.22430225 84.13847467 -0.22251166 87.26062012 -0.21600342 C88.18954575 -0.2252182 89.11847137 -0.23443298 90.07554626 -0.243927 C90.92516434 -0.23835785 91.77478241 -0.2327887 92.65014648 -0.22705078 C93.75736683 -0.22925062 93.75736683 -0.22925062 94.88695526 -0.2314949 C97.43333702 0.25717147 98.32232669 1.04588948 99.82507324 3.14044189 C99.82507324 4.46044189 99.82507324 5.78044189 99.82507324 7.14044189 C106.42507324 7.14044189 113.02507324 7.14044189 119.82507324 7.14044189 C120.15507324 5.49044189 120.48507324 3.84044189 120.82507324 2.14044189 C123.19033702 -0.22482188 123.63844582 -0.11230793 126.84609985 -0.12698364 C127.68711746 -0.13551361 128.52813507 -0.14404358 129.39463806 -0.15283203 C130.31930374 -0.15192566 131.24396942 -0.15101929 132.19665527 -0.15008545 C133.16920761 -0.15680267 134.14175995 -0.1635199 135.14378357 -0.17044067 C138.37353569 -0.18950698 141.60308077 -0.19334987 144.83288574 -0.19549561 C147.07530809 -0.2019199 149.31772958 -0.20864798 151.56015015 -0.21566772 C156.26957135 -0.22766375 160.97891908 -0.2313464 165.68835449 -0.23016357 C171.71421571 -0.2299608 177.73960312 -0.2572103 183.76535225 -0.29170799 C188.40143989 -0.31398693 193.03741396 -0.31800072 197.67354965 -0.31694412 C199.89424134 -0.3193006 202.11493614 -0.32812673 204.3355751 -0.34360886 C207.44975735 -0.36327869 210.56292424 -0.35742527 213.67712402 -0.34539795 C214.58964432 -0.35663696 215.50216461 -0.36787598 216.44233704 -0.37945557 C223.31817041 -0.31222308 228.59339921 1.35171932 233.84851074 5.88653564 C240.22595406 13.86755576 241.00467735 21.46463995 241.01257324 31.45294189 C241.02481934 32.25667236 241.03706543 33.06040283 241.04968262 33.88848877 C241.0728762 43.49836228 239.64520804 51.06354908 232.82507324 58.14044189 C230.88870159 59.64750251 228.93095745 60.86711656 226.82507324 62.14044189 C225.60169053 64.58720732 225.54310126 66.45824945 225.33558846 69.19160938 C225.25184601 70.26742702 225.16810356 71.34324466 225.08182347 72.45166284 C224.99339991 73.64316357 224.90497635 74.8346643 224.81387329 76.06227112 C224.66875881 77.94992771 224.66875881 77.94992771 224.52071273 79.87571877 C224.2513756 83.3803117 223.98727017 86.88528268 223.72395301 90.39033234 C223.43932861 94.1665491 223.14983425 97.94239259 222.86083984 101.71827698 C222.36020244 108.26709507 221.86241959 114.81612509 221.36633682 121.36528969 C220.58149529 131.72398654 219.78859297 142.0820589 218.99447632 152.44004822 C218.72290207 155.98370809 218.45139351 159.52737299 218.17991447 163.07104015 C218.11205863 163.95677042 218.04420279 164.84250068 217.97429071 165.75507126 C217.2014883 175.84442892 216.43068206 185.93393883 215.66052246 196.02349854 C215.55488898 197.40732285 215.55488898 197.40732285 215.44712149 198.8191032 C214.30772896 213.74761392 213.17291554 228.67647045 212.03906633 243.60540304 C210.87444323 258.93696517 209.7021379 274.2679281 208.52345932 289.59841603 C207.79704826 299.05036721 207.07699114 308.50275949 206.36517857 317.95582148 C205.87615647 324.443264 205.37987783 330.93012596 204.87798919 337.41658566 C204.58900382 341.15446664 204.30321313 344.89251751 204.0262413 348.63130951 C203.72507407 352.69568608 203.40832821 356.75870527 203.09024048 360.8217926 C203.00627836 361.9887554 202.92231625 363.15571819 202.83580983 364.35804349 C202.0488385 374.12908902 200.90175221 384.59770638 195.88757324 393.20294189 C195.16247559 394.48878174 195.16247559 394.48878174 194.42272949 395.80059814 C192.77086516 398.21983221 190.96067947 400.14321188 188.82507324 402.14044189 C189.41675293 402.55294189 190.00843262 402.96544189 190.61804199 403.39044189 C198.73766969 409.32452543 203.13430999 415.08270786 204.82507324 425.14044189 C205.12472561 429.80477407 205.12917261 434.45980206 205.12585449 439.13262939 C205.12975064 440.48729583 205.13408717 441.84196106 205.13883972 443.19662476 C205.14626705 446.02575656 205.14603636 448.85476349 205.14074707 451.68389893 C205.13495953 455.2835452 205.15188263 458.88267572 205.17509174 462.48223686 C205.18992763 465.2774853 205.19068747 468.07261237 205.18758202 470.86789322 C205.18833504 472.83188398 205.20212613 474.79585611 205.21626282 476.75979614 C205.16227626 487.28800492 203.95567501 496.91811043 196.25866699 504.73028564 C187.98417027 512.30135759 180.46888585 512.58652861 169.60314941 512.56036377 C168.16022589 512.56771125 166.71730823 512.57629945 165.2743988 512.58602905 C161.36925537 512.60818477 157.46432332 512.61117866 153.55912566 512.60928154 C150.29149147 512.60916154 147.02390158 512.61773784 143.75627977 512.62605906 C136.0421201 512.6452725 128.32806863 512.64818479 120.6138916 512.64141846 C112.67430166 512.63478209 104.73517682 512.65763022 96.79568118 512.69473219 C89.96314143 512.7254945 83.13075077 512.73678208 76.29814321 512.73289537 C72.22442403 512.73083426 68.15106673 512.73620752 64.07741356 512.76078796 C60.24319642 512.78316058 56.40973156 512.78109128 52.57551003 512.76086044 C51.17516106 512.7574686 49.7747604 512.76246019 48.3744812 512.77684402 C38.77388665 512.86859136 30.95408502 511.88773025 23.68927288 505.16359711 C17.03820854 498.15646219 14.72555653 490.60699942 14.66394043 481.0401001 C14.65433289 479.83146805 14.64472534 478.622836 14.63482666 477.37757874 C14.63057678 476.07858139 14.6263269 474.77958405 14.62194824 473.44122314 C14.61770718 472.44079515 14.61770718 472.44079515 14.61338043 471.42015648 C14.59842315 467.88786808 14.58917292 464.35562013 14.58483887 460.82330322 C14.57937136 457.20006417 14.55537029 453.57720415 14.52686691 449.95408344 C14.50810916 447.14598054 14.50302793 444.33796636 14.50150299 441.52980614 C14.49705791 439.5525055 14.47847444 437.57525263 14.45953369 435.59803772 C14.48659972 424.55559557 15.94575642 415.32839555 23.82507324 407.14044189 C26.08555091 405.27486695 28.34879447 403.72526031 30.82507324 402.14044189 C29.93819824 401.21231689 29.05132324 400.28419189 28.13757324 399.32794189 C18.85959577 388.44880046 17.689946 374.89566021 16.7003479 361.1960144 C16.55501014 359.28857958 16.55501014 359.28857958 16.40673625 357.34261072 C16.1398675 353.83883389 15.88058197 350.33453192 15.62254643 346.83009505 C15.34215225 343.04112853 15.05450387 339.25271223 14.76760864 335.4642334 C14.27194279 328.90797166 13.78035548 322.35141469 13.29117203 315.79466629 C12.51777849 305.43334333 11.73162706 295.0730065 10.94345093 284.71279907 C10.673713 281.16515262 10.40405775 277.61749988 10.13442802 274.0698452 C10.0670578 273.18346424 9.99968758 272.29708328 9.93027584 271.3838423 C9.16471904 261.30921814 8.40178596 251.2343959 7.64001465 241.15948486 C7.57042014 240.23909854 7.50082563 239.31871222 7.42912219 238.3704354 C6.29974543 223.43015498 5.17974838 208.48918197 4.06208362 193.54802151 C2.91372228 178.20109102 1.75133285 162.85526425 0.57687747 147.51030862 C-0.14685181 138.04744037 -0.8589646 128.58383976 -1.55625845 119.11898617 C-2.03450042 112.64058651 -2.52598969 106.16327932 -3.02802263 99.68668015 C-3.31739263 95.94809124 -3.60067311 92.2092934 -3.86801147 88.46905899 C-4.15765813 84.41867602 -4.47549928 80.37100708 -4.79623413 76.32296753 C-4.87660128 75.13524612 -4.95696844 73.94752471 -5.03977096 72.72381175 C-5.13010325 71.64216191 -5.22043554 70.56051208 -5.31350517 69.44608498 C-5.38380845 68.51131817 -5.45411173 67.57655135 -5.52654541 66.61345828 C-6.64881432 62.33296901 -9.74676423 60.46156379 -13.17492676 57.89044189 C-18.43285009 53.56430244 -20.37009961 47.73383353 -21.17492676 41.14044189 C-21.33369826 38.03490002 -21.3599689 34.93712637 -21.36242676 31.82794189 C-21.37467285 31.02421143 -21.38691895 30.22048096 -21.39953613 29.39239502 C-21.42278527 19.75950154 -19.97791042 12.24899693 -13.17492676 5.14044189 C-9.13038066 1.7683625 -5.28640123 0.0213037 0 0 Z " fill="#000202" transform="translate(146.1749267578125,-0.14044189453125)"/>
<path d="M0 0 C47.85 0 95.7 0 145 0 C143.85091959 21.83252777 143.85091959 21.83252777 143.33911133 28.50390625 C143.2802091 29.29473256 143.22130688 30.08555887 143.16061974 30.90034962 C142.96981937 33.45455943 142.7760049 36.00852939 142.58203125 38.5625 C142.4426683 40.41744401 142.30345654 42.27239939 142.16438293 44.12736511 C141.79344251 49.06553369 141.419531 54.0034725 141.04462433 58.9413414 C140.81131021 62.01567765 140.57863873 65.09006194 140.34613037 68.16445923 C138.21316355 96.35603682 136.04976326 124.54528951 133.81902695 152.72930908 C133.62502291 155.18720973 133.43250533 157.64522278 133.24038696 160.10327148 C132.94160703 163.92289635 132.63864738 167.7421657 132.33218956 171.56118202 C132.22131488 172.9505437 132.11182833 174.34001695 132.00382423 175.72960472 C131.85752637 177.60804907 131.70554317 179.4860481 131.55322266 181.36401367 C131.46996735 182.41143234 131.38671204 183.45885101 131.30093384 184.53800964 C131 187 131 187 130 189 C129.20708557 189.00364563 128.41417114 189.00729126 127.597229 189.01104736 C120.12239856 189.04892408 112.64806671 189.10577224 105.17355728 189.18390274 C101.33085682 189.22340179 97.48838633 189.25557802 93.64550781 189.27099609 C89.93641985 189.28614722 86.22796401 189.3205638 82.51915741 189.36830902 C81.10464728 189.38313904 79.69004691 189.39104195 78.27545929 189.39188385 C76.29323296 189.39424998 74.31109451 189.42359306 72.32910156 189.45410156 C70.63699554 189.46742523 70.63699554 189.46742523 68.91070557 189.48101807 C65.35252536 190.11544543 64.15841456 191.14646858 62 194 C61.55642226 197.10504419 61.32700047 199.02107274 63.13887024 201.65657043 C65.83386921 203.60191641 67.91226365 203.399924 71.21557617 203.43237305 C73.13722847 203.46206429 73.13722847 203.46206429 75.09770203 203.49235535 C76.49612278 203.49912514 77.89454512 203.50557201 79.29296875 203.51171875 C80.72359261 203.52856354 82.15420164 203.54671351 83.58479309 203.56611633 C87.34780242 203.61364482 91.11075169 203.64343541 94.8739624 203.66955566 C98.71492377 203.69934705 102.55567807 203.74588218 106.39648438 203.79101562 C113.93088691 203.877081 121.46530445 203.94441153 129 204 C129.03672326 211.72772387 128.84166739 219.35603222 128.25 227.0625 C128.188125 228.07376953 128.12625 229.08503906 128.0625 230.12695312 C127.38756492 238.86173799 125.3818525 247.09782104 119.4375 253.8125 C118.85871094 254.49957031 118.27992188 255.18664062 117.68359375 255.89453125 C106.35003349 264.78650938 94.03651728 263.71805719 80.30859375 263.62890625 C77.99414458 263.62973605 75.67969547 263.63219963 73.36524963 263.63621521 C68.52953215 263.63906441 63.69428008 263.62445616 58.85864258 263.59692383 C52.67959148 263.56282423 46.50137093 263.56887447 40.32227993 263.5875864 C35.54797009 263.59818513 30.77385149 263.58919268 25.9995594 263.57420158 C23.72193025 263.56904173 21.44428095 263.5694747 19.16665459 263.57574654 C15.97712536 263.58123417 12.78876143 263.56070992 9.59936523 263.53344727 C8.2064753 263.54323608 8.2064753 263.54323608 6.78544617 263.55322266 C-2.52356871 263.41882199 -10.40085273 260.46848388 -17.2421875 254.0703125 C-23.92602036 246.19824268 -25.25633462 237.41284834 -26.0625 227.5 C-26.15337891 226.46101562 -26.24425781 225.42203125 -26.33789062 224.3515625 C-26.42361328 223.31773437 -26.50933594 222.28390625 -26.59765625 221.21875 C-26.67508057 220.28998047 -26.75250488 219.36121094 -26.83227539 218.40429688 C-27.0688627 213.60229769 -27.03108003 208.80677568 -27 204 C-26.20486496 203.99635437 -25.40972992 203.99270874 -24.59049988 203.98895264 C-17.1006416 203.95110126 -9.6112823 203.89428214 -2.12174511 203.81609726 C1.72883127 203.77657092 5.57917721 203.74440815 9.42993164 203.72900391 C13.14549933 203.71387067 16.86043373 203.67948622 20.57571983 203.63169098 C21.99384752 203.61684242 23.4120656 203.60895699 24.83027077 203.60811615 C26.8150954 203.60575557 28.79983286 203.57644513 30.78442383 203.54589844 C31.91471512 203.53701599 33.04500641 203.52813354 34.20954895 203.51898193 C37.0867272 203.24699177 37.0867272 203.24699177 38.89237976 201.19244385 C40.58859781 197.83491869 39.98459372 195.5445374 39 192 C36.06903527 190.01189173 33.50395661 189.71355939 30.015625 189.5859375 C28.61376953 189.52792969 28.61376953 189.52792969 27.18359375 189.46875 C26.21550781 189.4378125 25.24742187 189.406875 24.25 189.375 C22.77466797 189.31699219 22.77466797 189.31699219 21.26953125 189.2578125 C18.84653963 189.16371574 16.42355204 189.07807672 14 189 C12.25977263 173.94618848 10.8403484 159.15569721 11.03662109 143.98120117 C11.04516113 143.1069751 11.05370117 142.23274902 11.0625 141.33203125 C11.07410156 140.54546143 11.08570313 139.7588916 11.09765625 138.94848633 C11.12675904 136.91861697 11.12675904 136.91861697 10 135 C9.04292712 128.30048984 8.88627261 121.76046157 9 115 C11.71706122 117.6053206 13.95535092 120.24337328 16.125 123.3125 C22.30505319 131.307122 31.03760249 137.03327523 41 139 C44.21052961 139.30257047 47.40117986 139.40529619 50.625 139.4375 C51.41253662 139.44773193 52.20007324 139.45796387 53.01147461 139.46850586 C64.25666252 139.30073728 74.98594986 134.36558478 83.3046875 126.859375 C92.5704602 116.69691462 96.44147901 104.84610591 96.2734375 91.28515625 C95.42291138 81.06669246 91.48373363 72.80807071 85 65 C84.21496094 64.02933594 84.21496094 64.02933594 83.4140625 63.0390625 C76.21755499 55.00003703 65.45700844 50.59285533 54.85546875 49.75 C40.53725294 49.24483693 29.28644525 53.29167883 18.81640625 63.03125 C13.43631417 68.64525913 10.15413501 74.93903866 7 82 C2.46977586 77.46977586 3.94631167 67.3468608 3.9375 61.1875 C3.95303468 59.79159764 3.9716449 58.3957008 4 57 C4.94875 56.566875 5.8975 56.13375 6.875 55.6875 C10.20041937 54.20697799 10.20041937 54.20697799 12 51 C11.91635802 47.06882714 11.49572312 45.49572312 8.6875 42.6875 C6.27944781 41.17546723 4.7110024 40.58381928 2 40 C1.65606207 36.14670605 1.32693756 32.29227058 1 28.4375 C0.90460938 27.37080078 0.80921875 26.30410156 0.7109375 25.20507812 C0.00096004 16.7107049 0 8.60235603 0 0 Z " fill="#00C1F9" transform="translate(205,137)"/>
<path d="M0 0 C14.19 0 28.38 0 43 0 C43.495 6.8371875 43.495 6.8371875 44 13.8125 C44.15662109 15.93328979 44.15662109 15.93328979 44.31640625 18.09692383 C44.83302762 25.41316394 45.13771621 32.66565525 45 40 C45.886875 40.04125 46.77375 40.0825 47.6875 40.125 C52.17014177 41.30909405 53.57663983 43.1079367 56 47 C56.125 50.125 56.125 50.125 55 53 C52.625 55.375 52.625 55.375 50 57 C49.01 57 48.02 57 47 57 C47.66 64.59 48.32 72.18 49 80 C51.25954751 77.97874137 51.25954751 77.97874137 52.5625 74.5 C58.11153774 63.21763913 68.4953101 54.6566699 80.25 50.5625 C92.76337218 47.16978994 104.99744176 48.30422117 116.53125 54.3203125 C128.26434468 61.67358759 135.49445244 71.40394717 139.27734375 84.62109375 C140.97154563 92.54263229 140.62209826 100.34467865 138 108 C137.75507813 108.77859375 137.51015625 109.5571875 137.2578125 110.359375 C132.53344366 123.82173575 122.77912298 131.83723909 110.39453125 138.01953125 C101.18999886 141.7884344 87.36092286 141.57960795 78 138.5 C67.6853346 133.92636542 58.1191716 126.23834321 53 116 C52.41826717 126.77250886 52.41826717 126.77250886 55 137 C55.02144253 139.90086849 54.99162382 142.78781615 54.9375 145.6875 C54.78137358 160.17993513 55.98119311 174.54567724 57 189 C42.81 189 28.62 189 14 189 C12.17220854 165.24357217 10.34630961 141.48700137 8.52388 117.73016167 C7.6776423 106.69956935 6.83054924 95.66904396 5.98144531 84.63867188 C5.24140698 75.02509934 4.50297069 65.41140533 3.76646137 55.79756176 C3.37639751 50.70669462 2.98552934 45.6158921 2.59274292 40.52523422 C2.22305999 35.7336762 1.8555195 30.94195864 1.48962021 26.15011024 C1.35496741 24.39165631 1.21953254 22.63326207 1.08325577 20.87493324 C0.89722175 18.47308342 0.71401073 16.0710341 0.53149414 13.66891479 C0.44978423 12.62706506 0.44978423 12.62706506 0.36642361 11.56416786 C0.07466779 7.67903282 0 3.91057158 0 0 Z " fill="#00AAF1" transform="translate(162,137)"/>
<path d="M0 0 C66 0 132 0 200 0 C200 5.61840617 199.9373109 10.72878432 199.37890625 16.24609375 C199.28258156 17.22836693 199.28258156 17.22836693 199.18431091 18.23048401 C198.98116391 20.2999242 198.77251464 22.36874632 198.5625 24.4375 C197.39562246 35.95781413 196.64316678 47.42299793 196 59 C132.64 59 69.28 59 4 59 C0 9 0 9 0 0 Z " fill="#DAECFE" transform="translate(156,63)"/>
<path d="M0 0 C2.24243164 -0.76049805 2.24243164 -0.76049805 4.66015625 -0.76171875 C5.53607422 -0.76494141 6.41199219 -0.76816406 7.31445312 -0.77148438 C8.22130859 -0.74376953 9.12816406 -0.71605469 10.0625 -0.6875 C10.97322266 -0.70232422 11.88394531 -0.71714844 12.82226562 -0.73242188 C15.33227503 -0.70097739 17.56191505 -0.5998141 20 0 C22.05859375 2.48046875 22.05859375 2.48046875 23 5 C24.80331611 6.80331611 27.55548457 6.17199294 29.98852539 6.20532227 C31.26977798 6.22526749 32.55103058 6.24521271 33.87110901 6.26576233 C35.27995684 6.28274797 36.68880595 6.29962673 38.09765625 6.31640625 C39.53112905 6.33696915 40.96459569 6.35796544 42.39805603 6.37937927 C46.1775312 6.43466859 49.9570617 6.48404745 53.7366333 6.53222656 C57.59074855 6.58239165 61.44478309 6.63810371 65.29882812 6.69335938 C72.86581714 6.80102479 80.4328731 6.90245097 88 7 C88.03672326 14.72772387 87.84166739 22.35603222 87.25 30.0625 C87.188125 31.07376953 87.12625 32.08503906 87.0625 33.12695312 C86.38756492 41.86173799 84.3818525 50.09782104 78.4375 56.8125 C77.56931641 57.84310547 77.56931641 57.84310547 76.68359375 58.89453125 C65.35003349 67.78650938 53.03651728 66.71805719 39.30859375 66.62890625 C36.99414458 66.62973605 34.67969547 66.63219963 32.36524963 66.63621521 C27.52953215 66.63906441 22.69428008 66.62445616 17.85864258 66.59692383 C11.67959148 66.56282423 5.50137093 66.56887447 -0.67772007 66.5875864 C-5.45202991 66.59818513 -10.22614851 66.58919268 -15.0004406 66.57420158 C-17.27806975 66.56904173 -19.55571905 66.5694747 -21.83334541 66.57574654 C-25.02287464 66.58123417 -28.21123857 66.56070992 -31.40063477 66.53344727 C-32.32922806 66.53997314 -33.25782135 66.54649902 -34.21455383 66.55322266 C-43.52356871 66.41882199 -51.40085273 63.46848388 -58.2421875 57.0703125 C-64.92602036 49.19824268 -66.25633462 40.41284834 -67.0625 30.5 C-67.15337891 29.46101563 -67.24425781 28.42203125 -67.33789062 27.3515625 C-67.42361328 26.31773437 -67.50933594 25.28390625 -67.59765625 24.21875 C-67.71379272 22.8255957 -67.71379272 22.8255957 -67.83227539 21.40429688 C-68.0688627 16.60229769 -68.03108003 11.80677568 -68 7 C-66.81062836 7.00119339 -66.81062836 7.00119339 -65.597229 7.00241089 C-58.1222868 7.00461928 -50.64825127 6.97821737 -43.17355728 6.9197216 C-39.33070951 6.89065605 -35.48847228 6.87263309 -31.64550781 6.87988281 C-27.93623887 6.88647341 -24.22817662 6.8640097 -20.51915741 6.82144547 C-19.10463507 6.81030891 -17.68999042 6.8096193 -16.27545929 6.81957626 C-12.11789235 6.84508927 -8.08249128 6.82721988 -4 6 C-1.30984251 3.18270837 -1.30984251 3.18270837 0 0 Z " fill="#D9EBFD" transform="translate(246,334)"/>
<path d="M0 0 C1.34912175 -0.00570742 2.69823867 -0.01267313 4.04734802 -0.02079773 C7.70030875 -0.03870348 11.35302892 -0.03756569 15.00602031 -0.03185534 C18.06014748 -0.02875969 21.1142287 -0.03486013 24.16834933 -0.04089409 C31.37561831 -0.05492924 38.58276873 -0.05338651 45.79003906 -0.04199219 C53.21554394 -0.03051198 60.6406876 -0.04458707 68.06614488 -0.07138866 C74.45106161 -0.09356824 80.83586513 -0.10017797 87.22081763 -0.09431225 C91.03003534 -0.09094683 94.83902154 -0.09332987 98.64820671 -0.11056328 C102.23117942 -0.12606659 105.81361833 -0.1220401 109.39657021 -0.10325813 C111.33105939 -0.09783421 113.26557274 -0.11206065 115.20001221 -0.12695312 C121.89763621 -0.0702755 126.44402619 0.15060814 131.76196289 4.40405273 C134.76210572 8.10323033 135.13986478 10.9642482 135.15014648 15.65966797 C135.15960297 16.90123154 135.16905945 18.1427951 135.17880249 19.42198181 C135.17343184 20.7688733 135.16727865 22.11576186 135.16040039 23.46264648 C135.16242322 24.85360364 135.16533639 26.24455976 135.1690979 27.63551331 C135.17351295 30.54649991 135.16711795 33.45720972 135.15307617 36.36816406 C135.13600031 40.08826251 135.14581988 43.80771079 135.16379356 47.5277853 C135.17466743 50.39924459 135.17116839 53.27055141 135.16341019 56.14201546 C135.16141728 57.51306295 135.16383534 58.88412456 135.17084885 60.25515556 C135.17852009 62.17644844 135.16474282 64.09779022 135.15014648 66.01904297 C135.1477597 67.10982651 135.14537292 68.20061005 135.14291382 69.32444763 C134.53302429 74.25479107 132.80999776 77.46486422 129.12915039 80.76342773 C124.83543809 82.85549173 121.58023399 82.86087485 116.88696289 82.65405273 C116.10321289 82.63600586 115.31946289 82.61795898 114.51196289 82.59936523 C112.594761 82.55260421 110.67819574 82.48087276 108.76196289 82.40405273 C108.75261719 81.56745117 108.74327148 80.73084961 108.73364258 79.86889648 C108.68932109 76.72989258 108.62757094 73.59182405 108.55444336 70.45336914 C108.51273017 68.44106733 108.49067758 66.42838878 108.46899414 64.41577148 C108.25231613 55.79198678 107.66198526 49.86460464 101.83227539 43.19702148 C101.19032227 42.6672168 100.54836914 42.13741211 99.88696289 41.59155273 C99.25016602 41.04885742 98.61336914 40.50616211 97.95727539 39.94702148 C92.98697182 36.45365865 89.05434058 35.02810408 82.96557617 35 C82.31430756 34.99313675 81.66303894 34.9862735 80.99203491 34.97920227 C78.85522181 34.96101422 76.71914873 34.96476054 74.58227539 34.97045898 C73.08543665 34.96589268 71.5886 34.96058577 70.09176636 34.95457458 C66.9597724 34.94565872 63.82803362 34.94804828 60.69604492 34.95800781 C56.69917547 34.96948431 52.70319128 34.94929948 48.70643806 34.92009068 C45.61614463 34.90166644 42.52606079 34.90203361 39.43572617 34.9077282 C37.96304967 34.90788071 36.49035834 34.90189428 35.01773453 34.88943672 C25.64188578 34.82130016 18.61904742 35.09435392 11.30102539 41.58764648 C10.66938477 42.33143555 10.03774414 43.07522461 9.38696289 43.84155273 C8.73985352 44.58276367 8.09274414 45.32397461 7.42602539 46.08764648 C4.13487535 50.66898915 3.49556618 54.64939492 3.34790039 60.23608398 C3.30922852 61.52836914 3.27055664 62.8206543 3.23071289 64.15209961 C3.19926275 65.50691269 3.16801528 66.86173048 3.13696289 68.21655273 C3.09874539 69.59092545 3.05969149 70.96527518 3.01977539 72.33959961 C2.92560885 75.69428263 2.83998089 79.04896167 2.76196289 82.40405273 C0.05253896 82.51267107 -2.65247611 82.5916385 -5.36303711 82.65405273 C-6.12358398 82.68756836 -6.88413086 82.72108398 -7.66772461 82.75561523 C-13.00064798 82.84756219 -16.11321391 82.10048183 -20.23803711 78.40405273 C-22.78161814 74.13802085 -23.61753671 70.97812332 -23.64208984 66.03491211 C-23.65477402 64.79342407 -23.66745819 63.55193604 -23.68052673 62.27282715 C-23.67847523 60.93115064 -23.67548715 59.58947527 -23.67163086 58.24780273 C-23.67619712 56.85827378 -23.68150402 55.46874709 -23.68751526 54.07922363 C-23.69642585 51.17422276 -23.69404636 48.26949712 -23.68408203 45.36450195 C-23.67258552 41.65214562 -23.69282325 37.94073956 -23.72199917 34.228508 C-23.74039261 31.36132839 -23.74006273 28.49437532 -23.73436165 25.62715149 C-23.73420886 24.2588823 -23.74021769 22.89059733 -23.75265312 21.52238464 C-23.84628151 9.53472911 -23.84628151 9.53472911 -21.58203125 5.70678711 C-15.1939741 -0.56882533 -8.46409733 -0.03029209 0 0 Z " fill="#00C0F9" transform="translate(200.238037109375,414.595947265625)"/>
<path d="M0 0 C6.6 0 13.2 0 20 0 C20.99 1.98 21.98 3.96 23 6 C26.34131513 7.67065757 30.1017805 7.15328114 33.77661133 7.15771484 C34.68570755 7.16279556 35.59480377 7.16787628 36.53144836 7.17311096 C38.50997256 7.18382804 40.48850898 7.19244295 42.46705055 7.19923019 C45.59810899 7.21099793 48.72902816 7.23044557 51.86003113 7.25234985 C60.76381806 7.3140356 69.66759155 7.36801668 78.5715332 7.40136719 C84.01394835 7.42230357 89.45611114 7.45760049 94.89838219 7.50212479 C96.97357908 7.51629523 99.04882064 7.52500957 101.12406349 7.52817917 C104.02804616 7.5330836 106.93135844 7.5562303 109.83520508 7.58349609 C110.69305603 7.58048996 111.55090698 7.57748383 112.43475342 7.5743866 C117.09831581 7.63946643 120.21793544 7.96064675 124 11 C125.99025899 14.98051798 125.31631959 19.93547503 125.375 24.3125 C125.43107422 25.88161133 125.43107422 25.88161133 125.48828125 27.48242188 C125.49988281 28.49498047 125.51148438 29.50753906 125.5234375 30.55078125 C125.54325684 31.47544189 125.56307617 32.40010254 125.58349609 33.3527832 C124.72875998 37.23056719 123.10662951 38.55848083 120 41 C117.02471669 41.72362102 114.13082013 41.67551808 111.08032227 41.63491821 C110.18119645 41.64271817 109.28207064 41.65051812 108.35569859 41.65855443 C105.34218462 41.67850181 102.32992964 41.66269896 99.31640625 41.64697266 C97.1563137 41.65374754 94.99622693 41.66264994 92.83615112 41.67352295 C86.96838627 41.69633796 81.10106045 41.68747059 75.23328781 41.67162752 C69.09634964 41.65898008 62.95944939 41.67070543 56.82250977 41.67855835 C46.51604453 41.68765825 36.20975837 41.67565793 25.90332031 41.65185547 C13.98290818 41.62464372 2.06292362 41.63345763 -9.85747814 41.6609875 C-20.08690905 41.68366772 -30.31621114 41.68688391 -40.54565907 41.67379415 C-46.65753502 41.66599373 -52.76920991 41.66497448 -58.881073 41.68147659 C-64.62678953 41.6959061 -70.37195411 41.68592679 -76.11761093 41.65700531 C-78.22795571 41.65038646 -80.33834683 41.65230573 -82.44867325 41.66331863 C-85.32651945 41.67695376 -88.20258969 41.65988266 -91.08032227 41.63491821 C-91.91835608 41.64607182 -92.7563899 41.65722543 -93.61981869 41.66871703 C-97.91395525 41.59630529 -99.5254268 41.37392846 -103.01704407 38.6227932 C-105.24789564 35.67211627 -105.64131466 34.30890365 -105.6640625 30.65625 C-105.67050781 29.65722656 -105.67695313 28.65820312 -105.68359375 27.62890625 C-105.66425781 26.59636719 -105.64492187 25.56382813 -105.625 24.5 C-105.64433594 23.46746094 -105.66367188 22.43492188 -105.68359375 21.37109375 C-105.67714844 20.37207031 -105.67070312 19.37304688 -105.6640625 18.34375 C-105.65842285 17.43818359 -105.6527832 16.53261719 -105.64697266 15.59960938 C-104.69629237 11.77966836 -103.09175047 10.41828572 -100 8 C-96.92167082 7.28624651 -93.92353352 7.3497256 -90.77514648 7.40405273 C-89.85425232 7.3999942 -88.93335815 7.39593567 -87.98455811 7.39175415 C-85.98970465 7.38624279 -83.99479349 7.3922289 -81.99999809 7.40841484 C-78.84342043 7.43381644 -75.68814967 7.42904332 -72.5315094 7.41651917 C-65.83336263 7.39576883 -59.13562016 7.41546592 -52.4375 7.4375 C-44.67222619 7.45858998 -36.90737175 7.46321168 -29.14210701 7.43699837 C-26.03083715 7.43363135 -22.92036405 7.45487969 -19.80918884 7.47740173 C-17.90461044 7.474891 -16.00003304 7.47133149 -14.09545898 7.46655273 C-12.79633324 7.48588112 -12.79633324 7.48588112 -11.47096252 7.50559998 C-6.64209013 7.47768574 -6.64209013 7.47768574 -2.49403381 5.15834045 C-0.8383765 2.981695 -0.8383765 2.981695 0 0 Z " fill="#FEE458" transform="translate(246,7)"/>
<path d="M0 0 C11.54623481 8.43192927 18.18869041 18.22853894 21.1875 32.25 C21.8670421 39.17126209 21.44179629 45.6684913 19.1875 52.25 C18.82011719 53.41789062 18.82011719 53.41789062 18.4453125 54.609375 C13.72094366 68.07173575 3.96662298 76.08723909 -8.41796875 82.26953125 C-17.62250114 86.0384344 -31.45157714 85.82960795 -40.8125 82.75 C-54.39982284 76.72523359 -63.45413236 66.77607477 -68.90234375 53.109375 C-72.53665489 41.69171081 -71.48243693 30.18314647 -66.8125 19.25 C-60.19330667 7.5189544 -50.54948451 -1.53791958 -37.5625 -5.625 C-24.58988888 -8.6763043 -11.37730726 -7.13029873 0 0 Z " fill="#010303" transform="translate(280.8125,192.75)"/>
<path d="M0 0 C7.34473329 4.95080145 13.10978244 12.23626406 15 21 C16.08311926 31.51458854 13.28349359 40.00470424 6.70703125 48.24609375 C1.26936807 53.83307491 -5.84134732 57.19718271 -13.62182617 57.43066406 C-21.57231688 57.45697463 -27.24427706 56.58854053 -34 52 C-34.9075 51.443125 -35.815 50.88625 -36.75 50.3125 C-43.00297633 43.88582988 -46.94049171 35.80840549 -47.4375 26.875 C-47.24109543 18.38339081 -44.10190564 10.83145844 -38.375 4.5625 C-27.13950967 -5.5157769 -13.32844853 -6.95129854 0 0 Z " fill="#FCE258" transform="translate(272,205)"/>
<path d="M0 0 C66 0 132 0 200 0 C200 2.97 200 5.94 200 9 C199.67 9 199.34 9 199 9 C199 6.36 199 3.72 199 1 C147.52 1 96.04 1 43 1 C44.32 17.5 45.64 34 47 51 C47 53.31 47 55.62 47 58 C95.84 58 144.68 58 195 58 C195.33 56.68 195.66 55.36 196 54 C196 55.65 196 57.3 196 59 C132.64 59 69.28 59 4 59 C0 9 0 9 0 0 Z " fill="#B5D9FA" transform="translate(156,63)"/>
<path d="M0 0 C1.36047344 0.00084695 2.72094825 0.0003698 4.0814209 -0.00132751 C7.76288742 -0.00218625 11.44405912 0.01541951 15.12545729 0.03639436 C18.97714705 0.05518161 22.828844 0.05691321 26.68057251 0.06047058 C33.96904376 0.06978505 41.25737958 0.09439067 48.54579127 0.12451905 C56.84563244 0.15808174 65.14548017 0.17455376 73.44537234 0.18960536 C90.51395279 0.2209408 107.58240151 0.27368959 124.65087891 0.34057617 C124.65087891 0.67057617 124.65087891 1.00057617 124.65087891 1.34057617 C73.66587891 1.83557617 73.66587891 1.83557617 21.65087891 2.34057617 C18.75759208 9.0351213 18.75759208 9.0351213 18.13916016 15.71166992 C18.10371094 16.8621582 18.06826172 18.01264648 18.03173828 19.19799805 C18.00917969 20.37942383 17.98662109 21.56084961 17.96337891 22.77807617 C17.92921875 23.98657227 17.89505859 25.19506836 17.85986328 26.44018555 C17.77778056 29.40688966 17.70849876 32.37331293 17.65087891 35.34057617 C18.64087891 35.83557617 18.64087891 35.83557617 19.65087891 36.34057617 C18.64025391 36.83557617 17.62962891 37.33057617 16.58837891 37.84057617 C10.45782701 41.34196862 5.88589269 46.64547341 3.65087891 53.34057617 C3.28731821 56.62728187 3.28731821 56.62728187 3.23681641 60.17260742 C3.19814453 61.46489258 3.15947266 62.75717773 3.11962891 64.08862305 C3.08817877 65.44343612 3.0569313 66.79825392 3.02587891 68.15307617 C2.9876614 69.52744889 2.94860751 70.90179862 2.90869141 72.27612305 C2.81452487 75.63080606 2.7288969 78.9854851 2.65087891 82.34057617 C-0.05854502 82.4491945 -2.7635601 82.52816194 -5.47412109 82.59057617 C-6.23466797 82.6240918 -6.99521484 82.65760742 -7.77880859 82.69213867 C-13.11173196 82.78408563 -16.2242979 82.03700527 -20.34912109 78.34057617 C-22.89270212 74.07454428 -23.7286207 70.91464676 -23.75317383 65.97143555 C-23.765858 64.72994751 -23.77854218 63.48845947 -23.79161072 62.20935059 C-23.78955921 60.86767407 -23.78657113 59.52599871 -23.78271484 58.18432617 C-23.78728111 56.79479722 -23.792588 55.40527052 -23.79859924 54.01574707 C-23.80750984 51.1107462 -23.80513034 48.20602056 -23.79516602 45.30102539 C-23.7836695 41.58866905 -23.80390724 37.877263 -23.83308315 34.16503143 C-23.85147659 31.29785183 -23.85114671 28.43089876 -23.84544563 25.56367493 C-23.84529285 24.19540574 -23.85130167 22.82712077 -23.86373711 21.45890808 C-23.95736549 9.47125255 -23.95736549 9.47125255 -21.69311523 5.64331055 C-15.26639913 -0.67028036 -8.51068572 -0.072346 0 0 Z " fill="#00A7EC" transform="translate(200.34912109375,414.659423828125)"/>
<path d="M0 0 C20.46 0 40.92 0 62 0 C62 0.33 62 0.66 62 1 C55.73 1 49.46 1 43 1 C43.07472319 29.4158024 43.07472319 29.4158024 55 54 C56.33803791 55.66289209 57.67182822 57.32921717 59 59 C54.48345625 59.09987254 49.96752011 59.1719343 45.45019531 59.21972656 C43.91785466 59.23967724 42.38558848 59.26684816 40.85351562 59.30175781 C28.80117341 59.56923799 18.94811323 58.6652901 9.7578125 50.0703125 C3.07397964 42.19824268 1.74366538 33.41284834 0.9375 23.5 C0.84662109 22.46101563 0.75574219 21.42203125 0.66210938 20.3515625 C0.57638672 19.31773437 0.49066406 18.28390625 0.40234375 17.21875 C0.32491943 16.28998047 0.24749512 15.36121094 0.16772461 14.40429688 C-0.0685642 9.60835636 0 4.80175778 0 0 Z " fill="#B2D9FB" transform="translate(178,341)"/>
<path d="M0 0 C1.80746452 -0.01441132 1.80746452 -0.01441132 3.65144348 -0.02911377 C4.95973618 -0.03336365 6.26802887 -0.03761353 7.6159668 -0.04199219 C8.96876528 -0.04774464 10.32156374 -0.05350236 11.67436218 -0.05926514 C14.51321798 -0.0697757 17.35204545 -0.07561767 20.19091797 -0.07910156 C23.82258191 -0.0845798 27.4538697 -0.1085927 31.08541584 -0.13707352 C33.88131286 -0.15573173 36.67711995 -0.16090722 39.47307396 -0.16243744 C41.4611228 -0.16692482 43.44912346 -0.18555815 45.43708801 -0.20440674 C47.25873726 -0.19990509 47.25873726 -0.19990509 49.1171875 -0.1953125 C50.71697197 -0.20078094 50.71697197 -0.20078094 52.34907532 -0.20635986 C55.73737521 0.2224771 57.53033896 1.11972894 60.25268555 3.16113281 C63.25268555 7.16113281 63.25268555 7.16113281 63.25268555 33.16113281 C38.17268555 33.16113281 13.09268555 33.16113281 -12.74731445 33.16113281 C-12.74731445 7.16113281 -12.74731445 7.16113281 -7.74731445 1.16113281 C-5.07047091 -0.17728896 -2.99746025 0.01923313 0 0 Z " fill="#61DCFB" transform="translate(230.747314453125,463.8388671875)"/>
<path d="M0 0 C0.88076706 0.00707474 1.76153412 0.01414948 2.66899109 0.0214386 C5.4716116 0.04934277 8.2722061 0.11207182 11.07421875 0.17578125 C12.97848669 0.20086935 14.88278607 0.22368163 16.78710938 0.24414062 C21.44608859 0.29915622 26.10356064 0.38539974 30.76171875 0.48828125 C30.43171875 1.47828125 30.10171875 2.46828125 29.76171875 3.48828125 C29.66724921 5.43310611 29.63100169 7.3810082 29.62890625 9.328125 C29.62761719 10.47345703 29.62632812 11.61878906 29.625 12.79882812 C29.63080078 14.59416992 29.63080078 14.59416992 29.63671875 16.42578125 C29.63285156 17.61880859 29.62898438 18.81183594 29.625 20.04101562 C29.62693359 21.76094727 29.62693359 21.76094727 29.62890625 23.515625 C29.63059814 25.08944946 29.63059814 25.08944946 29.63232422 26.69506836 C29.74599211 29.1487936 30.12764171 31.1353043 30.76171875 33.48828125 C25.15673853 33.61207456 19.55255753 33.70271143 13.9465332 33.76293945 C12.04046768 33.78805124 10.13449816 33.8221477 8.22875977 33.86547852 C5.48559877 33.92627869 2.74371289 33.9545237 0 33.9765625 C-1.27371712 34.01527214 -1.27371712 34.01527214 -2.57316589 34.05476379 C-6.85329104 34.05678317 -8.70994969 33.87054092 -12.27416992 31.29174805 C-14.41408364 28.23735038 -14.87943154 26.82357734 -14.90234375 23.14453125 C-14.90878906 22.14550781 -14.91523438 21.14648438 -14.921875 20.1171875 C-14.90253906 19.08464844 -14.88320312 18.05210938 -14.86328125 16.98828125 C-14.88261719 15.95574219 -14.90195313 14.92320313 -14.921875 13.859375 C-14.91542969 12.86035156 -14.90898437 11.86132812 -14.90234375 10.83203125 C-14.8967041 9.92646484 -14.89106445 9.02089844 -14.88525391 8.08789062 C-12.8893938 0.06829877 -6.98152298 -0.21217603 0 0 Z " fill="#FAC600" transform="translate(155.23828125,14.51171875)"/>
<path d="M0 0 C3.5 0.625 3.5 0.625 6.5 2.6875 C8.5 5.625 8.5 5.625 8.5 9.25 C7.02068474 14.24268902 7.02068474 14.24268902 4.5 15.625 C-0.49849676 16.26996732 -2.39183613 16.43303616 -6.5 13.4375 C-8.5 10.625 -8.5 10.625 -9.125 8.125 C-7.86601857 3.08907429 -4.99306976 0.8916196 0 0 Z " fill="#00070A" transform="translate(321.5,223.375)"/>
<path d="M0 0 C1.75 1.1875 1.75 1.1875 3.75 4.1875 C3.62059529 7.8108318 3.50012072 10.25735031 1.1875 13.125 C-2.34660276 14.66550633 -5.46568934 15.00008204 -9.25 14.1875 C-11.8125 12.125 -11.8125 12.125 -13.25 9.1875 C-13.25 5.3737249 -13.09985071 3.16325452 -10.5625 0.25 C-6.88042664 -1.44176343 -3.79138157 -1.36911001 0 0 Z " fill="#000609" transform="translate(195.25,224.8125)"/>
<path d="M0 0 C2.4375 1.5625 2.4375 1.5625 4 4 C4.5794767 6.96309737 4.39334385 8.90241716 4 12 C1.84154474 14.65656032 0.41685537 14.92904589 -2.9375 15.5 C-6.9922693 14.83799685 -8.38202631 13.06676918 -11 10 C-11.33 9.67 -11.66 9.34 -12 9 C-11.6559633 2.80733945 -11.6559633 2.80733945 -9.375 0 C-5.87599825 -1.47326389 -3.62561724 -0.97114747 0 0 Z " fill="#000709" transform="translate(306,271)"/>
<path d="M0 0 C2.9375 0.5625 2.9375 0.5625 5.3125 2.125 C7.58720619 5.53705929 7.57284983 7.53861774 6.9375 11.5625 C4.32181879 15.28786415 2.8771067 16.39765672 -1.625 17.1875 C-5.0625 16.5625 -5.0625 16.5625 -7.5625 14.4375 C-9.0625 11.5625 -9.0625 11.5625 -9.125 8.5625 C-7.41969571 3.74752319 -5.13145096 0.9425114 0 0 Z " fill="#000608" transform="translate(303.0625,176.4375)"/>
<path d="M0 0 C4.78313793 1.51046461 5.97834362 2.844991 8.5625 7.125 C8.5625 10.39155209 8.10716247 12.21722922 6.4375 15 C3.34620587 16.85477648 1.07814662 16.60991678 -2.4375 16.125 C-5.375 14.0625 -5.375 14.0625 -7.4375 11.125 C-8.07153837 7.10942365 -8.03921993 5.08775188 -5.875 1.625 C-3.4375 0.125 -3.4375 0.125 0 0 Z " fill="#000507" transform="translate(209.4375,176.875)"/>
<path d="M0 0 C2.375 1.4375 2.375 1.4375 4 4 C4.61379485 7.12633823 4.66421593 9.87933033 4 13 C1.57978103 15.83511365 0.07691649 16.78986995 -3.5625 17.5 C-6 17 -6 17 -8.3125 15.5625 C-10.7961559 11.79102253 -10.78937273 8.38987896 -10 4 C-7.35478334 -0.1713032 -4.79556761 -0.79926127 0 0 Z " fill="#000507" transform="translate(259,289)"/>
<path d="M0 0 C2.9375 0.5625 2.9375 0.5625 5.3125 2.125 C7.58720619 5.53705929 7.57284983 7.53861774 6.9375 11.5625 C4.45820473 14.9897611 3.08267131 16.37553325 -1.125 17.0625 C-4.47935537 16.49154589 -5.90404474 16.21906032 -8.0625 13.5625 C-8.784909 8.58590466 -8.86131382 6.69023716 -5.9375 2.5625 C-3.0625 0.5625 -3.0625 0.5625 0 0 Z " fill="#000406" transform="translate(210.0625,269.4375)"/>
<path d="M0 0 C2.4375 0.9375 2.4375 0.9375 4 3 C4.79344759 7.31897247 4.7451962 10.77787823 2.4375 14.5625 C-0.91522677 16.53974912 -3.17459766 16.48686939 -7 16 C-9.30910798 14.34149519 -9.92431106 13.45116546 -10.3984375 10.625 C-10.39070312 9.75875 -10.38296875 8.8925 -10.375 8 C-10.38273438 7.13375 -10.39046875 6.2675 -10.3984375 5.375 C-9.39948428 -0.57954468 -5.30150387 -0.55805304 0 0 Z " fill="#000405" transform="translate(259,158)"/>
</svg>
