<?xml version="1.0" encoding="UTF-8"?>
<svg version="1.1" xmlns="http://www.w3.org/2000/svg" width="512" height="512">
<path d="M0 0 C168.96 0 337.92 0 512 0 C512 168.96 512 337.92 512 512 C343.04 512 174.08 512 0 512 C0 343.04 0 174.08 0 0 Z " fill="#B25F30" transform="translate(0,0)"/>
<path d="M0 0 C168.96 0 337.92 0 512 0 C512 125.07 512 250.14 512 379 C484.61 379 457.22 379 429 379 C428.96261719 367.62144531 428.92523438 356.24289062 428.88671875 344.51953125 C428.85641555 337.27798297 428.82537139 330.03645019 428.79101562 322.79492188 C428.73671276 311.32024601 428.68529272 299.84561309 428.65356445 288.37084961 C428.63043386 280.01055255 428.5968712 271.65037007 428.55129844 263.29016417 C428.52756705 258.87238437 428.50870793 254.45471663 428.50238609 250.03687477 C428.42378423 201.5930451 420.02726096 155.4966794 387 118 C385.85337891 116.68902344 385.85337891 116.68902344 384.68359375 115.3515625 C382.48421644 112.87307639 380.25326316 110.42949603 378 108 C377.46246094 107.40832031 376.92492187 106.81664063 376.37109375 106.20703125 C347.53335992 75.77924694 303.46696049 58.91681154 262.2109375 57.67578125 C246.75818674 57.31660808 232.03781572 58.19163438 217 62 C215.67493468 62.30536877 214.34943345 62.6088542 213.0234375 62.91015625 C171.19786779 73.08037373 133.05510712 100.52636838 110.60546875 137.3203125 C110.07566406 138.20460937 109.54585938 139.08890625 109 140 C108.43925781 140.88429687 107.87851563 141.76859375 107.30078125 142.6796875 C90.45197446 170.01640324 83.91711973 202.18753984 83.79467773 233.91455078 C83.78508146 235.50221501 83.7750704 237.08987678 83.76467896 238.67753601 C83.73781312 242.95984925 83.71670524 247.24217331 83.69667697 251.52452326 C83.67470341 256.01017345 83.64737072 260.49579101 83.62062073 264.98141479 C83.57084672 273.46318802 83.52585162 281.9449795 83.48259836 290.42678821 C83.42382709 301.89702007 83.35762305 313.36720891 83.29184818 324.83740234 C83.18851293 342.89157251 83.09506479 360.94578 83 379 C55.61 379 28.22 379 0 379 C0 253.93 0 128.86 0 0 Z " fill="#F7F6F6" transform="translate(0,0)"/>
<path d="M0 0 C16.5030013 0 16.5030013 0 24.75 1.1875 C25.68827637 1.3213208 26.62655273 1.4551416 27.59326172 1.59301758 C64.08343979 7.13915387 95.21315458 25.15226965 122 50 C122.96292969 50.86431641 122.96292969 50.86431641 123.9453125 51.74609375 C135.43114656 62.5350885 144.45948957 76.2483859 152 90 C152.34369629 90.61633301 152.68739258 91.23266602 153.04150391 91.86767578 C160.73311975 105.81075978 165.7779735 120.81049064 169.3125 136.3125 C169.45977539 136.95558105 169.60705078 137.59866211 169.75878906 138.26123047 C172.51369959 151.32286129 173.29474949 164.30064784 173.22705078 177.59570312 C173.22648477 179.1842498 173.22680692 180.772797 173.22793579 182.36134338 C173.2285029 186.61857201 173.21685424 190.87568486 173.20278788 195.13288689 C173.19017188 199.6024604 173.18910154 204.0720374 173.18673706 208.54162598 C173.18055391 216.98074336 173.16418654 225.41980811 173.14403808 233.85890245 C173.11736951 245.28009005 173.10668083 256.70129234 173.09503365 268.12250328 C173.07630318 286.08170818 173.03643661 304.04080206 173 322 C200.39 322 227.78 322 256 322 C256 346.1357291 253.57671565 363.19446144 236.8515625 380.2734375 C220.33336457 396.06755004 202.11866423 398.31451952 180.3918457 398.22705078 C178.41980495 398.22648586 176.44776378 398.2268048 174.47572327 398.22793579 C169.1500609 398.22850716 163.82448951 398.21678791 158.4988482 398.20278788 C152.92283613 398.19024441 147.34682173 398.18910717 141.77079773 398.18673706 C131.22426899 398.1805329 120.67778196 398.16413651 110.13127154 398.14403808 C98.11915893 398.12164592 86.10704429 398.11067732 74.09491599 398.10064721 C49.39658225 398.07976931 24.69830564 398.04310639 0 398 C0 373.25 0 348.5 0 323 C-56.76 323 -113.52 323 -172 323 C-172 297.92 -172 272.84 -172 247 C-115.24 247 -58.48 247 0 247 C0 165.49 0 83.98 0 0 Z " fill="#2D2D2C" transform="translate(256,57)"/>
<path d="M0 0 C16.5030013 0 16.5030013 0 24.75 1.1875 C26.15741455 1.3882312 26.15741455 1.3882312 27.59326172 1.59301758 C64.08343979 7.13915387 95.21315458 25.15226965 122 50 C122.96292969 50.86431641 122.96292969 50.86431641 123.9453125 51.74609375 C135.43114656 62.5350885 144.45948957 76.2483859 152 90 C152.34369629 90.61633301 152.68739258 91.23266602 153.04150391 91.86767578 C160.73311975 105.81075978 165.7779735 120.81049064 169.3125 136.3125 C169.45977539 136.95558105 169.60705078 137.59866211 169.75878906 138.26123047 C172.51369959 151.32286129 173.29474949 164.30064784 173.22705078 177.59570312 C173.22648477 179.1842498 173.22680692 180.772797 173.22793579 182.36134338 C173.2285029 186.61857201 173.21685424 190.87568486 173.20278788 195.13288689 C173.19017188 199.6024604 173.18910154 204.0720374 173.18673706 208.54162598 C173.18055391 216.98074336 173.16418654 225.41980811 173.14403808 233.85890245 C173.11736951 245.28009005 173.10668083 256.70129234 173.09503365 268.12250328 C173.07630318 286.08170818 173.03643661 304.04080206 173 322 C200.39 322 227.78 322 256 322 C256 322.33 256 322.66 256 323 C228.28 323 200.56 323 172 323 C172 297.92 172 272.84 172 247 C115.24 247 58.48 247 0 247 C0 165.49 0 83.98 0 0 Z " fill="#854928" transform="translate(256,57)"/>
<path d="M0 0 C0.33 0 0.66 0 1 0 C1.12375 0.680625 1.2475 1.36125 1.375 2.0625 C5.14221209 19.76839683 14.19445386 34.11717959 29.0625 44.5 C34.14744223 47.67068843 39.27209239 50.22540286 45 52 C46.03866305 52.34103634 47.07732611 52.68207268 48.1474638 53.03344345 C55.0111372 54.71657368 62.16596305 54.27514259 69.18745422 54.25396729 C70.84881498 54.25627308 72.51017472 54.2594504 74.17153233 54.26342177 C78.72708287 54.27176231 83.28254949 54.26764782 87.83810031 54.26144934 C92.75505887 54.25692273 97.67200304 54.26390972 102.58895874 54.26940918 C112.21828749 54.27830317 121.84758507 54.27638096 131.47691504 54.2705839 C139.30462695 54.26606666 147.13233012 54.26545478 154.96004295 54.26763153 C156.07425366 54.267938 157.18846437 54.26824446 158.33643904 54.26856022 C160.59999473 54.26919967 162.86355041 54.2698481 165.12710609 54.2705054 C186.35446595 54.27620891 207.58180854 54.26965087 228.80916556 54.25890467 C247.01593348 54.24997283 265.2226759 54.25151813 283.42944336 54.26074219 C304.57633595 54.27145079 325.72321339 54.27565571 346.87010831 54.26951766 C349.12624212 54.26888057 351.38237593 54.26825183 353.63850975 54.26763153 C354.74853845 54.26732298 355.85856716 54.26701443 357.00223309 54.26669653 C364.81733729 54.26497109 372.63243186 54.26788153 380.44753456 54.27259064 C389.97637404 54.27820618 399.50518057 54.27666899 409.03401629 54.26602915 C413.89406755 54.26078096 418.75406393 54.25870113 423.61411476 54.26532745 C428.06714384 54.27130687 432.52006741 54.26797898 436.97308698 54.25737235 C438.58003053 54.25514671 440.18698307 54.25625573 441.79392079 54.26112393 C453.65591708 54.29428998 464.5564955 53.93183458 475.1875 48.25 C475.87529541 47.89147949 476.56309082 47.53295898 477.27172852 47.16357422 C482.22328831 44.53112916 486.87009 41.83168893 491 38 C491.72316406 37.3296875 492.44632812 36.659375 493.19140625 35.96875 C502.53611263 26.48173845 508.35821112 13.9887953 511 1 C511.33 1 511.66 1 512 1 C512 37.63 512 74.26 512 112 C343.04 112 174.08 112 0 112 C0 75.04 0 38.08 0 0 Z " fill="#F6F6F6" transform="translate(0,400)"/>
<path d="M0 0 C84.48 0 168.96 0 256 0 C256 24.75 256 49.5 256 75 C229.75660266 75.09039497 203.51333195 75.16403718 177.26981831 75.20724869 C165.08371203 75.2278484 152.89770956 75.2559195 140.71166992 75.30175781 C130.08672599 75.34170484 119.46185727 75.36745163 108.83684033 75.37635398 C103.21421983 75.38155538 97.59181444 75.39372662 91.96926308 75.42292023 C86.66939346 75.4502136 81.36982611 75.45841695 76.06989288 75.45243073 C74.13220511 75.45352476 72.19450648 75.46139516 70.25687981 75.4768219 C49.22969162 75.63592139 33.01883311 70.31374664 17.375 55.75 C1.91002077 39.74679644 0 21.608344 0 0 Z " fill="#844927" transform="translate(0,380)"/>
<path d="M0 0 C84.48 0 168.96 0 256 0 C256 23.6642618 253.26267222 40.51514849 236.8515625 57.2734375 C220.33336457 73.06755004 202.11866423 75.31451952 180.3918457 75.22705078 C178.41980495 75.22648586 176.44776378 75.2268048 174.47572327 75.22793579 C169.1500609 75.22850716 163.82448951 75.21678791 158.4988482 75.20278788 C152.92283613 75.19024441 147.34682173 75.18910717 141.77079773 75.18673706 C131.22426899 75.1805329 120.67778196 75.16413651 110.13127154 75.14403808 C98.11915893 75.12164592 86.10704429 75.11067732 74.09491599 75.10064721 C49.39658225 75.07976931 24.69830564 75.04310639 0 75 C0 50.25 0 25.5 0 0 Z " fill="#5A321C" transform="translate(256,380)"/>
<path d="M0 0 C56.76 0 113.52 0 172 0 C172 25.08 172 50.16 172 76 C115.24 76 58.48 76 0 76 C0 50.92 0 25.84 0 0 Z " fill="#45403F" transform="translate(84,304)"/>
<path d="M0 0 C0.33 0 0.66 0 1 0 C0.86177801 3.14621682 0.71314916 6.29185566 0.5625 9.4375 C0.50352539 10.78424805 0.50352539 10.78424805 0.44335938 12.15820312 C0.40146484 13.01220703 0.35957031 13.86621094 0.31640625 14.74609375 C0.27974854 15.53685303 0.24309082 16.3276123 0.20532227 17.14233398 C0 19 0 19 -1 20 C-1.12523079 22.82960718 -1.18609228 25.63599337 -1.20532227 28.46704102 C-1.21522186 29.35476196 -1.22512146 30.24248291 -1.23532104 31.15710449 C-1.26703484 34.10601082 -1.29173234 37.05493329 -1.31640625 40.00390625 C-1.33696726 42.0427239 -1.35796349 44.08153721 -1.37937927 46.12034607 C-1.4346881 51.49779755 -1.48405838 56.87528806 -1.53222656 62.25280762 C-1.58237742 67.73563121 -1.63809689 73.21839784 -1.69335938 78.70117188 C-1.80104865 89.4673993 -1.90246954 100.2336761 -2 111 C-2.33 111 -2.66 111 -3 111 C-3.06987079 98.8899072 -3.12299811 86.77986328 -3.15543652 74.66960907 C-3.17101448 69.04480306 -3.19210707 63.42013615 -3.22631836 57.79541016 C-3.25919486 52.3553686 -3.27691199 46.91545986 -3.28463173 41.47532654 C-3.29012491 39.41196099 -3.30084982 37.34860174 -3.31719017 35.28529358 C-3.40949415 23.13377414 -2.82161086 11.8572576 0 0 Z " fill="#A8633B" transform="translate(87,192)"/>
<path d="M0 0 C1.65 0 3.3 0 5 0 C4.62488281 0.556875 4.24976562 1.11375 3.86328125 1.6875 C0.47873126 6.73448638 -2.81361546 11.82564989 -6 17 C-6.66 15.68 -7.32 14.36 -8 13 C-8.66 13.66 -9.32 14.32 -10 15 C-9.67 12.03 -9.34 9.06 -9 6 C-8.01 6.33 -7.02 6.66 -6 7 C-6 7.66 -6 8.32 -6 9 C-5.01 9 -4.02 9 -3 9 C-2.690625 8.071875 -2.38125 7.14375 -2.0625 6.1875 C-1.375 4.125 -0.6875 2.0625 0 0 Z " fill="#F8F2ED" transform="translate(115,123)"/>
<path d="M0 0 C0.33 0.66 0.66 1.32 1 2 C-0.6415049 5.2830098 -3.82902851 6.27037919 -7 8 C-7 8.66 -7 9.32 -7 10 C-9.90600261 11.25664978 -11.79604584 12 -15 12 C-15.33 12.99 -15.66 13.98 -16 15 C-16.66 15 -17.32 15 -18 15 C-18 15.66 -18 16.32 -18 17 C-19.98 17.66 -21.96 18.32 -24 19 C-16.77893632 11.60979429 -8.92130372 5.21812104 0 0 Z " fill="#AC6C47" transform="translate(164,83)"/>
<path d="M0 0 C-1.29009643 0.50403768 -2.58213789 1.00309926 -3.875 1.5 C-4.59429687 1.7784375 -5.31359375 2.056875 -6.0546875 2.34375 C-8 3 -8 3 -10 3 C-9.67 3.99 -9.34 4.98 -9 6 C-10.6875 7.125 -10.6875 7.125 -13 8 C-15.75 7.125 -15.75 7.125 -18 6 C-15.14160085 3.69740069 -12.39581962 2.13731655 -9 0.75 C-8.154375 0.39421875 -7.30875 0.0384375 -6.4375 -0.328125 C-3.81117065 -1.05204912 -2.52787043 -0.9128421 0 0 Z " fill="#AF6C47" transform="translate(200,68)"/>
<path d="M0 0 C0.33 0 0.66 0 1 0 C0.88576707 3.06324619 0.75902148 6.12510914 0.625 9.1875 C0.5940625 10.05181641 0.563125 10.91613281 0.53125 11.80664062 C0.32654611 16.25895022 0.06277067 19.94992587 -2 24 C-2.33 24 -2.66 24 -3 24 C-3.15490223 18.26861756 -2.65244885 13.10650794 -1.5 7.5 C-1.35691406 6.77296875 -1.21382813 6.0459375 -1.06640625 5.296875 C-0.71766302 3.52990929 -0.35980277 1.76474691 0 0 Z " fill="#B17553" transform="translate(87,192)"/>
<path d="M0 0 C1.31611677 0.95336021 2.62778961 1.91285774 3.9375 2.875 C4.66839844 3.40867187 5.39929688 3.94234375 6.15234375 4.4921875 C8 6 8 6 9 8 C6.69 8.33 4.38 8.66 2 9 C2 7.35 2 5.7 2 4 C1.34 4 0.68 4 0 4 C0 2.68 0 1.36 0 0 Z " fill="#F6EEE5" transform="translate(18,436)"/>
<path d="M0 0 C1.6274637 0.61855631 3.25190356 1.24507305 4.875 1.875 C5.77992188 2.22304687 6.68484375 2.57109375 7.6171875 2.9296875 C10 4 10 4 12 6 C9.6875 6.6875 9.6875 6.6875 7 7 C5.4375 5.625 5.4375 5.625 4 4 C1.89667109 3.28552357 1.89667109 3.28552357 0 3 C0 2.01 0 1.02 0 0 Z " fill="#86553C" transform="translate(322,70)"/>
<path d="M0 0 C0.66 0 1.32 0 2 0 C1.38461538 6.52307692 1.38461538 6.52307692 -0.5625 8.9375 C-1.036875 9.288125 -1.51125 9.63875 -2 10 C-2.66 9.67 -3.32 9.34 -4 9 C-2.68 6.03 -1.36 3.06 0 0 Z " fill="#AE6A46" transform="translate(99,157)"/>
<path d="M0 0 C1.65 0 3.3 0 5 0 C4.04737966 1.48285242 3.08771595 2.96118201 2.125 4.4375 C1.59132813 5.26121094 1.05765625 6.08492187 0.5078125 6.93359375 C-1 9 -1 9 -3 10 C-2.21302675 6.58978257 -1.12880057 3.31114834 0 0 Z " fill="#F9EDE1" transform="translate(115,123)"/>
<path d="M0 0 C-0.33 0.99 -0.66 1.98 -1 3 C-3.3125 4.125 -3.3125 4.125 -6 5 C-6.70125 5.2475 -7.4025 5.495 -8.125 5.75 C-10 6 -10 6 -13 4 C-11.2097939 3.32942113 -9.41778511 2.6636531 -7.625 2 C-6.62726563 1.62875 -5.62953125 1.2575 -4.6015625 0.875 C-2 0 -2 0 0 0 Z " fill="#EFE3DB" transform="translate(476,449)"/>
<path d="M0 0 C0.33 0 0.66 0 1 0 C1.99 4.62 2.98 9.24 4 14 C3.34 14 2.68 14 2 14 C-0.3992233 9.35150485 -0.19957409 5.08913926 0 0 Z " fill="#F2E2D8" transform="translate(0,400)"/>
<path d="M0 0 C0.86625 0.495 0.86625 0.495 1.75 1 C4.19883862 2.27075898 4.19883862 2.27075898 8 2 C6.68 3.32 5.36 4.64 4 6 C2.62437146 4.71034824 1.29233607 3.37310707 0 2 C0 1.34 0 0.68 0 0 Z " fill="#F8EDE8" transform="translate(154,82)"/>
<path d="M0 0 C0.33 0 0.66 0 1 0 C1.17835515 4.54805635 0.99785435 7.8794254 -1 12 C-1.66 12 -2.32 12 -3 12 C-2.01 8.04 -1.02 4.08 0 0 Z " fill="#AF7250" transform="translate(92,174)"/>
<path d="M0 0 C0.33 0 0.66 0 1 0 C1.36923077 7.50769231 1.36923077 7.50769231 -0.5 10 C-0.995 10.33 -1.49 10.66 -2 11 C-1.125 3.375 -1.125 3.375 0 0 Z " fill="#E9DCD4" transform="translate(511,401)"/>
<path d="M0 0 C1.98 0.495 1.98 0.495 4 1 C2.63016497 4.16115776 2.0109362 4.9927092 -1 7 C-0.67 4.69 -0.34 2.38 0 0 Z " fill="#F6EBE1" transform="translate(122,114)"/>
<path d="M0 0 C-3.18762365 2.12508244 -5.26512223 2.5020163 -9 3 C-6.07868595 -0.19953443 -4.37453972 -1.45817991 0 0 Z " fill="#604435" transform="translate(472,450)"/>
<path d="M0 0 C0.66 0.66 1.32 1.32 2 2 C0.68 3.32 -0.64 4.64 -2 6 C-2.99 5.67 -3.98 5.34 -5 5 C-3.35 3.35 -1.7 1.7 0 0 Z " fill="#AE6845" transform="translate(139,102)"/>
</svg>
