<?xml version="1.0" encoding="UTF-8"?>
<svg version="1.1" xmlns="http://www.w3.org/2000/svg" width="512" height="512">
<path d="M0 0 C0.78307652 -0.00508782 1.56615303 -0.01017564 2.37295914 -0.01541764 C4.99969564 -0.03112651 7.62640465 -0.03966315 10.25317383 -0.04811096 C12.13574904 -0.05765088 14.0183225 -0.0675421 15.90089417 -0.07775879 C22.08731 -0.10913442 28.27373922 -0.12941271 34.46020508 -0.14796448 C35.51359573 -0.1512618 36.56698639 -0.15455912 37.65229797 -0.15795636 C47.59208972 -0.18874186 57.53188455 -0.21544246 67.47171021 -0.23237514 C80.17206787 -0.25426596 92.87200194 -0.29620426 105.57219028 -0.36581272 C114.50911247 -0.41312552 123.44592067 -0.4373186 132.38296413 -0.44457203 C137.71664495 -0.44951809 143.04984825 -0.46449929 148.38339233 -0.50431633 C153.406843 -0.54132358 158.42954619 -0.54954621 163.45310783 -0.5363102 C165.28964168 -0.53636391 167.12620984 -0.54656579 168.96261787 -0.56806183 C180.80311472 -0.69916981 190.44666506 0.04739526 199.72967529 8.36103153 C206.68171451 15.33542024 209.69580917 23.59039418 209.82849121 33.35545349 C209.81634583 34.8058905 209.81634583 34.8058905 209.80395508 36.28562927 C209.80778198 37.31317322 209.81160889 38.34071716 209.81555176 39.3993988 C209.81825629 41.55744922 209.81099822 43.71553325 209.79418945 45.8735199 C209.77275973 49.15226736 209.79404212 52.4288239 209.81958008 55.70750427 C209.81693654 57.81688405 209.81181104 59.92626247 209.80395508 62.03562927 C209.812052 63.00258728 209.82014893 63.96954529 209.82849121 64.96580505 C209.69731517 74.6200267 206.79163991 82.40676209 200.11254883 89.41062927 C193.6691784 95.53935529 186.39057458 99.16062927 177.27270508 99.16062927 C176.70661851 105.77599816 176.15665617 112.77735019 178.27270508 119.16062927 C181.60325638 123.09216431 186.67935404 124.5742689 191.3737793 126.34519958 C195.95251881 128.31138498 199.55181698 131.92537179 203.27270508 135.16062927 C203.87083008 135.61566833 204.46895508 136.0707074 205.08520508 136.53953552 C220.98611546 148.8701026 230.03517206 169.79987933 233.27270508 189.16062927 C234.1026981 197.3214473 233.94882975 205.52914557 233.90380859 213.72166443 C233.90895907 216.13035609 233.91624879 218.53904396 233.92549133 220.94772339 C233.94196837 226.76294872 233.9354714 232.57779855 233.91740311 238.3930123 C233.90327678 243.12546482 233.89950561 247.85782612 233.90284538 252.5902977 C233.90332282 253.26832933 233.90380027 253.94636096 233.90429218 254.644939 C233.90531868 256.02307144 233.90637405 257.40120386 233.90745794 258.77933626 C233.91599036 270.91626685 233.89946177 283.05303509 233.86962891 295.18992615 C233.84078714 306.92404495 233.83371852 318.65793004 233.84912109 330.39207458 C233.86593979 343.222326 233.86986097 356.05246692 233.85241073 368.8827213 C233.85056666 370.25467832 233.84873193 371.62663534 233.84690666 372.99859238 C233.84599457 373.67333074 233.84508248 374.3480691 233.84414275 375.04325408 C233.83857344 379.76237703 233.84181043 384.4814454 233.84845161 389.20056534 C233.85616157 395.56857891 233.84383527 401.93625943 233.81660271 408.30421638 C233.80976759 410.62883962 233.80956791 412.95349425 233.81681824 415.27811623 C233.86147185 431.4713997 233.04647079 447.14777054 225.64770508 461.91062927 C225.30924561 462.60543396 224.97078613 463.30023865 224.62207031 464.01609802 C213.50975506 485.92416698 193.86476609 501.38655236 170.89575195 509.32823181 C156.8878557 513.15541592 142.64815265 512.74963635 128.24263 512.69793129 C124.47367269 512.68765626 120.70475027 512.69723649 116.93579102 512.70347595 C110.61182551 512.71071088 104.28804813 512.70127498 97.96411133 512.68211365 C90.69931329 512.66035284 83.43496463 512.66740719 76.17017746 512.68941927 C69.88253364 512.70769295 63.59502345 512.71007374 57.3073616 512.69966459 C53.57401438 512.69349476 49.84087688 512.69241067 46.10754395 512.70581055 C10.04805471 512.81771016 10.04805471 512.81771016 -6.47729492 504.53562927 C-7.17209961 504.1971698 -7.8669043 503.85871033 -8.58276367 503.50999451 C-29.28312075 493.01026064 -44.53493836 474.68708456 -52.72729492 453.16062927 C-57.14915587 439.44573363 -57.30530173 426.14520621 -57.26074219 411.85838318 C-57.26781409 409.45323155 -57.2765644 407.04808437 -57.28684998 404.64294434 C-57.30689816 398.8281731 -57.30840755 393.01362602 -57.30022443 387.19883014 C-57.29388415 382.46539846 -57.295098 377.73202354 -57.30149651 372.99859238 C-57.30239816 372.32086721 -57.30329982 371.64314205 -57.30422879 370.94487976 C-57.30608029 369.56739572 -57.30794286 368.1899117 -57.30981635 366.81242768 C-57.32633538 353.94087264 -57.31772634 341.06942772 -57.30083077 328.19787936 C-57.28614141 316.46525414 -57.30076185 304.7328852 -57.32960094 293.00029297 C-57.35911145 280.90285248 -57.36993331 268.80552976 -57.36041874 256.7080549 C-57.35939636 255.33546919 -57.35840175 253.96288345 -57.35743523 252.5902977 C-57.35695884 251.91525078 -57.35648245 251.24020387 -57.35599162 250.54470099 C-57.35384269 245.82751574 -57.3635497 241.11044398 -57.37820625 236.39328384 C-57.39668632 230.02197154 -57.39045465 223.65113186 -57.36600685 217.27984428 C-57.36103792 214.95605512 -57.36438532 212.63222916 -57.3771553 210.30846977 C-57.50321818 185.37600959 -52.64823124 163.2182215 -35.72729492 144.16062927 C-35.18717773 143.47871521 -34.64706055 142.79680115 -34.09057617 142.09422302 C-28.41707755 135.07447049 -21.15644431 128.7470187 -12.65307617 125.51609802 C-6.59499449 123.24870265 -6.59499449 123.24870265 -1.72729492 119.16062927 C0.37172996 112.76728151 -0.1607296 105.781593 -0.72729492 99.16062927 C-1.42854492 99.06266052 -2.12979492 98.96469177 -2.85229492 98.86375427 C-12.88326585 97.28278603 -20.35618924 94.36090884 -26.72729492 86.16062927 C-30.29321276 80.18057585 -32.8152177 74.6724491 -32.90429688 67.65843201 C-32.91713211 66.77328415 -32.92996735 65.88813629 -32.94319153 64.97616577 C-32.95057846 64.02512466 -32.95796539 63.07408356 -32.96557617 62.09422302 C-32.97364792 61.10495316 -32.98171967 60.11568329 -32.99003601 59.09643555 C-33.00385975 57.00090782 -33.01458954 54.90535773 -33.02246094 52.80979919 C-33.03394965 50.68115068 -33.05435176 48.55253026 -33.08398438 46.42405701 C-33.12697483 43.3347482 -33.14287616 40.24629508 -33.15307617 37.15672302 C-33.17058426 36.21985153 -33.18809235 35.28298004 -33.20613098 34.31771851 C-33.17303048 24.05331562 -30.0640883 15.52592031 -22.94995117 8.10594177 C-15.85712598 1.89816155 -9.24250855 0.01491558 0 0 Z " fill="#010100" transform="translate(167.727294921875,-0.1606292724609375)"/>
<path d="M0 0 C85.14 0 170.28 0 258 0 C258 78.21002907 258 78.21002907 235.8125 101.6875 C219.76836097 117.17915491 199.98547692 122.30814203 178.23339844 122.29052734 C177.01864334 122.29724457 175.80388824 122.30396179 174.55232239 122.31088257 C171.25656933 122.32649775 167.9609685 122.33323001 164.66518307 122.33451414 C162.59590291 122.33594683 160.52664832 122.34023725 158.45737457 122.34550858 C151.20935925 122.36394748 143.96141691 122.3721869 136.71337891 122.37060547 C130.00365646 122.3694056 123.29425644 122.39049321 116.58461547 122.4220928 C110.78458099 122.44841533 104.9846508 122.45896614 99.1845572 122.45769465 C95.73784884 122.4571897 92.29142771 122.46260951 88.84477997 122.48405075 C71.7016536 122.57214579 55.31402582 122.60947535 39.75 114.4375 C39.09580078 114.10161865 38.44160156 113.7657373 37.76757812 113.41967773 C30.82830266 109.6631602 25.44563285 104.64128433 20 99 C19.26265625 98.29359375 18.5253125 97.5871875 17.765625 96.859375 C13.52266652 92.55063422 10.53925136 87.82050347 7.75 82.5 C7.43256836 81.91452393 7.11513672 81.32904785 6.78808594 80.72583008 C-5.25125328 56.32749516 0 24.83269592 0 0 Z " fill="#8AEEFD" transform="translate(127,374)"/>
<path d="M0 0 C3.69114524 0.01662221 7.38225 0.00754173 11.07341719 0.00248075 C17.26459149 -0.0020132 23.45546101 0.01366307 29.64656782 0.04177213 C36.76373229 0.07384031 43.88034853 0.07378845 50.99755204 0.05655736 C57.89979478 0.04059513 64.80184008 0.04748582 71.70407438 0.06449437 C74.61679038 0.07129544 77.52934476 0.07040523 80.44205809 0.06294942 C109.54892365 0.00420041 109.54892365 0.00420041 121.50984907 4.63869596 C122.25504301 4.91884046 123.00023695 5.19898496 123.76801252 5.48761868 C141.27947963 12.71735356 154.64560434 26.58116233 162.50984907 43.63869596 C172.95256302 69.02194545 168.50984907 92.59864357 168.50984907 121.63869596 C83.36984907 121.63869596 -1.77015093 121.63869596 -89.49015093 121.63869596 C-89.49015093 54.93862612 -89.49015093 54.93862612 -81.74015093 40.32619596 C-81.39581011 39.66160367 -81.05146929 38.99701138 -80.6966939 38.31227994 C-71.62617432 21.33650762 -56.60670721 9.14719509 -38.44181108 2.9436276 C-26.00017582 -0.83177181 -12.86927359 -0.07312553 0 0 Z " fill="#8AEFFE" transform="translate(216.49015092849731,129.3613040447235)"/>
<path d="M0 0 C85.14 0 170.28 0 258 0 C258 30.03 258 60.06 258 91 C172.86 91 87.72 91 0 91 C0 60.97 0 30.94 0 0 Z " fill="#FDE100" transform="translate(127,267)"/>
<path d="M0 0 C0.7449144 -0.00297112 1.48982879 -0.00594224 2.25731635 -0.0090034 C4.76064651 -0.01769502 7.26392888 -0.01919904 9.76727295 -0.02069092 C11.55929161 -0.0253188 13.35130928 -0.03034342 15.14332581 -0.03573608 C20.01742929 -0.04886578 24.89151899 -0.05530626 29.7656374 -0.05974674 C32.81053414 -0.06267681 35.85542711 -0.06678151 38.90032196 -0.07125092 C48.4262777 -0.08492792 57.95222483 -0.09459334 67.47818971 -0.09845281 C78.47582237 -0.10293291 89.47333071 -0.12047776 100.47092557 -0.1494534 C108.97039077 -0.17106997 117.46982099 -0.18115709 125.96931338 -0.18249393 C131.04615223 -0.18354205 136.12287423 -0.18945149 141.19968414 -0.20731354 C145.97672317 -0.22379354 150.75355753 -0.22595004 155.53061485 -0.21717453 C157.28214504 -0.21640409 159.03368622 -0.22074774 160.78518867 -0.23063278 C163.18035906 -0.24335566 165.57480494 -0.23747396 167.9699707 -0.22705078 C168.65957799 -0.23510719 169.34918528 -0.24316359 170.05968976 -0.25146413 C175.68479425 -0.19439594 180.40590635 1.09554077 184.69989014 4.85919189 C185.39985107 5.74091064 185.39985107 5.74091064 186.11395264 6.64044189 C186.8371167 7.52216064 186.8371167 7.52216064 187.57489014 8.42169189 C190.34426658 12.51070409 189.91731321 16.94891657 189.94207764 21.68341064 C189.94777771 22.52583817 189.95347778 23.36826569 189.95935059 24.23622131 C189.96879662 26.02076972 189.975333 27.80533554 189.97918701 29.58990479 C189.9888545 32.30042653 190.01986529 35.01017743 190.05145264 37.72052002 C190.05798699 39.45814575 190.06323576 41.19577688 190.06707764 42.93341064 C190.07942444 43.73578659 190.09177124 44.53816254 190.10449219 45.36485291 C190.08177601 51.19715606 189.41400324 57.18467291 185.32226562 61.70579529 C180.4791398 65.90299364 176.50099606 66.28920602 170.36401367 66.28761292 C169.60684862 66.2912896 168.84968357 66.29496629 168.06957412 66.29875439 C165.52478982 66.30979392 162.98004636 66.31363552 160.4352417 66.31744385 C158.61366648 66.32370828 156.79209255 66.33035506 154.97052002 66.33735657 C150.01584467 66.35476763 145.06117896 66.36531856 140.1064806 66.3735621 C137.01133113 66.37871191 133.91618465 66.38478764 130.82103729 66.39107323 C121.1381067 66.41012539 111.45518375 66.42435662 101.77223802 66.4326852 C90.59288855 66.44245949 79.41373698 66.46878396 68.23445725 66.50918609 C59.5948667 66.53933889 50.95533291 66.55415327 42.31569076 66.55746621 C37.15497419 66.55981757 31.99446905 66.5687894 26.8338089 66.59392738 C21.97793436 66.61719854 17.12241059 66.62144515 12.26649475 66.611166 C10.48593225 66.6106703 8.70535254 66.61700072 6.92484283 66.63072205 C4.4900844 66.64843288 2.05658593 66.64133959 -0.37817383 66.62818909 C-1.07945396 66.63915833 -1.7807341 66.65012758 -2.50326514 66.66142923 C-7.90509881 66.59119796 -10.90972211 65.12316456 -15.26104736 62.14044189 C-19.55100912 56.57542753 -19.85369541 51.9242166 -19.79229736 45.04278564 C-19.79612427 44.09029434 -19.79995117 43.13780304 -19.80389404 42.15644836 C-19.80660463 40.15199724 -19.79930347 38.14751023 -19.78253174 36.14312744 C-19.76108622 33.08348508 -19.78237477 30.02618431 -19.80792236 26.96661377 C-19.8052794 25.01283257 -19.80015507 23.05905283 -19.79229736 21.10528564 C-19.80039429 20.19576645 -19.80849121 19.28624725 -19.8168335 18.34916687 C-19.7349845 12.78033007 -18.98178558 9.55177168 -15.26104736 5.14044189 C-10.26414443 0.63104169 -6.53443882 -0.00810556 0 0 Z " fill="#FAC900" transform="translate(171.26104736328125,15.85955810546875)"/>
<path d="M0 0 C0.72096979 -0.00367669 1.44193958 -0.00735338 2.18475693 -0.01114148 C4.61293975 -0.02219943 7.0410798 -0.02602571 9.46928406 -0.02983093 C11.20528805 -0.03609395 12.9412907 -0.04274061 14.67729187 -0.04974365 C19.4025604 -0.06716751 24.1278188 -0.07770903 28.85311151 -0.08594918 C31.8036792 -0.09109604 34.75424373 -0.09717189 37.70480919 -0.10346031 C46.93175763 -0.12251562 56.15869804 -0.13674645 65.38566238 -0.14507228 C76.04547153 -0.15484919 86.70507328 -0.18117911 97.36480933 -0.22157317 C105.59840712 -0.25170568 113.83194536 -0.2665384 122.06559724 -0.26985329 C126.98593633 -0.27220692 131.90605393 -0.28120789 136.826334 -0.30631447 C141.45483928 -0.32955036 146.08297654 -0.33384656 150.71152496 -0.32355309 C152.41068684 -0.32305653 154.10986657 -0.32941212 155.80897331 -0.34310913 C158.12846334 -0.3607616 160.44662307 -0.35375591 162.76611328 -0.34057617 C164.06416554 -0.34296453 165.36221781 -0.34535288 166.69960499 -0.34781361 C170.63989876 0.23026196 172.27855596 1.36715406 175.0735321 4.14717102 C176.58222268 7.16455216 176.25705102 10.29321275 176.2766571 13.60420227 C176.28235718 14.34417953 176.28805725 15.0841568 176.29393005 15.84655762 C176.30338229 17.41427683 176.30991493 18.98201593 176.31376648 20.54975891 C176.32345242 22.94000809 176.35446406 25.32939007 176.3860321 27.71943665 C176.39256433 29.24352009 176.39781394 30.76760967 176.4016571 32.29170227 C176.41400391 33.00333023 176.42635071 33.71495819 176.43907166 34.44815063 C176.41943891 38.85652604 175.78733837 41.64342084 173.0735321 45.14717102 C170.09238622 46.63774396 167.39146459 46.28351306 164.06440735 46.29434204 C162.96964366 46.29985707 162.96964366 46.29985707 161.85276353 46.30548352 C159.39460776 46.31654187 156.93649422 46.3203678 154.47831726 46.32417297 C152.72098658 46.33043591 150.96365723 46.33708256 149.20632935 46.34408569 C144.42327851 46.36150908 139.64023767 46.3720507 134.85716295 46.38029122 C131.87109102 46.38543763 128.88502221 46.39151346 125.89895248 46.39780235 C116.5625492 46.41685656 107.22615386 46.43108826 97.88973486 46.43941432 C87.10030571 46.44919424 76.31108131 46.47553245 65.52172434 46.51591522 C57.18962921 46.54603456 48.85759292 46.56087914 40.52544439 46.56419533 C35.54533462 46.56655025 30.56544354 46.57556803 25.585392 46.60065651 C20.90189909 46.62386977 16.21876989 46.6281978 11.53523445 46.61789513 C9.81468944 46.61739804 8.09412693 46.62376927 6.37363625 46.63745117 C4.02752535 46.6550669 1.68273446 46.64811621 -0.66337585 46.63491821 C-1.9770986 46.63730657 -3.29082134 46.63969492 -4.64435387 46.64215565 C-8.46740892 46.06559022 -9.6060921 45.16855263 -11.9264679 42.14717102 C-13.43430935 39.13148811 -13.13067901 36.00033068 -13.16474915 32.69013977 C-13.17282089 31.95016251 -13.18089264 31.21018524 -13.18920898 30.44778442 C-13.20304673 28.88007447 -13.21377028 27.31233443 -13.22163391 25.74458313 C-13.23882811 23.3541047 -13.28271139 20.96501643 -13.32685852 18.5749054 C-13.33698745 17.05082701 -13.34550293 15.52673688 -13.35224915 14.00263977 C-13.36975723 13.29101181 -13.38726532 12.57938385 -13.40530396 11.84619141 C-13.38958048 8.22445971 -13.01662053 6.28600538 -11.02485657 3.21870422 C-7.42105551 -0.33897489 -4.97986771 0.01640915 0 0 Z " fill="#030401" transform="translate(175.9264678955078,411.8528289794922)"/>
<path d="M0 0 C48.18 0 96.36 0 146 0 C146 5.61 146 11.22 146 17 C144.28181564 16.83766876 142.56363129 16.67533752 140.79338074 16.50808716 C134.285927 15.96854168 127.83268585 15.85871973 121.3059082 15.87060547 C119.4961702 15.86797699 119.4961702 15.86797699 117.64987183 15.86529541 C114.37940731 15.86167961 111.10898409 15.86248262 107.83852029 15.8656745 C104.39545378 15.86823094 100.95238975 15.86585166 97.50932312 15.86428833 C91.73399368 15.86247687 85.95867709 15.86484672 80.18334961 15.86962891 C73.52700756 15.8750773 66.87069613 15.87330055 60.21435481 15.8678025 C54.47219117 15.86325134 48.73003669 15.86263038 42.98787183 15.86524117 C39.57000203 15.86679195 36.15214658 15.86703068 32.73427773 15.86370468 C28.92480033 15.86115693 25.11538127 15.86504834 21.3059082 15.87060547 C20.18827591 15.86858124 19.07064362 15.86655701 17.91914368 15.86447144 C11.86272584 15.88078596 6.00580821 16.20814028 0 17 C0 11.39 0 5.78 0 0 Z " fill="#F9DD00" transform="translate(183,98)"/>
<path d="M0 0 C51.81 0 103.62 0 157 0 C157 4.29 157 8.58 157 13 C105.19 13 53.38 13 0 13 C0 8.71 0 4.42 0 0 Z " fill="#FBCA00" transform="translate(179,429)"/>
<path d="M0 0 C4.03980795 0.84162666 5.33164176 2.51495331 8 5.625 C9.39379883 8.76293945 9.39379883 8.76293945 10.45703125 12.23828125 C11.04194336 14.1090332 11.04194336 14.1090332 11.63867188 16.01757812 C12.03028941 17.32411644 12.42156122 18.63075843 12.8125 19.9375 C13.22187316 21.26411528 13.63266741 22.59029291 14.04492188 23.91601562 C15.04399709 27.14831778 16.02840889 30.38435138 17 33.625 C19.4918205 31.1331795 20.07882524 28.99068147 21.2421875 25.6640625 C21.66886719 24.47039062 22.09554687 23.27671875 22.53515625 22.046875 C23.42745598 19.52575348 24.31047743 17.00171751 25.19140625 14.4765625 C25.62066406 13.2803125 26.04992187 12.0840625 26.4921875 10.8515625 C26.87745605 9.75408691 27.26272461 8.65661133 27.65966797 7.52587891 C29.07570132 4.46115973 30.36746782 2.7214257 33 0.625 C36.9491615 0.06083407 39.0464384 -0.02743688 42.375 2.25 C44.36200925 5.15409044 44.67799168 7.13021703 45 10.625 C44.38789368 13.3629303 44.38789368 13.3629303 43.34106445 16.18383789 C42.95348465 17.24836685 42.56590485 18.31289581 42.1665802 19.40968323 C41.73649155 20.54421432 41.30640289 21.67874542 40.86328125 22.84765625 C40.20950752 24.61501381 40.20950752 24.61501381 39.54252625 26.41807556 C38.61845384 28.90628931 37.68919463 31.39171512 36.75024414 33.87426758 C35.55168461 37.04464101 34.37415972 40.22232239 33.20336628 43.40303898 C32.07904486 46.45077086 30.93948361 49.49277393 29.80078125 52.53515625 C29.38081375 53.67171158 28.96084625 54.80826691 28.52815247 55.97926331 C27.92314156 57.57132851 27.92314156 57.57132851 27.3059082 59.19555664 C26.78176079 60.59071251 26.78176079 60.59071251 26.24702454 62.01405334 C24.82964409 64.98168119 23.23641947 67.21551004 21 69.625 C17.5625 70.75 17.5625 70.75 14 70.625 C8.10145229 66.42312636 6.82797409 60.21890346 4.79296875 53.53515625 C4.23758171 51.76923378 4.23758171 51.76923378 3.67097473 49.96763611 C2.89309785 47.48277078 2.12280825 44.99551922 1.35961914 42.50610352 C0.19110353 38.69923982 -1.00299751 34.90113581 -2.20117188 31.10351562 C-2.95465138 28.68537092 -3.70665463 26.26676561 -4.45703125 23.84765625 C-4.81320023 22.71312515 -5.1693692 21.57859406 -5.53633118 20.40968323 C-6.02265266 18.81288979 -6.02265266 18.81288979 -6.51879883 17.18383789 C-6.94918205 15.78748863 -6.94918205 15.78748863 -7.38825989 14.3629303 C-8.06767935 11.32209142 -8.24718744 8.73120115 -8 5.625 C-5.54405875 2.30225596 -4.0743356 0.84881992 0 0 Z " fill="#030200" transform="translate(193,277.375)"/>
<path d="M0 0 C1.29693535 -0.02409439 1.29693535 -0.02409439 2.62007141 -0.04867554 C6.57613345 -0.09313499 10.5320278 -0.1341907 14.48828125 -0.15722656 C16.57465774 -0.17378639 18.66097749 -0.20107668 20.74707031 -0.23925781 C23.75510082 -0.29403155 26.7618016 -0.31590132 29.77026367 -0.33056641 C30.70062943 -0.35323578 31.63099518 -0.37590515 32.58955383 -0.39926147 C37.15387381 -0.38437899 39.16673263 -0.29658442 42.90576172 2.53417969 C44.81323242 5.19287109 44.81323242 5.19287109 45.37573242 8.25537109 C44.69501727 11.8102169 43.61250783 12.96991709 40.81323242 15.19287109 C37.92907359 16.63495051 35.39601714 16.28681996 32.18823242 16.25537109 C30.9997168 16.24634766 29.81120117 16.23732422 28.58666992 16.22802734 C27.67143555 16.21642578 26.75620117 16.20482422 25.81323242 16.19287109 C25.82211487 16.79786438 25.83099731 17.40285767 25.84014893 18.02618408 C25.92860835 24.32009437 25.98896084 30.61382823 26.03295898 36.90820312 C26.05308057 39.25755994 26.08038093 41.60686664 26.11499023 43.95605469 C26.16348282 47.33199424 26.18619599 50.70727196 26.20385742 54.08349609 C26.22450256 55.13466614 26.24514771 56.18583618 26.26641846 57.26885986 C26.26865898 64.541744 26.26865898 64.541744 23.97241211 67.82470703 C21.11025315 69.63831386 19.21350316 70.19287109 15.81323242 70.19287109 C13.06606856 68.4224766 11.2817732 67.12995266 9.81323242 64.19287109 C9.7233215 62.65059253 9.69566281 61.10446214 9.69970703 59.55957031 C9.69978256 58.59872528 9.69985809 57.63788025 9.69993591 56.6479187 C9.7050972 55.60829987 9.71025848 54.56868103 9.71557617 53.49755859 C9.71699112 52.43497833 9.71840607 51.37239807 9.71986389 50.27761841 C9.72547408 46.874341 9.73802833 43.47112871 9.75073242 40.06787109 C9.75574611 37.76448663 9.76030924 35.46110113 9.7644043 33.15771484 C9.77544683 27.5027446 9.79219491 21.8478125 9.81323242 16.19287109 C8.49258789 16.26248047 8.49258789 16.26248047 7.14526367 16.33349609 C5.4030957 16.38763672 5.4030957 16.38763672 3.62573242 16.44287109 C1.90290039 16.51248047 1.90290039 16.51248047 0.14526367 16.58349609 C-3.84270038 16.11597393 -5.39629349 15.0241565 -8.18676758 12.19287109 C-9.44286773 8.50307689 -9.53029571 6.9290028 -7.87426758 3.38037109 C-5.4262064 0.20695846 -3.83352557 0.06468782 0 0 Z " fill="#010100" transform="translate(282.186767578125,277.80712890625)"/>
<path d="M0 0 C12.59535727 2.75799978 21.92211876 9.07729621 31 18 C31.57878906 18.56589844 32.15757812 19.13179687 32.75390625 19.71484375 C41.21604387 28.75143458 45.92893625 41.62025409 46.4375 53.875 C46.32213022 57.38625415 46.03086387 58.9406464 44.375 62.125 C41.4369596 64.44450558 39.7418377 65 36 65 C31.43478261 62.86956522 31.43478261 62.86956522 30 60 C29.78235005 57.91761938 29.57592959 55.83406042 29.375 53.75 C27.93507362 43.15781428 23.19396419 31.71279884 14.484375 25.0859375 C5.86068576 19.68997195 -0.36551188 16.99761084 -10.50390625 16.30859375 C-13.60163489 15.92561947 -15.60508973 14.99575856 -18 13 C-19.54586876 9.90826248 -19.29359521 7.40570448 -19 4 C-14.46729355 -2.28982969 -6.90639909 -0.6742934 0 0 Z " fill="#010303" transform="translate(323,146)"/>
<path d="M0 0 C3.88861572 0.70702104 5.07220046 1.53191599 7.4375 4.625 C8.74132164 7.23264328 8.58606248 9.17664828 8.61450195 12.09692383 C8.62733719 13.24183792 8.64017242 14.38675201 8.65339661 15.56636047 C8.66078354 16.80903183 8.66817047 18.05170319 8.67578125 19.33203125 C8.683853 20.60471359 8.69192474 21.87739594 8.70024109 23.18864441 C8.71409227 25.88629812 8.72510561 28.58382918 8.73266602 31.28149414 C8.74372269 34.73168249 8.77811336 38.18122449 8.81783772 41.63118458 C8.85031973 44.92723599 8.85478435 48.22334417 8.86328125 51.51953125 C8.88078934 52.75612991 8.89829742 53.99272858 8.91633606 55.26679993 C8.91341049 56.4211705 8.91048492 57.57554108 8.9074707 58.76489258 C8.91627007 60.28473503 8.91627007 60.28473503 8.92524719 61.83528137 C8.300093 65.410913 6.9752141 67.07024106 4.4375 69.625 C1 70.6875 1 70.6875 -2.5625 70.625 C-5.98991629 68.53874661 -7.28731037 67.4505689 -8.5625 63.625 C-8.67546679 61.8014365 -8.73158713 59.97412119 -8.75537109 58.1472168 C-8.77143402 57.02562668 -8.78749695 55.90403656 -8.80404663 54.74845886 C-8.84852416 49.62407308 -8.88998992 44.49977509 -8.91259766 39.37524414 C-8.92593126 36.6717745 -8.95377545 33.96906072 -8.99462891 31.26586914 C-9.049365 27.36842112 -9.07126724 23.47199926 -9.0859375 19.57421875 C-9.10860687 18.36779221 -9.13127625 17.16136566 -9.15463257 15.91838074 C-9.13106065 6.56378691 -9.13106065 6.56378691 -6.25244141 2.85473633 C-3.5625 0.625 -3.5625 0.625 0 0 Z " fill="#0A0900" transform="translate(256.5625,277.375)"/>
<path d="M0 0 C3.91851711 0.64121189 5.06308226 1.45749219 7.4375 4.5625 C9.53564417 8.75878834 8.66438527 14.21284849 8.67773438 18.82885742 C8.68741423 20.85702939 8.71842532 22.88417642 8.75 24.91210938 C8.75515625 26.19537109 8.7603125 27.47863281 8.765625 28.80078125 C8.77964355 30.564823 8.77964355 30.564823 8.79394531 32.36450195 C8.40187422 35.88213159 7.54676601 37.74939644 5.4375 40.5625 C2.25928465 42.15160767 -1.10189729 41.96670974 -4.5625 41.5625 C-7.23681489 39.75086733 -7.52170359 38.68488923 -8.5625 35.5625 C-8.83457241 31.30921612 -8.87568644 27.0542085 -8.91259766 22.79345703 C-8.92915888 21.39289739 -8.95645225 19.99242234 -8.99462891 18.59228516 C-9.04958507 16.56368605 -9.07129305 14.53705703 -9.0859375 12.5078125 C-9.1156665 10.69047607 -9.1156665 10.69047607 -9.14599609 8.83642578 C-8.17801633 3.40520876 -5.38008214 0.84948665 0 0 Z " fill="#090700" transform="translate(304.5625,27.4375)"/>
<path d="M0 0 C3.31749733 2.57893919 4.82282495 4.06631562 5.61523438 8.2421875 C5.60814453 9.44101562 5.60105469 10.63984375 5.59375 11.875 C5.59117187 13.18984375 5.58859375 14.5046875 5.5859375 15.859375 C5.57143555 16.53935547 5.55693359 17.21933594 5.54199219 17.91992188 C5.50011193 19.99445557 5.50092899 22.0657394 5.5078125 24.140625 C5.3855198 36.6144802 5.3855198 36.6144802 1 41 C-6.22962963 41.59259259 -6.22962963 41.59259259 -9.4375 39.125 C-13.1160292 34.12220028 -12.22280572 28.76032564 -12.24023438 22.73364258 C-12.24991423 20.70547061 -12.28092532 18.67832358 -12.3125 16.65039062 C-12.31765625 15.36712891 -12.3228125 14.08386719 -12.328125 12.76171875 C-12.3374707 11.58569092 -12.34681641 10.40966309 -12.35644531 9.19799805 C-11.96437422 5.68036841 -11.10926601 3.81310356 -9 1 C-5.86128812 -0.56935594 -3.46144178 -0.35201103 0 0 Z " fill="#090700" transform="translate(211,28)"/>
<path d="M0 0 C0.66 -0.02191406 1.32 -0.04382813 2 -0.06640625 C5.17491917 0.931957 6.20498081 2.8178385 8 5.5625 C8.51757812 8.98828125 8.51757812 8.98828125 8.53125 12.875 C8.5350769 13.56634033 8.53890381 14.25768066 8.54284668 14.9699707 C8.54555787 16.42563338 8.53825211 17.88134544 8.52148438 19.33691406 C8.5000584 21.55645045 8.52130772 23.77275096 8.546875 25.9921875 C8.54423158 27.41146543 8.53910629 28.83074135 8.53125 30.25 C8.52673828 31.53261719 8.52222656 32.81523438 8.51757812 34.13671875 C7.91460535 38.12771594 6.8767341 39.77590528 4 42.5625 C0.5625 43.6875 0.5625 43.6875 -3 43.5625 C-6.5632367 40.87848247 -7.85819552 39.3770666 -8.63110352 34.93725586 C-8.65713794 33.55086272 -8.65496563 32.16373642 -8.62890625 30.77734375 C-8.63131821 30.03923965 -8.63373016 29.30113556 -8.63621521 28.54066467 C-8.63523926 26.98660893 -8.62190542 25.43251735 -8.59692383 23.87866211 C-8.5625462 21.50319256 -8.57628963 19.13143278 -8.59570312 16.75585938 C-8.58880575 15.24217171 -8.57913434 13.72849361 -8.56640625 12.21484375 C-8.57136612 11.50746567 -8.57632599 10.80008759 -8.58143616 10.0712738 C-8.49970667 6.64307914 -8.22841275 4.85457642 -6.08959961 2.11962891 C-3.83422477 0.43896753 -2.77990664 -0.00542951 0 0 Z " fill="#030200" transform="translate(337,27.4375)"/>
<path d="M0 0 C0.99 0.03287109 0.99 0.03287109 2 0.06640625 C2.66 0.06511719 3.32 0.06382813 4 0.0625 C6.97700605 0.90559742 8.09549712 2.19357644 10 4.62890625 C10.41043031 7.31858664 10.58525355 9.59324165 10.56640625 12.28125 C10.57570412 13.38697105 10.57570412 13.38697105 10.58518982 14.51502991 C10.59227893 16.07079755 10.58912966 17.6266412 10.57641602 19.18237305 C10.56256101 21.555954 10.59661052 23.92558083 10.63476562 26.29882812 C10.63571703 27.81380304 10.63385682 29.32878287 10.62890625 30.84375 C10.64216446 31.54910385 10.65542267 32.2544577 10.66908264 32.98118591 C10.59669696 36.83589082 10.07651042 38.53052879 7.68334961 41.60766602 C5 43.62890625 5 43.62890625 1.4375 43.75390625 C-2.69944642 42.39999651 -3.70253708 41.27622117 -6 37.62890625 C-6.51757812 34.203125 -6.51757812 34.203125 -6.53125 30.31640625 C-6.5350769 29.62506592 -6.53890381 28.93372559 -6.54284668 28.22143555 C-6.54555787 26.76577287 -6.53825211 25.31006081 -6.52148438 23.85449219 C-6.5000584 21.6349558 -6.52130772 19.41865529 -6.546875 17.19921875 C-6.54423158 15.77994082 -6.53910629 14.3606649 -6.53125 12.94140625 C-6.52673828 11.65878906 -6.52222656 10.37617187 -6.51757812 9.0546875 C-5.87714158 4.81572261 -4.32780288 1.36089114 0 0 Z " fill="#030200" transform="translate(173,27.37109375)"/>
<path d="M0 0 C0.99 0.03287109 0.99 0.03287109 2 0.06640625 C2.66 0.06511719 3.32 0.06382813 4 0.0625 C6.97903467 0.90617193 8.09642323 2.18976585 10 4.62890625 C10.3982295 7.33085583 10.56200004 9.61805197 10.53125 12.31640625 C10.5350769 13.05592529 10.53890381 13.79544434 10.54284668 14.55737305 C10.54556271 16.11736415 10.53822292 17.67740103 10.52148438 19.23730469 C10.50006673 21.62147811 10.52129263 24.00263874 10.546875 26.38671875 C10.54423166 27.90495455 10.53910656 29.42318848 10.53125 30.94140625 C10.53934692 31.65192139 10.54744385 32.36243652 10.55578613 33.09448242 C10.4917113 36.48655918 10.23643893 38.31981291 8.15039062 41.046875 C5.32209273 43.12763912 3.51361837 43.62890625 0 43.62890625 C-2.74716387 41.85851176 -4.53145922 40.56598781 -6 37.62890625 C-6.2588935 33.1163032 -6.27104714 28.59990068 -6.29516602 24.08081055 C-6.31235651 21.83515052 -6.35624 19.59097192 -6.40039062 17.34570312 C-6.41052001 15.91277122 -6.41903535 14.47982682 -6.42578125 13.046875 C-6.44036377 11.74516357 -6.45494629 10.44345215 -6.4699707 9.10229492 C-5.89047472 4.81944331 -4.36621417 1.37296969 0 0 Z " fill="#010100" transform="translate(270,27.37109375)"/>
<path d="M0 0 C0.66 -0.02191406 1.32 -0.04382813 2 -0.06640625 C5.17491917 0.931957 6.20498081 2.8178385 8 5.5625 C8.51757812 8.98828125 8.51757812 8.98828125 8.53125 12.875 C8.5350769 13.56634033 8.53890381 14.25768066 8.54284668 14.9699707 C8.54555787 16.42563338 8.53825211 17.88134544 8.52148438 19.33691406 C8.5000584 21.55645045 8.52130772 23.77275096 8.546875 25.9921875 C8.54423158 27.41146543 8.53910629 28.83074135 8.53125 30.25 C8.52673828 31.53261719 8.52222656 32.81523438 8.51757812 34.13671875 C7.91623055 38.11695894 6.85198875 39.77008958 4 42.5625 C0.3102058 43.81860015 -1.26386829 43.90602813 -4.8125 42.25 C-7 40.5625 -7 40.5625 -8 38.5625 C-8.13507003 36.0559729 -8.21257842 33.57846679 -8.23828125 31.0703125 C-8.246353 30.32796356 -8.25442474 29.58561462 -8.26274109 28.82077026 C-8.27657717 27.24886407 -8.28730146 25.67692788 -8.29516602 24.10498047 C-8.31238512 21.7035217 -8.3562728 19.30343782 -8.40039062 16.90234375 C-8.41051729 15.37501012 -8.41903348 13.84766479 -8.42578125 12.3203125 C-8.44328934 11.60352325 -8.46079742 10.88673401 -8.47883606 10.14822388 C-8.463787 6.68144931 -8.25313824 4.88856701 -6.09838867 2.11303711 C-3.83849739 0.44316282 -2.77738225 -0.00542457 0 0 Z " fill="#010100" transform="translate(240,27.4375)"/>
</svg>
