<?xml version="1.0" encoding="UTF-8"?>
<svg version="1.1" xmlns="http://www.w3.org/2000/svg" width="256" height="256">
<path d="M0 0 C58.08 0 116.16 0 176 0 C176 11.88 176 23.76 176 36 C171.71 39.3 167.42 42.6 163 46 C153.68995926 57.14582343 149.52373353 67.90506588 146 82 C97.82 82 49.64 82 0 82 C0 54.94 0 27.88 0 0 Z M31.1875 20.0625 C28.63447788 22.82707168 28.63447788 22.82707168 29.21777344 26.25537109 C30.40359242 31.93205386 32.44576437 37.23864981 34.50048828 42.64355469 C35.24871822 44.62161143 35.97432543 46.60704169 36.69921875 48.59375 C37.17832892 49.86769926 37.65875407 51.14115493 38.140625 52.4140625 C38.78306152 54.13036865 38.78306152 54.13036865 39.43847656 55.88134766 C41.18000214 59.3594977 43.02241419 61.51134929 46 64 C49.1154892 64.41142752 49.1154892 64.41142752 52 63 C56.37026655 57.2488377 58.6058576 50.76867252 61.05639648 44.05957031 C61.81267477 41.99952393 62.59210389 39.94924035 63.37304688 37.8984375 C63.86080902 36.5786541 64.3471853 35.2583575 64.83203125 33.9375 C65.27264893 32.75027344 65.7132666 31.56304687 66.16723633 30.33984375 C67.06427332 26.74222836 66.9793877 24.55225695 66 21 C64.42304368 18.9214392 64.42304368 18.9214392 62 18 C58.94109858 17.75949193 58.94109858 17.75949193 56 19 C52.04532136 23.63262355 49 29.82768305 49 36 C48.34 36 47.68 36 47 36 C46.80857422 34.92105469 46.80857422 34.92105469 46.61328125 33.8203125 C46.00926212 31.04259396 45.20532934 28.52703342 44.1875 25.875 C43.87167969 25.02679688 43.55585937 24.17859375 43.23046875 23.3046875 C41.80980579 20.64376323 40.61752255 19.48052107 38 18 C33.95631973 17.60575756 33.95631973 17.60575756 31.1875 20.0625 Z M83.29150391 19.98828125 C80.43407582 23.74379296 80.27433457 26.6471498 80.3359375 31.1875 C80.33115387 31.96762451 80.32637024 32.74774902 80.32144165 33.55151367 C80.31804992 35.19549586 80.32720169 36.83954615 80.34814453 38.48339844 C80.37492608 40.99307295 80.348378 43.49827629 80.31640625 46.0078125 C80.31971048 47.60938482 80.32611701 49.21095438 80.3359375 50.8125 C80.32581635 51.55846436 80.31569519 52.30442871 80.30526733 53.07299805 C80.39397557 57.03669756 80.88048014 58.84677579 83.34619141 62.0078125 C85.8636626 64.30168744 85.8636626 64.30168744 89.125 64.0625 C92.52302087 62.80670968 93.26223057 62.1407479 95 59 C95.31646587 56.22705978 95.4680063 53.68356971 95.46875 50.91015625 C95.47636353 50.12861679 95.48397705 49.34707733 95.49182129 48.54185486 C95.50260721 46.89194934 95.5054815 45.24197564 95.50097656 43.59204102 C95.50000439 41.07386904 95.5416329 38.55874763 95.5859375 36.04101562 C95.5911451 34.43490216 95.59383268 32.82877815 95.59375 31.22265625 C95.61014526 30.47355484 95.62654053 29.72445343 95.64343262 28.95265198 C95.5915534 25.0084561 95.12239864 23.16129496 92.71289062 19.98608398 C88.93776104 17.22234396 87.06382415 17.2190568 83.29150391 19.98828125 Z M110.625 20.3359375 C108.73912628 22.92474375 108.73912628 22.92474375 108.9375 26.125 C110.17097584 29.4626405 110.79408397 30.4814082 114 32 C116.33290014 32.04495953 118.66717997 32.04894028 121 32 C120.97381592 32.79172607 120.94763184 33.58345215 120.9206543 34.39916992 C120.81655878 37.99507717 120.751631 41.59066731 120.6875 45.1875 C120.64560547 46.43337891 120.60371094 47.67925781 120.56054688 48.96289062 C120.14605788 56.21233265 120.14605788 56.21233265 123.32421875 62.359375 C125.92109281 64.26183793 125.92109281 64.26183793 129.125 64.0625 C132.47221922 62.8254842 133.24372139 62.05322774 135 59 C135.41222764 56.00236603 135.41222764 56.00236603 135.29296875 52.703125 C135.28330078 51.49785156 135.27363281 50.29257813 135.26367188 49.05078125 C135.23853516 47.79652344 135.21339844 46.54226562 135.1875 45.25 C135.17396484 43.98027344 135.16042969 42.71054688 135.14648438 41.40234375 C135.1111324 38.26780156 135.06178248 35.13411455 135 32 C136.093125 32.04382813 137.18625 32.08765625 138.3125 32.1328125 C142.11048945 32.33341591 142.11048945 32.33341591 145 29.875 C147.28581713 27.15594824 147.28581713 27.15594824 147.0625 23.875 C145.82444644 20.52497272 145.04969534 19.76660545 142 18 C137.37874642 17.34107965 132.72570838 17.49060311 128.0625 17.5 C126.78697266 17.47164062 125.51144531 17.44328125 124.19726562 17.4140625 C116.85336063 17.09525635 116.85336063 17.09525635 110.625 20.3359375 Z " fill="#000000" transform="translate(0,119)"/>
<path d="M0 0 C31.68 0 63.36 0 96 0 C96 3.3 96 6.6 96 10 C96.69746338 10.25958496 97.39492676 10.51916992 98.11352539 10.78662109 C103.17636188 12.91487089 107.84886785 15.78076846 112.58325195 18.54736328 C113.81343357 19.26231017 115.04781125 19.97008818 116.28637695 20.67041016 C124.78904089 25.47956309 131.15448333 29.92094166 135.375 38.9375 C136 42 136 42 136 51 C77.92 51 19.84 51 -40 51 C-40 37.38333962 -40 37.38333962 -36 32 C-30.34737894 26.5136325 -23.80635391 22.65929585 -17.04614258 18.71142578 C-15.16941153 17.61442681 -13.30024598 16.50530384 -11.43164062 15.39453125 C-2.28153868 10 -2.28153868 10 0 10 C0 6.7 0 3.4 0 0 Z " fill="#000000" transform="translate(40,54)"/>
<path d="M0 0 C10.23906578 7.73254248 18.72711365 17.59665562 20.6875 30.6875 C22.11678455 48.13329299 19.50517553 61.04058775 8.03125 74.65234375 C0.02533375 83.28136197 -10.26078398 88.35475631 -21.96875 89.00390625 C-38.65548452 89.56319388 -50.64291019 85.89777041 -63.0625 74.375 C-73.05541038 63.81645319 -75.82689781 52.26922077 -75.73217773 38.15722656 C-75.32139743 24.03483761 -69.475381 12.95884274 -59.25 3.28125 C-42.59283172 -10.42061423 -18.05009418 -11.9794347 0 0 Z M-48.6171875 23.421875 C-53.05384463 29.35104812 -55.05849244 35.78302563 -54.6875 43.1796875 C-53.38165589 51.91251998 -49.3722362 58.40486981 -42.3125 63.6875 C-35.95611059 67.36423505 -29.59827084 68.71435361 -22.3125 67.6875 C-18.56165695 66.64403238 -14.30561827 65.17545697 -12.3125 61.6875 C-12.15224601 58.14171315 -12.15224601 58.14171315 -13.3125 54.6875 C-15.45548293 52.53495634 -15.45548293 52.53495634 -18.3125 51.6875 C-20.70638923 51.96552838 -20.70638923 51.96552838 -23.3125 52.6875 C-28.15694715 53.07197993 -30.34924028 53.186968 -34.6875 50.9375 C-38.64970871 47.5413211 -39.18260792 46.02971819 -39.6875 40.8125 C-39.57485068 36.49964034 -38.13867939 33.98470929 -35.3125 30.6875 C-31.80529395 27.9318381 -27.58127167 28.36307335 -23.3125 28.6875 C-22.425625 28.914375 -21.53875 29.14125 -20.625 29.375 C-18.19470148 29.88572187 -18.19470148 29.88572187 -15.5625 28.6875 C-13.03334592 26.76462891 -13.03334592 26.76462891 -12.125 23.3125 C-11.93325436 19.47440647 -11.93325436 19.47440647 -15 16.8125 C-26.2424196 9.60038177 -40.10830246 14.12066463 -48.6171875 23.421875 Z " fill="#000000" transform="translate(235.3125,167.3125)"/>
<path d="M0 0 C1.0094165 -0.0112793 2.01883301 -0.02255859 3.05883789 -0.03417969 C4.16026123 -0.02608276 5.26168457 -0.01798584 6.39648438 -0.00964355 C7.56107178 -0.01665283 8.72565918 -0.02366211 9.92553711 -0.03088379 C13.78067771 -0.04850975 17.63508612 -0.03682384 21.49023438 -0.02331543 C24.1653739 -0.026009 26.84049107 -0.02988396 29.515625 -0.03491211 C35.12442987 -0.0421874 40.733024 -0.03260414 46.34179688 -0.0135498 C52.82441344 0.008219 59.30652679 0.00116752 65.78913116 -0.02085543 C71.35700027 -0.03901302 76.92471797 -0.04156609 82.49260712 -0.03110075 C85.81719107 -0.02486765 89.14148689 -0.02559741 92.46606445 -0.0372467 C96.17238595 -0.04738291 99.87773545 -0.03195028 103.58398438 -0.00964355 C104.68540771 -0.01774048 105.78683105 -0.0258374 106.92163086 -0.03417969 C108.43575562 -0.01726074 108.43575562 -0.01726074 109.98046875 0 C110.85650757 0.0015081 111.73254639 0.0030162 112.63513184 0.00457001 C115.79855594 0.68070005 117.00460112 2.00367864 118.99023438 4.50793457 C119.52368164 7.72839355 119.52368164 7.72839355 119.55664062 11.50402832 C119.5628392 12.17458755 119.56903778 12.84514679 119.57542419 13.536026 C119.58250965 14.95055697 119.57937035 16.36517156 119.56665039 17.77966309 C119.55279433 19.93610308 119.58684595 22.08818991 119.625 24.2442627 C119.62595144 25.62251896 119.62409103 27.00078062 119.61914062 28.37902832 C119.62022827 30.24965942 119.62022827 30.24965942 119.62133789 32.15808105 C118.77886914 36.62984652 117.66136396 37.80671748 113.99023438 40.50793457 C110.2210161 41.25607037 106.50236644 41.19090422 102.66992188 41.15490723 C100.95449188 41.16804962 100.95449188 41.16804962 99.20440674 41.18145752 C95.42429664 41.20346325 91.64535637 41.18889297 87.86523438 41.17199707 C85.23876725 41.17536482 82.61230163 41.18021709 79.98583984 41.18649292 C74.4813164 41.1955821 68.97712869 41.18362124 63.47265625 41.15979004 C57.11433697 41.13257955 50.75681937 41.14139428 44.39851952 41.16892207 C38.2747067 41.19437054 32.15124851 41.19164608 26.02740479 41.1770134 C23.42466113 41.17367606 20.82189704 41.17777786 18.21917725 41.18941116 C14.58241447 41.20209865 10.94719462 41.18276861 7.31054688 41.15490723 C5.69421356 41.17008896 5.69421356 41.17008896 4.04522705 41.18557739 C-3.22924653 41.08224051 -3.22924653 41.08224051 -7.17784119 38.17686462 C-9.54621562 34.72638076 -9.64109464 32.54591571 -9.63867188 28.37902832 C-9.64108383 27.70751236 -9.64349579 27.0359964 -9.64598083 26.34413147 C-9.64500553 24.9313056 -9.63168703 23.51844001 -9.60668945 22.10583496 C-9.57229902 19.94753023 -9.58605895 17.79330714 -9.60546875 15.6348877 C-9.59857143 14.25791722 -9.58890006 12.88095725 -9.57617188 11.50402832 C-9.56529541 10.25806885 -9.55441895 9.01210937 -9.54321289 7.72839355 C-8.60910027 2.08908938 -5.5552376 0.00956335 0 0 Z " fill="#000000" transform="translate(33.009765625,-0.5079345703125)"/>
<path d="M0 0 C48.18 0 96.36 0 146 0 C147.98 7.425 147.98 7.425 150 15 C151.703554 19.04590574 151.703554 19.04590574 153.625 22.1875 C154.21539062 23.21230469 154.80578125 24.23710937 155.4140625 25.29296875 C155.93742188 26.18628906 156.46078125 27.07960937 157 28 C157.67979146 29.32668979 158.35263143 30.65719094 159 32 C157.27203171 33.72796829 154.95030173 33.14110198 152.59413147 33.15390015 C151.42081268 33.16250061 150.2474939 33.17110107 149.03862 33.17996216 C147.73947159 33.18422211 146.44032318 33.18848206 145.10180664 33.19287109 C143.72873729 33.20076937 142.35567003 33.20903815 140.98260498 33.21765137 C136.4584757 33.2439228 131.93433698 33.25919293 127.41015625 33.2734375 C125.85238578 33.27879676 124.29461536 33.28417427 122.73684502 33.28956985 C116.25245116 33.311214 109.76805983 33.3299468 103.28363895 33.34119225 C93.99776137 33.35740155 84.71230431 33.39048762 75.42658526 33.44759309 C68.89567731 33.48638121 62.36488136 33.5058359 55.83386129 33.51111281 C51.93550332 33.51475675 48.03759331 33.52667319 44.13936043 33.55921555 C40.46449688 33.58944977 36.79034859 33.59555424 33.11538696 33.58383179 C31.13723522 33.58350828 29.15912664 33.60787641 27.18113708 33.63320923 C19.47101695 33.57970406 13.35795036 32.59810772 7 28 C-1.58107749 18.80565698 0 14.30709681 0 0 Z " fill="#000000" transform="translate(0,215)"/>
</svg>
